<svg width="80" height="80" viewBox="0 0 80 80" fill="none" xmlns="http://www.w3.org/2000/svg">
<circle cx="40" cy="40" r="40" fill="#73BE5F"/>
<path fill-rule="evenodd" clip-rule="evenodd" d="M45.2719 17.0977C45.9295 17.0977 46.5482 17.2964 47.0665 17.6364C47.5992 17.9867 48.0253 18.4866 48.2814 19.0746C48.4166 19.386 48.562 19.6011 48.7341 19.6892C48.8857 19.767 49.1049 19.7506 49.4163 19.6175C50.0227 19.3593 50.6947 19.2897 51.3338 19.4126C51.9566 19.5314 52.5528 19.8305 53.0301 20.3099C53.0404 20.3201 53.0486 20.3283 53.0567 20.3386C53.5074 20.8016 53.7942 21.367 53.9172 21.9611C54.0462 22.5839 53.993 23.2374 53.7594 23.8356C53.6365 24.1511 53.5853 24.4072 53.6447 24.5916C53.698 24.7534 53.8618 24.8968 54.1753 25.0218L54.1999 25.032C54.8042 25.2779 55.3164 25.6978 55.6769 26.2284C56.0334 26.7549 56.2423 27.3879 56.2423 28.066C56.2423 28.7441 56.0334 29.3772 55.6769 29.9037C55.3123 30.4424 54.7899 30.8665 54.1753 31.1103C53.8618 31.2353 53.6979 31.3787 53.6447 31.5405C53.5853 31.7249 53.6344 31.981 53.7594 32.2965C53.9929 32.8926 54.0462 33.5482 53.9171 34.171C53.868 34.4086 53.7922 34.6421 53.6918 34.8654L56.9368 40.487C57.0188 40.6284 57.0577 40.7841 57.0557 40.9418V40.9562C57.0495 41.1098 57.0044 41.2594 56.9205 41.3925C56.8324 41.5298 56.7115 41.6384 56.5701 41.708C56.4288 41.7777 56.271 41.8084 56.1092 41.7961L53.11 41.5441L51.8316 44.2647C51.762 44.4143 51.6554 44.5372 51.5243 44.6232C51.3952 44.7093 51.2436 44.7584 51.0777 44.7666C50.9118 44.7728 50.7561 44.7359 50.6188 44.6622C50.4816 44.5864 50.3668 44.4757 50.2849 44.3323C50.2787 44.3241 50.2746 44.3139 50.2705 44.3057L46.9579 38.5677C46.4642 38.8647 45.8885 39.0368 45.276 39.0368C44.6635 39.0368 44.0878 38.8647 43.5941 38.5677L40.267 44.3303C40.1831 44.4737 40.0683 44.5864 39.9331 44.6622C39.7959 44.738 39.6402 44.7749 39.4763 44.7667C39.3103 44.7606 39.1587 44.7093 39.0276 44.6233C38.8965 44.5373 38.792 44.4143 38.7203 44.2648L37.442 41.5442L34.4427 41.7962C34.2809 41.8105 34.1232 41.7777 33.9818 41.7081C33.8404 41.6384 33.7196 41.5299 33.6315 41.3926C33.5454 41.2553 33.4983 41.0996 33.4963 40.9419C33.4922 40.8005 33.525 40.6592 33.5926 40.5281C33.5987 40.5137 33.6069 40.5014 33.613 40.4871L36.8581 34.8655C36.7577 34.6422 36.6819 34.4087 36.6327 34.171C36.5037 33.5482 36.5569 32.8947 36.7905 32.2965C36.9134 31.981 36.9646 31.725 36.9052 31.5406C36.8519 31.3787 36.688 31.2353 36.3746 31.1104L36.35 31.1001C35.7478 30.8543 35.2335 30.4343 34.873 29.9037C34.5165 29.3773 34.3076 28.7442 34.3076 28.0661C34.3076 27.388 34.5165 26.755 34.873 26.2285C35.2376 25.6897 35.76 25.2657 36.3746 25.0218C36.6881 24.8969 36.852 24.7535 36.9052 24.5916C36.9646 24.4073 36.9155 24.1512 36.7905 23.8357C36.5569 23.2395 36.5037 22.584 36.6327 21.9612C36.7577 21.3527 37.0548 20.7771 37.5198 20.31C37.9992 19.8306 38.5933 19.5315 39.2161 19.4127C39.8553 19.2898 40.5272 19.3595 41.1336 19.6176C41.445 19.7507 41.6642 19.7671 41.8158 19.6893C41.9879 19.6012 42.1333 19.3861 42.2685 19.0747C42.5246 18.4867 42.9508 17.9869 43.4834 17.6365C43.9976 17.2965 44.6143 17.0977 45.2719 17.0977ZM42.8422 37.9509C42.6046 37.6887 42.4079 37.3875 42.2645 37.0597C42.1293 36.7484 41.9838 36.5332 41.8118 36.4451C41.6602 36.3673 41.4409 36.3837 41.1295 36.5168C40.5232 36.775 39.8512 36.8446 39.212 36.7217C38.5893 36.6029 37.9931 36.3038 37.5158 35.8244C37.4932 35.8019 37.4707 35.7794 37.4482 35.7568L34.5207 40.8293L37.4154 40.5855C37.5957 40.5691 37.7718 40.6121 37.9234 40.7002H37.9255C38.075 40.7862 38.198 40.9194 38.2779 41.0874L39.5132 43.7158L42.8422 37.9509ZM53.0958 35.7548C53.0733 35.7773 53.0507 35.7998 53.0282 35.8224C52.5488 36.3017 51.9547 36.6009 51.3319 36.7196C50.6927 36.8426 50.0208 36.7729 49.4144 36.5148C49.103 36.3816 48.8859 36.3652 48.7322 36.4431C48.5601 36.5312 48.4146 36.7463 48.2794 37.0577C48.136 37.3855 47.9394 37.6866 47.7017 37.9488L51.0287 43.7094L52.2641 41.081C52.3419 40.9151 52.4669 40.7819 52.6185 40.6938C52.7701 40.6057 52.9463 40.5648 53.1265 40.5791L56.0212 40.8229L53.0958 35.7548ZM41.6297 59.9902C41.6051 59.9861 41.5805 59.982 41.556 59.9738C40.4476 59.644 39.4028 59.3121 38.0794 58.8593C36.8175 58.4271 35.281 57.8801 33.1606 57.1036L31.7942 57.8923L32.2838 58.7405C32.4149 58.9699 32.3371 59.2608 32.1097 59.394L27.5392 62.0326C27.3097 62.1658 27.0168 62.0879 26.8836 61.8585L21.004 51.6747C20.8708 51.4452 20.9487 51.1523 21.1781 51.0191C21.1863 51.013 21.1966 51.0089 21.2048 51.0048L25.7507 48.3805C25.9802 48.2494 26.2731 48.3272 26.4042 48.5567L26.8918 49.4028L30.2126 47.4853L30.229 47.475C31.1898 46.8891 32.21 46.545 33.2856 46.4425C34.2402 46.3503 35.2359 46.4507 36.2704 46.7416L36.2889 46.7457L43.5163 48.6939C44.1125 48.8537 44.5878 49.243 44.8746 49.7387C44.8807 49.749 44.8869 49.7592 44.891 49.7695C45.1655 50.2611 45.2556 50.8532 45.0999 51.4371C44.977 51.898 44.7168 52.2872 44.3747 52.572L45.0528 52.7543L56.3102 46.248H56.3122C57.2443 45.7092 58.1539 45.9243 58.8177 46.4836C59.0635 46.6905 59.2725 46.9445 59.4343 47.2211C59.5962 47.4997 59.7109 47.805 59.7683 48.1184C59.9219 48.9563 59.6699 49.8269 58.7972 50.3411L48.0543 58.5011L48.0359 58.5175C47.1304 59.2406 46.1368 59.7241 45.0572 59.9679C43.9919 60.2096 42.8487 60.2176 41.6297 59.9902ZM31.3148 57.0647L32.8533 56.1777C32.9742 56.0978 33.1319 56.0752 33.2794 56.1285C35.4715 56.9295 37.0592 57.4991 38.3867 57.9518C39.6856 58.3964 40.716 58.7221 41.81 59.0499C42.8998 59.2527 43.9119 59.2466 44.8461 59.0356C45.6922 58.843 46.4788 58.4804 47.2102 57.9437L47.3905 57.8064L47.4376 57.7675C47.4499 57.7572 47.4622 57.749 47.4745 57.7408L58.2504 49.5605C58.2668 49.5482 58.2831 49.5379 58.2995 49.5277C58.7789 49.2511 58.9141 48.7676 58.8281 48.2964C58.7912 48.0936 58.7154 47.8928 58.6068 47.7064C58.4982 47.52 58.361 47.352 58.2053 47.2209C57.8283 46.9033 57.3162 46.7804 56.7938 47.0816L45.3623 53.6865C45.2476 53.7521 45.1165 53.7664 44.9977 53.7357L42.3569 53.0248L38.5649 52.0087C38.3088 51.9411 38.1572 51.6768 38.2248 51.4207C38.2924 51.1646 38.5567 51.013 38.8128 51.0806L42.5987 52.0947L42.6028 52.0968C42.9347 52.1849 43.2727 52.1357 43.5534 51.98L43.5738 51.9677C43.8565 51.8038 44.0798 51.5334 44.17 51.1953L44.172 51.1912C44.2601 50.8594 44.211 50.5214 44.0553 50.2407L44.043 50.2202C43.8791 49.9354 43.6066 49.7121 43.2665 49.622L36.4607 47.7864C36.4218 47.7844 36.3829 47.7762 36.3439 47.7639C36.2579 47.7372 36.1739 47.7106 36.0899 47.686L36.0428 47.6737C36.0305 47.6696 36.0202 47.6676 36.008 47.6635C35.0881 47.4054 34.2113 47.3173 33.3755 47.3972C32.5396 47.4771 31.7386 47.7291 30.9765 48.1511L30.7614 48.276L30.7286 48.2965C30.7163 48.3027 30.7041 48.3109 30.6938 48.317L27.373 50.2345L31.3148 57.0647ZM26.31 50.3082L26.3018 50.2959L26.2956 50.2857L25.8142 49.4519L22.0734 51.6112L27.4737 60.9653L31.2145 58.806L26.31 50.3082ZM45.9299 24.9074C45.8623 24.7865 45.7661 24.6902 45.6534 24.6247C45.5387 24.557 45.4096 24.5222 45.2723 24.5222C45.1371 24.5222 45.0081 24.5591 44.8913 24.6247C44.7766 24.6902 44.6823 24.7865 44.6147 24.9053L43.8034 26.3353L42.1932 26.6651C42.058 26.6918 41.9371 26.7532 41.8409 26.8393C41.7425 26.9273 41.6688 27.04 41.6257 27.1711C41.5868 27.292 41.5786 27.4149 41.5991 27.5317C41.6012 27.5419 41.6032 27.5522 41.6053 27.5624C41.6319 27.6894 41.6954 27.8083 41.7896 27.9127L42.898 29.1255L42.7136 30.7624C42.6992 30.8997 42.7197 31.0308 42.773 31.1516C42.8263 31.2725 42.9103 31.377 43.0229 31.4589V31.4569C43.1356 31.5388 43.2606 31.586 43.3917 31.5982C43.5248 31.6105 43.656 31.5901 43.7809 31.5347L45.2785 30.8546L46.7515 31.5224L46.7761 31.5347C46.899 31.59 47.0321 31.6126 47.1653 31.5982C47.278 31.588 47.3845 31.5511 47.4849 31.4896C47.5013 31.4794 47.5197 31.4692 47.5361 31.4569C47.6488 31.3749 47.7328 31.2704 47.786 31.1496C47.8393 31.0287 47.8598 30.8976 47.8454 30.7603L47.6611 29.1235L48.7448 27.9373C48.753 27.9291 48.7632 27.9209 48.7714 27.9107C48.8554 27.8185 48.9148 27.7099 48.9456 27.5952C48.9497 27.5849 48.9517 27.5726 48.9538 27.5624C48.9783 27.4456 48.9763 27.3227 48.9415 27.2039C48.9394 27.1916 48.9353 27.1814 48.9312 27.1691C48.8882 27.04 48.8144 26.9273 48.7161 26.8392C48.6178 26.7511 48.4969 26.6897 48.3637 26.663L46.7535 26.3332L45.9299 24.9074ZM45.9545 26.8904L45.2744 25.6899L44.5942 26.8904C44.545 26.9744 44.4856 27.0482 44.4119 27.1055C44.4016 27.1137 44.3914 27.1219 44.3811 27.1301C44.2951 27.1916 44.1968 27.2346 44.0882 27.2571L42.7361 27.5337L43.6437 28.5252C43.6519 28.5334 43.6621 28.5416 43.6703 28.5519C43.744 28.6318 43.7973 28.726 43.8321 28.8284C43.8649 28.9309 43.8752 29.0374 43.8629 29.1439L43.7092 30.5145L44.9671 29.9429C45.0674 29.8978 45.1719 29.8733 45.2785 29.8733C45.385 29.8733 45.4895 29.8958 45.5899 29.9429L46.8456 30.5145L46.692 29.1439C46.6818 29.0497 46.6879 28.9554 46.7125 28.8632C46.7145 28.851 46.7186 28.8387 46.7227 28.8264C46.7555 28.7239 46.8108 28.6317 46.8846 28.5498H46.8866L47.8187 27.5316L46.4666 27.2551C46.356 27.2325 46.2577 27.1895 46.1737 27.1281C46.0815 27.0686 46.0098 26.9888 45.9545 26.8904ZM45.2723 21.5557C43.4757 21.5557 41.847 22.285 40.6691 23.463C39.4911 24.6409 38.7618 26.2696 38.7618 28.0662C38.7618 29.865 39.4911 31.4915 40.6691 32.6695C41.847 33.8475 43.4757 34.5768 45.2723 34.5768C47.071 34.5768 48.6976 33.8475 49.8756 32.6695C51.0536 31.4915 51.7829 29.8629 51.7829 28.0662C51.7829 26.2675 51.0536 24.6409 49.8756 23.463C48.6976 22.285 47.071 21.5557 45.2723 21.5557ZM49.1975 24.1431C48.1937 23.1393 46.8068 22.5185 45.2744 22.5185C43.742 22.5185 42.3551 23.1393 41.3512 24.1431C40.3474 25.147 39.7266 26.5339 39.7266 28.0663C39.7266 29.5987 40.3474 30.9856 41.3512 31.9895C42.3551 32.9933 43.742 33.614 45.2744 33.614C46.8068 33.614 48.1937 32.9933 49.1975 31.9895C50.2014 30.9856 50.8221 29.5987 50.8221 28.0663C50.8221 26.5339 50.2014 25.147 49.1975 24.1431ZM46.5404 18.4376C46.1778 18.2 45.7415 18.0607 45.2723 18.0607C44.8032 18.0607 44.3668 18.2 44.0042 18.4376C43.6272 18.6855 43.3261 19.0399 43.1417 19.4599C42.9205 19.968 42.6398 20.3429 42.2465 20.5436C41.8347 20.7546 41.3513 20.7567 40.753 20.5026C40.3228 20.3183 39.8455 20.2711 39.3907 20.3572C38.9522 20.4412 38.5323 20.6522 38.1943 20.9923C37.8624 21.3241 37.6535 21.7297 37.5653 22.1538C37.4732 22.5963 37.5121 23.0614 37.678 23.4875C37.8808 24.0017 37.9464 24.4667 37.8112 24.8847C37.6698 25.3251 37.3277 25.6693 36.7254 25.911H36.7234C36.2891 26.0831 35.9182 26.3843 35.6601 26.7653C35.4102 27.1341 35.2648 27.5827 35.2648 28.0662C35.2648 28.5497 35.4102 28.9983 35.6601 29.3671C35.9142 29.742 36.2768 30.039 36.7029 30.2132L36.7275 30.2214C37.3318 30.4631 37.6719 30.8073 37.8133 31.2498C37.9485 31.6698 37.8829 32.1328 37.6801 32.647C37.5142 33.0711 37.4752 33.5381 37.5674 33.9807C37.6555 34.4047 37.8645 34.8124 38.1964 35.1422C38.5364 35.4823 38.9543 35.6933 39.3927 35.7773C39.8475 35.8633 40.3248 35.8162 40.7551 35.6318C41.3512 35.3778 41.8347 35.3798 42.2486 35.5909C42.6419 35.7916 42.9226 36.1665 43.1438 36.6746C43.2831 36.9942 43.4941 37.2789 43.7523 37.5043L43.7584 37.5104C43.8363 37.578 43.9182 37.6395 44.0043 37.6968C44.3669 37.9345 44.8032 38.0738 45.2724 38.0738C45.7415 38.0738 46.1779 37.9345 46.5405 37.6968C46.6266 37.6395 46.7085 37.578 46.7864 37.5104L46.7945 37.5022C47.0527 37.2769 47.2616 36.9942 47.4009 36.6746C47.6222 36.1665 47.9028 35.7916 48.2962 35.5909C48.7079 35.3798 49.1914 35.3778 49.7896 35.6318C50.2199 35.8162 50.6972 35.8633 51.152 35.7773C51.5904 35.6933 52.0104 35.4823 52.3505 35.1422C52.6824 34.8103 52.8913 34.4047 52.9794 33.9807C53.0716 33.5382 53.0327 33.0731 52.8667 32.647C52.6639 32.1307 52.5984 31.6677 52.7336 31.2498C52.8749 30.8093 53.217 30.4652 53.8193 30.2214H53.8214C54.2557 30.0493 54.6265 29.7482 54.8846 29.3671C55.1345 28.9984 55.282 28.5497 55.282 28.0662C55.282 27.5827 55.1366 27.1341 54.8846 26.7653C54.6306 26.3904 54.268 26.0934 53.8439 25.9192L53.8193 25.911C53.215 25.6693 52.8749 25.3251 52.7335 24.8847C52.5983 24.4647 52.6639 24.0017 52.8667 23.4875C53.0326 23.0614 53.0716 22.5963 52.9794 22.1538C52.8933 21.7359 52.6905 21.3384 52.375 21.0127C52.3668 21.0066 52.3587 20.9984 52.3505 20.9902C52.0104 20.6501 51.5925 20.4391 51.152 20.3551C50.6972 20.2691 50.2199 20.3162 49.7896 20.5006C49.1935 20.7566 48.71 20.7525 48.2961 20.5415C47.9028 20.3408 47.6221 19.9658 47.4009 19.4578C47.2206 19.0399 46.9174 18.6855 46.5404 18.4376Z" fill="white"/>
</svg>
