<svg width="80" height="80" viewBox="0 0 80 80" fill="none" xmlns="http://www.w3.org/2000/svg">
<circle cx="40" cy="40" r="40" fill="#73BE5F"/>
<path fill-rule="evenodd" clip-rule="evenodd" d="M51.6163 37.4868C53.8959 37.4868 56.0393 38.5639 57.3906 40.387C58.7418 42.2101 59.1415 44.5619 58.4677 46.7249C57.792 48.8881 56.1236 50.6026 53.9712 51.3469C55.378 51.833 56.5985 52.7427 57.4623 53.948C58.3261 55.1551 58.7902 56.5972 58.792 58.0784V58.1888L58.7669 58.2511L58.7616 58.26L58.758 58.2689L58.7419 58.2956L58.715 58.3312L58.7078 58.3384L58.7024 58.3455L58.6666 58.3811L58.6307 58.4078L58.6218 58.4131L58.6146 58.4185L58.5877 58.4345L58.516 58.463H58.4981L58.4892 58.4648H58.4408L49.2311 58.4612C48.844 59.9514 47.4945 60.9947 45.9444 61H22.3367C20.4711 60.9964 18.9567 59.4974 18.946 57.644V33.8404C18.9406 33.244 19.0607 32.6547 19.299 32.1081C19.3169 32.0654 19.3367 32.0245 19.3582 31.9817C19.3653 31.9622 19.3743 31.9426 19.385 31.9248C19.6252 31.453 19.9496 31.0293 20.342 30.675L29.464 22.3216C29.8225 21.9886 30.2347 21.718 30.6827 21.5222C30.6988 21.5151 30.7167 21.508 30.7328 21.5026C30.7615 21.4901 30.792 21.4777 30.8207 21.467C31.3243 21.2729 31.8619 21.1768 32.4013 21.1821H45.9446C47.8156 21.1857 49.33 22.6919 49.3353 24.5506V25.8574C49.407 25.8253 49.4769 25.7897 49.5468 25.7541C50.4554 25.2912 51.2493 24.6325 51.8676 23.8242C52.1651 23.4556 52.3246 22.9928 52.3156 22.5192V21.6824C52.2816 21.013 52.6723 20.3935 53.2959 20.1335C53.7189 19.9555 54.1974 19.9555 54.6203 20.1335C55.2422 20.3935 55.6346 21.013 55.5988 21.6824V23.2509C55.5988 23.2652 55.5988 23.2794 55.597 23.2936C55.5863 23.8349 55.5128 24.3743 55.3784 24.8995C55.2959 25.2128 55.1902 25.5209 55.063 25.8217H57.4608C58.106 25.8199 58.6867 26.2063 58.934 26.7973C59.1795 27.3884 59.0433 28.0703 58.5863 28.5207C58.4501 28.6578 58.2888 28.7682 58.1113 28.8483C58.5755 29.4768 58.5092 30.3491 57.9518 30.8993C57.8156 31.0363 57.6544 31.1467 57.4769 31.2251C57.7619 31.6114 57.8551 32.1046 57.7314 32.5657C57.6077 33.0286 57.2816 33.4096 56.8425 33.6054C57.1973 34.0861 57.2493 34.7252 56.9769 35.2558C56.7063 35.7881 56.1579 36.1228 55.5575 36.1228H50.8444C50.8211 36.1228 50.7978 36.121 50.7745 36.1157L49.3355 35.9643V37.8551C50.072 37.6094 50.8427 37.4847 51.6187 37.4865L51.6163 37.4868ZM55.5572 33.7445H54.222C54.0034 33.7445 53.826 33.5682 53.826 33.351C53.826 33.1338 54.0034 32.9576 54.222 32.9576H56.1952H56.1934C56.6378 32.9576 56.9963 32.6015 56.9963 32.16C56.9963 31.7202 56.6378 31.3624 56.1934 31.3624H54.6163C54.3977 31.3624 54.2203 31.1879 54.2203 30.9707C54.2203 30.7535 54.3977 30.5772 54.6163 30.5772H56.8278C57.2704 30.5772 57.6307 30.2194 57.6307 29.7796C57.6307 29.3399 57.2704 28.982 56.8278 28.982H55.6773C55.4586 28.982 55.2812 28.8058 55.2812 28.5886C55.2812 28.3714 55.4586 28.1969 55.6773 28.1969H57.4622H57.4604C57.9049 28.1969 58.2633 27.839 58.2633 27.3993C58.2633 26.9578 57.9049 26.6017 57.4604 26.6017H52.7473C52.5287 26.6017 52.3513 26.4254 52.3513 26.2082C52.3513 25.991 52.5287 25.8148 52.7473 25.8148H54.199C54.3746 25.4569 54.5126 25.0813 54.6147 24.6967C54.7348 24.2303 54.7993 23.7514 54.8083 23.2707V23.2457V21.6826C54.8352 21.3301 54.638 20.9989 54.3137 20.8547C54.0861 20.7621 53.8298 20.7621 53.6004 20.8547C53.2778 20.9989 53.0789 21.3319 53.1076 21.6826V22.5229C53.1147 23.1692 52.8961 23.7994 52.4911 24.3069C51.8011 25.206 50.9176 25.9394 49.905 26.4539C49.6416 26.5875 49.3709 26.705 49.0932 26.8065C49.0824 26.8118 49.0699 26.8154 49.0591 26.8189C48.3907 27.0593 47.6953 27.2195 46.9875 27.2978V34.4854L48.7312 35.1156L48.9516 35.1388C48.9714 35.1388 48.9893 35.1405 49.009 35.1441L50.8549 35.3382H55.5592C56.0019 35.3382 56.3621 34.9803 56.3621 34.5406C56.3621 34.099 56.0019 33.743 55.5592 33.743L55.5572 33.7445ZM46.9495 35.3059C46.8115 35.8346 46.3294 36.2067 45.7792 36.2067H42.6089C41.9422 36.2067 41.4028 35.6691 41.401 35.0068V26.8134C41.4028 26.1511 41.9422 25.6152 42.6089 25.6134H45.781C46.3312 25.6152 46.8115 25.9855 46.9495 26.5143C47.4907 26.4502 48.0248 26.3345 48.5445 26.1671V24.5488C48.5391 23.1245 47.3778 21.9708 45.9441 21.9655H32.4008C32.0119 21.9619 31.6266 22.0224 31.2574 22.1417V29.1492C31.252 31.0079 29.7377 32.5141 27.8667 32.5194H19.9811C19.8144 32.9396 19.732 33.3882 19.7356 33.8404V57.644C19.7409 59.0683 20.9023 60.2219 22.336 60.2273H45.9436C46.5655 60.2273 47.1659 60.0065 47.6372 59.6024C47.9885 59.3015 48.2537 58.9116 48.4043 58.4736H44.8379C44.734 58.4736 44.6336 58.4327 44.5584 58.3597C44.4849 58.2849 44.4437 58.1852 44.4437 58.082C44.4437 56.6007 44.9078 55.1568 45.7716 53.9497C46.6354 52.7445 47.8559 51.8347 49.2627 51.3469C47.4598 50.7238 45.9813 49.4116 45.1534 47.7025C44.3254 45.9933 44.2179 44.0261 44.8541 42.2387C45.4903 40.4494 46.8164 38.986 48.5423 38.1724V35.8793C48.5262 35.8739 48.5118 35.8704 48.4957 35.8633L46.9473 35.3042L46.9495 35.3059ZM45.781 26.3987H42.6089C42.3795 26.4005 42.1931 26.5857 42.1931 26.8135V35.0069C42.1931 35.2348 42.3795 35.42 42.6089 35.4218H45.781C46.0104 35.42 46.1968 35.2348 46.1986 35.0069V26.8135C46.1968 26.5857 46.0104 26.4005 45.781 26.3987ZM36.5892 46.2284L40.5158 52.9848L42.1556 52.0448L38.6323 45.9789C38.5498 45.9878 38.4674 45.9931 38.3849 45.9931H36.8276L36.5892 46.2299L36.5892 46.2284ZM40.5714 53.8608L42.8922 52.5291H42.8904C42.9818 52.4774 43.0499 52.392 43.0768 52.2905C43.1036 52.189 43.0893 52.0822 43.0373 51.9914L39.4065 45.7478C39.6143 45.6409 39.8043 45.5021 39.9692 45.3383C40.3921 44.9199 40.6287 44.352 40.6287 43.7609V42.2173L41.7308 41.1224C42.6054 40.2501 42.6054 38.84 41.7308 37.9659L40.6305 36.8727L40.6287 35.331C40.6269 34.099 39.6215 33.1002 38.3814 33.0984H36.8276L36.2739 32.5483C35.0947 31.3822 33.1878 31.3822 32.0068 32.5483L31.4531 33.0984H30.6699C29.0032 33.102 27.6556 34.4426 27.652 36.0965V36.8745L26.5498 37.9694C25.6753 38.8418 25.6753 40.2518 26.5498 41.1242L27.6502 42.2173V43.7627H27.652C27.652 44.3538 27.8885 44.9199 28.3097 45.3383C28.4764 45.5021 28.6663 45.6409 28.8742 45.7478L25.2434 51.9914C25.1358 52.1783 25.2003 52.4187 25.3885 52.5255L27.6896 53.8447L27.7326 53.8697L30.0122 55.1764C30.0194 55.1818 30.0248 55.1853 30.0319 55.1889C30.2201 55.2975 30.462 55.2334 30.5714 55.0465L34.1413 48.9059L37.7094 55.0447C37.8169 55.2334 38.0588 55.2975 38.247 55.1906L40.5678 53.8607L40.5714 53.8608ZM39.8366 53.3783L36.0158 46.8033L35.7308 47.0864C35.3634 47.4496 34.8813 47.6757 34.3652 47.7255L34.4691 47.9071H34.4709C34.4799 47.9214 34.4889 47.9356 34.496 47.9516L38.195 54.3165L39.8348 53.3765L39.8366 53.3783ZM33.6898 48.1246L33.3905 47.6101C33.0751 47.4997 32.7901 47.3217 32.5554 47.0867L32.2722 46.8036L28.4478 53.3767L30.0858 54.3168L33.6862 48.121L33.6898 48.1246ZM27.7632 52.985L31.6897 46.2286L31.4514 45.9936H29.8976C29.8152 45.9936 29.7327 45.9883 29.6503 45.9794L26.1252 52.0452L27.7632 52.985ZM34.1394 34.9747C31.867 34.9747 29.9118 36.5681 29.4689 38.7829C29.0245 40.9959 30.2163 43.2124 32.3166 44.0757C34.4152 44.941 36.8364 44.211 38.0996 42.3345C39.3613 40.458 39.1139 37.9566 37.5064 36.3598C36.6139 35.4714 35.4028 34.9729 34.1394 34.9747ZM36.9476 36.9152C35.6089 35.5853 33.5085 35.3788 31.9331 36.4239C30.3578 37.4707 29.745 39.4754 30.469 41.2149C31.1948 42.9543 33.055 43.9425 34.9134 43.5757C36.7719 43.2089 38.1106 41.5888 38.1106 39.7052C38.1124 38.6583 37.6932 37.6541 36.9476 36.9152ZM34.496 36.7995V36.8013C34.4315 36.6624 34.2935 36.5752 34.1394 36.5752C33.987 36.5752 33.8472 36.6624 33.7827 36.8013L33.0892 38.2683L31.4691 38.4713L31.4709 38.4695C31.3186 38.4873 31.1913 38.5924 31.143 38.7366C31.0946 38.8808 31.1358 39.0392 31.2469 39.1443L32.4405 40.2534L32.134 41.8469C32.1053 41.9964 32.1645 42.1477 32.2881 42.2385C32.4118 42.3276 32.5767 42.3382 32.7111 42.2635L34.1412 41.4819L35.5713 42.2635C35.7057 42.3382 35.8706 42.3275 35.9943 42.2385C36.1179 42.1477 36.1789 41.9964 36.1502 41.8469L35.8437 40.2534L37.0158 39.1603C37.1377 39.0606 37.1878 38.8968 37.143 38.7473C37.0982 38.5959 36.9674 38.4873 36.8115 38.4677L35.1914 38.2648L34.4979 36.8014L34.496 36.7995ZM34.5677 38.7953L34.1376 37.8873L33.7236 38.7668C33.6716 38.9039 33.548 39.0018 33.4028 39.0196L32.4028 39.1442L33.1268 39.8226C33.2343 39.9134 33.2827 40.0558 33.2558 40.1929L33.0659 41.1774L33.9476 40.695C34.0677 40.6291 34.211 40.6291 34.3311 40.695L35.2164 41.1792L35.0265 40.1947C35.0014 40.0629 35.0444 39.9258 35.143 39.835L35.8777 39.1478L34.8777 39.0232C34.7433 39.0072 34.625 38.9235 34.5677 38.8006L34.5677 38.7953ZM31.616 33.8853H30.6698C29.4404 33.8888 28.4457 34.8787 28.4422 36.0983V37.0383C28.4422 37.1433 28.3992 37.243 28.3257 37.316L27.1106 38.5231C26.5461 39.0893 26.5461 40.0026 27.1106 40.5687L28.3239 41.774C28.3992 41.847 28.4422 41.9485 28.4422 42.0535V43.7609C28.4457 44.5585 29.0945 45.2048 29.8974 45.2066H31.616C31.7218 45.2066 31.8221 45.2493 31.8956 45.3223L33.1107 46.5294C33.6806 47.0902 34.5999 47.0902 35.1698 46.5294L36.3849 45.3241C36.4583 45.2493 36.5605 45.2066 36.6662 45.2066H38.3849C39.1878 45.2048 39.8365 44.5585 39.8401 43.7609V42.0553C39.8401 41.9521 39.8813 41.8524 39.9566 41.7776L41.1716 40.5705C41.738 40.0061 41.738 39.091 41.1716 38.5266L39.9584 37.3214C39.8831 37.2484 39.8401 37.1469 39.8401 37.0418V35.3309C39.8365 34.5351 39.1878 33.8888 38.3849 33.8853H36.6644C36.5587 33.8853 36.4583 33.8443 36.3849 33.7713L35.7146 33.1055C34.8437 32.2456 33.4369 32.2456 32.5659 33.1055L31.8992 33.7678H31.8974C31.8239 33.8425 31.7218 33.8853 31.616 33.8853ZM30.4655 22.5302C30.3006 22.6406 30.1447 22.7634 29.9978 22.8969L20.8776 31.254C20.7163 31.4017 20.5675 31.562 20.4331 31.7347H27.8668C29.3005 31.7311 30.4618 30.5756 30.4654 29.1496L30.4655 22.5302ZM57.9889 57.6888C57.781 54.3453 54.9907 51.7387 51.6178 51.7387C48.245 51.7387 45.4545 54.3452 45.2466 57.6888H57.9889ZM56.1323 40.1293C53.9781 37.9911 50.6034 37.66 48.0714 39.3406C45.5391 41.0213 44.5552 44.2456 45.7201 47.0409C46.8868 49.836 49.8761 51.4241 52.8634 50.833C55.8491 50.2437 58.0013 47.6391 58.0013 44.614C58.0031 42.9316 57.3312 41.3186 56.1323 40.1293Z" fill="white"/>
</svg>
