<svg width="80" height="80" viewBox="0 0 80 80" fill="none" xmlns="http://www.w3.org/2000/svg">
<circle cx="40" cy="40" r="40" fill="#73BE5F"/>
<path fill-rule="evenodd" clip-rule="evenodd" d="M56.6633 39.7888C56.5025 39.9521 56.24 39.954 56.076 39.7888L53.9521 37.6633C53.5685 37.2795 54.1512 36.6965 54.5347 37.0803L55.9267 38.4734C55.7929 36.2574 55.2228 34.1099 54.2527 32.1409C54.1522 31.9372 54.2359 31.6906 54.4394 31.5901C54.643 31.4895 54.8895 31.5732 54.9899 31.7769C56.0234 33.8744 56.626 36.1709 56.7552 38.5309L58.2048 37.0804C58.5883 36.6966 59.171 37.2796 58.7874 37.6634L56.6633 39.7888ZM24.7684 39.2081C25.1519 39.5919 24.5693 40.175 24.1858 39.7912L22.675 38.2793C21.9704 47.9128 29.5827 56.1745 39.2943 56.1745C43.9231 56.1745 48.2472 54.2786 51.3804 50.9795C51.7529 50.5873 52.3489 51.1537 51.976 51.5465C44.9113 58.9851 32.9804 58.8019 26.1784 51.071C23.1974 47.683 21.5565 43.2025 21.8367 38.4692L20.5157 39.7911C20.1322 40.1749 19.5496 39.5919 19.9331 39.2081L22.0594 37.0802C22.2202 36.9192 22.4812 36.9192 22.642 37.0802L24.7684 39.2081ZM54.6666 44.8489C54.6666 44.3061 55.4907 44.3061 55.4907 44.8489V46.0289C55.4907 46.1206 55.4607 46.2054 55.41 46.274L54.7077 47.3646C54.5851 47.5558 54.3307 47.6114 54.1396 47.4886C53.9485 47.3659 53.893 47.1113 54.0157 46.9201L54.6666 45.9091V44.8489ZM52.9988 43.245C52.7298 42.7766 53.4404 42.3672 53.7102 42.8359L53.931 43.2186C54.2002 43.6863 53.4895 44.0967 53.2195 43.6277L52.9988 43.245ZM51.8878 44.6594L52.2704 44.8804C52.4668 44.9934 52.7176 44.9256 52.8305 44.729C52.9434 44.5324 52.8756 44.2815 52.6792 44.1685L52.2966 43.9475C52.1002 43.8345 51.8494 43.9023 51.7365 44.0989C51.6237 44.2955 51.6914 44.5465 51.8878 44.6594ZM51.6302 46.4396H52.5136C53.054 46.4396 53.054 45.6182 52.5136 45.6182H51.6302C51.0899 45.6182 51.0899 46.4396 51.6302 46.4396ZM52.2983 48.1104L52.6808 47.8894C53.1488 47.6185 52.7376 46.9061 52.2687 47.1774L51.8863 47.3984C51.418 47.6694 51.8297 48.3818 52.2983 48.1104ZM53.7102 49.2237C53.4391 49.6921 52.7277 49.2804 52.9988 48.8113L53.2196 48.4285C53.4903 47.9601 54.2022 48.3716 53.931 48.8408L53.7102 49.2237ZM55.4891 49.4798C55.4891 50.0205 54.6683 50.0205 54.6683 49.4798V48.5958C54.6683 48.055 55.4891 48.055 55.4891 48.5958V49.4798ZM57.1586 48.8113C57.4299 49.2801 56.718 49.6922 56.4472 49.2237L56.2263 48.8408C55.9552 48.3716 56.667 47.9601 56.9377 48.4285L57.1586 48.8113ZM58.2696 47.3984L57.887 47.1774C57.4196 46.908 57.0096 47.6193 57.4782 47.8894L57.8607 48.1104C58.0572 48.2233 58.308 48.1556 58.4209 47.959C58.5337 47.7624 58.466 47.5113 58.2696 47.3984ZM58.5272 45.6183C59.0675 45.6183 59.0675 46.4397 58.5272 46.4397H57.6438C57.1034 46.4397 57.1034 45.6183 57.6438 45.6183H58.5272ZM57.8591 43.9475C58.3276 43.676 58.7394 44.3885 58.2711 44.6594L57.8886 44.8805C57.4197 45.1518 57.0085 44.4395 57.4766 44.1686L57.8591 43.9475ZM56.4473 42.8342L56.2264 43.217C55.9552 43.6863 56.6671 44.0977 56.9378 43.6294L57.1586 43.2466C57.4297 42.7775 56.7183 42.3658 56.4473 42.8342ZM54.6666 42.5781C54.6666 42.0352 55.4907 42.0352 55.4907 42.5781V43.4621C55.4907 44.005 54.6666 44.005 54.6666 43.4621V42.5781ZM48.0584 39.0872C48.6009 39.0872 48.6009 39.9119 48.0584 39.9119H46.2245C46.0192 43.4205 43.2125 46.2292 39.7064 46.4346V48.2698C39.7064 48.8126 38.8823 48.8126 38.8823 48.2698V46.4346C35.3762 46.2292 32.5694 43.4205 32.3642 39.9119H30.5303C29.9879 39.9119 29.9879 39.0872 30.5303 39.0872H32.3642C32.5694 35.5787 35.3762 32.7699 38.8823 32.5646V30.7295C38.8823 30.1866 39.7064 30.1866 39.7064 30.7295V32.5646C40.9716 32.6393 42.1818 33.0583 43.2143 33.7663L44.9021 32.0774L44.8621 31.1526C44.7478 31.1352 44.6354 31.0946 44.5314 31.03C43.6253 30.4677 42.6244 30.0509 41.5767 29.8049C41.1772 29.7111 40.8988 29.359 40.8988 28.9504V27.5776L40.8453 27.5241H37.7431L37.6896 27.5776V28.9508C37.6896 29.3594 37.4112 29.7116 37.0117 29.8054C35.9638 30.0514 34.9638 30.4681 34.0574 31.0305C33.7077 31.2474 33.2646 31.1949 32.9759 30.906L32.0047 29.934L31.9284 29.9332L31.9292 29.934L29.7293 32.1353L29.7355 32.2049L30.7064 33.1765C30.995 33.4653 31.0475 33.9088 30.8307 34.2587C30.2685 35.166 29.8525 36.1665 29.6065 37.2155C29.5127 37.6153 29.1607 37.8938 28.7525 37.8938H27.3807L27.3423 37.9089L27.3431 37.9097C27.3333 37.9195 27.3272 37.9329 27.3272 37.9473V41.0517C27.3272 41.0783 27.3478 41.1053 27.3806 41.1053H28.7529C28.9535 41.1053 29.1494 41.1755 29.2981 41.296L29.2988 41.2952C29.4494 41.4147 29.5601 41.5837 29.607 41.7835C29.8529 42.8323 30.269 43.8328 30.8311 44.7399C31.0479 45.0898 30.9955 45.5332 30.7068 45.8221L29.7293 46.8002L29.7355 46.8698L31.9353 49.0712L32.0049 49.0649L32.9757 48.0934C33.2645 47.8044 33.7077 47.752 34.0572 47.9689C34.9635 48.5314 35.9642 48.9481 37.012 49.194C37.4115 49.2879 37.6899 49.6401 37.6899 50.0486V51.4214L37.7433 51.4749H40.8456L40.8991 51.4214V50.0483C40.8991 49.6398 41.1774 49.2876 41.577 49.1938C42.6244 48.9479 43.6254 48.531 44.5314 47.9688C44.881 47.7518 45.3243 47.8043 45.613 48.0932L46.5902 49.0713L46.6597 49.065L48.8605 46.8628L48.8533 46.7941L47.8821 45.8222C47.5934 45.5332 47.5411 45.0898 47.7578 44.7399C48.3199 43.8327 48.7359 42.8323 48.9819 41.7835C49.0757 41.3837 49.4275 41.1052 49.8359 41.1052H51.2081L51.2465 41.0901L51.2457 41.0893C51.2555 41.0794 51.2616 41.0661 51.2616 41.0517V37.9472C51.2616 37.9207 51.2409 37.8937 51.2081 37.8937H49.8359C49.4276 37.8937 49.0757 37.6152 48.9819 37.2154C48.7361 36.1669 48.3196 35.1659 47.7577 34.2591C47.6932 34.1549 47.6526 34.0423 47.6352 33.9278L46.7115 33.8878L45.0237 35.5768C45.7312 36.6101 46.1499 37.8212 46.2247 39.0872H48.0584ZM45.3989 39.9119H43.8741C43.3316 39.9119 43.3316 39.0872 43.8741 39.0872H45.3991C45.33 38.0365 44.9966 37.0414 44.4309 36.17L42.2532 38.3492C43.0563 40.4056 41.5434 42.6762 39.2943 42.6762C37.5413 42.6762 36.1199 41.2539 36.1199 39.4996C36.1199 37.4444 38.0392 35.9372 40.0283 36.4086L40.0283 36.409C40.1704 36.4427 40.3092 36.4863 40.4438 36.5387L42.6216 34.3594C41.7508 33.7934 40.7564 33.4598 39.7064 33.3905V34.9166C39.7064 35.4595 38.8823 35.4595 38.8823 34.9166V33.3907C35.8314 33.5937 33.3926 36.0341 33.1898 39.0872H34.7147C35.2572 39.0872 35.2572 39.9118 34.7147 39.9118H33.1898C33.3927 42.9649 35.8315 45.4053 38.8823 45.6083V44.0826C38.8823 43.5397 39.7064 43.5397 39.7064 44.0826V45.6084C42.7573 45.4054 45.1961 42.9649 45.3989 39.9119ZM52.3426 26.4422C52.1663 26.2656 51.8751 26.2656 51.6987 26.4422L39.5856 38.5637C39.3052 38.8442 39.4964 39.3404 39.9076 39.3404C40.0246 39.3404 40.1415 39.2963 40.2296 39.2081L52.3426 27.0866C52.4307 26.9984 52.4748 26.8815 52.4748 26.7644C52.4749 26.5585 52.3518 26.4606 52.3426 26.4422ZM52.0206 25.4852C51.8791 25.4852 51.7374 25.5085 51.6021 25.555L50.6732 23.184C50.5639 22.9046 50.2051 22.8365 49.9993 23.0427L49.9988 23.0422L44.8661 28.1785C44.7732 28.2714 44.734 28.3977 44.7483 28.5188L44.8229 30.2456C43.8752 29.6771 42.8435 29.2557 41.7634 29.0028C41.7501 28.9997 41.7394 28.9931 41.7325 28.9843C41.7086 28.9542 41.7229 27.7208 41.7229 27.5775C41.7229 27.0934 41.3292 26.6994 40.8453 26.6994H37.7431C37.2593 26.6994 36.8655 27.0934 36.8655 27.5775V28.9508L36.825 29.0032C35.6886 29.27 34.6146 29.7179 33.626 30.3313C33.6145 30.3385 33.6016 30.3412 33.5894 30.3398C33.5505 30.3354 32.6889 29.4526 32.5872 29.3509C32.2425 29.0059 31.6774 29.0115 31.3472 29.3516L31.3463 29.3508L29.1526 31.546C28.8125 31.8865 28.8088 32.4438 29.1526 32.7879L30.1235 33.7594L30.132 33.8269C29.5199 34.8149 29.0706 35.8928 28.8047 37.0286C28.8016 37.0419 28.795 37.0526 28.7863 37.0595C28.7563 37.0833 27.5236 37.0691 27.3805 37.0691C27.1401 37.0691 26.9209 37.1679 26.7612 37.3274L26.7603 37.3266C26.6015 37.4855 26.503 37.7052 26.503 37.9473V41.0517C26.503 41.5356 26.8987 41.9299 27.3805 41.9299L28.7874 41.9387L28.7868 41.9395C28.7956 41.9464 28.8022 41.957 28.8053 41.9704C29.0713 43.1071 29.5202 44.1828 30.1325 45.1716C30.1396 45.1831 30.1424 45.196 30.141 45.2082C30.1365 45.2471 29.2544 46.1093 29.1527 46.211C28.8125 46.5514 28.8089 47.1088 29.1527 47.4529L31.3463 49.648C31.6865 49.9884 32.2434 49.9921 32.5872 49.6481L33.5582 48.6765L33.6257 48.668C34.6122 49.2801 35.6908 49.7306 36.8251 49.9962C36.8384 49.9993 36.8491 50.0059 36.856 50.0147C36.8799 50.0448 36.8655 51.2781 36.8655 51.4214C36.8655 51.9056 37.2593 52.2996 37.7431 52.2996H40.8453C41.3292 52.2996 41.7229 51.9057 41.7229 51.4214V50.0484L41.7634 49.9959C42.8975 49.7304 43.976 49.2799 44.9624 48.6678C44.9739 48.6607 44.9868 48.6579 44.999 48.6593C45.0379 48.6638 45.8993 49.5463 46.001 49.6481C46.3413 49.9886 46.8982 49.9921 47.2419 49.6482L49.4356 47.453C49.7753 47.113 49.7798 46.5555 49.4356 46.2111L48.4644 45.2393L48.4559 45.1717C49.0679 44.1839 49.5173 43.106 49.783 41.9704C49.7862 41.9571 49.7928 41.9464 49.8015 41.9395C49.8316 41.9156 51.0646 41.9299 51.2078 41.9299C51.4483 41.9299 51.6675 41.831 51.8272 41.6716L51.828 41.6724C51.9868 41.5135 52.0854 41.2938 52.0854 41.0517V37.9473C52.0854 37.4634 51.6896 37.0692 51.2078 37.0692H49.8355L49.7831 37.0287C49.5304 35.9478 49.1092 34.9153 48.541 33.967L50.2984 34.043C50.4181 34.0482 50.528 34.0015 50.6066 33.9229L50.6075 33.9238L55.7401 28.7875C55.9444 28.5831 55.8903 28.2157 55.575 28.1034L53.2291 27.183C53.5136 26.3552 52.9052 25.4852 52.0206 25.4852ZM52.7255 27.8696L47.4998 33.099L50.1519 33.2137L54.7131 28.6494L52.7255 27.8696ZM41.5938 39.0092L40.8123 39.7912C40.3141 40.2898 39.5013 40.2898 39.003 39.7912L39.0029 39.7911C38.5047 39.2924 38.5048 38.4792 39.003 37.9806L39.7844 37.1987C38.3253 36.8895 36.9441 38.0007 36.9441 39.4997C36.9441 41.5887 39.4796 42.6406 40.9563 41.1628C41.51 40.6086 41.7618 39.8033 41.5938 39.0092ZM45.6905 31.2885L45.5759 28.6345L50.1371 24.0702L50.9163 26.0592L45.6905 31.2885ZM55.0787 40.9119C52.2547 40.9119 49.9652 43.2029 49.9652 46.029C49.9652 48.855 52.2547 51.1461 55.0787 51.1461C57.9027 51.1461 60.1922 48.855 60.1922 46.029C60.1922 43.2029 57.9027 40.9119 55.0787 40.9119ZM58.1118 42.9937C56.4367 41.3174 53.7207 41.3174 52.0456 42.9937C50.3704 44.67 50.3704 47.388 52.0456 49.0642C53.7207 50.7405 56.4367 50.7405 58.1118 49.0642C59.7869 47.388 59.7869 44.67 58.1118 42.9937ZM46.89 23.7338C47.0945 23.8325 47.1802 24.0784 47.0816 24.283C46.9829 24.4876 46.7372 24.5733 46.5327 24.4746C40.8917 21.7495 34.1721 22.4386 29.2042 26.2277C26.3373 28.4142 24.2002 31.5084 23.2218 35.0807C23.0794 35.6028 22.2877 35.3859 22.43 34.8649C24.4877 27.3276 31.3738 22 39.2943 22C41.9438 22 44.5355 22.5957 46.89 23.7338Z" fill="white"/>
</svg>
