<svg width="80" height="80" viewBox="0 0 80 80" fill="none" xmlns="http://www.w3.org/2000/svg">
<circle cx="40" cy="40" r="40" fill="#73BE5F"/>
<path d="M58.573 39.0299L52.8799 33.356C52.6258 33.1028 52.2463 33.0282 51.9123 33.1645C51.5784 33.3008 51.3617 33.6221 51.3617 33.9823V36.1759H50.8112C47.8171 36.1759 44.9567 37.0489 42.5084 38.6681L42.51 28.4916H44.8117C45.175 28.4916 45.4959 28.2758 45.6328 27.9432C45.7696 27.6106 45.6947 27.2325 45.4405 26.9794L39.7408 21.3054C39.3319 20.8982 38.6657 20.8982 38.2568 21.3054L32.5587 26.9794C32.3046 27.2325 32.2296 27.6105 32.3665 27.9432C32.5033 28.2758 32.8259 28.4916 33.1875 28.4916H35.4892V38.6632C33.0409 37.0439 30.1773 36.1709 27.1864 36.1709H26.6358L26.6375 33.9789C26.6375 33.6171 26.4208 33.2975 26.0869 33.1611C25.753 33.0248 25.3734 33.0995 25.1193 33.3526L19.4229 39.0299C19.014 39.4371 19.014 40.1007 19.4229 40.508L25.1193 46.182C25.2903 46.3523 25.5151 46.4432 25.7497 46.4432C25.867 46.4432 25.9794 46.4221 26.0918 46.3767C26.4257 46.2404 26.6424 45.9191 26.6424 45.5589V43.1592H27.1929C28.8366 43.1592 30.4004 43.654 31.7509 44.5838C30.6204 46.0911 29.9493 47.957 29.9493 49.9786C29.9411 54.9547 34.0022 59 38.9981 59C43.994 59 48.0553 54.955 48.0553 49.9786C48.0553 47.9553 47.3841 46.091 46.2536 44.5838C47.6008 43.654 49.1646 43.1592 50.8116 43.1592H51.3622V45.5524C51.3622 45.9142 51.5788 46.2339 51.9128 46.3702C52.0252 46.4156 52.1376 46.4367 52.2548 46.4367C52.4845 46.4367 52.7142 46.3458 52.8853 46.1755L58.5817 40.5015C58.9857 40.1008 58.9857 39.4371 58.5735 39.0299L58.573 39.0299ZM35.9746 27.5279H33.3812L38.9392 21.9919C38.9685 21.9627 39.0223 21.9627 39.0516 21.9919L44.6096 27.5279H42.0162C41.7491 27.5279 41.5324 27.7437 41.5324 28.0098V39.366C41.0535 39.7392 40.5893 40.1465 40.1478 40.5829C40.0142 40.716 39.8855 40.8523 39.7601 40.9934C39.506 40.9723 39.2519 40.961 38.9929 40.961C38.7339 40.961 38.4797 40.974 38.2257 40.9934C38.097 40.8571 37.9667 40.7144 37.838 40.5829C37.3998 40.1465 36.9371 39.7441 36.4534 39.366V28.0098C36.4582 27.7437 36.2417 27.5279 35.9746 27.5279ZM27.188 42.1954H26.1536C25.8865 42.1954 25.6698 42.4112 25.6698 42.6774V45.361L20.1068 39.8233C20.0775 39.7941 20.0775 39.7406 20.1068 39.7114L25.6648 34.1753V36.6546C25.6648 36.9207 25.8815 37.1365 26.1486 37.1365H27.183C30.8938 37.1365 34.3895 38.5692 37.0496 41.1652C35.2187 41.5644 33.5962 42.52 32.3632 43.8408C30.8418 42.7683 29.0613 42.1954 27.188 42.1954ZM33.9057 56.2304C34.0524 53.5597 36.2873 51.4245 38.9979 51.4245C41.7086 51.4245 43.9433 53.563 44.0901 56.2337C42.6973 57.3597 40.9299 58.0363 38.9979 58.0363C37.0708 58.0379 35.2985 57.3564 33.9057 56.2304ZM44.965 55.3996C44.4356 52.5959 41.9579 50.4576 38.9979 50.4576C36.0414 50.4576 33.5605 52.5961 33.0308 55.3996C31.7179 53.9669 30.9083 52.0686 30.9083 49.9786C30.9083 45.5379 34.536 41.9242 38.9947 41.9242C43.453 41.9242 47.081 45.5376 47.081 49.9786C47.0843 52.0685 46.2795 53.9669 44.965 55.3996ZM57.8891 39.8233L52.3295 45.3593V42.6757C52.3295 42.4096 52.1128 42.1937 51.8456 42.1937H50.8112C48.9396 42.1937 47.1575 42.7665 45.6311 43.8423C44.3963 42.5215 42.7739 41.5707 40.9447 41.1667C43.6048 38.5658 47.104 37.1379 50.8112 37.1379H51.8456C52.1128 37.1379 52.3295 36.9221 52.3295 36.656V34.1768L57.8891 39.7112C57.9184 39.7404 57.9184 39.7941 57.8891 39.8233ZM38.9979 43.5859C37.2549 43.5859 35.8377 44.9975 35.8377 46.7337C35.8377 48.4698 37.2549 49.8814 38.9979 49.8814C40.7409 49.8814 42.1581 48.4698 42.1581 46.7337C42.1581 44.9992 40.7409 43.5859 38.9979 43.5859ZM38.9979 48.9193C37.7892 48.9193 36.8086 47.9393 36.8086 46.7386C36.8086 45.5347 37.7925 44.5579 38.9979 44.5579C40.2066 44.5579 41.1872 45.5379 41.1872 46.7386C41.1872 47.9393 40.2066 48.9193 38.9979 48.9193Z" fill="white"/>
</svg>
