<svg width="80" height="80" viewBox="0 0 80 80" fill="none" xmlns="http://www.w3.org/2000/svg">
<circle cx="40" cy="40" r="40" fill="#73BE5F"/>
<path d="M59.8992 35.2333C58.5404 34.8662 57.1351 35.6785 56.7677 37.0472L54.7015 44.7907C54.3904 44.3045 53.9162 43.957 53.3544 43.8066C52.7538 43.6446 52.1279 43.7266 51.5933 44.039L49.6398 45.1714C49.2102 43.953 48.5785 42.8284 47.7854 41.8385L48.7476 40.872C49.3307 40.2862 49.4415 39.3783 49.0197 38.6656L48.1761 37.2422C48.5435 36.5686 48.837 35.8579 49.0508 35.1238L50.6505 34.7177C51.4495 34.5126 52.0093 33.7921 52.0093 32.9624V31.334C52.0093 30.5062 51.4514 29.7837 50.6486 29.5787L49.0508 29.1745C48.837 28.4404 48.5435 27.7297 48.1761 27.0561L49.0197 25.6327C49.4435 24.92 49.3327 24.0121 48.7476 23.4263L47.6007 22.2782C47.0176 21.6886 46.1137 21.5754 45.4042 22.001L43.9872 22.8484C43.3146 22.4793 42.609 22.1845 41.8781 21.9717L41.4758 20.3648C41.2717 19.5623 40.5524 19 39.7283 19H38.1072C37.283 19 36.5638 19.5604 36.3597 20.3668L35.9573 21.9736C35.2264 22.1865 34.5209 22.4813 33.8483 22.8503L32.4312 22.0029C31.7198 21.5773 30.8159 21.6905 30.2347 22.2782L29.0879 23.4302C28.5028 24.0179 28.392 24.9239 28.8138 25.6366L29.6574 27.06C29.29 27.7355 28.9965 28.4443 28.7847 29.1784L27.1849 29.5826C26.386 29.7876 25.8262 30.5081 25.8262 31.3379V32.9663C25.8262 33.7941 26.3841 34.5166 27.1869 34.7215L28.7866 35.1257C28.9985 35.8579 29.292 36.5686 29.6594 37.2442L28.8158 38.6676C28.392 39.3802 28.5047 40.2862 29.0898 40.8739L30.0501 41.8404C29.3581 42.7054 28.7885 43.6738 28.3687 44.7184L27.2024 44.0428C26.6678 43.7324 26.0439 43.6484 25.4432 43.8105C24.8795 43.9628 24.4033 44.3122 24.0923 44.7984L22.0261 37.0529C21.8511 36.393 21.4274 35.8404 20.8345 35.4968C20.2417 35.1531 19.5536 35.0633 18.8985 35.239C17.5378 35.6042 16.7273 37.0139 17.0908 38.3806L20.1931 49.9999C20.4069 50.8083 20.922 51.4838 21.6393 51.8997L27.5136 55.3068C27.7391 55.4533 27.9276 55.6856 28.0987 55.959L26.8644 56.2909C26.703 56.3338 26.5631 56.4412 26.4795 56.5877C26.3959 56.7341 26.3726 56.9079 26.4153 57.0699L27.6049 61.5275C27.6477 61.6895 27.7546 61.8301 27.9004 61.9141C27.9976 61.9707 28.1064 62 28.2172 62C28.2717 62 28.328 61.9922 28.3824 61.9785L29.1891 61.7598L29.2047 61.7559C29.2086 61.754 29.2125 61.754 29.2163 61.752L30.0288 61.5334L38.7311 59.1923C38.8924 59.1493 39.0324 59.042 39.116 58.8955C39.1996 58.7491 39.2229 58.5753 39.1801 58.4133L37.9905 53.9557C37.9478 53.7936 37.8409 53.653 37.6951 53.5691C37.5493 53.4851 37.3763 53.4617 37.215 53.5047L36.4005 53.7233C36.3966 53.7253 36.3947 53.7253 36.3908 53.7272L36.1031 53.8053L34.9874 49.6192H43.816L42.7003 53.8053L42.4242 53.7311L42.4106 53.7272C42.4067 53.7253 42.4048 53.7253 42.4009 53.7253L41.5884 53.5066C41.4271 53.4637 41.2521 53.4851 41.1063 53.571C40.9606 53.655 40.8537 53.7936 40.8109 53.9576L39.6213 58.4152C39.5785 58.5773 39.5999 58.753 39.6854 58.8975C39.769 59.0439 39.907 59.1513 40.0703 59.1943L49.5792 61.754L49.5928 61.7579C49.5967 61.7598 49.5986 61.7598 49.6025 61.7598L50.415 61.9785C50.4695 61.9922 50.5239 62 50.5803 62C50.6911 62 50.7999 61.9707 50.8971 61.9141C51.0429 61.8301 51.1498 61.6915 51.1926 61.5275L52.3821 57.0699C52.4249 56.9079 52.4035 56.7321 52.318 56.5877C52.2344 56.4412 52.0964 56.3338 51.9331 56.2909L50.7007 55.959C50.8718 55.6856 51.0603 55.4533 51.2839 55.3068L57.1582 51.8997C57.8755 51.4838 58.3906 50.8102 58.6083 49.9999L61.7087 38.3786C62.0722 37.0119 61.2616 35.6022 59.9048 35.239L59.8992 35.2333ZM29.9862 39.9701C29.8073 39.7905 29.7762 39.5347 29.9045 39.316L30.9367 37.5744C31.0552 37.3733 31.0552 37.1233 30.9367 36.9242C30.476 36.1451 30.1319 35.3114 29.9142 34.4426C29.8579 34.2161 29.681 34.0384 29.4536 33.9798L27.4961 33.4839C27.2512 33.4214 27.0918 33.2164 27.0918 32.9626V31.3342C27.0918 31.0804 27.2512 30.8753 27.4942 30.8128L29.4516 30.3169C29.6771 30.2603 29.854 30.0826 29.9123 29.8542C30.13 28.9872 30.474 28.1516 30.9347 27.3726C31.0533 27.1715 31.0533 26.9215 30.9347 26.7224L29.9006 24.9788C29.7704 24.7601 29.8035 24.5043 29.9823 24.3247L31.1291 23.1727C31.306 22.9931 31.5607 22.9618 31.7784 23.0927L33.5122 24.1294C33.7125 24.2485 33.9613 24.2485 34.1595 24.1294C34.9351 23.6667 35.7651 23.3211 36.6301 23.1024C36.8556 23.0458 37.0325 22.8681 37.0908 22.6397L37.5845 20.6735C37.6467 20.4275 37.8508 20.2674 38.1035 20.2674H39.7246C39.9773 20.2674 40.1814 20.4275 40.2436 20.6715L40.7374 22.6377C40.7937 22.8642 40.9706 23.0419 41.198 23.1005C42.0611 23.3191 42.893 23.6647 43.6686 24.1275C43.8688 24.2466 44.1176 24.2466 44.3159 24.1275L46.0517 23.0888C46.2694 22.9579 46.5241 22.9892 46.7029 23.1708L47.8517 24.3227C48.0286 24.5004 48.0597 24.7581 47.9294 24.9768L46.8973 26.7185C46.7787 26.9196 46.7787 27.1695 46.8973 27.3687C47.358 28.1458 47.702 28.9814 47.9217 29.8523C47.978 30.0788 48.1549 30.2564 48.3804 30.3131L50.3339 30.809C50.5789 30.8715 50.7383 31.0765 50.7383 31.3303V32.9587C50.7383 33.2125 50.5789 33.4175 50.3359 33.48L48.3804 33.976C48.1549 34.0326 47.9781 34.2103 47.9217 34.4368C47.702 35.3076 47.356 36.1413 46.8973 36.9204C46.7787 37.1215 46.7787 37.3714 46.8973 37.5706L47.9314 39.3142C48.0616 39.5328 48.0305 39.7906 47.8536 39.9682L46.9381 40.8878C45.6066 39.5562 43.9505 38.5546 42.1 38.0118C44.1643 36.8774 45.5658 34.675 45.5658 32.1487C45.5658 28.4643 42.582 25.4673 38.9162 25.4673C35.2503 25.4673 32.2646 28.4644 32.2646 32.1487C32.2646 34.6752 33.668 36.8776 35.7323 38.0118C33.8818 38.5546 32.2257 39.5582 30.8942 40.8878L29.9826 39.9702L29.9862 39.9701ZM38.9198 37.5568C35.9497 37.5568 33.5356 35.1318 33.5356 32.1506C33.5356 29.1691 35.9518 26.7423 38.9198 26.7423C41.89 26.7423 44.302 29.1693 44.302 32.1506C44.302 35.134 41.8878 37.5568 38.9198 37.5568ZM22.2732 50.7946C21.8494 50.5486 21.5443 50.1502 21.4179 49.668L18.3156 38.0467C18.1328 37.3575 18.541 36.6468 19.2272 36.4632C19.336 36.4339 19.4488 36.4183 19.5596 36.4183C19.7812 36.4183 20.0028 36.4769 20.201 36.5921C20.5004 36.7659 20.7122 37.0431 20.8017 37.375L23.0759 45.9018C23.3111 46.7843 23.4802 47.21 24.1178 47.581L24.8642 48.0164L24.8662 48.0183L29.6849 50.8299C29.784 50.8885 29.8948 50.9158 30.0017 50.9158C30.2194 50.9158 30.4332 50.8026 30.5499 50.5995C30.7248 50.2949 30.6237 49.9064 30.3205 49.7307L25.5232 46.9327C25.5232 46.9327 25.5213 46.9308 25.5193 46.9308C25.0159 46.6359 24.8448 46.0209 25.1306 45.5289C25.2705 45.2848 25.496 45.111 25.7681 45.0388C26.0402 44.9665 26.3221 45.0036 26.5651 45.1442L32.9659 48.854C32.9756 48.8598 32.9853 48.8657 32.997 48.8696C33.3138 49.0297 33.6093 49.3929 33.6987 49.7307L34.8728 54.1336L29.3662 55.6155C29.0727 55.0766 28.7131 54.5631 28.1824 54.2233C28.1746 54.2175 28.1669 54.2136 28.1591 54.2097L22.2713 50.7948L22.2732 50.7946ZM35.8953 55.176L36.7078 54.9573C36.7117 54.9553 36.7137 54.9553 36.7175 54.9553L36.9294 54.8987L37.7905 58.1281L29.7003 60.3052L28.8937 60.5239L28.8781 60.5278C28.8742 60.5297 28.8703 60.5297 28.8665 60.5317L28.6662 60.5863L27.8051 57.3589L35.8953 55.1818L35.8953 55.176ZM34.3461 48.3442C34.1284 48.0962 33.8679 47.8853 33.5861 47.7389L29.4769 45.3569C30.9328 41.5436 34.6163 38.828 38.9201 38.828C43.3947 38.828 47.1969 41.7626 48.5245 45.8177L45.2103 47.739C44.9285 47.8854 44.668 48.0944 44.4503 48.3443L34.3461 48.3442ZM50.9868 57.3528L50.1257 60.5822L49.9313 60.5295L49.9177 60.5256C49.9138 60.5236 49.9118 60.5236 49.908 60.5217L41.0052 58.1259L41.8663 54.8965L42.0762 54.9531L42.0859 54.9551L50.9887 57.3508L50.9868 57.3528ZM60.4763 38.0465L57.3778 49.6657C57.2476 50.148 56.9444 50.5483 56.5186 50.7943L50.6309 54.2092C50.6231 54.2131 50.6153 54.2189 50.6076 54.2229C50.0788 54.5606 49.7192 55.0761 49.4277 55.615L43.9191 54.1311L45.0932 49.7282C45.1845 49.3885 45.48 49.0273 45.7968 48.8652C45.8066 48.8593 45.8182 48.8535 45.8279 48.8476L52.2267 45.1378C52.4697 44.9973 52.7535 44.9602 53.0257 45.0324C53.2978 45.1066 53.5233 45.2804 53.6632 45.5244C53.947 46.0165 53.774 46.6315 53.2706 46.9244C53.2686 46.9244 53.2686 46.9263 53.2667 46.9263L48.4713 49.7243C48.1681 49.9 48.067 50.2905 48.242 50.5932C48.3586 50.7962 48.5724 50.9095 48.7901 50.9095C48.899 50.9095 49.0078 50.8821 49.107 50.8235L53.9237 48.012C53.9237 48.012 53.9257 48.0119 53.9257 48.01L54.6721 47.5746C55.3096 47.2036 55.4787 46.7779 55.714 45.8954L57.9882 37.3707C58.1729 36.6814 58.8804 36.2714 59.5666 36.4569C60.2508 36.6404 60.659 37.3512 60.4743 38.0385L60.4763 38.0465ZM18.0413 26.1283H19.4544V34.0397C19.4544 34.3912 19.7382 34.6762 20.0881 34.6762H23.4858C23.8357 34.6762 24.1195 34.3912 24.1195 34.0397V26.1283H25.5326C25.7678 26.1283 25.9855 25.9975 26.0944 25.7866C26.2032 25.5757 26.1877 25.3219 26.0516 25.1286L22.3079 19.7278C22.1893 19.556 21.9949 19.4545 21.7869 19.4545C21.5789 19.4545 21.3846 19.556 21.266 19.7278L17.5222 25.1286C17.3881 25.3239 17.3706 25.5777 17.4795 25.7866C17.5883 25.9975 17.8042 26.1283 18.0413 26.1283ZM21.7851 21.206L24.3159 24.8572H23.4839C23.134 24.8572 22.8502 25.1423 22.8502 25.4937V33.4052H20.7199V25.4937C20.7199 25.1422 20.4361 24.8572 20.0862 24.8572H19.2542L21.7851 21.206ZM52.3106 26.1283H53.7238V34.0397C53.7238 34.3912 54.0075 34.6762 54.3574 34.6762H57.7552C58.105 34.6762 58.3888 34.3912 58.3888 34.0397V26.1283H59.8019C60.0371 26.1283 60.2548 25.9975 60.3637 25.7866C60.4725 25.5757 60.457 25.3219 60.3209 25.1286L56.5772 19.7278C56.4586 19.556 56.2642 19.4545 56.0562 19.4545C55.8483 19.4545 55.6539 19.556 55.5353 19.7278L51.7915 25.1286C51.6574 25.3239 51.6399 25.5777 51.7488 25.7866C51.8576 25.9975 52.0735 26.1283 52.3106 26.1283ZM56.0544 21.206L58.5852 24.8572H57.7532C57.4033 24.8572 57.1196 25.1423 57.1196 25.4937V33.4052H54.9892V25.4937C54.9892 25.1422 54.7054 24.8572 54.3555 24.8572H53.5236L56.0544 21.206Z" fill="white"/>
</svg>
