<svg width="80" height="80" viewBox="0 0 80 80" fill="none" xmlns="http://www.w3.org/2000/svg">
<circle cx="40" cy="40" r="40" fill="#73BE5F"/>
<path d="M32.5376 30.4528C32.6825 30.5977 32.9179 30.6078 33.0789 30.479C33.5196 30.1188 33.9804 29.7928 34.4634 29.503V31.8273C34.4634 31.9782 34.5499 32.1171 34.6827 32.1875C34.8176 32.2579 34.9826 32.2418 35.1013 32.1553C36.6729 30.9962 38.5404 30.3905 40.5002 30.3905C42.4582 30.3905 44.3317 31.0022 45.9093 32.1553C45.9798 32.2096 46.0643 32.2358 46.1448 32.2358C46.2092 32.2358 46.2675 32.2197 46.3279 32.1935C46.4627 32.1231 46.5473 31.9842 46.5473 31.8333V29.5151C47.0363 29.8109 47.4971 30.1369 47.9257 30.4911C48.0867 30.6259 48.3222 30.6138 48.4671 30.4649L50.3124 28.6196C50.3928 28.5391 50.4351 28.4325 50.4311 28.3198C50.4311 28.2071 50.3767 28.1004 50.2922 28.03C47.5655 25.7017 44.0882 24.4178 40.5042 24.4178C36.9202 24.4178 33.447 25.6997 30.7223 28.03C30.6358 28.1044 30.5875 28.2071 30.5835 28.3198C30.5835 28.4325 30.6217 28.5391 30.7022 28.6196L32.5435 30.4609L32.5376 30.4528ZM40.5004 25.2147C43.7463 25.2147 46.9018 26.3255 49.4291 28.354L48.1513 29.6318C47.5939 29.1972 46.9821 28.8007 46.3321 28.4627C46.2094 28.3983 46.0585 28.4043 45.9357 28.4727C45.813 28.5472 45.7425 28.676 45.7425 28.8169V31.0647C44.1709 30.0887 42.3779 29.5735 40.5003 29.5735C38.6226 29.5735 36.8358 30.0887 35.2621 31.0647V28.8108C35.2621 28.672 35.1877 28.5371 35.0689 28.4667C34.9502 28.3923 34.8013 28.3923 34.6725 28.4567C34.0346 28.7887 33.4228 29.1811 32.8473 29.6258L31.5755 28.354C34.1029 26.3255 37.2528 25.2147 40.5004 25.2147Z" fill="white"/>
<path d="M31.4786 46.9277C31.1183 46.4931 30.7924 46.0322 30.4966 45.5433H32.8248C32.9757 45.5433 33.1146 45.4567 33.185 45.3239C33.2555 45.1891 33.2394 45.0241 33.1468 44.9053C31.9877 43.3337 31.3759 41.4662 31.3759 39.5065C31.3759 37.5485 31.9877 35.6689 33.1468 34.1035C33.2373 33.9807 33.2494 33.8197 33.185 33.6849C33.1146 33.5501 32.9757 33.4656 32.8248 33.4656H30.4966C30.7863 32.9826 31.1143 32.5218 31.4725 32.0811C31.6074 31.9201 31.5913 31.6887 31.4464 31.5397L29.6051 29.6985C29.5246 29.618 29.4119 29.5757 29.3052 29.5797C29.1926 29.5797 29.0859 29.6341 29.0155 29.7186C26.6872 32.4453 25.4033 35.9226 25.4033 39.5066C25.4033 43.0906 26.6852 46.5679 29.0155 49.2885C29.0899 49.375 29.1926 49.4233 29.3052 49.4273H29.3213C29.428 49.4273 29.5306 49.3851 29.6051 49.3086L31.4464 47.4673C31.5913 47.3224 31.6013 47.087 31.4725 46.926L31.4786 46.9277ZM29.3535 48.429C27.3251 45.9075 26.2142 42.756 26.2142 39.5043C26.2142 36.2527 27.325 33.103 29.3535 30.5756L30.6253 31.8474C30.1806 32.421 29.7882 33.0327 29.4562 33.6726C29.3918 33.7954 29.3978 33.9463 29.4663 34.0691C29.5407 34.1878 29.6695 34.2623 29.8104 34.2623H32.0642C31.0822 35.8299 30.5731 37.6269 30.5731 39.5045C30.5731 41.382 31.0882 43.175 32.0642 44.7427H29.8043C29.6655 44.7427 29.5307 44.8171 29.4602 44.9358C29.3858 45.0586 29.3858 45.2035 29.4502 45.3323C29.7882 45.9762 30.1847 46.588 30.6253 47.1575L29.3535 48.429Z" fill="white"/>
<path d="M48.4627 48.5417C48.3178 48.3968 48.0823 48.3867 47.9214 48.5155C47.4967 48.8697 47.0359 49.1977 46.5429 49.4915V47.1672C46.5429 47.0163 46.4564 46.8774 46.3235 46.807C46.1887 46.7366 46.0237 46.7527 45.905 46.8452C44.3333 48.0043 42.4659 48.6161 40.502 48.6161C38.5381 48.6161 36.6705 48.0043 35.1031 46.8452C34.9804 46.7547 34.8194 46.7426 34.6845 46.807C34.5497 46.8774 34.4652 47.0163 34.4652 47.1672V49.4955C33.9822 49.2057 33.5214 48.8777 33.0807 48.5195C32.9197 48.3907 32.6883 48.4008 32.5394 48.5457L30.6981 50.387C30.6176 50.4674 30.5753 50.5741 30.5794 50.6868C30.5854 50.7995 30.6337 50.9061 30.7182 50.9766C33.445 53.3048 36.9223 54.5887 40.5001 54.5887C44.08 54.5887 47.5614 53.3068 50.2881 50.9766C50.3746 50.9021 50.4229 50.7995 50.427 50.6868C50.427 50.5741 50.3887 50.4674 50.3082 50.387L48.4627 48.5417ZM40.4999 53.786C37.2539 53.786 34.1026 52.6752 31.5752 50.6467L32.8471 49.3749C33.4206 49.8196 34.0323 50.212 34.6723 50.544C34.795 50.6084 34.9459 50.6024 35.0687 50.534C35.1874 50.4595 35.2619 50.3307 35.2619 50.1899V47.936C36.8295 48.918 38.6265 49.4272 40.5 49.4272C42.3736 49.4272 44.1766 48.912 45.7423 47.936V50.1838C45.7423 50.3227 45.8168 50.4575 45.9355 50.5279C46.0542 50.6024 46.2031 50.6024 46.3319 50.538C46.9819 50.1939 47.5936 49.8035 48.151 49.3688L49.4289 50.6467C46.9014 52.6751 43.7459 53.786 40.4999 53.786Z" fill="white"/>
<path d="M51.6946 29.5729C51.5758 29.5669 51.4752 29.6112 51.3947 29.6917L49.5494 31.537C49.4045 31.6819 49.3945 31.9173 49.5233 32.0783C49.8774 32.5029 50.2054 32.9638 50.4992 33.4568H48.181C48.0301 33.4568 47.8912 33.5433 47.8208 33.6761C47.7504 33.8109 47.7665 33.9759 47.853 34.0947C49.0121 35.6663 49.6178 37.5398 49.6178 39.5038C49.6178 41.4679 49.0061 43.3293 47.853 44.9027C47.7624 45.0255 47.7504 45.1865 47.8208 45.3213C47.8912 45.4561 48.0301 45.5406 48.181 45.5406H50.4992C50.2095 46.0236 49.8814 46.4804 49.5233 46.9191C49.3884 47.0801 49.4005 47.3155 49.5494 47.4604L51.3947 49.3057C51.4692 49.3802 51.5718 49.4245 51.6785 49.4245H51.6946C51.8073 49.4245 51.9099 49.3701 51.9843 49.2856C54.3086 46.5649 55.5905 43.0877 55.5905 39.5038C55.5905 35.9198 54.3126 32.4425 51.9843 29.7157C51.9099 29.6292 51.8073 29.5809 51.6946 29.5769V29.5729ZM51.6503 48.4288L50.3724 47.151C50.8172 46.5774 51.2156 45.9657 51.5416 45.3257C51.606 45.203 51.5999 45.0521 51.5255 44.9333C51.451 44.8146 51.3222 44.7402 51.1814 44.7402H48.9336C49.9096 43.1685 50.4247 41.3755 50.4247 39.502C50.4247 37.6285 49.9096 35.8315 48.9336 34.2597H51.1814C51.3202 34.2597 51.4551 34.1853 51.5255 34.0666C51.5999 33.9478 51.5999 33.7989 51.5356 33.6701C51.1914 33.0202 50.801 32.4084 50.3664 31.851L51.6442 30.5731C53.6667 33.1006 54.7774 36.2559 54.7774 39.5019C54.7774 42.7478 53.6667 45.9033 51.6442 48.4265L51.6503 48.4288Z" fill="white"/>
<path d="M40.5061 32.0885C36.5559 32.0885 33.3423 35.3022 33.3423 39.2523C33.3423 43.2024 36.556 46.4161 40.5061 46.4161C44.4562 46.4161 47.6699 43.2024 47.6699 39.2523C47.6699 35.3022 44.4562 32.0885 40.5061 32.0885ZM40.5061 45.6114C37.0026 45.6114 34.147 42.7559 34.147 39.2523C34.147 35.7487 37.0025 32.8932 40.5061 32.8932C44.0097 32.8932 46.8652 35.7487 46.8652 39.2523C46.8652 42.7559 44.0097 45.6114 40.5061 45.6114Z" fill="white"/>
<path d="M43.3556 35.8879C43.0115 35.6564 42.609 35.5337 42.1965 35.5337C41.5263 35.5337 40.8925 35.8617 40.5 36.4091C40.1137 35.8617 39.4798 35.5337 38.8036 35.5337C38.3911 35.5337 37.9886 35.6564 37.6445 35.8879C37.1877 36.1998 36.8778 36.6666 36.7752 37.208C36.6726 37.7493 36.7852 38.2966 37.0972 38.7595L40.172 43.2933C40.2465 43.406 40.3713 43.4704 40.5041 43.4704C40.6389 43.4704 40.7617 43.406 40.8361 43.2933L43.911 38.7595C44.2229 38.3027 44.3396 37.7513 44.233 37.208C44.1303 36.6666 43.8204 36.1937 43.3636 35.8879H43.3556ZM43.2368 38.3027L40.494 42.3435L37.7573 38.3027C37.5701 38.023 37.4997 37.6849 37.558 37.3528C37.6224 37.0208 37.8096 36.735 38.0832 36.5479C38.2986 36.403 38.54 36.3285 38.7916 36.3285C39.2162 36.3285 39.6066 36.5318 39.844 36.8819L40.156 37.3428C40.3069 37.5621 40.6711 37.5621 40.8221 37.3428L41.134 36.8819C41.5203 36.3245 42.3353 36.1676 42.8948 36.5439C43.1745 36.731 43.3617 37.0208 43.426 37.3488C43.4904 37.6808 43.42 38.0149 43.2268 38.2926L43.2368 38.3027Z" fill="white"/>
<path d="M40.4999 23.6971C42.3452 23.6971 43.8484 22.1938 43.8484 20.3485C43.8484 18.5032 42.3452 17 40.4999 17C38.6546 17 37.1514 18.5032 37.1514 20.3485C37.1514 22.1938 38.6546 23.6971 40.4999 23.6971ZM40.4999 17.8047C41.9005 17.8047 43.0435 18.9477 43.0435 20.3483C43.0435 21.7488 41.9005 22.8919 40.4999 22.8919C39.0993 22.8919 37.9563 21.7488 37.9563 20.3483C37.9563 18.9477 39.0993 17.8047 40.4999 17.8047Z" fill="white"/>
<path d="M40.4999 55.3032C38.6546 55.3032 37.1514 56.8065 37.1514 58.6518C37.1514 60.4971 38.6546 62.0003 40.4999 62.0003C42.3452 62.0003 43.8484 60.4971 43.8484 58.6518C43.8484 56.8065 42.3452 55.3032 40.4999 55.3032ZM40.4999 61.1956C39.0993 61.1956 37.9563 60.0526 37.9563 58.652C37.9563 57.2515 39.0993 56.1084 40.4999 56.1084C41.9005 56.1084 43.0435 57.2515 43.0435 58.652C43.0435 60.0526 41.9005 61.1956 40.4999 61.1956Z" fill="white"/>
<path d="M59.6513 36.1516C57.806 36.1516 56.3027 37.6548 56.3027 39.5001C56.3027 41.3455 57.806 42.8487 59.6513 42.8487C61.4966 42.8487 62.9998 41.3455 62.9998 39.5001C62.9998 37.6548 61.4966 36.1516 59.6513 36.1516ZM59.6513 42.044C58.2507 42.044 57.1077 40.901 57.1077 39.5004C57.1077 38.0998 58.2507 36.9568 59.6513 36.9568C61.0518 36.9568 62.1949 38.0998 62.1949 39.5004C62.1949 40.901 61.0518 42.044 59.6513 42.044Z" fill="white"/>
<path d="M21.3485 36.1516C19.5032 36.1516 18 37.6548 18 39.5001C18 41.3455 19.5032 42.8487 21.3485 42.8487C23.1938 42.8487 24.6971 41.3455 24.6971 39.5001C24.6971 37.6548 23.1938 36.1516 21.3485 36.1516ZM21.3485 42.044C19.9479 42.044 18.8049 40.901 18.8049 39.5004C18.8049 38.0998 19.948 36.9568 21.3485 36.9568C22.7491 36.9568 23.8921 38.0998 23.8921 39.5004C23.8921 40.901 22.7491 42.044 21.3485 42.044Z" fill="white"/>
</svg>
