<svg width="80" height="80" viewBox="0 0 80 80" fill="none" xmlns="http://www.w3.org/2000/svg">
<circle cx="40" cy="40" r="40" fill="#73BE5F"/>
<path fill-rule="evenodd" clip-rule="evenodd" d="M61.4694 61.9428H20.5812C20.3767 61.9428 20.1894 62.0268 20.0538 62.1624C19.9182 62.298 19.8343 62.4853 19.8343 62.6898C19.8343 62.8943 19.9182 63.0815 20.0538 63.2171C20.1894 63.3528 20.3767 63.4367 20.5812 63.4367H61.4694C61.6739 63.4367 61.8612 63.3528 61.9968 63.2171C62.1324 63.0815 62.2163 62.8943 62.2163 62.6898C62.2163 62.4853 62.1324 62.298 61.9968 62.1624C61.8633 62.0268 61.676 61.9428 61.4694 61.9428ZM21.7048 60.9354V52.405C21.7048 51.7356 21.9782 51.1264 22.4195 50.6872C22.4303 50.6765 22.4389 50.6679 22.4496 50.6593C22.8866 50.2352 23.4829 49.9747 24.1373 49.9747H27.491C28.1582 49.9747 28.7674 50.2481 29.2066 50.6872L29.2087 50.6894L29.2109 50.6872C29.6522 51.1285 29.9255 51.7355 29.9255 52.405V60.9354H31.8521L31.8478 46.5197C31.8478 45.8524 32.1212 45.2432 32.5625 44.8041L32.5646 44.8019C33.0059 44.3606 33.6129 44.0894 34.2803 44.0894H37.634C38.3012 44.0894 38.9104 44.3628 39.3496 44.8019L39.3517 44.8041L39.3539 44.8019C39.7952 45.2432 40.0664 45.8502 40.0664 46.5197V60.9354H41.993L41.9908 40.6343C41.9908 39.9671 42.2642 39.3579 42.7055 38.9187L42.7076 38.9166C43.1489 38.4753 43.7559 38.2019 44.4233 38.2019H47.777C48.4442 38.2019 49.0534 38.4753 49.4926 38.9166L49.4947 38.9187C49.936 39.36 50.2072 39.967 50.2072 40.6343V60.9354H52.1338V34.749C52.1338 34.0817 52.4072 33.4725 52.8485 33.0334H52.8506L52.8485 33.0312C53.2898 32.59 53.8968 32.3166 54.5663 32.3166H57.92C58.5894 32.3166 59.1964 32.5899 59.6377 33.0312C59.6485 33.042 59.6571 33.0506 59.6657 33.0614C60.0898 33.4983 60.3502 34.0946 60.3502 34.749V60.9354H61.4739C61.9561 60.9354 62.3931 61.1335 62.7116 61.4499L62.7138 61.452C63.0302 61.7706 63.2283 62.2076 63.2283 62.6898C63.2283 63.172 63.0302 63.6089 62.7138 63.9275L62.7116 63.9297C62.3931 64.2461 61.9561 64.4441 61.4739 64.4441L20.5813 64.4463C20.0991 64.4463 19.6621 64.2482 19.3436 63.9318L19.3414 63.9297C19.0228 63.6111 18.827 63.1741 18.827 62.6919C18.827 62.2098 19.025 61.7728 19.3414 61.4542L19.3436 61.452C19.6622 61.1356 20.0991 60.9376 20.5813 60.9376L21.7048 60.9354ZM28.9116 60.9354V52.405C28.9116 52.0132 28.7523 51.658 28.494 51.3998V51.3976C28.2357 51.1393 27.8805 50.98 27.4888 50.98H24.135C23.754 50.98 23.4075 51.1307 23.1513 51.3761L23.1298 51.3998C22.8715 51.6581 22.7122 52.0133 22.7122 52.405V60.9354H28.9116ZM39.0544 60.9354V46.5197C39.0544 46.1279 38.8951 45.7727 38.6368 45.5144L38.639 45.5123C38.3807 45.254 38.0255 45.0947 37.6337 45.0947H34.28C33.8883 45.0947 33.5331 45.254 33.2748 45.5123C33.0165 45.7706 32.8572 46.1258 32.8572 46.5175V60.9333L39.0544 60.9354ZM49.1973 60.9354V40.6343C49.1973 40.2426 49.038 39.8874 48.7797 39.6291C48.5213 39.3708 48.1662 39.2115 47.7744 39.2115H44.4207C44.0289 39.2115 43.6737 39.3708 43.4155 39.6291C43.1572 39.8874 42.9979 40.2426 42.9979 40.6343V60.9354H49.1973ZM59.3401 60.9354V34.749C59.3401 34.368 59.1894 34.0214 58.944 33.7652L58.9203 33.7437C58.662 33.4854 58.3068 33.3261 57.9151 33.3261H54.5614C54.1696 33.3261 53.8144 33.4854 53.5561 33.7437L53.554 33.7416C53.2957 33.9999 53.1364 34.3551 53.1364 34.7468V60.9332L59.3401 60.9354ZM20.6584 34.1076C20.7208 34.17 20.8004 34.2475 20.8973 34.3379L20.8994 34.3357L20.9016 34.3379C21.0135 34.4434 21.0953 34.5187 21.1448 34.5596C21.4096 34.7921 21.7325 34.9212 22.064 34.9406C22.3934 34.96 22.7291 34.8717 23.0219 34.6715V34.6694L23.4223 34.3939C23.4331 34.3874 23.4417 34.3809 23.4524 34.3745C23.5364 34.3164 23.6289 34.2841 23.7215 34.2798C23.8162 34.2755 23.9131 34.2991 24.0035 34.3487C24.2898 34.5079 24.5847 34.6522 24.8861 34.7749C25.1917 34.9019 25.5017 35.0095 25.8117 35.0978C25.9107 35.1257 25.9947 35.1774 26.0571 35.2463C26.1195 35.3152 26.1647 35.4034 26.1819 35.5046L26.2508 35.8791C26.3175 36.2365 26.5005 36.5443 26.7588 36.766C27.0171 36.9877 27.3508 37.1212 27.7146 37.1298C27.861 37.1341 28.0095 37.1341 28.1559 37.132C28.3151 37.1298 28.4637 37.1234 28.5971 37.1169C28.9502 37.0954 29.2709 36.9576 29.5206 36.738C29.7682 36.5185 29.9447 36.2171 30.0092 35.8684L30.076 35.5046C30.0953 35.4035 30.1384 35.3152 30.2008 35.2463C30.2632 35.1774 30.3472 35.1258 30.4462 35.0978C30.7562 35.0095 31.0662 34.9019 31.374 34.7749C31.6753 34.65 31.9702 34.508 32.2566 34.3487C32.347 34.297 32.4438 34.2755 32.5385 34.2798C32.629 34.2841 32.7237 34.3164 32.8076 34.3745L33.0638 34.551C33.3608 34.7555 33.7031 34.8438 34.0346 34.8201C34.3704 34.7964 34.6976 34.6608 34.9623 34.4176C35.0097 34.3745 35.0635 34.3229 35.1281 34.2604C35.1711 34.2195 35.2164 34.1765 35.2616 34.1291C35.2702 34.1205 35.2809 34.1119 35.2895 34.1033L35.4208 33.9655C35.4295 33.9569 35.4381 33.9483 35.4467 33.9397C35.4747 33.9096 35.5199 33.8622 35.5758 33.7998C35.5844 33.7912 35.5931 33.7826 35.6017 33.7739C35.8449 33.5092 35.9805 33.182 36.0042 32.8462C36.0279 32.5125 35.9396 32.1702 35.7351 31.8754L35.5586 31.6171C35.5005 31.5331 35.4682 31.4384 35.4639 31.348C35.4596 31.2533 35.4833 31.1564 35.5328 31.066C35.6921 30.7797 35.8341 30.4848 35.959 30.1834C36.086 29.8756 36.1936 29.5678 36.2819 29.2557C36.3099 29.1566 36.3615 29.0727 36.4304 29.0103C36.4993 28.9478 36.5876 28.9026 36.6887 28.8854L37.0525 28.8187C37.4012 28.7541 37.7026 28.5776 37.9221 28.33C38.1417 28.0803 38.2795 27.7596 38.301 27.4066C38.3096 27.2731 38.3139 27.1246 38.3161 26.9653C38.3182 26.8168 38.3182 26.6704 38.3139 26.524C38.3053 26.1602 38.1718 25.8266 37.9501 25.5683C37.7306 25.31 37.4227 25.127 37.0632 25.0602L36.6887 24.9914C36.5875 24.972 36.4993 24.9289 36.4304 24.8665C36.3615 24.8041 36.3098 24.7201 36.2819 24.6211C36.1936 24.3112 36.086 24.0012 35.959 23.6934C35.8341 23.392 35.692 23.0971 35.5328 22.8108C35.4811 22.7204 35.4596 22.6235 35.4639 22.5288C35.4682 22.4384 35.5005 22.3458 35.5586 22.2597L35.8535 21.8314C36.0537 21.5386 36.1441 21.2028 36.1226 20.8734C36.1032 20.542 35.974 20.2191 35.7416 19.9543H35.7394C35.6555 19.8596 35.5823 19.7778 35.5177 19.711L35.5155 19.7132C35.4058 19.5969 35.3304 19.5173 35.2874 19.4743C35.2271 19.4118 35.1474 19.3365 35.0506 19.2461C34.9882 19.188 34.9171 19.1234 34.8332 19.0502C34.8246 19.0394 34.8138 19.0308 34.803 19.0222C34.5383 18.7897 34.2154 18.6606 33.8839 18.6412C33.5545 18.6218 33.2187 18.7101 32.9259 18.9103L32.4976 19.2052C32.4136 19.2633 32.3189 19.2956 32.2285 19.2999C32.1338 19.3042 32.0369 19.2805 31.9465 19.231C31.6602 19.0717 31.3653 18.9275 31.0639 18.8048C30.7561 18.6778 30.4483 18.5702 30.1362 18.4819C30.0372 18.4539 29.9532 18.4023 29.8908 18.3334C29.8284 18.2645 29.7832 18.1762 29.7659 18.0751L29.6971 17.7005C29.6303 17.3432 29.4474 17.0332 29.189 16.8136C28.9307 16.5919 28.5971 16.4585 28.2333 16.4499C28.0891 16.4456 27.9427 16.4456 27.7942 16.4477C27.637 16.452 27.4885 16.4585 27.355 16.4649C27.002 16.4864 26.6812 16.6242 26.4316 16.8438C26.184 17.0633 26.0075 17.3647 25.9429 17.7134L25.8762 18.0772C25.8568 18.1784 25.8138 18.2666 25.7513 18.3355C25.6889 18.4044 25.605 18.4539 25.506 18.484C25.196 18.5723 24.886 18.6799 24.5803 18.8069C24.279 18.9318 23.9841 19.0738 23.6978 19.2331C23.6073 19.2848 23.5105 19.3063 23.4158 19.3042C23.3254 19.2999 23.2306 19.2676 23.1467 19.2095L22.8884 19.033C22.5913 18.8285 22.249 18.7402 21.9176 18.7639C21.5818 18.7876 21.2546 18.9232 20.9898 19.1664V19.1686C20.9145 19.2396 20.8585 19.2891 20.8241 19.3236L20.8262 19.3257L20.6626 19.4828C20.6411 19.5044 20.5851 19.5625 20.5055 19.6464L20.5076 19.6486L20.5055 19.6507C20.456 19.7024 20.4129 19.7476 20.3763 19.7864C20.3677 19.795 20.3591 19.8036 20.3483 19.8143C20.1051 20.0791 19.9695 20.4063 19.9458 20.7421C19.9221 21.0758 20.0104 21.418 20.2149 21.7129L20.3914 21.9691C20.4495 22.0552 20.4818 22.1477 20.4861 22.2381C20.4904 22.3329 20.4667 22.4297 20.4151 22.5201C20.2558 22.8064 20.1116 23.1013 19.9889 23.4027C19.8618 23.7084 19.7542 24.0184 19.666 24.3283C19.638 24.4273 19.5863 24.5113 19.5174 24.5737C19.4486 24.6361 19.3603 24.6813 19.2591 24.6986L18.8953 24.7653C18.5466 24.8299 18.2453 25.0064 18.0257 25.2539C17.8061 25.5036 17.6684 25.8244 17.6469 26.1774C17.6382 26.3109 17.6339 26.4594 17.6318 26.6187C17.6296 26.7672 17.6296 26.9157 17.6339 27.0621C17.6425 27.4259 17.776 27.7595 17.9977 28.0179C18.2173 28.2762 18.5251 28.4592 18.8846 28.5259L19.2592 28.5948C19.3603 28.6141 19.4486 28.6572 19.5175 28.7196C19.5863 28.782 19.638 28.866 19.666 28.965C19.7543 29.275 19.8619 29.585 19.9889 29.8928C20.1137 30.1941 20.2558 30.489 20.4151 30.7754C20.4646 30.8658 20.4883 30.9626 20.484 31.0573C20.4797 31.1478 20.4474 31.2403 20.3893 31.3264L20.0944 31.7548C19.8942 32.0454 19.8038 32.3833 19.8231 32.7127C19.8425 33.0442 19.9717 33.3671 20.2041 33.6319C20.2666 33.7029 20.3419 33.7847 20.428 33.8773C20.5206 33.9677 20.5959 34.0473 20.6584 34.1076ZM21.1621 33.1819C21.2137 33.2379 21.2848 33.309 21.3709 33.3951C21.4591 33.4833 21.5301 33.5522 21.5861 33.606L21.584 33.6082C21.6249 33.6469 21.698 33.7115 21.8057 33.8062C21.8982 33.888 22.008 33.9332 22.1178 33.9397C22.2297 33.9461 22.3438 33.916 22.445 33.8471V33.8493L22.4471 33.8471L22.8475 33.5716L22.8734 33.5522C23.1166 33.3843 23.3921 33.2939 23.6698 33.281C23.9475 33.2681 24.2252 33.3326 24.4835 33.4769C24.7375 33.6189 24.9958 33.7438 25.2606 33.8514C25.5254 33.9612 25.7988 34.0559 26.0765 34.1334C26.3627 34.2152 26.606 34.3659 26.7933 34.5725C26.9805 34.777 27.1097 35.0353 27.1635 35.3259L27.2324 35.7026C27.2561 35.8253 27.3185 35.9308 27.4068 36.0061C27.495 36.0815 27.6091 36.1267 27.7318 36.1288C27.8674 36.1332 28.0009 36.1332 28.1343 36.131C28.2527 36.1288 28.3862 36.1245 28.5326 36.1159C28.6553 36.1095 28.765 36.0621 28.849 35.9889C28.9329 35.9157 28.9932 35.8103 29.0147 35.6897L29.0815 35.3259C29.1353 35.0353 29.2644 34.777 29.4517 34.5725C29.639 34.3659 29.8844 34.213 30.1685 34.1334C30.4484 34.0537 30.7218 33.959 30.9844 33.8514C31.247 33.7416 31.5075 33.6168 31.7615 33.4769C32.0176 33.3326 32.2975 33.268 32.5752 33.281C32.855 33.2939 33.1284 33.3864 33.3716 33.5522L33.6278 33.7287C33.729 33.7976 33.8474 33.8277 33.9614 33.8213C34.0734 33.8127 34.1832 33.7675 34.2757 33.6835C34.336 33.6297 34.3877 33.5802 34.4264 33.5436C34.4673 33.5027 34.5082 33.4639 34.5469 33.4252C34.5556 33.4166 34.5642 33.4058 34.5728 33.3972L34.6998 33.2724L34.7192 33.2508C34.7708 33.197 34.8096 33.1583 34.8354 33.1281C34.8419 33.1195 34.8505 33.1109 34.8591 33.1023C34.943 33.0119 34.9904 32.9 34.9968 32.788C35.0055 32.6739 34.9753 32.5555 34.9043 32.4544L34.7278 32.1961C34.5599 31.9528 34.4695 31.6794 34.4565 31.3996C34.4436 31.1219 34.5082 30.8443 34.6524 30.5859C34.7945 30.3319 34.9194 30.0736 35.027 29.8088C35.1368 29.544 35.2315 29.2707 35.309 28.993C35.3908 28.7067 35.5436 28.4634 35.7481 28.2761C35.9526 28.0889 36.2109 27.9597 36.5037 27.9059L36.8674 27.8392C36.988 27.8177 37.0913 27.7574 37.1666 27.6734C37.2398 27.5895 37.2872 27.4797 37.2937 27.357C37.3023 27.2128 37.3066 27.0793 37.3087 26.9588C37.3109 26.8253 37.3109 26.6918 37.3066 26.5562C37.3023 26.4314 37.2571 26.3173 37.1839 26.2312C37.1085 26.1429 37.0031 26.0805 36.8804 26.0568L36.5058 25.988C36.2152 25.9341 35.9569 25.805 35.7524 25.6199C35.5457 25.4326 35.3951 25.1872 35.3133 24.903C35.2336 24.6232 35.1389 24.3498 35.0291 24.0872C34.9193 23.8224 34.7945 23.5641 34.6546 23.3101C34.5104 23.0539 34.4458 22.7741 34.4587 22.4964C34.4716 22.2166 34.562 21.9432 34.7299 21.6999L35.0248 21.2716C35.0937 21.1726 35.1238 21.0563 35.1174 20.9444C35.1109 20.8346 35.0657 20.7248 34.9839 20.6323L34.9861 20.6301C34.9323 20.5677 34.8655 20.4966 34.7859 20.4105L34.788 20.4084L34.7859 20.4062C34.7536 20.3718 34.6826 20.2986 34.5771 20.1931C34.4888 20.1049 34.4178 20.036 34.364 19.9843C34.2908 19.9154 34.2284 19.8573 34.1702 19.8078C34.1595 19.8014 34.1509 19.7928 34.1423 19.7841C34.0497 19.7023 33.9399 19.6571 33.828 19.6507C33.716 19.6442 33.602 19.6744 33.5008 19.7432L33.0724 20.0381C32.8292 20.206 32.5558 20.2965 32.276 20.3094C31.9983 20.3223 31.7206 20.2577 31.4623 20.1135C31.2083 19.9714 30.95 19.8466 30.6852 19.7389C30.4204 19.6292 30.147 19.5344 29.8693 19.4569C29.583 19.3751 29.3398 19.2223 29.1525 19.0178C28.9652 18.8133 28.8361 18.555 28.7823 18.2644L28.7134 17.8877C28.6919 17.765 28.6273 17.6595 28.539 17.5842C28.4508 17.5089 28.3367 17.4637 28.214 17.4615C28.0805 17.4572 27.9471 17.4572 27.8158 17.4593C27.6952 17.4615 27.5618 17.4658 27.4154 17.4744C27.2927 17.4809 27.1808 17.5282 27.099 17.6014C27.015 17.6746 26.9547 17.7779 26.9332 17.9006L26.8643 18.258C26.8105 18.5507 26.6814 18.8069 26.4941 19.0114C26.3068 19.218 26.0614 19.3708 25.7773 19.4505C25.4974 19.5301 25.224 19.6249 24.9614 19.7325C24.6988 19.8423 24.4383 19.9671 24.1843 20.107C23.9281 20.2513 23.6483 20.3158 23.3706 20.3029C23.0908 20.29 22.8174 20.1974 22.5742 20.0317L22.3158 19.8552C22.2147 19.7863 22.0963 19.7562 21.9822 19.7626C21.8703 19.7691 21.7605 19.8164 21.6679 19.9004L21.6658 19.8982L21.6636 19.9004C21.6356 19.9262 21.584 19.9736 21.5151 20.0403L21.5129 20.0382L21.5108 20.0403C21.5022 20.0489 21.4742 20.0791 21.3666 20.1867C21.2869 20.2663 21.2396 20.3137 21.2202 20.3352L21.218 20.3331C21.1857 20.3653 21.147 20.4062 21.1039 20.4558C21.0975 20.4665 21.0889 20.4751 21.0803 20.4837C20.9963 20.5741 20.949 20.6861 20.9425 20.798C20.9339 20.9121 20.964 21.0305 21.0351 21.1317L21.2116 21.3878C21.3795 21.6311 21.4699 21.9044 21.4828 22.1843C21.4957 22.462 21.4311 22.7396 21.2869 22.998C21.1448 23.252 21.02 23.5103 20.9124 23.7751C20.8026 24.0398 20.7079 24.3132 20.6304 24.5909C20.5486 24.8772 20.3979 25.1205 20.1912 25.3077C19.9868 25.495 19.7284 25.6242 19.4378 25.678L19.074 25.7447C18.9535 25.7662 18.8502 25.8265 18.7748 25.9105C18.7017 25.9944 18.6543 26.1042 18.6478 26.2269C18.6392 26.3711 18.6349 26.5046 18.6328 26.6251C18.6306 26.7586 18.6306 26.892 18.6349 27.0277C18.6392 27.1525 18.6823 27.2666 18.7576 27.3527C18.833 27.441 18.9384 27.5034 19.0611 27.5271L19.4357 27.5959C19.7263 27.6497 19.9846 27.7789 20.1891 27.964C20.3957 28.1513 20.5464 28.3967 20.6282 28.6808C20.7079 28.9607 20.8026 29.2341 20.9102 29.4967C21.02 29.7593 21.1448 30.0198 21.2848 30.2738C21.429 30.53 21.4936 30.8098 21.4806 31.0875C21.4677 31.3673 21.3773 31.6407 21.2094 31.8839L20.9145 32.3123C20.8456 32.4135 20.8155 32.5276 20.8219 32.6395C20.8284 32.7493 20.8736 32.8591 20.9554 32.9516C21.0372 33.0463 21.1039 33.1195 21.1621 33.1819ZM31.8174 22.9487C32.8786 24.01 33.4081 25.4005 33.4081 26.7911C33.4081 28.1817 32.8786 29.5723 31.8174 30.6335C30.7561 31.6947 29.3656 32.2243 27.975 32.2243V32.2221C26.5823 32.2221 25.1917 31.6926 24.1326 30.6335C23.0714 29.5723 22.5419 28.1817 22.5419 26.7911C22.5419 25.4005 23.0714 24.01 24.1326 22.9487C25.1938 21.8875 26.5844 21.358 27.975 21.358V21.3601C29.3655 21.3601 30.7561 21.8897 31.8174 22.9487ZM32.4007 26.7933C32.4007 27.9255 31.9681 29.06 31.1049 29.9231C30.2417 30.7863 29.1073 31.219 27.975 31.219V31.2212C26.8427 31.2212 25.7105 30.7885 24.8451 29.9231C23.9798 29.06 23.5493 27.9255 23.5493 26.7933C23.5493 25.661 23.9819 24.5266 24.8451 23.6634C25.7083 22.8002 26.8427 22.3675 27.975 22.3675V22.3654C29.1073 22.3654 30.2395 22.7981 31.1049 23.6634C31.968 24.5266 32.4007 25.6589 32.4007 26.7933ZM49.4059 25.7686C45.9553 29.5959 41.7037 33.1716 36.9233 36.2537C32.179 39.3147 26.916 41.8872 21.4054 43.7404C21.2267 43.8007 21.0868 43.9234 21.005 44.0762H21.0072C20.9318 44.2183 20.906 44.384 20.9405 44.5519C20.9426 44.567 20.9469 44.5799 20.9512 44.595C21.0007 44.7736 21.1148 44.92 21.2633 45.0083H21.2655C21.414 45.0987 21.5948 45.1353 21.7735 45.0965C27.6974 43.8588 33.219 41.8612 38.3632 39.1577C43.4218 36.5015 48.1164 33.1627 52.4731 29.2001L53.375 30.1537C53.4633 30.2462 53.5688 30.313 53.6807 30.3474V30.3453C53.797 30.3797 53.9196 30.384 54.0402 30.3582C54.1629 30.3302 54.2705 30.2721 54.3609 30.1903C54.4513 30.1085 54.5181 30.0051 54.5568 29.8868L55.6159 26.5911L56.6707 23.3042C56.7094 23.1815 56.7159 23.0588 56.6901 22.9404C56.6642 22.822 56.6083 22.71 56.5221 22.6153H56.52C56.436 22.5228 56.3306 22.4539 56.2143 22.4173C56.0959 22.3807 55.9711 22.3721 55.8505 22.3979L49.1 23.8574C48.9989 23.8789 48.9063 23.9219 48.8267 23.9844C48.8094 23.9973 48.7922 24.0102 48.775 24.0253C48.6867 24.1071 48.6179 24.2104 48.5791 24.3309C48.5447 24.4385 48.5361 24.5505 48.5511 24.656C48.5533 24.6689 48.5554 24.6818 48.5576 24.6947C48.5834 24.8131 48.6394 24.9229 48.7255 25.0176L49.4059 25.7686ZM49.8214 24.7311L50.3079 25.2692C50.3165 25.2779 50.3251 25.2843 50.3315 25.2929C50.4521 25.4264 50.5145 25.5943 50.5145 25.7643C50.5145 25.9344 50.4564 26.1023 50.338 26.2358C46.797 30.2051 42.4099 33.912 37.4658 37.0999C34.069 39.2913 30.4094 41.235 26.5801 42.8519C30.543 41.683 34.3098 40.1504 37.8917 38.2669C42.9567 35.6063 47.6538 32.2526 52.0083 28.2574C52.1503 28.1283 52.3311 28.0658 52.5077 28.0723C52.6863 28.0788 52.8628 28.152 52.9963 28.2919L53.7519 29.0926L54.6538 26.2792L55.5493 23.4894L52.6842 24.1094L49.8214 24.7311Z" fill="white"/>
</svg>
