<svg width="80" height="80" viewBox="0 0 80 80" fill="none" xmlns="http://www.w3.org/2000/svg">
<circle cx="40" cy="40" r="40" fill="#73BE5F"/>
<path d="M57.0771 33.9386H54.46V33.088C56.6385 31.8233 57.9787 29.5163 57.9787 26.9788C57.9787 23.0828 54.8088 19.9187 50.9186 19.9187C47.0225 19.9187 43.8585 23.0886 43.8585 26.9788C43.8585 27.0421 43.8646 27.1033 43.8646 27.1665L32.2823 27.1645C31.2073 27.1645 30.3343 28.0416 30.3343 29.1166V33.9367L19.5311 33.9387C18.2725 33.9387 17.2485 34.9627 17.2485 36.2213V44.8783C17.2485 45.1088 17.3893 45.3229 17.6035 45.4066C17.9115 45.531 18.2256 45.6575 18.5438 45.7778V60.8646C18.5438 62.0395 19.4985 63.0002 20.6795 63.0002H55.9214C57.0964 63.0002 58.0571 62.0456 58.0571 60.8646V45.7757C58.3753 45.6554 58.6936 45.535 58.9975 45.4045C59.2117 45.3147 59.3524 45.1067 59.3524 44.8762V36.2192C59.3585 34.9606 58.3346 33.9387 57.076 33.9387L57.0771 33.9386ZM50.9146 21.0654C54.1783 21.0654 56.8301 23.7172 56.8301 26.9809C56.8301 29.2063 55.6021 31.2217 53.6235 32.2394C53.4297 32.3393 53.3155 32.5311 53.3155 32.7514V46.9279L50.9187 48.6251L48.5219 46.9279V45.549L51.1737 44.2231C51.3674 44.1232 51.4919 43.9253 51.4919 43.7111C51.4919 43.4908 51.3715 43.293 51.1737 43.1991L48.5219 41.8732V39.4091L51.1737 38.0832C51.3674 37.9832 51.4919 37.7854 51.4919 37.5712C51.4919 37.3509 51.3715 37.153 51.1737 37.0592L48.5219 35.7333V32.7613C48.5219 32.5471 48.4016 32.3492 48.2139 32.2493C46.2352 31.2314 45.0073 29.216 45.0073 26.9907C45.0032 23.7189 47.657 21.0649 50.9144 21.0649L50.9146 21.0654ZM46.2781 32.3031C46.6126 32.5948 46.9839 32.862 47.3756 33.0864V33.937H46.2781V32.3031ZM31.4791 29.1189C31.4791 28.6742 31.8401 28.3152 32.2828 28.3152H43.9852C44.1729 29.3024 44.5645 30.2204 45.1336 31.0302V33.939H31.4792L31.4791 29.1189ZM18.3976 36.2197C18.3976 35.5935 18.9034 35.0856 19.5317 35.0856H47.3752V36.0769C47.3752 36.2972 47.4955 36.495 47.6934 36.5889L49.6415 37.5599L47.6934 38.5308C47.4996 38.6308 47.3752 38.8286 47.3752 39.0428V42.2168C47.3752 42.4371 47.4955 42.6349 47.6934 42.7288L49.6415 43.6997L47.6934 44.6707C47.4996 44.7707 47.3752 44.9685 47.3752 45.1827V47.2144C47.3752 47.2307 47.3813 47.2409 47.3813 47.2511C45.8616 47.4714 44.3012 47.6325 42.7223 47.7366V46.886C42.7223 45.3133 41.4434 44.0343 39.8707 44.0343H36.7436C35.1709 44.0343 33.892 45.3133 33.892 46.886V47.7366C28.1274 47.3551 22.789 46.2332 18.3974 44.4789L18.3976 36.2197ZM41.5721 46.8939V50.021C41.5721 50.9613 40.8092 51.7242 39.8688 51.7242H36.7418C35.8014 51.7242 35.0385 50.9613 35.0385 50.021V46.8939C35.0385 45.9535 35.8014 45.1907 36.7418 45.1907H39.8688C40.8051 45.1907 41.5721 45.9535 41.5721 46.8939ZM56.9157 60.8626C56.9157 61.4052 56.4711 61.8499 55.9285 61.8499H20.6803C20.1377 61.8499 19.693 61.4052 19.693 60.8626V46.1942C23.8604 47.6363 28.7113 48.5603 33.892 48.899V50.027C33.892 51.5997 35.171 52.8787 36.7437 52.8787H39.8708C41.4435 52.8787 42.7224 51.5997 42.7224 50.027V48.899C44.6644 48.7745 46.5818 48.5604 48.43 48.2667L50.5922 49.7965C50.6922 49.8638 50.8064 49.9006 50.9206 49.9006C51.0349 49.9006 51.1511 49.8638 51.2491 49.7965L54.2211 47.6915C54.372 47.5813 54.4618 47.41 54.4618 47.2223V46.9551C55.3022 46.7205 56.1222 46.4635 56.9157 46.1881L56.9157 60.8626ZM58.2111 44.4908C57.0361 44.9599 55.7775 45.3842 54.4618 45.7656V35.081H57.0789C57.7052 35.081 58.2131 35.5869 58.2131 36.2152L58.2111 44.4908ZM50.9144 30.0427C52.6054 30.0427 53.9803 28.6699 53.9803 26.9768C53.9803 25.2858 52.6075 23.9109 50.9144 23.9109C49.2234 23.9109 47.8486 25.2837 47.8486 26.9768C47.8506 28.6699 49.2275 30.0427 50.9144 30.0427ZM50.9144 25.0614C51.9751 25.0614 52.8359 25.9222 52.8359 26.9829C52.8359 28.0436 51.9752 28.9044 50.9144 28.9044C49.8537 28.9044 48.9929 28.0436 48.9929 26.9829C48.9929 25.9222 49.8598 25.0614 50.9144 25.0614ZM50.3453 18.4807V16.5755C50.3453 16.2573 50.6003 16.0002 50.9206 16.0002C51.2388 16.0002 51.4958 16.2552 51.4958 16.5755V18.4868C51.4958 18.8051 51.2409 19.0621 50.9206 19.0621C50.6024 19.056 50.3453 18.7989 50.3453 18.4807ZM54.6697 19.3374L55.6244 17.681C55.7814 17.4036 56.1302 17.3159 56.4077 17.473C56.679 17.63 56.7728 17.9788 56.6157 18.2563L55.6611 19.9126C55.5571 20.0962 55.3633 20.2002 55.1654 20.2002C55.0655 20.2002 54.9716 20.1737 54.8778 20.1227C54.6024 19.9575 54.5086 19.6087 54.6697 19.3374ZM57.7764 23.0193C57.6193 22.7419 57.7131 22.3931 57.9844 22.236L59.6408 21.2814C59.9182 21.1243 60.267 21.2181 60.4241 21.4894C60.5812 21.7668 60.4873 22.1156 60.216 22.2727L58.5597 23.2273C58.4699 23.2804 58.372 23.3049 58.2721 23.3049C58.0742 23.3049 57.8865 23.2008 57.7764 23.0193ZM61.8968 26.9765C61.8968 27.2947 61.6418 27.5518 61.3216 27.5518H59.4102C59.092 27.5518 58.835 27.2968 58.835 26.9765C58.835 26.6583 59.09 26.4013 59.4102 26.4013H61.3216C61.6418 26.4074 61.8968 26.6644 61.8968 26.9765ZM45.2174 18.2564C45.0603 17.979 45.1541 17.6302 45.4254 17.4731C45.7029 17.316 46.0517 17.4099 46.2087 17.6812L47.1634 19.3375C47.3204 19.6149 47.2266 19.9637 46.9553 20.1208C46.8655 20.1738 46.7676 20.1983 46.6677 20.1983C46.4698 20.1983 46.276 20.0943 46.172 19.9107L45.2174 18.2564ZM41.411 21.4895C41.5681 21.2182 41.9169 21.1244 42.1943 21.2814L43.8507 22.2361C44.122 22.3931 44.2158 22.7419 44.0587 23.0194C43.9547 23.2029 43.7609 23.307 43.5631 23.307C43.4631 23.307 43.3693 23.2805 43.2754 23.2295L41.6191 22.2748C41.3437 22.1157 41.2499 21.7649 41.411 21.4895ZM28.7948 58.91C28.7948 59.2283 28.5398 59.4853 28.2195 59.4853H24.3439C24.0256 59.4853 23.7686 59.2303 23.7686 58.91C23.7686 58.5918 24.0236 58.3348 24.3439 58.3348H28.2195C28.5398 58.3348 28.7948 58.5898 28.7948 58.91ZM28.7948 56.2358C28.7948 56.554 28.5398 56.8111 28.2195 56.8111H24.3439C24.0256 56.8111 23.7686 56.5561 23.7686 56.2358C23.7686 55.9176 24.0236 55.6606 24.3439 55.6606H28.2195C28.5398 55.6606 28.7948 55.9176 28.7948 56.2358Z" fill="white"/>
</svg>
