<svg width="80" height="80" viewBox="0 0 80 80" fill="none" xmlns="http://www.w3.org/2000/svg">
<circle cx="40" cy="40" r="40" fill="#73BE5F"/>
<path fill-rule="evenodd" clip-rule="evenodd" d="M20.1322 48.6427V42.8056C20.1322 42.2017 21.0513 42.2017 21.0513 42.8056V48.6408H29.1639L29.1658 41.1193C29.162 40.9523 29.2502 40.791 29.4078 40.7066L32.6583 38.9678C32.6808 38.9528 32.7052 38.9397 32.7315 38.9285L37.0249 36.6307C37.8859 36.0943 37.6927 34.8601 36.7642 34.6144C36.4472 34.5299 36.1996 34.5843 35.907 34.7381L30.4056 37.5329C29.5634 37.9606 28.8581 38.0075 27.9428 37.985C25.7145 37.9306 25.0561 37.9156 21.0067 38.0731C20.0557 38.1013 19.3598 38.3057 18.8384 38.709C18.347 39.0897 18.075 39.6299 18.0469 40.2695V47.8866C18.0469 48.2974 18.3864 48.6387 18.8009 48.6387L20.1326 48.6406L20.1322 48.6427ZM44.2482 28.9516C45.7037 27.7493 47.8626 27.9537 49.0648 29.4074C50.2671 30.8629 50.0627 33.0218 48.609 34.224C47.1535 35.4263 44.9946 35.2219 43.7924 33.7682C42.59 32.3127 42.7945 30.1538 44.2482 28.9516ZM46.6659 29.0941C44.4564 28.8841 43.0777 31.4631 44.4995 33.1831C45.9213 34.9031 48.7123 34.0328 48.9224 31.8251C49.0537 30.4503 48.039 29.2254 46.6659 29.0941ZM48.2096 25.6822L47.7519 24.0973C47.7107 23.8853 47.525 23.7278 47.3018 23.7278H45.5574V23.7296C45.3586 23.7296 45.1766 23.8591 45.1185 24.0598L44.6496 25.6822C44.2575 25.8004 43.8749 25.9598 43.5129 26.153L42.0574 25.3502C41.8792 25.2377 41.641 25.2583 41.4872 25.414L40.2548 26.6463C40.1142 26.787 40.0766 27.0083 40.1779 27.1903L40.9957 28.6702C40.8025 29.0322 40.6431 29.4148 40.5249 29.8068L38.94 30.2645C38.728 30.3058 38.5704 30.4915 38.5704 30.7147V32.4591H38.5723C38.5723 32.6579 38.7017 32.8398 38.9024 32.898L40.5249 33.3669C40.6431 33.7589 40.8025 34.1416 40.9957 34.5036L40.1929 35.9591C40.0804 36.1373 40.101 36.3755 40.2567 36.5293L41.489 37.7635C41.6297 37.9042 41.851 37.9417 42.0348 37.8404L43.5147 37.0226C43.8767 37.2158 44.2594 37.3752 44.6514 37.4934L45.1091 39.0784C45.1503 39.2903 45.336 39.4479 45.5592 39.4479H47.3036V39.446C47.5024 39.446 47.6844 39.3166 47.7425 39.1159L48.2115 37.4934C48.6035 37.3752 48.9861 37.2158 49.3481 37.0226L50.8036 37.8254C50.9818 37.938 51.22 37.9173 51.3738 37.7617L52.6062 36.5275C52.7469 36.3868 52.7844 36.1654 52.6831 35.9816L51.8653 34.5017C52.0585 34.1397 52.2179 33.7571 52.3361 33.3651L53.9211 32.9074C54.133 32.8661 54.2906 32.6804 54.2906 32.4572V30.7128H54.2887C54.2887 30.514 54.1593 30.3321 53.9586 30.2739L52.3361 29.805C52.2179 29.413 52.0585 29.0303 51.8653 28.6683L52.6681 27.2128C52.7807 27.0346 52.76 26.7964 52.6043 26.6426L51.372 25.4103C51.2313 25.2696 51.01 25.2321 50.8262 25.3334L49.3463 26.1512C48.9824 25.9598 48.5998 25.8004 48.2096 25.6822ZM48.4366 26.7364C48.2096 26.6426 47.9714 26.5638 47.7275 26.5V26.4982C47.5756 26.4588 47.4481 26.3444 47.4012 26.1812L46.9566 24.645H45.9006L45.4673 26.1455C45.4336 26.3125 45.306 26.455 45.1297 26.5C44.657 26.6201 44.1712 26.817 43.7548 27.0684C43.6198 27.1509 43.4435 27.1622 43.2934 27.0796L41.8923 26.305L41.1457 27.0515L41.9166 28.4451C41.9954 28.5839 42.0011 28.7584 41.9129 28.9065C41.6541 29.3417 41.4665 29.7956 41.3408 30.2889H41.3389C41.2995 30.4408 41.1851 30.5684 41.0219 30.6153L39.4858 31.0598V32.1158L40.9863 32.5491C41.1533 32.5829 41.2958 32.7104 41.3408 32.8867C41.4609 33.3594 41.6578 33.8452 41.9092 34.2616C41.9936 34.3967 42.0029 34.573 41.9204 34.7231L41.1457 36.1242L41.8923 36.8707L43.2859 36.1017C43.4247 36.0229 43.5991 36.0173 43.7473 36.1054C44.1825 36.3624 44.6364 36.5519 45.1297 36.6775V36.6794C45.2816 36.7188 45.4092 36.8332 45.4561 36.9964L45.9006 38.5326H46.9566L47.3899 37.032C47.4237 36.8651 47.5512 36.7225 47.7275 36.6775C48.1983 36.5575 48.686 36.3605 49.1024 36.1092C49.2374 36.0248 49.4138 36.0154 49.5638 36.0979L50.965 36.8726L51.7115 36.1261L50.9425 34.7324C50.8637 34.5936 50.8581 34.4192 50.9462 34.271C51.2051 33.8359 51.3926 33.3819 51.5183 32.8886H51.5202C51.5596 32.7367 51.674 32.6092 51.8372 32.5623L53.3733 32.1177L53.3715 31.0599L51.8709 30.6266C51.704 30.5928 51.5614 30.4653 51.5164 30.2889C51.3964 29.8181 51.1994 29.3305 50.9481 28.9141C50.8637 28.779 50.8543 28.6027 50.9368 28.4526L51.7115 27.0515L50.965 26.3049L49.5713 27.0759C49.4325 27.1547 49.2581 27.1603 49.1099 27.0721C48.8923 26.9446 48.6673 26.832 48.4366 26.7364ZM25.2022 28.3101C27.5262 28.3101 29.4113 30.1951 29.4113 32.5191C29.4113 34.8431 27.5262 36.7281 25.2022 36.7281C22.8783 36.7281 20.9932 34.8431 20.9932 32.5191C20.9932 30.1951 22.8764 28.3101 25.2022 28.3101ZM27.5281 30.1933C28.813 31.4781 28.813 33.562 27.5281 34.8468C26.2433 36.1317 24.1594 36.1317 22.8745 34.8468C21.5897 33.562 21.5897 31.4781 22.8745 30.1933C24.1594 28.9084 26.2433 28.9084 27.5281 30.1933ZM54.1102 46.9937C55.8265 46.9937 57.2183 48.3854 57.2183 50.1017C57.2183 51.818 55.8265 53.2098 54.1102 53.2098C52.3939 53.2098 51.0022 51.818 51.0022 50.1017C51.0022 48.3854 52.3939 46.9937 54.1102 46.9937ZM55.6577 48.5543C54.2828 47.1794 51.9214 48.1585 51.9214 50.1017C51.9214 52.0468 54.2829 53.024 55.6577 51.6492C56.513 50.7958 56.513 49.4096 55.6577 48.5543ZM50.6235 61.2641V57.5015C50.6235 56.8975 51.5426 56.8975 51.5426 57.5015V61.2641H56.682L56.6839 57.5015C56.6839 56.8994 57.5992 56.8994 57.5992 57.5015L57.5973 61.2641H58.3438C58.537 61.2641 58.6983 61.1046 58.6983 60.9096H58.7002V55.8077C58.6796 54.8905 57.8017 54.4947 56.8714 54.4797C56.8583 54.4797 56.8433 54.4778 56.8301 54.4778C55.8323 54.369 52.0154 54.4685 51.3456 54.4797C50.4208 54.4966 49.5505 54.898 49.5299 55.8077V60.9096C49.5299 61.1009 49.6893 61.2641 49.8863 61.2641H50.6235ZM57.1472 62.1832C54.7314 62.155 52.2984 62.1832 49.8807 62.1832C49.1811 62.1832 48.6109 61.6148 48.6109 60.9115V55.8096V55.7702C48.6409 55.11 48.926 54.5491 49.4399 54.1515C49.9314 53.7707 50.5129 53.6038 51.3325 53.5662C51.9027 53.5437 53.4821 53.5137 54.8157 53.5137C55.7254 53.5137 56.5451 53.5269 56.9146 53.5662C57.6986 53.585 58.3307 53.7988 58.7865 54.1515C59.3004 54.5491 59.5856 55.11 59.6156 55.7702V60.9095H59.6174C59.6174 61.611 59.0454 62.1812 58.3457 62.1812L57.1472 62.1832ZM38.7915 46.9937C40.5077 46.9937 41.8995 48.3855 41.8995 50.1018C41.8995 51.8181 40.5078 53.2098 38.7915 53.2098C37.0752 53.2098 35.6835 51.8181 35.6835 50.1018C35.6835 48.3855 37.0752 46.9937 38.7915 46.9937ZM40.339 48.5543C41.1943 49.4096 41.1943 50.7958 40.339 51.6492C38.9641 53.0241 36.6026 52.045 36.6026 50.1017C36.6026 48.1585 38.9641 47.1795 40.339 48.5543ZM35.3029 61.2641V57.5015C35.3029 56.8975 36.222 56.8975 36.222 57.5015V61.2641H41.3613L41.3632 57.5015C41.3632 56.8994 42.2785 56.8994 42.2785 57.5015L42.2766 61.2641H43.0213C43.2145 61.2641 43.3758 61.1047 43.3758 60.9096H43.3777V55.8077C43.357 54.8905 42.4792 54.4947 41.547 54.4798C41.5339 54.4798 41.5189 54.4779 41.5057 54.4779C40.5079 54.3691 36.691 54.4685 36.0211 54.4798C35.0964 54.4966 34.2261 54.898 34.2055 55.8077V60.9096H34.2074C34.2074 61.1028 34.3668 61.2641 34.5619 61.2641H35.3029ZM41.8266 62.1832C39.4107 62.1551 36.9777 62.1832 34.56 62.1832C33.8585 62.1832 33.2883 61.6111 33.2883 60.9115H33.2902V55.8096V55.7703C33.3202 55.11 33.6053 54.5492 34.1193 54.1515C34.6107 53.7708 35.1922 53.6038 36.0119 53.5663C36.5821 53.5438 38.1614 53.5138 39.495 53.5138C40.4047 53.5138 41.2244 53.5269 41.5939 53.5663C42.3779 53.5851 43.01 53.7989 43.4658 54.1515C43.9798 54.5492 44.2649 55.11 44.2949 55.7703V60.9096H44.2968C44.2968 61.6111 43.7266 62.1813 43.0251 62.1813L41.8266 62.1832ZM46.878 45.4164C47.9434 45.7578 48.2829 47.1158 47.4839 47.9148C46.5366 48.8621 44.9141 48.1868 44.9141 46.8494C44.9141 46.1854 45.3455 45.6115 45.9608 45.4145V42.0589L32.9096 42.0607C32.6564 42.0607 32.45 41.8544 32.45 41.6012V40.1175L30.0792 41.3855V49.1019C30.0792 49.3552 29.8747 49.5596 29.6215 49.5596V49.5615L18.7988 49.5596C17.8778 49.5596 17.1294 48.8131 17.1294 47.8884V40.2339C17.1707 39.3185 17.5664 38.5383 18.2773 37.9886C18.9263 37.4859 19.8341 37.184 20.9689 37.1633C25.0392 37.0039 25.7069 37.0189 27.9613 37.0733C28.7172 37.092 29.2967 37.0714 29.9908 36.7188L32.4498 35.4696V22.0265C30.8442 21.8858 30.094 19.9126 31.2587 18.7478C31.6076 18.3989 32.0897 18.1832 32.6186 18.1832H60.2139C61.9114 18.1832 62.7911 20.2502 61.5738 21.4695C61.268 21.7752 60.8591 21.9797 60.4052 22.0246V41.6015C60.4052 41.8547 60.1989 42.061 59.9457 42.061H46.8776L46.878 45.4164ZM46.833 46.4349C46.4635 46.0654 45.8314 46.328 45.8314 46.8494C45.8314 47.3709 46.4654 47.6335 46.833 47.264C47.0618 47.0351 47.0618 46.6638 46.833 46.4349ZM33.3693 39.6279L37.4471 37.4465C37.4677 37.4371 37.4865 37.4277 37.5052 37.4165C39.0358 36.4768 38.7188 34.1884 36.9969 33.7326C36.5017 33.6013 35.9578 33.6576 35.4814 33.9314L33.3712 35.0043L33.3694 22.0338H59.4886V41.1415H33.3694L33.3693 39.6279ZM60.216 19.1023H32.6207C31.7392 19.1023 31.2702 20.1789 31.9098 20.8185C32.2268 21.1355 32.5269 21.1149 32.9095 21.1149H60.2158C61.0973 21.1149 61.5663 20.0382 60.9267 19.3968C60.7429 19.2148 60.4917 19.1023 60.216 19.1023Z" fill="white"/>
</svg>
