<svg width="30" height="30" viewBox="0 0 30 30" fill="none" xmlns="http://www.w3.org/2000/svg">
<g clip-path="url(#clip0_85_266)">
<path fill-rule="evenodd" clip-rule="evenodd" d="M15.9366 6.55781V7.49437C15.9197 8.325 14.5763 8.79844 14.1516 7.89094C14.095 7.76629 14.065 7.63124 14.0634 7.49437V6.55781H11.2547C10.5338 6.52312 10.0509 5.58094 10.5469 5.00813C10.7175 4.81125 10.8553 4.70438 11.2547 4.68469C12.1903 4.68469 13.1269 4.68187 14.0634 4.67625V3.74906C14.061 3.6492 14.0768 3.54974 14.1103 3.45563C14.2341 3.07969 14.6044 2.8125 15.0188 2.8125C15.5184 2.83219 15.9253 3.20625 15.9366 3.74906V4.665C17.8088 4.65375 19.6819 4.64344 21.555 4.65281V3.74906C21.5644 3.24844 21.93 2.83406 22.4728 2.8125H22.5094C23.01 2.83219 23.4169 3.20625 23.4272 3.74906V4.66969L24.4331 4.68563C25.8684 4.73063 27.1453 5.96531 27.1725 7.45969C27.2081 13.1006 27.2081 18.7425 27.1725 24.3844C27.1462 25.8328 25.8928 27.1303 24.3984 27.1584C18.1331 27.1969 11.8669 27.1969 5.60156 27.1584C4.15875 27.1313 2.85562 25.9031 2.8275 24.3844C2.79187 18.7425 2.79187 13.1006 2.8275 7.45969C2.85375 6.00094 4.10344 4.695 5.63344 4.68469H6.57281V3.74906C6.56986 3.64917 6.58576 3.54962 6.61969 3.45563C6.74344 3.07969 7.11375 2.8125 7.52719 2.8125C8.02781 2.83219 8.43469 3.20625 8.445 3.74906V7.49437C8.42906 8.32406 7.12406 8.78906 6.67688 7.92469C6.60952 7.79117 6.57391 7.64391 6.57281 7.49437V6.55406C6.25281 6.55156 5.93279 6.55281 5.61281 6.55781C5.1375 6.57281 4.71469 6.98906 4.69969 7.47094C4.59516 13.1042 4.59516 18.7389 4.69969 24.3722C4.71469 24.8484 5.13094 25.2703 5.61281 25.2853C11.8704 25.4016 18.1296 25.4016 24.3872 25.2853C24.8625 25.2703 25.2853 24.8541 25.3003 24.3722C25.4044 18.7397 25.4044 13.1034 25.3003 7.47094C25.2861 7.22889 25.1818 7.00092 25.008 6.83192C24.8341 6.66291 24.6033 6.56513 24.3609 6.55781H23.4272V7.49437C23.4113 8.31656 22.1025 8.78062 21.6591 7.92469C21.5922 7.79101 21.5566 7.64385 21.555 7.49437V6.55781H15.9366ZM7.50844 21.54C7.63398 21.536 7.75905 21.5573 7.8762 21.6026C7.99336 21.6479 8.10022 21.7163 8.19043 21.8037C8.28064 21.8911 8.35237 21.9958 8.40135 22.1114C8.45034 22.2271 8.47558 22.3514 8.47558 22.477C8.47558 22.6026 8.45034 22.727 8.40135 22.8426C8.35237 22.9583 8.28064 23.0629 8.19043 23.1503C8.10022 23.2377 7.99336 23.3061 7.8762 23.3514C7.75905 23.3967 7.63398 23.418 7.50844 23.4141C7.26505 23.4064 7.03421 23.3043 6.86477 23.1294C6.69533 22.9545 6.60058 22.7205 6.60058 22.477C6.60058 22.2335 6.69533 21.9996 6.86477 21.8247C7.03421 21.6498 7.26505 21.5477 7.50844 21.54ZM11.2547 21.54C11.3812 21.5345 11.5075 21.5546 11.6261 21.5993C11.7446 21.6439 11.8528 21.7121 11.9443 21.7997C12.0357 21.8873 12.1084 21.9925 12.1581 22.109C12.2077 22.2255 12.2333 22.3509 12.2332 22.4775C12.233 22.6042 12.2072 22.7295 12.1574 22.8459C12.1075 22.9623 12.0345 23.0674 11.9429 23.1548C11.8513 23.2423 11.7429 23.3102 11.6243 23.3546C11.5057 23.399 11.3793 23.4189 11.2528 23.4131C11.0117 23.4021 10.7841 23.2985 10.6174 23.1239C10.4508 22.9492 10.3579 22.7171 10.3582 22.4757C10.3584 22.2343 10.4517 22.0023 10.6187 21.828C10.7857 21.6537 11.0135 21.5505 11.2547 21.54ZM15 21.54C15.2411 21.5508 15.4688 21.6542 15.6357 21.8286C15.8025 22.0031 15.8956 22.2352 15.8956 22.4766C15.8956 22.7179 15.8025 22.95 15.6357 23.1245C15.4688 23.2989 15.2411 23.4023 15 23.4131C14.7589 23.4023 14.5312 23.2989 14.3643 23.1245C14.1975 22.95 14.1044 22.7179 14.1044 22.4766C14.1044 22.2352 14.1975 22.0031 14.3643 21.8286C14.5312 21.6542 14.7589 21.5508 15 21.54ZM7.50844 17.7947C7.63386 17.7907 7.7588 17.812 7.87584 17.8573C7.99288 17.9025 8.09963 17.9708 8.18976 18.0581C8.27988 18.1455 8.35154 18.25 8.40047 18.3655C8.44941 18.4811 8.47463 18.6053 8.47463 18.7308C8.47463 18.8563 8.44941 18.9805 8.40047 19.096C8.35154 19.2116 8.27988 19.3161 8.18976 19.4034C8.09963 19.4907 7.99288 19.5591 7.87584 19.6043C7.7588 19.6496 7.63386 19.6708 7.50844 19.6669C7.2653 19.6592 7.03469 19.5572 6.86542 19.3825C6.69615 19.2078 6.6015 18.974 6.6015 18.7308C6.6015 18.4875 6.69615 18.2538 6.86542 18.0791C7.03469 17.9044 7.2653 17.8024 7.50844 17.7947ZM11.2547 17.7947C11.503 17.7947 11.7411 17.8933 11.9166 18.0689C12.0922 18.2444 12.1908 18.4825 12.1908 18.7308C12.1908 18.979 12.0922 19.2171 11.9166 19.3927C11.7411 19.5683 11.503 19.6669 11.2547 19.6669C11.0064 19.6669 10.7683 19.5683 10.5928 19.3927C10.4172 19.2171 10.3186 18.979 10.3186 18.7308C10.3186 18.4825 10.4172 18.2444 10.5928 18.0689C10.7683 17.8933 11.0064 17.7947 11.2547 17.7947ZM15 17.7947C15.1255 17.7907 15.2506 17.812 15.3678 17.8573C15.4849 17.9026 15.5918 17.971 15.682 18.0584C15.7722 18.1458 15.8439 18.2505 15.8929 18.3661C15.9419 18.4818 15.9671 18.6061 15.9671 18.7317C15.9671 18.8573 15.9419 18.9817 15.8929 19.0973C15.8439 19.213 15.7722 19.3176 15.682 19.405C15.5918 19.4924 15.4849 19.5608 15.3678 19.6061C15.2506 19.6514 15.1255 19.6727 15 19.6687C14.7566 19.6611 14.5258 19.559 14.3563 19.3841C14.1869 19.2092 14.0921 18.9752 14.0921 18.7317C14.0921 18.4882 14.1869 18.2543 14.3563 18.0794C14.5258 17.9045 14.7566 17.8024 15 17.7947ZM18.7453 17.7947C18.8709 17.7907 18.9959 17.812 19.1131 17.8573C19.2302 17.9026 19.3371 17.971 19.4273 18.0584C19.5175 18.1458 19.5892 18.2505 19.6382 18.3661C19.6872 18.4818 19.7125 18.6061 19.7125 18.7317C19.7125 18.8573 19.6872 18.9817 19.6382 19.0973C19.5892 19.213 19.5175 19.3176 19.4273 19.405C19.3371 19.4924 19.2302 19.5608 19.1131 19.6061C18.9959 19.6514 18.8709 19.6727 18.7453 19.6687C18.5019 19.6611 18.2711 19.559 18.1016 19.3841C17.9322 19.2092 17.8375 18.9752 17.8375 18.7317C17.8375 18.4882 17.9322 18.2543 18.1016 18.0794C18.2711 17.9045 18.5019 17.8024 18.7453 17.7947ZM22.4906 17.7947C22.616 17.7907 22.741 17.812 22.858 17.8573C22.9751 17.9025 23.0818 17.9708 23.1719 18.0581C23.2621 18.1455 23.3337 18.25 23.3827 18.3655C23.4316 18.4811 23.4568 18.6053 23.4568 18.7308C23.4568 18.8563 23.4316 18.9805 23.3827 19.096C23.3337 19.2116 23.2621 19.3161 23.1719 19.4034C23.0818 19.4907 22.9751 19.5591 22.858 19.6043C22.741 19.6496 22.616 19.6708 22.4906 19.6669C22.2475 19.6592 22.0169 19.5572 21.8476 19.3825C21.6783 19.2078 21.5837 18.974 21.5837 18.7308C21.5837 18.4875 21.6783 18.2538 21.8476 18.0791C22.0169 17.9044 22.2475 17.8024 22.4906 17.7947ZM11.2547 14.0494C11.3776 14.0494 11.4992 14.0736 11.6127 14.1206C11.7263 14.1676 11.8294 14.2365 11.9163 14.3234C12.0032 14.4103 12.0721 14.5134 12.1191 14.627C12.1661 14.7405 12.1903 14.8621 12.1903 14.985C12.1903 15.1079 12.1661 15.2295 12.1191 15.343C12.0721 15.4566 12.0032 15.5597 11.9163 15.6466C11.8294 15.7335 11.7263 15.8024 11.6127 15.8494C11.4992 15.8964 11.3776 15.9206 11.2547 15.9206C11.0065 15.9206 10.7686 15.8221 10.5931 15.6466C10.4176 15.4711 10.3191 15.2331 10.3191 14.985C10.3191 14.7369 10.4176 14.4989 10.5931 14.3234C10.7686 14.1479 11.0065 14.0494 11.2547 14.0494ZM15 14.0494C15.1265 14.0437 15.2529 14.0637 15.3714 14.1083C15.49 14.1528 15.5983 14.2208 15.6898 14.3084C15.7814 14.3959 15.8542 14.5011 15.904 14.6175C15.9538 14.734 15.9794 14.8593 15.9794 14.9859C15.9794 15.1126 15.9538 15.2379 15.904 15.3544C15.8542 15.4708 15.7814 15.576 15.6898 15.6635C15.5983 15.751 15.49 15.8191 15.3714 15.8636C15.2529 15.9081 15.1265 15.9282 15 15.9225C14.7589 15.9117 14.5312 15.8083 14.3643 15.6339C14.1975 15.4594 14.1044 15.2273 14.1044 14.9859C14.1044 14.7446 14.1975 14.5125 14.3643 14.338C14.5312 14.1636 14.7589 14.0602 15 14.0494ZM18.7453 14.0494C18.8718 14.0437 18.9982 14.0637 19.1167 14.1083C19.2353 14.1528 19.3436 14.2208 19.4352 14.3084C19.5267 14.3959 19.5995 14.5011 19.6493 14.6175C19.6991 14.734 19.7247 14.8593 19.7247 14.9859C19.7247 15.1126 19.6991 15.2379 19.6493 15.3544C19.5995 15.4708 19.5267 15.576 19.4352 15.6635C19.3436 15.751 19.2353 15.8191 19.1167 15.8636C18.9982 15.9081 18.8718 15.9282 18.7453 15.9225C18.5042 15.9117 18.2765 15.8083 18.1097 15.6339C17.9428 15.4594 17.8497 15.2273 17.8497 14.9859C17.8497 14.7446 17.9428 14.5125 18.1097 14.338C18.2765 14.1636 18.5042 14.0602 18.7453 14.0494ZM22.4906 14.0494C22.7389 14.0493 22.977 14.1478 23.1527 14.3232C23.3283 14.4987 23.4271 14.7367 23.4272 14.985C23.4273 15.2333 23.3288 15.4714 23.1533 15.6471C22.9779 15.8227 22.7398 15.9214 22.4916 15.9216C22.3686 15.9216 22.2469 15.8975 22.1333 15.8505C22.0197 15.8035 21.9165 15.7346 21.8295 15.6477C21.7425 15.5608 21.6735 15.4577 21.6264 15.3441C21.5793 15.2306 21.5551 15.1089 21.555 14.9859C21.5549 14.863 21.5791 14.7413 21.6261 14.6277C21.6731 14.5141 21.742 14.4108 21.8288 14.3239C21.9157 14.2369 22.0189 14.1679 22.1324 14.1208C22.246 14.0737 22.3677 14.0494 22.4906 14.0494Z" fill="#2E4049"/>
</g>
<defs>
<clipPath id="clip0_85_266">
<rect width="30" height="30" fill="white"/>
</clipPath>
</defs>
</svg>
