<svg width="80" height="80" viewBox="0 0 80 80" fill="none" xmlns="http://www.w3.org/2000/svg">
<circle cx="40" cy="40" r="40" fill="#73BE5F"/>
<path d="M62.091 57.7189H59.6061L59.6081 28.8706C59.6081 28.516 59.3199 28.2264 58.9627 28.2264H45.7885V24.8479C45.7885 23.7368 44.8846 22.8346 43.7714 22.8346H37.7124V21.5462C37.7124 20.378 36.7591 19.4285 35.5887 19.4285H27.4611C26.2907 19.4285 25.3394 20.378 25.3394 21.5462V22.8346H19.2803C18.1671 22.8346 17.2632 23.7388 17.2632 24.8479V31.0651C17.2632 31.3724 17.4823 31.6364 17.7822 31.6955V42.1086C17.7822 43.1901 18.6645 44.0707 19.748 44.0707H35.4899V46.409L32.3814 45.1009C32.0478 44.9571 31.6945 44.9571 31.365 45.099L17.8139 50.7982C17.4803 50.944 17.2632 51.275 17.2632 51.6414C17.2632 52.0078 17.4803 52.3388 17.8218 52.4865L20.6678 53.6843V57.4016L19.7757 58.0478C19.5488 58.2113 19.454 58.5028 19.5409 58.7668L19.985 60.1241C20.0718 60.3881 20.3185 60.5674 20.5968 60.5674H22.0277C22.3079 60.5674 22.5547 60.3881 22.6415 60.1222L23.0816 58.7668C23.1684 58.5009 23.0737 58.2113 22.8467 58.0478L21.9566 57.4016V54.226L24.0211 55.0948V56.5486C24.0211 56.9032 24.3092 57.1928 24.6664 57.1928H35.4901V58.3649C35.4901 59.5804 36.4809 60.5713 37.7006 60.5713H60.5283C61.7461 60.5694 62.7369 59.5804 62.7369 58.363C62.7369 58.0084 62.4487 57.7188 62.0915 57.7188L62.091 57.7189ZM21.5574 59.2831H21.064L20.9121 58.8162L21.3107 58.5266L21.7094 58.8162L21.5574 59.2831ZM26.6277 21.5462C26.6277 21.0872 27.0008 20.7149 27.4606 20.7149H35.5882C36.0481 20.7149 36.4231 21.0872 36.4231 21.5462V22.8346H26.6276L26.6277 21.5462ZM19.2797 24.1229H43.7712C44.1719 24.1229 44.4995 24.448 44.4995 24.8499V28.2284L36.1329 28.2264C35.7776 28.2264 35.4875 28.514 35.4875 28.8706V32.0068L34.6547 32.1427V31.5971C34.6547 31.2425 34.3665 30.9529 34.0093 30.9529H29.1501C28.7948 30.9529 28.5047 31.2405 28.5047 31.5971V32.1427L18.5652 30.5215C18.5613 30.5195 18.5554 30.5195 18.5514 30.5175V24.848C18.5514 24.4481 18.8791 24.1229 19.2797 24.1229ZM33.3679 32.2394V33.5908C33.3679 34.5738 32.5666 35.3716 31.5837 35.3716C30.5989 35.3716 29.7996 34.5718 29.7996 33.5908V32.2394H33.3679ZM19.7476 42.7826C19.3746 42.7826 19.0726 42.4792 19.0726 42.1089L19.0706 31.9066L28.5089 33.4452V33.5909C28.5089 35.2832 29.8885 36.6582 31.5819 36.6582C33.2773 36.6582 34.6549 35.2811 34.6549 33.5909V33.4452L35.4878 33.3092V42.7828L19.7476 42.7826ZM21.5851 52.6737C21.5693 52.6659 21.5555 52.66 21.5397 52.654L19.1318 51.6415L31.8659 46.2851C31.8659 46.2851 31.8698 46.2832 31.8718 46.2832C31.8738 46.2851 31.8777 46.2851 31.8777 46.2851L44.6118 51.6415L39.7211 53.6981V52.4905C39.7211 52.3251 39.6579 52.1675 39.5434 52.0473C37.8461 50.2644 34.9783 49.2007 31.8715 49.2007C28.765 49.2007 25.8973 50.2645 24.1997 52.0473C24.0852 52.1675 24.022 52.3251 24.022 52.4905V53.6981L21.5851 52.6737ZM25.3094 54.6713V54.6634V52.7545C26.7897 51.3302 29.2193 50.4851 31.8697 50.4851C34.5202 50.4851 36.9501 51.3282 38.43 52.7545V54.6634V54.6713V55.9045H25.3089L25.3094 54.6713ZM38.618 58.363C38.618 58.8693 38.2055 59.283 37.7002 59.283C37.193 59.283 36.7785 58.8713 36.7785 58.363V57.1909H39.0739C39.4292 57.1909 39.7193 56.9033 39.7193 56.5467V55.0929L45.9264 52.4827C46.2619 52.3369 46.4771 52.0059 46.4771 51.6395C46.4771 51.2731 46.26 50.9421 45.9185 50.7944L36.7783 46.949V29.5128H58.3191V57.7191H39.2632C38.906 57.7191 38.618 58.0085 38.618 58.363ZM60.5256 59.283H39.7053C39.7467 59.1944 39.7823 59.1018 39.8099 59.0072H61.1829C61.0171 59.1766 60.7841 59.283 60.5256 59.283ZM38.6887 32.7116C38.6887 32.357 38.9769 32.0675 39.3341 32.0675H46.4118C46.767 32.0675 47.0571 32.3551 47.0571 32.7116C47.0571 33.0662 46.769 33.3558 46.4118 33.3558L39.3321 33.3538C38.9768 33.3538 38.6887 33.0662 38.6887 32.7116ZM38.6887 36.2241C38.6887 35.8695 38.9769 35.5799 39.3341 35.5799H55.7652C56.1204 35.5799 56.4105 35.8675 56.4105 36.2241C56.4105 36.5787 56.1224 36.8682 55.7652 36.8682H39.3326C38.9773 36.8682 38.6887 36.5806 38.6887 36.2241ZM38.6887 39.7405C38.6887 39.3859 38.9769 39.0964 39.3341 39.0964H55.7652C56.1204 39.0964 56.4105 39.384 56.4105 39.7405C56.4105 40.0951 56.1224 40.3847 55.7652 40.3847H39.3326C38.9773 40.3847 38.6887 40.0951 38.6887 39.7405ZM47.0533 43.255C47.0533 43.6096 46.7652 43.8992 46.4079 43.8992L39.3323 43.8972C38.977 43.8972 38.6869 43.6096 38.6869 43.253C38.6869 42.8984 38.975 42.6089 39.3323 42.6089H46.41C46.7652 42.6108 47.0533 42.8985 47.0533 43.255ZM47.0533 46.7675C47.0533 47.1221 46.7652 47.4116 46.4079 47.4116H39.3323C38.977 47.4116 38.6869 47.124 38.6869 46.7675C38.6869 46.4129 38.975 46.1233 39.3323 46.1233H46.41C46.7652 46.1253 47.0533 46.4129 47.0533 46.7675ZM57.7012 47.1772C57.6893 47.1063 57.6893 47.057 57.7031 46.9763L57.7999 46.3459C57.8966 45.7155 57.7012 45.1166 57.2492 44.6616L56.8051 44.2164C56.7479 44.1573 56.7124 44.11 56.6808 44.0469L56.3887 43.4776C56.0907 42.9063 55.5814 42.5379 54.9558 42.4394L54.3164 42.333C54.2493 42.3232 54.194 42.3055 54.1269 42.272L53.5585 41.9863C52.9861 41.6987 52.3545 41.6987 51.7861 41.9863L51.2157 42.272C51.1467 42.3074 51.0953 42.3232 51.0263 42.333C51.0223 42.333 51.0184 42.335 51.0144 42.335L50.3907 42.4394C49.7572 42.5399 49.248 42.9102 48.9539 43.4796L48.6618 44.043C48.6243 44.1139 48.5927 44.1592 48.5394 44.2124L48.0874 44.6655C47.6394 45.1206 47.446 45.7175 47.5427 46.3459L47.6394 46.9743C47.6513 47.0531 47.6513 47.1102 47.6394 47.1851L47.5427 47.8135C47.446 48.4459 47.6414 49.0428 48.0894 49.4959L48.5374 49.949C48.5394 49.9509 48.5433 49.9549 48.5453 49.9569C48.5927 50.0041 48.6223 50.0455 48.6598 50.1164L48.9519 50.6798C49.2085 51.1783 49.6328 51.525 50.1617 51.6707V56.0244C50.1617 56.2687 50.3019 56.4932 50.521 56.6016C50.6117 56.6469 50.7084 56.6685 50.8052 56.6685C50.9453 56.6685 51.0834 56.6232 51.1979 56.5366L52.6703 55.4117L54.1446 56.5366C54.34 56.6843 54.6025 56.7099 54.8216 56.6016C55.0407 56.4932 55.1808 56.2686 55.1808 56.0244V51.6707C55.7058 51.525 56.1301 51.1782 56.3907 50.6778L56.6808 50.1124C56.7143 50.0474 56.7459 50.0021 56.8032 49.947L57.2492 49.4958C57.7012 49.0447 57.8965 48.4459 57.8019 47.8095L57.7012 47.1772ZM53.0611 54.0919C52.8301 53.9146 52.5084 53.9146 52.2775 54.0919L51.4505 54.7242V52.0096L51.7821 52.1771C52.0683 52.3209 52.3683 52.3938 52.6683 52.3938C52.9683 52.3938 53.2703 52.3209 53.5564 52.1771L53.89 52.0096V54.7262L53.0611 54.0919ZM56.4282 47.3799L56.5249 48.0064C56.5604 48.2369 56.4972 48.426 56.3334 48.5915L55.8874 49.0426C55.7394 49.1904 55.6269 49.346 55.5321 49.5292L55.244 50.0907C55.1354 50.2975 54.9736 50.4157 54.7486 50.4532L54.1111 50.5556C53.9157 50.5891 53.7381 50.6462 53.5446 50.7408L52.9762 51.0264C52.769 51.1308 52.5696 51.1308 52.3624 51.0264L51.7901 50.7388C51.6045 50.6462 51.4249 50.5891 51.2217 50.5536L50.594 50.4532C50.3651 50.4157 50.2032 50.2975 50.0966 50.0926L49.8065 49.5292C49.7098 49.3381 49.5953 49.1825 49.4493 49.0407L49.0032 48.5915C48.8414 48.428 48.7802 48.2369 48.8138 48.0084L48.9105 47.378C48.9401 47.1751 48.9401 46.988 48.9105 46.7831L48.8138 46.1527C48.7782 45.9242 48.8414 45.7331 49.0013 45.5696L49.4493 45.1205C49.5953 44.9747 49.7039 44.825 49.8045 44.6358L50.0966 44.0704C50.2012 43.8675 50.367 43.7474 50.594 43.7099L51.2177 43.6075C51.419 43.578 51.6006 43.5189 51.7901 43.4243L52.3644 43.1367C52.5677 43.0342 52.769 43.0342 52.9742 43.1367L53.5505 43.4263C53.742 43.5189 53.9236 43.578 54.113 43.6055L54.7486 43.7099C54.9736 43.7454 55.1354 43.8636 55.242 44.0685L55.5341 44.6378C55.6268 44.8151 55.7374 44.9668 55.8854 45.1205L56.3334 45.5696C56.4972 45.7331 56.5584 45.9242 56.5249 46.1527L56.4301 46.7752C56.3946 46.984 56.3946 47.179 56.4282 47.3799Z" fill="white"/>
</svg>
