<svg width="80" height="80" viewBox="0 0 80 80" fill="none" xmlns="http://www.w3.org/2000/svg">
<circle cx="40" cy="40" r="40" fill="#73BE5F"/>
<path d="M51.2605 18.8526C47.8125 18.8526 44.5655 20.1962 42.1169 22.6452L40.5149 24.2472L38.0602 21.7925C35.6142 19.3523 32.3729 18 28.9247 18C25.4765 18 22.2296 19.3436 19.781 21.7925C14.7397 26.8339 14.7397 35.0365 19.781 40.0718L21.4433 41.734L21.0844 42.0929C19.6576 43.5197 19.6576 45.8337 21.0844 47.2605L21.2682 47.4443C21.9802 48.1563 22.9132 48.5094 23.8491 48.5094C24.0243 48.5094 24.2023 48.4864 24.3716 48.4577C24.3487 48.6328 24.32 48.8022 24.32 48.986C24.32 49.9621 24.7018 50.8808 25.3937 51.5669L25.5774 51.7507C26.2894 52.4627 27.2225 52.8158 28.1584 52.8158C28.3335 52.8158 28.5115 52.7928 28.6809 52.7641C28.6579 52.9392 28.6292 53.1086 28.6292 53.2923C28.6292 54.2684 29.011 55.1871 29.7029 55.8733L29.8867 56.057C30.5987 56.769 31.5317 57.1221 32.4676 57.1221C32.6427 57.1221 32.8207 57.0992 32.9959 57.0705C32.8351 58.1729 33.1653 59.3327 34.0093 60.1797L34.1931 60.3635C34.905 61.0755 35.8381 61.4286 36.774 61.4286C37.707 61.4286 38.6487 61.0754 39.355 60.3635L43.2882 56.4302C43.5523 56.1661 43.759 55.8561 43.9342 55.5259L44.4567 56.0398C45.1687 56.7518 46.1189 57.1508 47.1324 57.1508C48.1458 57.1508 49.0961 56.7546 49.8081 56.0398C50.5201 55.3278 50.9105 54.3775 50.9105 53.3727C50.9105 53.1803 50.8961 52.9966 50.8674 52.8071C52.0273 52.9765 53.2475 52.5947 54.0944 51.742C54.9757 50.8606 55.3289 49.6462 55.1537 48.5007C56.3222 48.6758 57.5567 48.2796 58.4094 47.427C59.1214 46.715 59.5118 45.7647 59.5118 44.7599C59.5118 43.9445 59.2477 43.1809 58.7683 42.5321L60.4133 40.887C62.8536 38.4467 64.1972 35.2054 64.1972 31.7514C64.1972 28.2977 62.8536 25.0564 60.4133 22.6159C57.95 20.1985 54.7084 18.8526 51.2605 18.8526ZM25.3818 46.4078C24.5291 47.2605 23.1482 47.2605 22.2956 46.4078L22.1118 46.224C21.2591 45.3713 21.2591 43.9904 22.1118 43.1378L22.9932 42.2564H23.0018C23.0104 42.2564 23.0018 42.2564 23.0018 42.2478L26.045 39.2046C26.4555 38.7941 27.0067 38.5644 27.5896 38.5644C28.1695 38.5644 28.7207 38.7912 29.1342 39.2046L29.3179 39.3798C29.7284 39.7903 29.9581 40.3415 29.9581 40.9243C29.9581 41.5043 29.7313 42.0555 29.3179 42.4689L25.3818 46.4078ZM29.6911 50.7142C28.8384 51.5669 27.4575 51.5669 26.6049 50.7142L26.4211 50.5305C26.0106 50.1199 25.7809 49.5687 25.7809 48.9859C25.7809 48.4059 26.0077 47.8547 26.4211 47.4413L30.3543 43.5081C30.7792 43.0832 31.339 42.8678 31.8989 42.8678C32.4588 42.8678 33.0157 43.0803 33.4435 43.5081L33.6273 43.6918C34.0378 44.1023 34.2675 44.6536 34.2675 45.2364C34.2675 45.8163 34.0407 46.3676 33.6273 46.781L29.6911 50.7142ZM33.9975 55.0206C33.1448 55.8733 31.7639 55.8733 30.9113 55.0206L30.7275 54.8369C30.317 54.4263 30.0873 53.8751 30.0873 53.2923C30.0873 52.7124 30.3141 52.1611 30.7275 51.7477L34.6608 47.8145C35.0857 47.3896 35.6455 47.1743 36.2054 47.1743C36.7652 47.1743 37.3221 47.3867 37.7499 47.8145L37.9337 47.9896C38.7864 48.8423 38.7864 50.2232 37.9337 51.0759L33.9975 55.0206ZM42.2372 55.3938L38.304 59.3271C37.4513 60.1798 36.0703 60.1798 35.2177 59.3271L35.034 59.1433C34.1813 58.2906 34.1813 56.9097 35.034 56.0571L38.9672 52.1239C39.3777 51.7133 39.929 51.4836 40.5118 51.4836C41.0917 51.4836 41.643 51.7104 42.0564 52.1239L42.2401 52.299C42.6507 52.7095 42.8803 53.2608 42.8803 53.8436C42.8746 54.4321 42.6477 54.9833 42.2372 55.3938ZM57.3472 46.4075C56.4659 47.2889 54.9357 47.2889 54.0542 46.4075L46.0211 38.3744C45.734 38.0873 45.2718 38.0873 44.9847 38.3744C44.8383 38.5208 44.7722 38.7045 44.7722 38.8969C44.7722 39.0892 44.8469 39.273 44.9847 39.4194L53.0406 47.4753C53.9364 48.3711 53.9364 49.8266 53.0406 50.7252C52.1735 51.5923 50.6606 51.5923 49.7907 50.7252L41.0086 41.9461C40.7215 41.659 40.2593 41.659 39.9722 41.9461C39.8258 42.0925 39.7597 42.2763 39.7597 42.4686C39.7597 42.661 39.8344 42.8447 39.9722 42.9911L48.7483 51.7673C49.1818 52.2008 49.4259 52.7807 49.4259 53.3922C49.4259 54.0009 49.1847 54.5837 48.7483 55.0172C47.8727 55.8928 46.3511 55.8928 45.4784 55.0172L44.3472 53.886V53.8573C44.3472 52.8812 43.9653 51.9625 43.2735 51.2706L43.0897 51.0954C42.3978 50.4035 41.4791 50.0217 40.5088 50.0217C40.3336 50.0217 40.1556 50.0505 39.9805 50.0734C40.1413 48.971 39.8111 47.8111 38.9585 46.9642L38.7747 46.789C37.9307 45.945 36.7679 45.6119 35.6655 45.7756C35.6885 45.6005 35.7172 45.4311 35.7172 45.2474C35.7172 44.2713 35.3353 43.3525 34.6521 42.6664L34.4683 42.4826C33.6243 41.6386 32.4615 41.3055 31.3591 41.4692C31.382 41.2941 31.4107 41.1247 31.4107 40.941C31.4107 39.9649 31.0289 39.0462 30.337 38.3543L30.1533 38.1791C29.4614 37.4872 28.5427 37.1054 27.5723 37.1054C26.5962 37.1054 25.6775 37.4873 24.9914 38.1791L22.4621 40.7084L20.7998 39.0462C18.6323 36.8786 17.4408 34.0048 17.4408 30.9469C17.4408 27.889 18.6323 25.0098 20.7998 22.8476C22.976 20.6801 25.8498 19.4886 28.9072 19.4886C31.9645 19.4886 34.8385 20.6801 37.0064 22.8476L39.4611 25.3023L33.7939 30.9695C32.8981 31.8652 32.4043 33.0566 32.4043 34.3285C32.4043 35.6003 32.8981 36.7918 33.7939 37.6875C34.6896 38.5831 35.881 39.077 37.1442 39.077C38.4218 39.077 39.6133 38.5832 40.5032 37.6875L46.1704 32.0144L57.3271 43.1711C57.7607 43.6047 58.0047 44.1846 58.0047 44.7961C58.0162 45.399 57.7808 45.9732 57.3472 46.4067L57.3472 46.4075ZM59.354 39.8732L57.7434 41.4838L46.7043 30.4425C46.6383 30.3765 46.5579 30.3248 46.4689 30.2875L46.4603 30.2789C46.4373 30.2703 46.4086 30.2703 46.3799 30.2645C46.3139 30.2416 46.2479 30.2272 46.1818 30.2272C45.9895 30.2272 45.8057 30.3018 45.6593 30.4397L39.4695 36.6351C38.8609 37.2524 38.037 37.5912 37.1556 37.5912C36.28 37.5912 35.4589 37.2524 34.8417 36.6351C34.2244 36.0179 33.8799 35.194 33.8799 34.3125C33.8799 33.4311 34.2187 32.6158 34.8417 31.9899L41.0084 25.8174C41.017 25.8088 41.0228 25.8088 41.0228 25.8088L41.0314 25.7944L43.1415 23.6843C45.3177 21.5167 48.1915 20.3253 51.2489 20.3253C54.3062 20.3253 57.1802 21.5167 59.3481 23.6843C61.5157 25.8461 62.7071 28.72 62.7071 31.7836C62.7129 34.8382 61.5214 37.712 59.3539 39.874L59.354 39.8732Z" fill="white"/>
</svg>
