<svg width="80" height="80" viewBox="0 0 80 80" fill="none" xmlns="http://www.w3.org/2000/svg">
<circle cx="40" cy="40" r="40" fill="#73BE5F"/>
<path d="M62.0268 28.183C61.6543 28.183 61.3077 28.2796 60.9942 28.4376V27.8694C60.9942 26.5916 59.9545 25.5544 58.6791 25.5544C58.2689 25.5544 57.8894 25.6699 57.5569 25.8585C57.2882 24.8754 56.397 24.1469 55.3314 24.1469C54.2611 24.1469 53.3676 24.8801 53.1036 25.868C52.882 25.743 52.6391 25.6534 52.3822 25.6039V24.9509C52.3822 23.5128 51.2105 22.3411 49.7724 22.3411C49.2868 22.3411 48.8365 22.4826 48.4475 22.716V21.8602C48.4475 20.4221 47.2758 19.2504 45.8377 19.2504C45.3285 19.2504 44.8546 19.4036 44.4515 19.6582C44.1992 18.4842 43.1525 17.6001 41.9029 17.6001C40.6535 17.6001 39.6091 18.4841 39.3544 19.6582C38.9513 19.4036 38.4798 19.2504 37.9682 19.2504C36.5301 19.2504 35.3584 20.4221 35.3584 21.8602V28.2045C35.0614 28.2304 34.7808 28.3105 34.5262 28.4378V27.8697C34.5262 26.5919 33.4865 25.5546 32.2111 25.5546C31.8009 25.5546 31.4214 25.6701 31.0889 25.8587C30.8202 24.8756 29.929 24.1472 28.8634 24.1472C27.7978 24.1472 26.9067 24.8756 26.6379 25.8587C26.3032 25.6725 25.9236 25.5546 25.5157 25.5546C24.2379 25.5546 23.1983 26.5943 23.1983 27.8697V39.6288L21.7012 38.0045C20.9987 37.243 20.0227 36.8375 18.9665 36.8399C17.9316 36.8611 16.9532 37.3279 16.2837 38.1176C15.9159 38.5514 15.9041 39.1926 16.2577 39.6406L18.8487 42.9223C19.5017 43.7498 19.9709 44.6998 20.242 45.7466C20.7489 47.7104 21.8263 50.728 23.8561 52.2508V60.731C23.8561 61.6504 24.6058 62.4001 25.5252 62.4001H32.6613C33.5831 62.4001 34.3304 61.6504 34.3304 60.731V53.0408C34.4436 52.9277 34.5686 52.8169 34.6794 52.7037C35.2287 52.1379 35.7119 51.5108 36.1292 50.8413V60.6438C36.1292 61.5655 36.8789 62.3152 37.7983 62.3152H46.5422C47.4616 62.3152 48.2113 61.5655 48.2113 60.6438V51.3832C48.3552 51.2418 48.5131 51.098 48.6522 50.9565C48.7229 50.8834 48.7866 50.8009 48.855 50.7255C49.3052 51.3573 49.7933 51.8642 50.3166 52.2556V60.7285C50.3166 61.6479 51.0663 62.3976 51.9858 62.3976H59.1219C60.0436 62.3976 60.791 61.6479 60.791 60.7285V53.0383C60.9041 52.9252 61.0291 52.8144 61.1375 52.7012C63.198 50.5771 64.3344 47.7457 64.3344 44.728V30.4956C64.3414 29.2225 63.3022 28.183 62.0268 28.183ZM34.5264 30.5004C34.5264 30.003 34.8872 29.6045 35.3587 29.5079V35.9602L34.5264 35.0596V30.5004ZM31.1787 27.8694C31.1787 27.3012 31.6432 26.8368 32.2113 26.8368C32.7795 26.8368 33.2439 27.3012 33.2439 27.8694V33.7019C32.6687 33.1432 31.9567 32.766 31.1787 32.6057L31.1787 27.8694ZM27.831 27.8694V26.462C27.831 25.8938 28.2955 25.4294 28.8636 25.4294C29.4318 25.4294 29.8962 25.8938 29.8962 26.462V32.5588C29.1418 32.646 28.4274 32.9171 27.831 33.3792L27.831 27.8694ZM33.7579 51.8125C33.0624 52.5316 32.2679 53.2577 31.3979 53.972C31.1245 54.196 31.0844 54.6015 31.3084 54.875C31.4357 55.0306 31.6195 55.1107 31.8058 55.1107C31.9496 55.1107 32.0934 55.0636 32.2136 54.9645C32.506 54.7241 32.7747 54.4836 33.0482 54.2408V60.7335C33.0482 60.9457 32.8761 61.1178 32.6616 61.1178L25.5255 61.1202C25.3133 61.1202 25.1388 60.9481 25.1388 60.7359V52.9468C25.4076 53.0411 25.6858 53.1212 25.9828 53.1637C26.0135 53.1684 26.0441 53.1707 26.0724 53.1707C26.3883 53.1707 26.6618 52.9397 26.7066 52.6191C26.7561 52.2678 26.5109 51.9425 26.1596 51.8953C23.3424 51.4993 21.9491 47.2439 21.4823 45.4309C21.1664 44.2121 20.6194 43.1017 19.8556 42.1328L17.3047 38.8982C17.7338 38.4197 18.3468 38.1368 18.9904 38.125C19.6623 38.1226 20.3012 38.3843 20.7538 38.8747L23.1963 41.5222V43.1371C23.1963 43.4907 23.4839 43.7784 23.8375 43.7784C24.1911 43.7784 24.4787 43.4907 24.4787 43.1371L24.4811 27.8697C24.4811 27.3015 24.9455 26.8371 25.5137 26.8371C26.0818 26.8371 26.5463 27.3015 26.5463 27.8697V43.1371C26.5463 43.4907 26.8339 43.7784 27.1875 43.7784C27.5411 43.7784 27.8288 43.4907 27.8288 43.1371V36.444L30.2216 39.4758C30.9996 40.4612 31.556 41.5928 31.879 42.8352C32.4 44.8557 33.4396 47.8379 35.2951 49.7287C34.8754 50.4878 34.3614 51.1902 33.7579 51.8125ZM47.7331 50.0656C46.9127 50.912 45.9768 51.7678 44.9512 52.6118C44.6778 52.8358 44.6377 53.2413 44.8617 53.5147C44.989 53.668 45.1728 53.7481 45.3591 53.7481C45.5029 53.7481 45.6467 53.701 45.7669 53.602C46.1724 53.2695 46.552 52.93 46.9316 52.5929V60.6464C46.9316 60.8586 46.7595 61.033 46.5473 61.033H37.8034C37.5912 61.033 37.4168 60.8609 37.4168 60.6464V51.1571C37.7704 51.2939 38.1405 51.4047 38.5342 51.4613C38.5649 51.466 38.5955 51.4683 38.6238 51.4683C38.9397 51.4683 39.2132 51.2373 39.258 50.9167C39.3075 50.5654 39.0623 50.24 38.7111 50.1929C35.3351 49.7167 33.6778 44.6669 33.1214 42.5166C32.7536 41.0997 32.1194 39.8102 31.2307 38.6833L28.1871 34.8051C28.7151 34.1828 29.486 33.815 30.3018 33.7984C31.1175 33.8079 31.9049 34.1144 32.4589 34.7155L35.5284 38.0443C35.5307 38.0467 35.5354 38.049 35.5402 38.0514C35.5755 38.0868 35.6203 38.1127 35.6627 38.1386C35.691 38.1575 35.7146 38.1811 35.7453 38.1952C35.7759 38.2094 35.8113 38.2094 35.8443 38.2188C35.8914 38.2306 35.9386 38.2471 35.9881 38.2471C35.9928 38.2471 35.9952 38.2494 35.9999 38.2494C36.0329 38.2494 36.0612 38.2353 36.0918 38.2306C36.139 38.2235 36.1885 38.2188 36.2333 38.2023C36.2781 38.1858 36.3134 38.1575 36.3511 38.1315C36.3794 38.1127 36.4101 38.1033 36.436 38.0797C36.4384 38.0773 36.4407 38.0726 36.4431 38.0679C36.4784 38.0325 36.502 37.9901 36.5303 37.9477C36.5492 37.9194 36.5751 37.8934 36.5869 37.8628C36.601 37.8321 36.601 37.7991 36.6105 37.7661C36.6223 37.7166 36.6388 37.6695 36.6411 37.62C36.6411 37.6152 36.6435 37.6129 36.6435 37.6082V21.8597C36.6435 21.1289 37.2376 20.5348 37.9684 20.5348C38.6992 20.5348 39.2933 21.1289 39.2933 21.8597V37.8484C39.2933 38.202 39.5809 38.4896 39.9346 38.4896C40.2882 38.4896 40.5758 38.202 40.5758 37.8484V20.2073C40.5758 19.4765 41.1699 18.8823 41.9007 18.8823C42.6315 18.8823 43.2257 19.4764 43.2257 20.2073V38.0445C43.2257 38.3982 43.5133 38.6858 43.8669 38.6858C44.2205 38.6858 44.5082 38.3982 44.5082 38.0445L44.5105 21.8603C44.5105 21.1295 45.1046 20.5354 45.8354 20.5354C46.5663 20.5354 47.1604 21.1295 47.1604 21.8603V38.0445C47.1604 38.3982 47.448 38.6858 47.8016 38.6858C48.1552 38.6858 48.4429 38.3982 48.4429 38.0445L48.4452 24.951C48.4452 24.2202 49.0393 23.6261 49.7701 23.6261C50.501 23.6261 51.0951 24.2202 51.0951 24.951V41.6705C51.0951 44.8508 49.8997 47.8332 47.7331 50.0656ZM63.0573 44.7329C63.0573 47.4158 62.0506 49.9289 60.2236 51.8123C59.5281 52.5313 58.7336 53.2574 57.8637 53.9718C57.5902 54.1981 57.5501 54.6013 57.7741 54.8747C57.9014 55.0303 58.0853 55.1105 58.2715 55.1105C58.4153 55.1105 58.5591 55.0633 58.6794 54.9643C58.9717 54.7262 59.2405 54.4834 59.5139 54.2405V60.7333C59.5139 60.9455 59.3418 61.1176 59.1273 61.1176L51.9912 61.1199C51.779 61.1199 51.6045 60.9478 51.6045 60.7357V52.9489C51.878 53.0456 52.1586 53.1234 52.4485 53.1635C52.4792 53.1682 52.5098 53.1706 52.5381 53.1706C52.854 53.1706 53.1275 52.9395 53.1723 52.6189C53.2218 52.2676 52.9766 51.9423 52.6253 51.8951C51.5385 51.7419 50.5625 50.9993 49.7138 49.705C51.4325 47.4182 52.3755 44.6269 52.3755 41.6751L52.3778 26.9194C52.7503 27.075 53.012 27.4428 53.012 27.8695V43.1369C53.012 43.4906 53.2996 43.7782 53.6533 43.7782C54.0069 43.7782 54.2945 43.4906 54.2945 43.1369L54.2969 27.8695V26.4621C54.2969 25.8939 54.7613 25.4295 55.3295 25.4295C55.8976 25.4295 56.362 25.8939 56.362 26.4621V43.1369C56.362 43.4906 56.6496 43.7782 57.0033 43.7782C57.3569 43.7782 57.6445 43.4906 57.6445 43.1369V27.8695C57.6445 27.3013 58.109 26.8369 58.6771 26.8369C59.2453 26.8369 59.7097 27.3013 59.7097 27.8695V43.1369C59.7097 43.4906 59.9973 43.7782 60.3509 43.7782C60.7046 43.7782 60.9922 43.4906 60.9922 43.1369V30.5003C60.9922 29.9321 61.4566 29.4677 62.0247 29.4677C62.5929 29.4677 63.0573 29.9321 63.0573 30.5003L63.0573 44.7329Z" fill="white"/>
<path d="M45.4459 39.4967C44.2624 39.5415 43.2793 40.2842 42.7159 40.8217C42.1524 40.2842 41.1717 39.5415 39.9859 39.4967C39.024 39.4567 38.1423 39.8787 37.3667 40.7392C36.4449 41.7576 36.0889 42.8869 36.3035 44.0939C36.9211 47.5383 42.1949 50.3248 42.419 50.4406C42.5133 50.4901 42.6147 50.5137 42.7161 50.5137C42.8174 50.5137 42.9188 50.4901 43.0131 50.4406C43.2371 50.3228 48.5109 47.5385 49.1287 44.0939C49.3455 42.8892 48.9872 41.76 48.0654 40.7392C47.2898 39.8787 46.4195 39.459 45.4459 39.4967ZM47.8647 43.8653C47.4733 46.0554 44.2553 48.2739 42.7159 49.1391C41.1764 48.2739 37.9607 46.0554 37.5671 43.8653C37.4233 43.059 37.6684 42.3187 38.3191 41.5997C38.8354 41.0268 39.3659 40.7816 39.934 40.7792C41.1505 40.8217 42.1996 42.1419 42.209 42.1537C42.2255 42.1749 42.2515 42.1867 42.2703 42.2055C42.2892 42.2244 42.2986 42.248 42.3198 42.2645C42.334 42.2739 42.3505 42.2762 42.3646 42.2857C42.4024 42.3093 42.4401 42.3281 42.4802 42.3446C42.5179 42.3588 42.5532 42.3729 42.5933 42.3823C42.6334 42.3894 42.6735 42.3918 42.7136 42.3918C42.7536 42.3918 42.7937 42.3918 42.8338 42.3823C42.8739 42.3753 42.9092 42.3611 42.9469 42.3446C42.987 42.3281 43.0271 42.3116 43.0625 42.2857C43.0766 42.2762 43.0931 42.2739 43.1073 42.2645C43.1285 42.248 43.1379 42.2244 43.1568 42.2055C43.1756 42.1867 43.2016 42.1749 43.2181 42.1537C43.2275 42.1419 44.2766 40.8217 45.4931 40.7792C46.0707 40.7722 46.5917 41.0291 47.108 41.5997C47.7634 42.3187 48.0085 43.0614 47.8647 43.8653Z" fill="white"/>
</svg>
