<svg width="233" height="227" viewBox="0 0 233 227" fill="none" xmlns="http://www.w3.org/2000/svg">
<path d="M35.977 75.2738C36.1099 75.8248 37.8507 77.9346 39.9196 79.8232C42.8949 82.7023 43.7974 83.215 44.6175 82.6621C45.1643 82.2935 45.6172 81.6678 45.6327 81.337C45.6071 80.4734 38.9747 74.2939 37.7246 73.8554C36.3651 73.4906 35.6915 74.0248 35.977 75.2738Z" fill="white"/>
<path d="M101.994 42.1395C102.841 46.9339 104.302 48.5113 105.38 45.863C105.793 44.9434 104.694 38.4773 103.951 37.3762C103.654 36.9358 102.94 36.9372 102.338 37.3427C101.518 37.8956 101.419 39.1637 101.994 42.1395Z" fill="white"/>
<path d="M84.5229 52.5564C84.078 54.1376 84.1043 57.2431 84.5072 59.3739C84.9102 61.5047 85.1275 63.3602 84.9635 63.4708C84.7994 63.5814 83.604 63.106 82.2601 62.4104C76.902 59.5361 71.4709 61.0353 71.1225 65.3544C70.7586 70.0042 78.6121 77.5227 87.1441 80.7398C91.6855 82.403 94.7655 82.4887 97.1712 80.8668C101.327 78.0654 98.8409 59.4005 93.2156 50.9404C91.9905 49.1236 91.2345 48.5922 89.4923 48.4855C86.4845 48.2709 85.4106 49.1551 84.5229 52.5564Z" fill="white"/>
<path d="M26.9647 91.0402C26.8243 91.7755 34.3917 95.8031 35.4892 95.5437C35.8915 95.4326 36.4187 94.917 36.6529 94.4388C36.9945 93.6479 36.2932 93.0797 33.2361 91.3768C29.6459 89.4729 27.2806 89.3857 26.9647 91.0402Z" fill="white"/>
<path d="M113.919 39.0652C113.443 43.5499 114.083 45.4413 115.668 44.3724C117.09 43.414 117.605 34.9784 116.245 34.6136C114.628 34.1023 114.394 34.5805 113.919 39.0652Z" fill="white"/>
<path d="M18.6664 102.559C18.7116 103.57 29.6364 107.977 30.6206 107.313C32.2608 106.208 31.0965 105.071 25.8909 102.894C20.8318 100.699 18.6131 100.593 18.6664 102.559Z" fill="white"/>
<path d="M124.937 39.4838C123.761 43.4006 124.012 44.8336 125.805 44.4258C126.445 44.3143 127.31 42.53 128.022 40.0476C128.946 36.701 128.975 35.8004 128.075 35.5264C126.457 35.0149 126.258 35.3094 124.937 39.4838Z" fill="white"/>
<path d="M65.1774 101.475C64.5651 104.931 64.2147 109.011 64.43 110.628L64.7296 113.549L63.487 111.824C61.3338 108.631 57.4755 105.386 55.7138 105.132C53.3466 104.806 49.7751 107.294 49.2269 109.666C48.9792 110.714 48.9407 112.661 49.0993 114.076C49.4712 116.868 52.8251 125.498 54.5699 128.086C55.1639 128.967 55.4278 129.83 55.0998 130.051C54.8264 130.235 54.3303 130.089 54.0704 129.704C53.8105 129.319 52.3944 128.752 50.9627 128.516C45.988 127.625 42.3193 131.62 43.061 136.966C43.5874 140.695 46.3542 144.916 54.8901 155.098C63.3517 165.169 71.0735 176.621 73.2665 182.349C75.1213 187.105 76.8039 197.503 77.4652 208.508C77.8026 213.726 78.051 214.92 79.0041 214.918C79.6271 214.899 80.2481 214.64 80.5391 214.364C81.0642 213.61 80.1795 200.032 79.072 192.61C77.6533 183.076 75.5582 178.082 69.0244 168.392C65.9431 163.823 60.6971 156.869 57.4011 152.925C54.1052 148.98 50.2503 143.971 48.7849 141.916C45.0725 136.411 44.9329 132.901 48.368 131.626C50.3599 130.924 53.1962 132.536 56.5273 136.296C60.2471 140.515 63.232 142.347 64.505 141.168C65.4872 140.266 65.282 139.844 60.8582 132.576C55.9693 124.5 52.6626 117.119 52.095 112.857C51.8034 110.892 52.0707 109.991 53.3087 108.996C55.9115 106.841 57.5565 108.455 63.821 118.806C72.02 132.498 71.723 132.058 72.9805 131.21C73.91 130.583 73.775 129.793 71.8912 125.938C68.8679 119.568 67.5754 114.113 67.6322 107.828C67.6458 100.772 68.7111 96.6902 70.7185 95.6571C73.2005 94.3842 74.373 96.4767 76.6962 106.763C79.7759 119.822 81.8737 127.297 82.573 127.626C83.9716 128.285 84.7465 126.721 84.3571 124.021C83.9225 120.31 85.6627 113.691 87.6952 111.28C90.0362 108.5 94.1389 105.974 97.1581 105.38C102.757 104.248 110.481 107.21 113.488 111.669C115.121 114.092 115.606 117.288 114.404 118.099C114.075 118.32 111.837 118.067 109.413 117.539C100.819 115.645 93.6215 120.658 92.831 129.039C92.0559 137.089 97.8352 144.244 106.373 145.936C110.412 146.736 113.689 146.289 119.28 144.201C124.305 142.335 126.248 142.387 127.622 144.424C129.626 147.396 126.934 152.014 120.342 157.099C116.718 159.863 114.82 160.822 110.908 162.098C102.628 164.797 102.972 164.245 104.693 172.695C107.368 185.626 112.694 204.138 113.795 204.357C115.815 204.757 115.816 202.754 113.548 194.673C111.056 186.023 108.322 174.893 107.307 169.731L106.732 166.755L111.429 165.11C115.157 163.798 117.438 162.581 121.827 159.301C130.917 152.613 133.437 147.15 129.836 141.81C128.276 139.498 125.45 139.081 121.503 140.54C112.184 143.94 107.054 144.115 102.281 141.166C95.3351 136.88 93.7544 127.696 99.0613 122.356C101.369 119.999 104.848 119.496 109.367 120.773C112.932 121.814 113.701 121.775 115.506 120.559C117.146 119.453 117.761 118.478 118.128 116.309C118.674 113.699 118.746 113.57 119.488 114.671C119.934 115.331 121.498 116.119 122.967 116.41C126.731 117.156 129.063 115.424 130.782 110.661C133.774 102.478 135.83 100.691 140.025 102.667C144.975 104.936 147.718 112.777 145.868 119.47C144.908 123 141.722 127.71 139.098 129.48C136.582 131.175 133.285 135.721 132.918 137.89C132.064 143.11 136.327 146.483 142.479 145.699C145.573 145.215 146.832 144.606 152.063 141.159C157.039 137.805 158.476 136.516 160.504 133.627C164.651 127.628 164.286 127.794 169.382 130.044C179.354 134.453 189.326 141.103 196.258 147.962C198.752 150.364 199.526 150.804 200.346 150.251C201.932 149.182 201.004 147.806 195.426 142.837C187.245 135.539 173.723 127.518 165.455 125.164L162.937 124.379L160.878 127.929C158.295 132.473 154.755 136.541 151.475 138.753C143.164 144.356 134.803 143.987 136.274 138.03C136.964 135.162 137.218 134.831 141.366 131.074C143.494 129.158 145.874 126.673 146.616 125.532C152.877 115.946 148.79 100.922 139.429 99.3056C136.749 98.87 133.24 100.035 131.461 102.115C130.807 102.796 129.583 105.463 128.707 108.056C127.044 113.02 125.773 114.438 123.605 113.817C118.607 112.302 118.324 100.56 123.15 92.5022C127.632 84.9959 134.169 84.1928 146.074 89.7002C148.834 90.9626 150.524 91.3451 151.235 90.866C151.781 90.4974 152.088 89.8903 151.865 89.56C151.642 89.2297 144.495 84.9991 136.023 80.2199C120.074 71.1923 119.095 70.3306 120.87 67.7728C123.749 63.6693 141.201 68.3204 150.391 75.5789C152.366 77.2104 154.508 76.9673 154.474 75.1481C154.453 74.7623 149.6 70.9865 143.681 66.8086C137.817 62.5938 132.652 58.7084 132.243 58.1028C130.424 55.4052 134.906 54.3856 141.756 55.9339C147.1 57.1361 151.611 59.4608 155.895 63.2193C159.478 66.4096 160.728 66.8481 161.079 65.0098C161.252 63.8518 160.309 62.8063 154.268 57.2688C148.339 51.8965 147.247 50.6307 147.44 49.6197C147.826 47.5975 149.807 47.7039 153.674 49.9012C158.591 52.5927 163.889 57.0291 169.234 62.715C173.987 67.7589 177.276 72.9895 183.205 84.8485C189.656 97.7171 195.024 104.028 204.032 109.247C210.81 113.166 222.545 118.067 223.584 117.367C225.279 116.224 223.746 114.776 218.485 112.636C200.829 105.56 194.142 99.4171 185.808 82.6933C181.892 74.7627 174.687 63.8434 170.415 59.2763C164.052 52.4348 154.169 45.5636 150.226 45.259C146.044 44.955 142.723 48.8756 144.691 51.7935C145.582 53.1148 145.435 53.1334 140.847 52.4627C133.763 51.3926 129.16 53.2945 128.738 57.5034C128.621 58.8635 129.715 60.3681 132.946 63.1548C134.091 64.1448 133.798 64.1822 130.292 63.5827C126.419 62.9105 122.005 63.3236 120.201 64.54C118.615 65.609 116.923 69.2324 117.212 70.9592C117.598 73.1819 119 74.3184 127.085 78.8779C130.732 80.9838 133.588 82.7422 133.479 82.8159C133.37 82.8897 132.071 83.2046 130.589 83.4832C122.72 85.0241 116.498 94.9044 116.552 105.599L116.591 110.138L114.703 108.047C110.8 103.791 102.676 101.18 97.2432 102.44C91.4625 103.775 86.2157 107.552 83.6351 112.335C82.8777 113.807 82.1709 114.764 82.0224 114.543C81.8739 114.323 80.904 110.172 79.7816 105.323C78.7138 100.437 77.2438 95.6625 76.5384 94.6165C74.7193 91.9188 71.7838 91.5755 68.7219 93.6397C66.4802 95.151 66.1913 95.6661 65.1774 101.475Z" fill="white"/>
</svg>
