<svg width="39" height="52" viewBox="0 0 39 52" fill="none" xmlns="http://www.w3.org/2000/svg">
<path d="M37.325 11.6016H18.2688C18.1964 11.4237 18.1087 11.2525 18.0066 11.0899C17.9903 11.062 17.9727 11.0216 17.9539 10.995L10.4454 0.459633C10.3488 0.320766 10.2208 0.206725 10.0717 0.126837C9.92263 0.0469501 9.75677 0.00348583 9.58768 0H9.58694C9.41843 0.00214159 9.25284 0.0442326 9.10376 0.122815C8.95468 0.201397 8.82637 0.314229 8.72938 0.452039L1.22084 10.9462C1.20123 10.9736 1.18288 11.0047 1.166 11.0339C-0.411706 13.755 -0.387026 17.0587 1.23213 19.869C2.07586 21.342 3.29172 22.5675 4.75797 23.4229C6.22423 24.2783 7.88945 24.7335 9.58694 24.743C9.60002 24.743 9.61299 24.743 9.62607 24.743L12.5813 46.678C12.7551 47.9427 13.3793 49.1022 14.3394 49.9435C15.2995 50.7849 16.5309 51.2515 17.8074 51.2578H28.5715C29.8482 51.2516 31.0797 50.7849 32.0398 49.9434C32.9999 49.102 33.6241 47.9423 33.7977 46.6775L38.3702 12.7502C38.3902 12.6049 38.378 12.4569 38.3346 12.3167C38.2911 12.1766 38.2175 12.0477 38.1188 11.9391C38.0186 11.829 37.8958 11.7418 37.7588 11.6836C37.6218 11.6253 37.4738 11.5973 37.325 11.6016ZM3.0598 18.8178C1.81179 16.6516 1.77846 14.2194 2.96646 12.1374L9.58578 2.89069L16.2077 12.1666C17.3927 14.2316 17.3621 16.6499 16.1214 18.8092C15.4705 19.9687 14.5228 20.934 13.3755 21.6062C12.2283 22.2784 10.9228 22.6331 9.59311 22.634C8.26345 22.6348 6.9575 22.2818 5.80935 21.6112C4.66119 20.9406 3.7122 19.9765 3.0598 18.8178ZM31.7072 46.3957C31.6032 47.155 31.2288 47.8514 30.6529 48.357C30.0769 48.8626 29.3379 49.1436 28.5715 49.1484H17.8074C17.041 49.1436 16.3021 48.8626 15.7261 48.357C15.1502 47.8513 14.7758 47.155 14.6718 46.3957L12.2387 28.3408C13.278 28.4758 13.9344 28.7868 14.6655 29.1365C15.719 29.6404 16.9132 30.2102 19.1844 30.2102C21.4556 30.2102 22.6499 29.6383 23.7035 29.1344C24.6779 28.6683 25.5196 28.2654 27.3123 28.2654C29.1051 28.2654 29.9467 28.6678 30.9213 29.1338C31.7069 29.5096 32.571 29.9281 33.9012 30.114L31.7072 46.3957ZM34.183 28.0441C33.1878 27.904 32.5443 27.5846 31.831 27.2436C30.7774 26.7397 29.5833 26.1619 27.312 26.1619C25.0408 26.1619 23.8466 26.7298 22.793 27.2338C21.8185 27.6999 20.9768 28.1007 19.1841 28.1007C17.3913 28.1007 16.5504 27.6977 15.5756 27.232C14.6695 26.7987 13.6588 26.3156 11.9493 26.1887L11.7215 24.4985C13.0209 24.1991 14.2447 23.635 15.3164 22.8416C16.3881 22.0481 17.2847 21.0423 17.9504 19.8869C19.0724 17.9337 19.4223 15.7148 18.9997 13.7109H36.1186L34.183 28.0441Z" fill="#2E4049"/>
<path d="M15.1412 15.2056C15.1412 14.9258 15.0301 14.6576 14.8323 14.4598C14.6345 14.262 14.3662 14.1509 14.0865 14.1509C13.8068 14.1509 13.5385 14.262 13.3407 14.4598C13.143 14.6576 13.0318 14.9258 13.0318 15.2056C13.0306 16.1339 12.6613 17.0238 12.0049 17.6802C11.3485 18.3366 10.4586 18.7059 9.53027 18.7071C9.25055 18.7071 8.98229 18.8182 8.7845 19.016C8.58671 19.2138 8.47559 19.4821 8.47559 19.7618C8.47559 20.0415 8.58671 20.3098 8.7845 20.5076C8.98229 20.7054 9.25055 20.8165 9.53027 20.8165C11.0178 20.8147 12.444 20.223 13.4958 19.1711C14.5477 18.1193 15.1394 16.6931 15.1412 15.2056Z" fill="#2E4049"/>
</svg>
