<svg width="51" height="40" viewBox="0 0 51 40" fill="none" xmlns="http://www.w3.org/2000/svg">
<path d="M33.2287 10.2989C33.3368 9.55914 33.395 8.78621 33.395 7.98005C33.395 3.85769 30.0373 0.5 25.9149 0.5C21.7926 0.5 18.4349 3.85769 18.4349 7.98005C18.4349 8.78621 18.4931 9.55914 18.6011 10.2989C8.4116 12.1772 0.981415 17.8786 0.981415 24.6024C0.981415 32.8471 12.1683 39.5625 25.9149 39.5625C39.6616 39.5625 50.8484 32.8471 50.8484 24.6024C50.8484 17.8786 43.4182 12.1772 33.2287 10.2989ZM20.0971 7.98005C20.0971 4.77195 22.7068 2.16223 25.9149 2.16223C29.123 2.16223 31.7327 4.77195 31.7327 7.98005C31.7327 8.6948 31.6829 9.38464 31.5832 10.0412C31.5 10.598 31.392 11.1383 31.2507 11.6619C31.0263 12.5512 30.7188 13.3823 30.3697 14.1552C30.1204 14.7038 29.8461 15.2274 29.5635 15.7094C29.2144 16.3078 28.8488 16.8481 28.4914 17.3384C28.0675 17.9119 27.6437 18.4189 27.253 18.851C26.7211 19.4411 26.2474 19.8899 25.9149 20.1892C25.5825 19.8899 25.1088 19.4411 24.5768 18.851C24.1862 18.4189 23.7623 17.9119 23.3385 17.3384C22.9811 16.8481 22.6154 16.3078 22.2663 15.7094C21.9838 15.2274 21.7095 14.7038 21.4601 14.1552C21.111 13.3823 20.8035 12.5512 20.5792 11.6619C20.4378 11.1383 20.3298 10.598 20.2467 10.0412C20.147 9.38464 20.0971 8.6948 20.0971 7.98005ZM21.5682 17.754C17.77 18.9175 15.1104 21.5522 15.1104 24.6024C15.1104 28.7247 19.9558 32.0824 25.9149 32.0824C31.874 32.0824 36.7194 28.7247 36.7194 24.6024C36.7194 21.5522 34.0599 18.9175 30.2617 17.754C30.6273 17.2221 30.9847 16.6403 31.3255 16.0169C37.376 17.2886 41.7062 20.6546 41.7062 24.6024C41.7062 29.6473 34.625 33.7447 25.9149 33.7447C17.2048 33.7447 10.1237 29.6473 10.1237 24.6024C10.1237 20.6546 14.4538 17.2886 20.5043 16.0169C20.8451 16.6403 21.2025 17.2221 21.5682 17.754ZM24.1613 20.8374C22.7401 21.494 21.7593 22.9318 21.7593 24.6024C21.7593 26.8963 23.621 28.758 25.9149 28.758C28.2088 28.758 30.0705 26.8963 30.0705 24.6024C30.0705 22.9318 29.0898 21.494 27.6686 20.8374C28.1091 20.4053 28.641 19.8484 29.1978 19.1752C32.622 20.0146 35.0572 22.1256 35.0572 24.6024C35.0572 27.8105 30.9598 30.4202 25.9149 30.4202C20.87 30.4202 16.7726 27.8105 16.7726 24.6024C16.7726 22.1256 19.2078 20.0146 22.632 19.1752C23.1888 19.8484 23.7208 20.4053 24.1613 20.8374ZM25.9149 22.109C27.2863 22.109 28.4083 23.231 28.4083 24.6024C28.4083 25.9737 27.2863 27.0957 25.9149 27.0957C24.5436 27.0957 23.4216 25.9737 23.4216 24.6024C23.4216 23.231 24.5436 22.109 25.9149 22.109ZM25.9149 37.9003C13.0825 37.9003 2.64365 31.9329 2.64365 24.6024C2.64365 18.6599 9.49205 13.6233 18.9169 11.9195C19.1413 12.8337 19.4322 13.6898 19.773 14.4877C13.1656 16.0336 8.46147 19.9814 8.46147 24.6024C8.46147 30.5615 16.2906 35.4069 25.9149 35.4069C35.5393 35.4069 43.3684 30.5615 43.3684 24.6024C43.3684 19.9814 38.6643 16.0336 32.0569 14.4877C32.3976 13.6898 32.6885 12.8337 32.9129 11.9195C42.3378 13.6233 49.1862 18.6599 49.1862 24.6024C49.1862 31.9329 38.7474 37.9003 25.9149 37.9003Z" fill="#2E4049"/>
<path d="M25.9149 11.3045C27.1034 11.3045 28.1423 10.6811 28.7324 9.74195C29.0566 9.22666 29.2394 8.62823 29.2394 7.97999C29.2394 6.1432 27.7517 4.65552 25.9149 4.65552C24.0781 4.65552 22.5905 6.1432 22.5905 7.97999C22.5905 8.62823 22.7733 9.22666 23.0974 9.74195C23.6875 10.6811 24.7264 11.3045 25.9149 11.3045ZM25.9149 6.31775C26.8291 6.31775 27.5772 7.06573 27.5772 7.97999C27.5772 8.89419 26.8291 9.64222 25.9149 9.64222C25.0007 9.64222 24.2527 8.89419 24.2527 7.97999C24.2527 7.06573 25.0007 6.31775 25.9149 6.31775Z" fill="#2E4049"/>
</svg>
