<svg width="58" height="60" viewBox="0 0 58 60" fill="none" xmlns="http://www.w3.org/2000/svg">
<path d="M56.9045 22.873C56.2584 21.8865 55.6785 20.9028 55.1334 19.85C55.1276 19.8442 55.1276 19.8384 55.1219 19.8355C53.9623 17.5884 53.2238 15.5231 52.5055 13.5327C52.0959 12.3904 49.6296 5.69554 48.4758 5.31154C48.3864 5.25097 39.6461 2.14138 37.6412 1.42028L35.4288 0.12223H35.423C35.3365 0.0674228 35.224 0.0328107 35.1317 0.0155014C34.9846 -0.0133447 34.8432 0.00107816 34.7048 0.0414626H34.6932C32.9134 0.621265 31.0644 0.86646 28.5289 0.86646C25.9933 0.86646 24.1443 0.621272 22.3645 0.0414626H22.3529C22.2289 0.00107816 22.0905 -0.0104599 21.9578 0.00973225C21.8366 0.0299245 21.7674 0.0472315 21.6289 0.122228L19.4164 1.42028C18.6087 1.70873 8.6454 5.26827 8.5819 5.31154C8.46651 5.34904 8.42901 5.38366 8.38286 5.41539C7.34445 6.11634 4.97328 12.3644 4.55215 13.5324C3.83388 15.5285 3.08965 17.5968 1.9243 19.8497C0.257022 23.0746 -0.20163 22.8871 0.0752894 23.7208C0.109904 23.7727 0.19356 24.0092 0.464704 24.1563C7.64732 28.137 9.53953 29.2072 9.59122 29.2072C9.60276 29.213 9.60564 29.2187 9.61718 29.2187C9.91717 29.3745 10.3556 29.2908 10.4883 29.1582C10.8114 28.9735 10.8547 28.6447 11.5008 27.5053C11.521 37.93 11.2787 48.4042 9.58255 56.2126C9.27966 57.6 10.2143 58.9125 11.5643 59.1317C16.7738 60 22.2201 60 28.5287 60C34.8373 60 40.2833 60 45.4931 59.1317C46.8431 58.9096 47.7777 57.6 47.4748 56.2126C45.7758 48.4071 45.5335 37.93 45.5565 27.5053C46.4017 28.9879 46.1479 28.7687 46.4854 29.1062H46.4911C46.6902 29.3053 47.1286 29.4005 47.4921 29.1986C57.6259 23.3861 56.4776 24.4765 56.9827 23.7207C57.0808 23.4265 57.0978 23.1672 56.9045 22.873ZM53.9737 21.4913C54.2651 22.0192 54.568 22.5327 54.8824 23.0404L47.4204 27.1769L46.5723 25.5904L53.9738 21.4885L53.9737 21.4913ZM28.5319 2.66082C30.2164 2.66082 31.627 2.55698 32.9193 2.32622C32.5703 2.64929 32.1636 2.92044 31.7193 3.13098C30.8309 3.56655 29.7751 3.78866 28.5924 3.77136C27.4934 3.75982 26.4521 3.52906 25.5636 3.13098C25.0761 2.92041 24.629 2.65503 24.2512 2.34638C25.5146 2.56272 26.8934 2.66082 28.5319 2.66082ZM20.9192 2.62621L21.7038 2.16468C21.9144 2.50794 22.1596 2.83101 22.448 3.13389C23.8441 4.61656 26.0768 5.53962 28.572 5.57137C28.6787 5.55118 32.2267 5.86271 34.6382 3.13389C34.9094 2.83101 35.1459 2.50794 35.3507 2.15892L36.1411 2.62622C36.0632 2.7993 35.9882 2.96948 35.8988 3.1339C34.5747 5.69544 32.1979 6.90118 28.5287 6.90118C24.8594 6.90118 22.4826 5.69544 21.1585 3.1339C21.072 2.96948 20.9941 2.7993 20.9162 2.62622L20.9192 2.62621ZM9.64305 27.1797L2.18101 23.0432C2.49543 22.5355 2.79831 22.0221 3.08967 21.4941L10.4912 25.596L9.64313 27.1825L9.64305 27.1797ZM3.91142 19.8961C4.91239 17.8481 5.59022 15.9645 6.24795 14.1385C7.08447 11.8251 7.87483 9.61838 9.25367 7.2848C10.4623 7.93671 11.495 9.37033 12.196 11.4126C14.7834 18.9271 11.3767 23.8104 11.3334 24.0039L3.91127 19.8992L3.91142 19.8961ZM45.7203 56.5883C45.8039 56.946 45.5588 57.295 45.1982 57.3585C40.1386 58.2008 34.7587 58.2008 28.5343 58.2008C22.3094 58.2008 16.9295 58.2008 11.8704 57.3585C11.507 57.295 11.2618 56.946 11.3483 56.5883C13.2637 47.7815 13.3647 35.7758 13.2925 24.1976V24.1832C15.1617 21.2179 15.4502 15.3336 13.8983 10.8246C13.2089 8.82275 12.2425 7.30545 11.0569 6.33048H11.0598L19.2921 3.37379C20.8526 6.95646 23.8901 8.69581 28.5375 8.69581C33.1817 8.69581 36.2218 6.95639 37.7829 3.37379L46.0151 6.33048C44.8295 7.30545 43.8632 8.81987 43.1738 10.8246C41.6219 15.3332 41.9104 21.2176 43.7795 24.1832V24.1976C43.7074 35.7765 43.8113 47.7823 45.7237 56.5883H45.7203ZM45.4087 23.4126C43.7068 20.9983 43.4588 15.5001 44.8664 11.4069C45.5703 9.36465 46.6001 7.9339 47.8087 7.27911C49.1876 9.61277 49.9779 11.8194 50.8144 14.1328C51.4721 15.9588 52.15 17.8395 53.1451 19.8905L45.7289 23.9952C45.7 23.9433 45.3798 23.3548 45.4087 23.4067L45.4087 23.4126Z" fill="#2E4049"/>
</svg>
