<svg width="100" height="100" viewBox="0 0 100 100" fill="none" xmlns="http://www.w3.org/2000/svg">
<circle cx="50" cy="50" r="49.5" fill="#EEFFE9" stroke="#73BE5F"/>
<path d="M61.5794 27.9031C58.0024 27.9031 54.6339 29.3262 52.0938 31.9202L50.4318 33.6171L47.8854 31.0171C45.3479 28.4323 41.9853 27 38.4081 27C34.8309 27 31.4627 28.4231 28.9225 31.0171C23.6925 36.357 23.6925 45.0453 28.9225 50.3786L30.6469 52.1393L30.2746 52.5194C28.7944 54.0308 28.7944 56.4817 30.2746 57.9931L30.4652 58.1877C31.2039 58.9418 32.1718 59.3159 33.1427 59.3159C33.3244 59.3159 33.5091 59.2915 33.6848 59.2611C33.661 59.4466 33.6312 59.626 33.6312 59.8207C33.6312 60.8546 34.0273 61.8277 34.745 62.5544L34.9357 62.7491C35.6743 63.5032 36.6423 63.8772 37.6132 63.8772C37.7948 63.8772 37.9795 63.8529 38.1552 63.8225C38.1314 64.008 38.1016 64.1874 38.1016 64.382C38.1016 65.4159 38.4977 66.389 39.2155 67.1158L39.4061 67.3104C40.1447 68.0646 41.1127 68.4386 42.0836 68.4386C42.2653 68.4386 42.4499 68.4143 42.6316 68.3839C42.4648 69.5516 42.8073 70.7801 43.6829 71.6772L43.8736 71.8718C44.6122 72.626 45.5802 73 46.5511 73C47.519 73 48.4959 72.626 49.2286 71.8718L53.3089 67.7057C53.5829 67.426 53.7973 67.0975 53.979 66.7478L54.5211 67.2921C55.2597 68.0463 56.2455 68.469 57.2969 68.469C58.3482 68.469 59.3341 68.0493 60.0726 67.2921C60.8113 66.538 61.2163 65.5314 61.2163 64.4671C61.2163 64.2634 61.2014 64.0688 61.1716 63.868C62.3749 64.0475 63.6407 63.643 64.5193 62.7399C65.4336 61.8063 65.8 60.52 65.6183 59.3066C66.8304 59.4921 68.1111 59.0725 68.9957 58.1694C69.7343 57.4152 70.1394 56.4087 70.1394 55.3443C70.1394 54.4807 69.8654 53.6719 69.368 52.9846L71.0746 51.2421C73.6062 48.6574 75 45.2241 75 41.5657C75 37.9074 73.6062 34.4742 71.0746 31.8892C68.5192 29.3287 65.1563 27.9031 61.5794 27.9031ZM34.7327 57.0898C33.8481 57.993 32.4156 57.993 31.531 57.0898L31.3404 56.8952C30.4558 55.992 30.4558 54.5293 31.3404 53.6262L32.2548 52.6927H32.2637C32.2726 52.6927 32.2637 52.6927 32.2637 52.6835L35.4207 49.4602C35.8466 49.0253 36.4185 48.782 37.0231 48.782C37.6247 48.782 38.1966 49.0223 38.6254 49.4602L38.8161 49.6457C39.242 50.0805 39.4802 50.6644 39.4802 51.2817C39.4802 51.896 39.2449 52.4799 38.8161 52.9178L34.7327 57.0898ZM39.2032 61.6512C38.3186 62.5544 36.886 62.5544 36.0015 61.6512L35.8109 61.4566C35.385 61.0218 35.1468 60.4379 35.1468 59.8206C35.1468 59.2063 35.382 58.6224 35.8109 58.1845L39.8913 54.0184C40.332 53.5684 40.9128 53.3403 41.4936 53.3403C42.0745 53.3403 42.6522 53.5653 43.096 54.0184L43.2866 54.213C43.7125 54.6479 43.9508 55.2317 43.9508 55.8491C43.9508 56.4633 43.7155 57.0472 43.2866 57.4851L39.2032 61.6512ZM43.6707 66.2127C42.7861 67.1158 41.3536 67.1158 40.469 66.2127L40.2784 66.018C39.8525 65.5832 39.6143 64.9993 39.6143 64.382C39.6143 63.7677 39.8495 63.1838 40.2784 62.7459L44.3588 58.5798C44.7995 58.1298 45.3803 57.9017 45.9611 57.9017C46.5419 57.9017 47.1197 58.1267 47.5635 58.5798L47.7541 58.7653C48.6387 59.6685 48.6387 61.1312 47.7541 62.0343L43.6707 66.2127ZM52.2186 66.608L48.1382 70.7741C47.2536 71.6773 45.8211 71.6773 44.9365 70.7741L44.7459 70.5794C43.8613 69.6763 43.8613 68.2136 44.7459 67.3105L48.8263 63.1444C49.2522 62.7095 49.824 62.4662 50.4286 62.4662C51.0303 62.4662 51.6021 62.7065 52.031 63.1444L52.2216 63.3299C52.6475 63.7647 52.8858 64.3486 52.8858 64.9659C52.8798 65.5893 52.6445 66.1731 52.2186 66.608ZM67.8938 57.0895C66.9795 58.0231 65.3921 58.0231 64.4776 57.0895L56.1441 48.5807C55.8462 48.2767 55.3667 48.2767 55.0688 48.5807C54.9169 48.7358 54.8484 48.9305 54.8484 49.1342C54.8484 49.3379 54.9259 49.5326 55.0688 49.6877L63.4261 58.2206C64.3554 59.1694 64.3554 60.7111 63.4261 61.6629C62.5266 62.5813 60.957 62.5813 60.0546 61.6629L50.9441 52.364C50.6462 52.0599 50.1667 52.0599 49.8688 52.364C49.717 52.5191 49.6485 52.7137 49.6485 52.9174C49.6485 53.1212 49.7259 53.3158 49.8688 53.4709L58.9733 62.7667C59.423 63.2259 59.6762 63.8401 59.6762 64.4878C59.6762 65.1325 59.426 65.7498 58.9733 66.209C58.0649 67.1364 56.4864 67.1364 55.581 66.209L54.4075 65.0108V64.9804C54.4075 63.9465 54.0114 62.9734 53.2936 62.2405L53.103 62.055C52.3852 61.3222 51.4322 60.9178 50.4255 60.9178C50.2438 60.9178 50.0592 60.9482 49.8775 60.9725C50.0443 59.8048 49.7018 58.5763 48.8172 57.6792L48.6266 57.4937C47.751 56.5997 46.5447 56.2469 45.4011 56.4202C45.4249 56.2347 45.4547 56.0553 45.4547 55.8607C45.4547 54.8268 45.0586 53.8537 44.3497 53.1269L44.1591 52.9323C43.2835 52.0383 42.0772 51.6855 40.9336 51.8588C40.9574 51.6733 40.9872 51.4939 40.9872 51.2993C40.9872 50.2654 40.5911 49.2923 39.8733 48.5595L39.6827 48.374C38.9649 47.6411 38.0119 47.2367 37.0052 47.2367C35.9926 47.2367 35.0395 47.6411 34.3277 48.374L31.7038 51.053L29.9794 49.2923C27.7307 46.9964 26.4947 43.9524 26.4947 40.7135C26.4947 37.4746 27.7307 34.4249 29.9794 32.1347C32.2369 29.8388 35.2182 28.5768 38.39 28.5768C41.5617 28.5768 44.5432 29.8388 46.7922 32.1347L49.3386 34.7346L43.4594 40.7374C42.5302 41.6862 42.0179 42.9481 42.0179 44.2953C42.0179 45.6424 42.5302 46.9044 43.4594 47.8532C44.3886 48.8019 45.6246 49.3249 46.9351 49.3249C48.2605 49.3249 49.4965 48.8019 50.4198 47.8532L56.299 41.8442L67.873 53.6615C68.3227 54.1207 68.5759 54.735 68.5759 55.3827C68.5878 56.0213 68.3436 56.6295 67.8938 57.0886L67.8938 57.0895ZM69.9757 50.1684L68.3049 51.8743L56.8528 40.1793C56.7843 40.1093 56.7009 40.0546 56.6086 40.015L56.5997 40.0059C56.5758 39.9968 56.5461 39.9968 56.5163 39.9907C56.4478 39.9664 56.3793 39.9512 56.3108 39.9512C56.1112 39.9512 55.9206 40.0302 55.7687 40.1762L49.3474 46.7385C48.716 47.3923 47.8613 47.7512 46.9469 47.7512C46.0385 47.7512 45.1867 47.3924 44.5464 46.7385C43.9061 46.0848 43.5487 45.212 43.5487 44.2784C43.5487 43.3448 43.9001 42.4812 44.5464 41.8183L50.9438 35.2803C50.9528 35.2712 50.9587 35.2712 50.9587 35.2712L50.9677 35.256L53.1567 33.0209C55.4143 30.725 58.3956 29.463 61.5674 29.463C64.7391 29.463 67.7206 30.725 69.9696 33.0209C72.2182 35.3107 73.4542 38.3547 73.4542 41.5997C73.4602 44.8352 72.2241 47.8792 69.9755 50.1692L69.9757 50.1684Z" fill="#73BE5F"/>
</svg>
