<svg width="40" height="40" viewBox="0 0 40 40" fill="none" xmlns="http://www.w3.org/2000/svg">
<circle cx="20" cy="20" r="20" fill="#2E4049"/>
<path d="M20.2495 18.0619C20.2495 18.3286 20.4638 18.5381 20.7257 18.5381C21.2686 18.5381 21.7067 18.9809 21.7067 19.519C21.7067 19.7809 21.9209 19.9952 22.1828 19.9952C22.4448 19.9952 22.659 19.7809 22.659 19.519C22.659 18.4524 21.7924 17.5857 20.7257 17.5857C20.4638 17.5857 20.2495 17.8 20.2495 18.0619ZM28.0019 19.9952C28.2686 19.9952 28.4781 19.7809 28.4781 19.519C28.4781 15.2429 25.0019 11.7667 20.7257 11.7667C20.4638 11.7667 20.2495 11.9809 20.2495 12.2429C20.2495 12.5048 20.4638 12.719 20.7257 12.719C24.4781 12.719 27.5257 15.7714 27.5257 19.519C27.5257 19.7809 27.74 19.9952 28.0019 19.9952Z" fill="#FFDC27"/>
<path d="M24.6162 19.519C24.6162 19.7809 24.8305 19.9952 25.0924 19.9952C25.3543 19.9952 25.5686 19.7809 25.5686 19.519C25.5686 16.8476 23.3972 14.6762 20.7257 14.6762C20.4638 14.6762 20.2495 14.8904 20.2495 15.1524C20.2495 15.419 20.4638 15.6285 20.7257 15.6285C22.8733 15.6285 24.6162 17.3762 24.6162 19.519ZM20.7257 8.85712C20.4638 8.85712 20.2495 9.0714 20.2495 9.33331C20.2495 9.59521 20.4638 9.8095 20.7257 9.8095C26.0829 9.8095 30.44 14.1666 30.44 19.519C30.44 19.7809 30.6495 19.9952 30.9162 19.9952C31.1781 19.9952 31.3924 19.7809 31.3924 19.519C31.3924 13.6381 26.6067 8.85712 20.7257 8.85712ZM25.3781 24.5381L24.7543 24.8762C23.7019 25.4524 22.3686 25.2571 21.5162 24.4047L16.4876 19.3762C15.6352 18.5238 15.44 17.1904 16.0162 16.1333L16.3543 15.5143C16.7352 14.8095 16.8733 14.019 16.7591 13.2285C16.6511 12.4397 16.2863 11.7083 15.721 11.1476C15.0257 10.4524 14.1019 10.0714 13.1162 10.0714C12.1305 10.0714 11.2019 10.4524 10.5067 11.1476L10.2638 11.3952C8.9781 12.6809 8.83048 14.8952 9.84477 17.6381C10.8019 20.2571 12.7305 23.0952 15.2638 25.6285C19.1257 29.4904 23.4257 31.7143 26.5114 31.7143C27.7305 31.7143 28.7638 31.3666 29.4972 30.6333L29.7448 30.3857C30.0877 30.0432 30.3597 29.6364 30.5451 29.1886C30.7306 28.7408 30.826 28.2608 30.8257 27.7762C30.8191 26.8001 30.4311 25.8654 29.7448 25.1714C28.5972 24.0238 26.8019 23.7666 25.3781 24.5381Z" fill="#FFDC27"/>
</svg>
