<svg width="100" height="100" viewBox="0 0 100 100" fill="none" xmlns="http://www.w3.org/2000/svg">
<circle cx="50" cy="50" r="49.5" fill="#EEFFE9" stroke="#73BE5F"/>
<path d="M25.6342 74.9998C26.0105 74.9998 26.3234 74.6874 26.3234 74.3114L26.3209 64.439H63.3591V74.2501C63.3591 74.6261 63.6719 74.9386 64.0483 74.9386C64.4247 74.9386 64.7375 74.6261 64.7375 74.2501V63.7503V63.6869V63.6234C64.7375 63.4989 64.674 63.4354 64.6129 63.3744V63.3109L57.2908 54.376C57.1662 54.188 56.978 54.127 56.7287 54.127H32.9538C32.7657 54.127 32.5775 54.1904 32.3917 54.376L25.1329 63.3134V63.3769C25.0693 63.4403 25.0693 63.5648 25.0082 63.6259V63.6894V63.7528V74.3133C24.9447 74.6868 25.2578 74.9998 25.6342 74.9998ZM33.2665 55.5019H56.4157L62.6087 63.0651L27.1347 63.0627L33.2665 55.5019Z" fill="#73BE5F"/>
<path d="M50.9093 58.627H38.7729C38.3965 58.627 38.0837 58.9394 38.0837 59.3154C38.0837 59.6913 38.3965 60.0039 38.7729 60.0039H50.9093C51.2857 60.0039 51.5986 59.6914 51.5986 59.3154C51.5986 58.9395 51.3468 58.627 50.9093 58.627Z" fill="#73BE5F"/>
<path d="M64.6738 31.8781V32.6276H62.8604C58.7301 29.0024 53.9767 26.5025 49.1598 25.3769C48.9716 25.3134 44.2792 24.2515 36.5222 26.0018C36.2094 26.0653 35.3345 26.2508 34.9581 27.0637C34.7088 27.6252 34.7699 28.3137 35.1463 28.9386C35.8355 30.064 37.0232 30.4375 37.2114 30.501C37.4583 30.5645 37.7711 30.6279 38.0839 30.6279C38.2721 31.2529 38.646 31.6898 38.9588 32.0023C39.5209 32.5638 40.3347 32.8153 41.1486 32.8763C41.8378 34.2507 43.2748 35.1271 44.839 35.0636H47.5298L50.3452 36.5625C50.658 36.7504 50.9073 36.9384 51.1591 37.124C51.4719 37.4364 51.7847 37.7489 52.0975 38.2494C53.6617 40.4367 56.1643 41.6866 58.7914 41.6866C59.2289 41.6866 59.6663 41.6231 60.1063 41.5621H64.6741V42.3116C64.6741 42.6875 64.9869 43 65.3633 43H74.3108C74.6871 43 75 42.6875 75 42.3116C75 41.9356 74.6872 41.6231 74.3108 41.6231L66.0503 41.628V32.5662H74.2476C74.624 32.5662 74.9368 32.2537 74.9368 31.8777C74.9368 31.5018 74.624 31.1893 74.2476 31.1893H65.3639C64.9876 31.1893 64.6747 31.5018 64.6747 31.8777L64.6738 31.8781ZM41.5246 31.5022C41.461 31.5022 41.461 31.5022 41.5246 31.5022C41.1482 31.5657 40.4615 31.5657 39.8969 31.0017C39.7722 30.8772 39.7087 30.7527 39.584 30.5648L44.34 30.3158C44.34 30.6282 44.34 30.9407 44.4647 31.2532L41.5246 31.5022ZM44.7775 33.6895C43.9636 33.753 43.2133 33.377 42.7123 32.7521L44.9021 32.5641C45.0903 32.9401 45.3396 33.3136 45.6524 33.626L44.7775 33.6895ZM64.6739 40.1272H59.9815H59.8568H59.7933C57.2271 40.5031 54.6634 39.4387 53.1601 37.3784C52.7838 36.8169 52.4098 36.3774 51.9724 36.004C51.6596 35.755 51.3467 35.5035 50.9703 35.3155L48.0303 33.7531C46.5907 32.9402 45.6523 31.5023 45.7769 30.1279C45.7769 30.0034 45.8404 29.9399 45.9015 29.9399C45.9651 29.9399 46.0262 29.8765 46.1508 29.9399C48.2771 31.2533 50.154 32.2518 51.7817 32.8767C52.1581 33.0012 52.532 32.8767 52.6566 32.5008C52.7813 32.1248 52.6566 31.7513 52.2803 31.6268C50.7797 31.0019 48.9638 30.0645 46.8986 28.8146C46.3976 28.5021 45.8355 28.5021 45.2709 28.7511C45.1463 28.8146 45.0827 28.8756 44.9581 28.9391L38.6377 29.315C38.2614 29.315 37.9485 29.315 37.6993 29.1905C37.6357 29.1905 36.8854 28.9415 36.3844 28.2531C36.2597 28.0041 36.1962 27.8161 36.2597 27.6916C36.3233 27.5671 36.509 27.5036 36.8854 27.3791C44.3294 25.6922 48.8366 26.7542 48.8973 26.7542C53.6533 27.8796 58.2183 30.3159 62.2244 33.8774C62.2244 33.8774 62.2879 33.8774 62.2879 33.9408C62.3515 33.9408 62.3515 34.0043 62.4126 34.0043H62.5372H62.6619H64.727L64.7368 40.1269L64.6739 40.1272Z" fill="#73BE5F"/>
<path d="M48.8441 39.0651C47.28 38.9406 45.7794 39.9391 44.8409 41.4405C43.9024 39.9416 42.4019 38.9407 40.8377 39.0651C39.3982 39.1286 38.2716 40.1271 38.0223 40.503C37.272 41.504 36.8956 43.0028 37.1474 44.5652C37.2109 44.8142 37.3356 45.5662 37.7095 46.3766C39.0854 49.2524 43.5896 52.2501 44.5279 52.8142C44.6525 52.8777 44.7772 52.9387 44.9042 52.9387C45.0289 52.9387 45.1535 52.8753 45.2806 52.8142C46.1555 52.2527 50.7233 49.2525 52.099 46.3766C52.4754 45.5637 52.6 44.7507 52.6611 44.5652C52.9104 43.0028 52.5365 41.504 51.7862 40.503C51.4098 40.1271 50.3471 39.1286 48.8441 39.0651ZM51.2221 44.3772C51.2221 44.5017 51.0975 45.1902 50.7846 45.8151C49.8461 47.7535 46.7814 50.1263 44.8409 51.3762C43.5896 50.5633 39.9603 48.0025 38.8972 45.8151C38.5844 45.1902 38.4597 44.5017 38.4597 44.3772C38.2715 43.1908 38.5233 42.0654 39.0854 41.377C39.0854 41.377 39.8357 40.503 40.8988 40.4395H41.0234C42.3994 40.4395 43.7142 41.6894 44.1517 43.4398C44.2152 43.7523 44.5281 43.9403 44.8409 43.9403C45.1538 43.9403 45.403 43.7523 45.5301 43.4398C46.0311 41.6894 47.4071 40.4395 48.783 40.503C49.8461 40.5665 50.5964 41.4405 50.5964 41.4405C51.1585 42.0654 51.4103 43.1908 51.2221 44.3772Z" fill="#73BE5F"/>
</svg>
