<svg width="70" height="70" viewBox="0 0 70 70" fill="none" xmlns="http://www.w3.org/2000/svg">
<circle cx="35" cy="35" r="35" fill="#F5CD00"/>
<path d="M14.5321 56C14.8479 56 15.1104 55.7375 15.1104 55.4217L15.1083 47.1289H46.1855V55.3703C46.1855 55.6861 46.4479 55.9486 46.7638 55.9486C47.0796 55.9486 47.342 55.6861 47.342 55.3703V46.5504V46.4971V46.4438C47.342 46.3392 47.2887 46.2859 47.2375 46.2346V46.1813L41.0939 38.676C40.9893 38.5181 40.8314 38.4668 40.6222 38.4668H20.6737C20.5158 38.4668 20.3579 38.5201 20.2021 38.676L14.1115 46.1834V46.2367C14.0582 46.29 14.0582 46.3946 14.0069 46.4459V46.4992V46.5525V55.4233C13.9536 55.737 14.2163 56 14.5321 56ZM20.9361 39.6218H40.3596L45.5559 45.9749L15.7912 45.9728L20.9361 39.6218Z" fill="white"/>
<path d="M35.7394 42.2461H25.5562C25.2404 42.2461 24.9779 42.5086 24.9779 42.8244C24.9779 43.1402 25.2404 43.4027 25.5562 43.4027H35.7394C36.0552 43.4027 36.3177 43.1402 36.3177 42.8244C36.3177 42.5086 36.1065 42.2461 35.7394 42.2461Z" fill="white"/>
<path d="M47.2885 19.7776V20.4072H45.767C42.3014 17.362 38.3131 15.2621 34.2714 14.3166C34.1135 14.2633 30.1763 13.3712 23.6677 14.8415C23.4053 14.8949 22.6712 15.0507 22.3553 15.7335C22.1462 16.2052 22.1974 16.7835 22.5132 17.3084C23.0915 18.2538 24.0881 18.5675 24.246 18.6208C24.4531 18.6741 24.7156 18.7275 24.9781 18.7275C25.136 19.2524 25.4497 19.6195 25.7122 19.882C26.1838 20.3536 26.8667 20.5648 27.5495 20.6161C28.1278 21.7705 29.3336 22.5068 30.646 22.4534H32.9037L35.266 23.7125C35.5285 23.8704 35.7377 24.0283 35.9489 24.1841C36.2114 24.4466 36.4739 24.7091 36.7363 25.1295C38.0487 26.9668 40.1486 28.0168 42.3529 28.0168C42.72 28.0168 43.087 27.9634 43.4562 27.9122H47.2888V28.5417C47.2888 28.8575 47.5513 29.12 47.8671 29.12H55.3745C55.6903 29.12 55.9528 28.8575 55.9528 28.5417C55.9528 28.2259 55.6903 27.9634 55.3745 27.9634L48.4435 27.9675V20.3556H55.3215C55.6373 20.3556 55.8998 20.0931 55.8998 19.7773C55.8998 19.4615 55.6373 19.199 55.3215 19.199H47.8676C47.5518 19.199 47.2893 19.4615 47.2893 19.7773L47.2885 19.7776ZM27.865 19.4618C27.8117 19.4618 27.8117 19.4618 27.865 19.4618C27.5492 19.5152 26.973 19.5152 26.4993 19.0415C26.3947 18.9369 26.3414 18.8323 26.2368 18.6744L30.2273 18.4652C30.2273 18.7277 30.2273 18.9902 30.3319 19.2527L27.865 19.4618ZM30.5944 21.2992C29.9115 21.3525 29.282 21.0367 28.8616 20.5118L30.699 20.3539C30.8568 20.6697 31.066 20.9834 31.3285 21.2459L30.5944 21.2992ZM47.2886 26.7068H43.3514H43.2468H43.1935C41.0404 27.0226 38.8893 26.1285 37.6279 24.3978C37.3121 23.9262 36.9984 23.557 36.6313 23.2433C36.3688 23.0342 36.1064 22.823 35.7905 22.665L33.3237 21.3526C32.1158 20.6698 31.3284 19.4619 31.433 18.3074C31.433 18.2029 31.4863 18.1496 31.5375 18.1496C31.5909 18.1496 31.6421 18.0962 31.7467 18.1496C33.5307 19.2528 35.1056 20.0915 36.4713 20.6164C36.7871 20.721 37.1009 20.6164 37.2055 20.3006C37.31 19.9849 37.2055 19.6711 36.8897 19.5665C35.6306 19.0416 34.1069 18.2541 32.3742 17.2042C31.9538 16.9417 31.4821 16.9417 31.0084 17.1509C30.9038 17.2042 30.8505 17.2555 30.7459 17.3088L25.4428 17.6246C25.127 17.6246 24.8645 17.6246 24.6554 17.52C24.602 17.52 23.9725 17.3109 23.5521 16.7326C23.4475 16.5234 23.3942 16.3655 23.4475 16.2609C23.5008 16.1564 23.6567 16.103 23.9725 15.9985C30.2185 14.5815 34.0003 15.4735 34.0512 15.4735C38.0417 16.4188 41.872 18.4653 45.2334 21.457C45.2334 21.457 45.2867 21.457 45.2867 21.5103C45.34 21.5103 45.34 21.5636 45.3913 21.5636H45.4958H45.6004H47.3332L47.3414 26.7066L47.2886 26.7068Z" fill="white"/>
<path d="M34.0065 25.8149C32.6941 25.7104 31.4351 26.549 30.6476 27.8102C29.8602 26.5511 28.6011 25.7104 27.2887 25.8149C26.0809 25.8683 25.1355 26.707 24.9264 27.0228C24.2969 27.8635 23.981 29.1226 24.1923 30.435C24.2456 30.6442 24.3502 31.2758 24.6639 31.9566C25.8184 34.3722 29.5977 36.8903 30.3849 37.3642C30.4895 37.4175 30.5941 37.4687 30.7007 37.4687C30.8053 37.4687 30.9099 37.4154 31.0165 37.3642C31.7506 36.8925 35.5833 34.3723 36.7375 31.9566C37.0533 31.2737 37.1579 30.5908 37.2092 30.435C37.4184 29.1226 37.1046 27.8635 36.4751 27.0228C36.1593 26.707 35.2676 25.8683 34.0065 25.8149ZM36.0018 30.2771C36.0018 30.3817 35.8972 30.96 35.6347 31.4849C34.8473 33.1131 32.2758 35.1063 30.6476 36.1562C29.5977 35.4734 26.5525 33.3223 25.6605 31.4849C25.398 30.96 25.2934 30.3817 25.2934 30.2771C25.1355 29.2805 25.3467 28.3352 25.8184 27.7569C25.8184 27.7569 26.4479 27.0228 27.3399 26.9694H27.4445C28.599 26.9694 29.7023 28.0194 30.0693 29.4897C30.1226 29.7521 30.3851 29.91 30.6476 29.91C30.9101 29.91 31.1192 29.7521 31.2259 29.4897C31.6463 28.0194 32.8008 26.9694 33.9553 27.0228C34.8473 27.0761 35.4768 27.8102 35.4768 27.8102C35.9485 28.3352 36.1597 29.2805 36.0018 30.2771Z" fill="white"/>
</svg>
