<svg width="70" height="70" viewBox="0 0 70 70" fill="none" xmlns="http://www.w3.org/2000/svg">
<circle cx="35" cy="35" r="35" fill="#ED8D1B"/>
<path d="M50.2908 46.2509C49.9958 46.0323 49.5805 46.0924 49.3619 46.3856C45.8627 51.0833 40.5018 53.7777 34.6528 53.7777C33.3577 53.7777 32.068 53.6411 30.813 53.3733C30.8221 53.1055 30.7911 52.8342 30.7201 52.5664C30.5325 51.8632 30.0807 51.2749 29.4486 50.9106C28.8183 50.5462 28.0824 50.4497 27.3793 50.6373C26.6762 50.8249 26.0879 51.2767 25.7235 51.9088C25.3592 52.5391 25.2627 53.275 25.4503 53.9781C25.6379 54.6812 26.0897 55.2695 26.7218 55.6339C27.1425 55.8761 27.6088 56 28.0807 56C28.3175 56 28.5561 55.969 28.791 55.9053C29.4887 55.7177 30.0752 55.2714 30.4396 54.6484C31.8167 54.949 33.232 55.1038 34.6528 55.1038C37.8114 55.1038 40.8278 54.377 43.6187 52.9434C46.28 51.5773 48.6353 49.5827 50.426 47.1765C50.6446 46.8814 50.5845 46.4661 50.2912 46.2475L50.2908 46.2509ZM29.2973 53.974C29.1096 54.2982 28.8091 54.5296 28.4466 54.6261C28.0859 54.7226 27.7071 54.6735 27.3847 54.4858C27.0604 54.2982 26.8291 53.9976 26.7326 53.6352C26.636 53.2745 26.6852 52.8956 26.8728 52.5732C27.0604 52.249 27.361 52.0177 27.7235 51.9211C27.8437 51.8884 27.9657 51.872 28.0878 51.872C28.3301 51.872 28.5705 51.9357 28.7854 52.0596C29.1097 52.2472 29.341 52.5478 29.4375 52.9102C29.5341 53.2709 29.4849 53.6498 29.2973 53.9722L29.2973 53.974ZM53.8554 39.6637C54.1559 38.2866 54.3108 36.8712 54.3108 35.4504C54.3108 30.7835 52.6477 26.2607 49.6257 22.7125C46.6384 19.2042 42.5069 16.8471 37.9897 16.0749C37.6527 16.0166 37.3266 16.2243 37.2374 16.554L35.3976 23.2881C35.0041 24.7271 33.5924 26.3738 32.1115 27.1206C30.4921 27.9367 29.3464 29.3775 28.6997 31.4085C26.6705 32.0552 25.2297 33.201 24.4136 34.8203C23.6668 36.3012 22.0201 37.7129 20.5811 38.1064L16.7103 39.1647C16.4571 37.9497 16.3259 36.7056 16.3259 35.4487C16.3259 27.5307 21.523 20.4244 29.0205 18.0038C29.4795 18.8672 30.3866 19.4574 31.4322 19.4574C32.9368 19.4574 34.1609 18.2333 34.1609 16.7287C34.1609 15.2241 32.9368 14 31.4322 14C29.9276 14 28.7145 15.2132 28.7053 16.7086C24.8728 17.9273 21.4355 20.3517 18.991 23.5724C16.3789 27.0115 15 31.1192 15 35.449C15 38.236 15.572 40.9301 16.6995 43.4547C17.7888 45.8938 19.3389 48.0541 21.308 49.8759C21.4319 49.9907 21.594 50.0526 21.7598 50.0526C21.8217 50.0526 21.8836 50.0435 21.9456 50.0253L24.2862 49.3422C26.3155 48.7575 27.6033 48.5589 29.3831 48.2839C30.1044 48.1728 30.9205 48.0471 31.8841 47.8795C35.5691 47.2365 39.1157 46.0434 40.469 45.5589L42.2341 44.9286C43.1831 44.6663 43.8498 44.0633 44.0611 43.2728C44.2305 42.6371 44.0884 41.9576 43.6877 41.4403C44.0739 41.2472 44.3981 40.943 44.6185 40.5587C44.9172 40.0413 44.9974 39.4384 44.8426 38.8646C44.7442 38.4967 44.5566 38.1688 44.2997 37.8992C44.5493 37.7116 44.7624 37.473 44.9245 37.1943C45.2378 36.6533 45.3216 36.023 45.1595 35.4219C45.0484 35.0066 44.8316 34.6496 44.5456 34.3672C44.7933 34.1796 45.0046 33.9446 45.1649 33.666C45.4782 33.1249 45.562 32.4947 45.3999 31.8936C45.2943 31.4983 45.0811 31.1376 44.7915 30.848L48.185 23.0516C51.1869 26.3304 52.9848 30.6969 52.9848 35.4454C52.9848 36.7405 52.8482 38.032 52.5804 39.2871C51.6041 39.2525 50.6405 39.7443 50.1177 40.6478C49.7534 41.2781 49.6569 42.014 49.8445 42.7171C50.0321 43.4202 50.4839 44.0085 51.116 44.3729C51.544 44.6206 52.0122 44.7372 52.4748 44.7372C53.4184 44.7372 54.3365 44.2472 54.841 43.3728C55.5897 42.074 55.1489 40.411 53.8556 39.655L53.8554 39.6637ZM31.4283 15.3275C32.2006 15.3275 32.8291 15.956 32.8291 16.7283C32.8291 17.5006 32.2006 18.1291 31.4283 18.1291C30.656 18.1291 30.0276 17.5006 30.0276 16.7283C30.0276 15.956 30.656 15.3275 31.4283 15.3275ZM44.0114 33.0056C43.8766 33.2406 43.6599 33.4063 43.4012 33.4774L42.2955 33.7743H42.2937L38.5031 34.7907C38.1479 34.8854 37.9384 35.2497 38.0331 35.6031C38.1278 35.9583 38.4921 36.1678 38.8455 36.0731L42.638 35.0566C43.1753 34.9127 43.7291 35.2333 43.873 35.7689C43.9422 36.0275 43.9058 36.2989 43.771 36.5321C43.6362 36.7671 43.4194 36.9328 43.1607 37.0038L42.1043 37.2862L38.2025 38.3318C37.8473 38.4265 37.6378 38.7908 37.7325 39.1442C37.8127 39.4411 38.0805 39.636 38.3737 39.636C38.4302 39.636 38.4885 39.6287 38.5449 39.6123L42.4485 38.5667C42.6799 38.5048 42.9239 38.5376 43.1335 38.6596C43.3448 38.7817 43.4941 38.9766 43.5561 39.2079C43.618 39.4393 43.5852 39.6834 43.4632 39.8947C43.3411 40.106 43.1462 40.2554 42.9149 40.3173L41.4212 40.718H41.4194L37.9712 41.6416C37.616 41.7363 37.4065 42.1006 37.5012 42.454C37.5814 42.7509 37.8492 42.9458 38.1424 42.9458C38.1989 42.9458 38.2572 42.9385 38.3137 42.9221L41.7618 41.9986C42.1699 41.8893 42.4213 42.0332 42.5615 42.1735C42.7582 42.3702 42.8384 42.6653 42.7691 42.9258C42.6799 43.2591 42.3556 43.5159 41.8547 43.6489C41.8383 43.6544 41.8201 43.6599 41.8037 43.6653L40.0132 44.3047C38.6907 44.7765 35.2297 45.9423 31.647 46.5671C30.6961 46.7328 29.8856 46.8567 29.1715 46.9678C27.4101 47.2392 26.0202 47.4524 23.9072 48.0626L21.929 48.6382C19.5847 46.3776 17.9016 43.5362 17.022 40.4469L20.9256 39.3794C22.7471 38.8822 24.6652 37.2501 25.5943 35.4103C26.1426 34.3228 27.0333 33.5177 28.2939 32.9676L27.0224 38.4524C26.8767 39.079 27.0097 39.6674 27.3958 40.11C27.7711 40.5381 28.3649 40.7876 28.9842 40.7876C29.0552 40.7876 29.1281 40.784 29.1991 40.7767C31.5981 40.5508 32.2157 38.7584 32.7584 37.1755C33.0936 36.2028 33.4397 35.1954 34.1719 34.4523C34.9807 33.6344 36.0245 33.3557 37.132 33.0606L42.8444 31.5305C43.2524 31.4686 43.4054 31.5251 43.6677 31.6398C43.8863 31.7764 44.0484 31.9914 44.1122 32.2336C44.1814 32.4923 44.1449 32.7637 44.0102 32.9968L44.0114 33.0056ZM43.6107 30.2296C43.3502 30.1767 43.0296 30.1622 42.6015 30.2314C42.5797 30.235 42.5578 30.2405 42.536 30.246L36.7928 31.7852C35.5633 32.113 34.2918 32.4537 33.2317 33.5266C32.2845 34.4847 31.871 35.6888 31.5067 36.7507C30.9274 38.4357 30.5558 39.3228 29.0786 39.4612C28.809 39.4867 28.5375 39.3975 28.3991 39.2408C28.3627 39.1971 28.2479 39.0678 28.319 38.7581L29.7489 32.5901C30.2425 30.4625 31.2098 29.0599 32.7071 28.3058C34.5469 27.3786 36.179 25.4587 36.6763 23.637L38.3558 17.4929C41.7584 18.1887 44.7769 19.7971 47.1757 22.0376L43.6109 30.2271L43.6107 30.2296ZM53.6892 42.7161C53.5016 43.0404 53.201 43.2717 52.8385 43.3682C52.4779 43.4648 52.099 43.4156 51.7766 43.228C51.4524 43.0403 51.221 42.7398 51.1245 42.3773C51.028 42.0166 51.0771 41.6378 51.2648 41.3154C51.5234 40.8673 51.9952 40.6159 52.4797 40.6159C52.7165 40.6159 52.957 40.676 53.1774 40.8035C53.8459 41.1897 54.0753 42.0476 53.6892 42.7161Z" fill="white"/>
</svg>
