<svg width="48" height="50" viewBox="0 0 48 50" fill="none" xmlns="http://www.w3.org/2000/svg">
<path fill-rule="evenodd" clip-rule="evenodd" d="M1.60727 10.2326C1.30043 10.3588 1.21773 10.5438 1.17856 10.7113C0.945713 11.7059 1.83361 14.7808 10.3947 24.1843C15.8395 30.162 22.3596 36.4818 25.8632 39.8767C27.0623 41.041 27.9306 41.881 28.3223 42.2879C28.3289 42.2945 28.3332 42.2988 28.3397 42.3075C28.355 42.3228 29.9022 44.0528 32.6921 45.7133C35.2274 47.2213 39.3361 48.9797 44.5784 48.8513C44.7134 48.736 44.8875 48.5423 44.8744 48.3116C40.5003 47.8742 35.6059 44.7601 29.9262 38.8019C24.908 33.5377 19.9485 26.7696 15.5719 20.8008C12.1009 16.0654 8.81482 11.5802 6.06441 8.62308C5.25488 9.22804 3.43555 10.3923 1.60976 10.2334L1.60727 10.2326ZM44.0295 50.0002C38.7675 50.0002 34.6412 48.2136 32.0646 46.6706C29.216 44.9688 27.6361 43.2366 27.4881 43.0734C27.1051 42.6773 26.2477 41.8461 25.0638 40.6992C21.5515 37.2957 15.0143 30.9588 9.54743 24.9544C0.364154 14.868 -0.264815 11.8452 0.0638754 10.4502C0.218382 9.79301 0.66666 9.32515 1.36304 9.10532C1.44138 9.08138 1.52407 9.07268 1.60677 9.08138C3.55011 9.32294 5.7154 7.4362 5.73718 7.41659C5.96786 7.21203 6.31607 7.22727 6.52933 7.44924C9.40186 10.448 12.8469 15.1462 16.4942 20.1211C25.1338 31.9071 35.8819 46.5768 45.3131 47.1974C45.4959 47.2083 45.6613 47.3084 45.7614 47.4629C46.4143 48.5009 45.7157 49.4867 45.0847 49.8959C44.9976 49.9524 44.8953 49.9851 44.7909 49.9873C44.5341 49.996 44.2795 49.9981 44.0292 49.9981L44.0295 50.0002Z" fill="#2E4049"/>
<path fill-rule="evenodd" clip-rule="evenodd" d="M45.2746 48.3398C45.1092 48.3398 44.9438 48.268 44.8307 48.1287C44.6305 47.8828 44.6696 47.5216 44.9134 47.3235C45.8687 46.5488 46.3845 45.7567 46.4432 44.9689C46.5042 44.1659 46.0755 43.6044 45.9797 43.4913C39.5385 37.9398 37.3597 31.4941 37.2683 31.2222C37.2661 31.2135 37.2618 31.2048 37.2596 31.1961C35.1552 23.5771 32.8311 18.1978 29.5253 11.4819C29.4274 11.2839 29.2685 11.0358 29.0596 10.977C28.8616 10.9204 28.6549 11.0488 28.6527 11.0488C28.6331 11.0641 28.6353 11.0619 28.6113 11.0728L25.2796 12.8768C25.1251 12.9617 24.9401 12.9704 24.7769 12.8986C21.0317 11.2621 18.9535 9.55598 18.427 7.68662C17.9026 5.83036 19.0124 4.23955 19.8198 3.07532C20.2072 2.5204 20.6881 1.82836 20.5988 1.57159C20.564 1.46931 20.3551 1.3061 19.8742 1.15594C19.7523 1.11894 19.2126 1.06454 17.3542 1.98725C16.1007 2.60747 14.6535 3.47142 13.4893 4.16563C12.7189 4.6248 12.053 5.02307 11.5677 5.27983C11.5329 5.29724 11.4959 5.31248 11.4567 5.32336C11.4241 5.33424 8.13807 6.30263 7.26977 8.70514C7.16313 9.00328 6.83453 9.15561 6.5364 9.04898C6.23826 8.94234 6.08593 8.61374 6.19256 8.31561C7.20231 5.52792 10.5645 4.39851 11.0824 4.24179C11.5372 3.99806 12.1727 3.6194 12.9039 3.18419C16.2726 1.17339 18.9512 -0.332518 20.2158 0.0635262C21.0275 0.31596 21.5085 0.690266 21.6847 1.20169C21.9611 2.00687 21.4062 2.80553 20.7621 3.73043C20.0091 4.81416 19.1539 6.04151 19.5304 7.37555C19.9439 8.83577 21.7762 10.3025 24.9839 11.7366L28.0501 10.0762C28.1916 9.98694 28.7182 9.70185 29.3471 9.86725C29.852 9.99999 30.2568 10.3721 30.5528 10.9749C33.8867 17.7471 36.2324 23.1766 38.3589 30.8741C38.4633 31.1787 40.6656 37.4156 46.7566 42.6496C46.7719 42.6626 46.7871 42.6778 46.8023 42.6931C46.8372 42.7322 47.6815 43.6506 47.5857 45.0303C47.5074 46.1532 46.8502 47.2239 45.6315 48.2118C45.5249 48.2989 45.3987 48.3402 45.2703 48.3402L45.2746 48.3398Z" fill="#2E4049"/>
<path fill-rule="evenodd" clip-rule="evenodd" d="M24.1983 18.776H19.0951C18.7796 18.776 18.5228 18.5192 18.5228 18.2037C18.5228 17.8881 18.7796 17.6313 19.0951 17.6313H24.1983C24.5139 17.6313 24.7706 17.8881 24.7706 18.2037C24.7706 18.5192 24.5138 18.776 24.1983 18.776Z" fill="#2E4049"/>
<path fill-rule="evenodd" clip-rule="evenodd" d="M27.702 24.0836H22.5988C22.2833 24.0836 22.0265 23.8268 22.0265 23.5113C22.0265 23.1958 22.2833 22.939 22.5988 22.939H27.702C28.0175 22.939 28.2743 23.1958 28.2743 23.5113C28.2743 23.8268 28.0175 24.0836 27.702 24.0836Z" fill="#2E4049"/>
<path fill-rule="evenodd" clip-rule="evenodd" d="M39.8512 35.8372C39.7555 35.8372 39.6554 35.8133 39.5661 35.7611C37.5663 34.6142 31.8124 31.9158 29.2425 33.178C28.5091 33.537 28.0848 34.2007 27.9433 35.2083C27.8998 35.5217 27.6104 35.7393 27.297 35.6958C26.9836 35.6523 26.766 35.3628 26.8095 35.0494C27.0054 33.6567 27.6538 32.6817 28.7376 32.1486C32.3805 30.3641 39.8211 34.5859 40.1364 34.7665C40.4106 34.9232 40.5042 35.2736 40.3475 35.5478C40.2431 35.7327 40.0494 35.835 39.8514 35.835L39.8512 35.8372Z" fill="#2E4049"/>
<path fill-rule="evenodd" clip-rule="evenodd" d="M14.9889 19.6073C14.8561 19.6073 14.7234 19.5616 14.6146 19.468C14.3752 19.2613 14.3491 18.9001 14.5558 18.6607C19.0866 13.4052 12.3753 4.37211 12.3056 4.28075C12.1163 4.02831 12.1663 3.66922 12.4188 3.47774C12.6712 3.28842 13.0303 3.33847 13.2196 3.5909C13.2958 3.68883 15.0607 6.04783 16.2445 9.15323C17.8527 13.3728 17.5676 16.9181 15.4219 19.4073C15.3087 19.5378 15.1499 19.6053 14.9888 19.6053L14.9889 19.6073Z" fill="#2E4049"/>
<path fill-rule="evenodd" clip-rule="evenodd" d="M27.8478 16.776C27.5954 16.776 27.3647 16.6084 27.2951 16.3517C27.2146 16.047 27.3952 15.7314 27.6999 15.6509L31.7606 14.5629C32.0675 14.4823 32.3809 14.663 32.4614 14.9676C32.5419 15.2745 32.3613 15.5878 32.0566 15.6683L27.9958 16.7564C27.9479 16.7695 27.8957 16.776 27.8478 16.776Z" fill="#2E4049"/>
<path fill-rule="evenodd" clip-rule="evenodd" d="M29.493 20.0796C29.2406 20.0796 29.0099 19.9098 28.9403 19.6552C28.8598 19.3484 29.0404 19.035 29.3451 18.9545L33.2013 17.9208C33.5059 17.8381 33.8215 18.0209 33.902 18.3255C33.9847 18.6302 33.8019 18.9458 33.4972 19.0263L29.641 20.06C29.591 20.073 29.5409 20.0796 29.4909 20.0796L29.493 20.0796Z" fill="#2E4049"/>
<path fill-rule="evenodd" clip-rule="evenodd" d="M31.1704 23.196C30.918 23.196 30.6873 23.0263 30.6177 22.7695C30.5371 22.4648 30.7178 22.1492 31.0224 22.0687L34.5783 21.1156C34.8852 21.0329 35.1985 21.2157 35.279 21.5204C35.3595 21.825 35.1789 22.1406 34.8743 22.2211L31.3184 23.1742C31.2683 23.1873 31.2183 23.1938 31.1704 23.1938L31.1704 23.196Z" fill="#2E4049"/>
<path fill-rule="evenodd" clip-rule="evenodd" d="M32.2368 46.6792C32.0649 46.6792 31.8973 46.603 31.7841 46.4594L3.124 9.70787C2.93032 9.45761 2.97385 9.09852 3.22411 8.90269C3.47437 8.70684 3.83347 8.75254 4.02929 9.0028L32.6894 45.7543C32.8831 46.0046 32.8396 46.3636 32.5893 46.5573C32.4849 46.6378 32.3608 46.6792 32.2368 46.6792Z" fill="#2E4049"/>
</svg>
