<svg width="53" height="60" viewBox="0 0 53 60" fill="none" xmlns="http://www.w3.org/2000/svg">
<path d="M39.9103 47.6922C39.8478 47.6922 39.7827 47.687 39.7228 47.6688C39.3035 47.5646 39.0483 47.1427 39.1524 46.7208C39.1733 46.6453 39.1889 46.5802 39.1941 46.5333C39.1967 46.5177 39.1993 46.502 39.2045 46.4838C39.6342 44.6634 40.6499 42.8482 41.8218 40.7439C43.0406 38.5615 44.4209 36.0874 45.322 33.1968C46.2856 30.1108 47.0617 26.4905 45.1033 19.2015C44.8715 18.342 44.3897 16.5555 43.8089 16.6493C43.1422 16.7534 42.3479 17.3732 42.1187 18.7952V18.7978C41.7932 20.8005 41.6499 23.9413 41.5458 26.2356C41.5249 26.6653 41.1603 27.0012 40.728 26.9804C40.2983 26.9596 39.9623 26.595 39.9831 26.1626C40.0899 23.8292 40.2332 20.6363 40.5769 18.5449C40.7358 17.5422 41.1186 16.7219 41.7098 16.0994C42.2202 15.5629 42.8817 15.2088 43.564 15.0994C44.1942 14.9978 45.0954 15.1515 45.7907 16.4484C46.1709 17.162 46.4157 18.0657 46.611 18.7922C47.5199 22.1674 47.934 25.0426 47.8741 27.582C47.8194 30.1082 47.3038 32.0719 46.8089 33.6553C45.8583 36.6997 44.4364 39.2493 43.1837 41.497C42.0691 43.4893 41.1107 45.2107 40.7253 46.8124C40.7096 46.9036 40.6862 46.9921 40.6628 47.0859C40.5768 47.4583 40.2592 47.6922 39.9103 47.6922Z" fill="#2E4049"/>
<path d="M29.7584 47.6843H29.7089C29.2792 47.6583 28.9511 47.2885 28.9771 46.8562C29.0396 45.817 29.0709 43.8586 28.5812 42.4263C28.0552 40.8845 28.2167 39.1162 29.0656 37.1708C29.6646 35.8009 30.4198 34.7801 30.6595 34.4727C31.3756 33.4336 33.519 31.0585 35.4123 28.962L35.5555 28.8058C36.204 28.087 36.816 27.4098 37.264 26.8942C38.3708 25.6389 39.7198 25.1285 41.061 25.4645C42.1314 25.7353 43.4101 26.6364 43.6888 27.975C44.1523 30.2199 42.996 31.6445 41.8814 33.0143C41.0428 34.0508 40.173 35.116 39.7224 36.6916C39.6052 37.1057 39.1729 37.3453 38.7562 37.2281C38.3422 37.1109 38.1026 36.6786 38.2198 36.2619C38.7562 34.3764 39.7719 33.1263 40.6678 32.0273C41.7121 30.7381 42.47 29.8084 42.1575 28.2875C42.0299 27.6676 41.3033 27.1363 40.6782 26.9749C39.725 26.7379 38.9333 27.3551 38.4359 27.9177C37.9801 28.4385 37.3655 29.1183 36.7145 29.8422L36.5712 30.0011C34.7899 31.9751 32.5736 34.431 31.9356 35.3686C31.9252 35.3842 31.9148 35.3972 31.9044 35.4102C31.7689 35.5873 31.0475 36.5249 30.498 37.7906C29.8105 39.3636 29.662 40.7542 30.0579 41.9158C30.6074 43.5174 30.6204 45.5358 30.5371 46.9447C30.5136 47.3666 30.1699 47.6843 29.7584 47.6843Z" fill="#2E4049"/>
<path d="M40.9177 55L29.2111 54.9895C28.8439 54.9895 28.4949 54.8463 28.2345 54.5833C27.9741 54.3228 27.8308 53.9739 27.8308 53.6067L27.8516 47.5074C27.8516 47.1376 27.9975 46.7887 28.2631 46.5282C28.5236 46.2678 28.8699 46.1245 29.2371 46.1245H29.2423L40.9383 46.1349C41.3029 46.1349 41.6518 46.2782 41.9122 46.5412C42.1753 46.8042 42.3185 47.1532 42.3185 47.5257L42.2977 53.6223C42.2899 54.3775 41.6729 55 40.9177 55ZM29.3911 53.427L40.7357 53.4374L40.7513 47.6923L29.4094 47.6871L29.3911 53.427Z" fill="#2E4049"/>
<path d="M38.3055 51.3177H38.3029C37.8706 51.3151 37.5242 50.9635 37.5242 50.5338L37.5294 49.4765C37.532 49.0468 37.881 48.6978 38.3107 48.6978H38.3133C38.7456 48.7004 39.092 49.0519 39.092 49.4817L39.0868 50.539C39.0842 50.9739 38.7378 51.3177 38.3055 51.3177Z" fill="#2E4049"/>
<path d="M11.9502 47.6921C11.5986 47.6921 11.2783 47.4551 11.1923 47.0983C11.1689 47.0045 11.1454 46.916 11.1298 46.8248C10.7444 45.2232 9.78601 43.5017 8.67135 41.5094C7.41869 39.2593 5.99415 36.7123 5.04617 33.6677C4.55135 32.0817 4.03571 30.1206 3.98098 27.5944C3.92629 25.0552 4.34037 22.1801 5.24404 18.8047C5.43937 18.0781 5.68417 17.1744 6.06442 16.4608C6.76239 15.1665 7.65823 15.0128 8.29107 15.1118C8.97337 15.2186 9.63227 15.5754 10.1453 16.1119C10.7391 16.7343 11.1193 17.5547 11.2782 18.5573C11.6193 20.646 11.7626 23.8441 11.8719 26.175C11.8928 26.6047 11.5594 26.9719 11.1271 26.9928C10.6974 27.0136 10.3302 26.6803 10.3093 26.248C10.2051 23.9536 10.0619 20.8102 9.73638 18.8103V18.8077C9.5124 17.3857 8.71812 16.7659 8.04882 16.6617C7.46546 16.5705 6.98363 18.3545 6.75449 19.2139C4.79865 26.5036 5.57216 30.1231 6.53573 33.2093C7.43684 36.0974 8.81711 38.5715 10.0359 40.7563C11.2078 42.858 12.2235 44.6758 12.6532 46.4962C12.6559 46.5118 12.6585 46.5275 12.6637 46.5457C12.6741 46.5952 12.6871 46.6551 12.7053 46.7332C12.8095 47.1525 12.5569 47.577 12.135 47.6812C12.0777 47.6838 12.0127 47.6921 11.9502 47.6921Z" fill="#2E4049"/>
<path d="M22.102 47.684C21.6906 47.684 21.3468 47.3636 21.3233 46.9521C21.24 45.5406 21.2504 43.5197 21.8025 41.9206C22.1984 40.7617 22.0499 39.371 21.3624 37.8006C20.8103 36.5375 20.0915 35.5973 19.956 35.4255C19.9456 35.4124 19.9326 35.3968 19.9248 35.3838C19.2867 34.4463 17.0705 31.9878 15.2892 30.0163L15.1459 29.8575C14.4948 29.1335 13.8829 28.4537 13.4245 27.9329C12.9297 27.3704 12.138 26.7506 11.1822 26.9901C10.5572 27.1464 9.83318 27.6803 9.70818 28.3027C9.39566 29.8236 10.1535 30.7508 11.1979 32.0399C12.0938 33.1441 13.1094 34.389 13.6459 36.2745C13.7631 36.6886 13.5209 37.1209 13.1094 37.2407C12.6953 37.3579 12.263 37.1157 12.1432 36.7042C11.6953 35.1286 10.8254 34.0609 9.98426 33.027C8.86701 31.6519 7.71594 30.2352 8.1743 27.9876C8.45556 26.6464 9.73165 25.7453 10.802 25.4745C12.1432 25.1386 13.4896 25.6464 14.5991 26.9016C15.047 27.4173 15.6617 28.0944 16.3075 28.808L16.4508 28.9669C18.3415 31.0633 20.4874 33.441 21.2036 34.4776C21.4484 34.7875 22.1985 35.8058 22.7974 37.1756C23.6464 39.1185 23.8105 40.8868 23.2818 42.4311C22.7896 43.8634 22.8235 45.8219 22.886 46.861C22.912 47.2907 22.5839 47.6631 22.1541 47.6892C22.1307 47.684 22.1151 47.684 22.102 47.684Z" fill="#2E4049"/>
<path d="M10.9448 54.9998C10.187 54.9998 9.56714 54.3773 9.56454 53.6195L9.5437 47.5228C9.5437 47.153 9.68694 46.8041 9.94998 46.5384C10.2104 46.278 10.5594 46.1321 10.924 46.1321L22.6226 46.1217H22.6278C22.9924 46.1217 23.3361 46.2649 23.5966 46.5254C23.8596 46.7884 24.008 47.1374 24.008 47.5098L24.0289 53.6091C24.0289 53.9763 23.8856 54.3252 23.6252 54.5857C23.3648 54.8487 23.0158 54.9919 22.646 54.9919L10.9448 54.9998ZM11.1089 47.6921L11.1245 53.4372L22.4691 53.4267L22.4483 47.6842L11.1089 47.6921Z" fill="#2E4049"/>
<path d="M13.5523 51.3177C13.1226 51.3177 12.7736 50.9687 12.771 50.539L12.7658 49.4817C12.7632 49.0493 13.1095 48.6978 13.5445 48.6978H13.5471C13.9768 48.6978 14.3258 49.0467 14.3284 49.4765L14.3336 50.5338C14.3362 50.9661 13.9898 51.3177 13.5549 51.3177H13.5523Z" fill="#2E4049"/>
<path d="M25.9302 30.6313C25.7323 30.6313 25.5292 30.5558 25.3781 30.4021L12.6095 17.6361C11.2135 16.2402 10.4427 14.3808 10.4427 12.4015C10.4427 10.4221 11.2135 8.56792 12.6095 7.16678C14.0106 5.76564 15.8674 5 17.8441 5C19.8208 5 21.6777 5.77084 23.0788 7.16678C23.0892 7.1772 23.1022 7.19022 23.1101 7.20324L25.9279 10.3857L28.7458 7.20324C28.7562 7.19022 28.7693 7.1798 28.7771 7.16678C30.173 5.77084 32.0324 5 34.0117 5C35.9884 5 37.8453 5.76824 39.2464 7.16678C40.6423 8.56272 41.4132 10.4221 41.4132 12.4015C41.4132 14.3808 40.6449 16.235 39.2464 17.6361L26.4824 30.4021C26.3314 30.5558 26.1334 30.6313 25.9302 30.6313ZM17.8438 6.56205C16.3489 6.56205 14.8515 7.13239 13.716 8.27047C11.4398 10.5467 11.4398 14.25 13.716 16.5289L25.93 28.7455L38.1439 16.5289C40.4201 14.2527 40.4201 10.5494 38.1439 8.27047C37.0397 7.16628 35.5761 6.56205 34.0161 6.56205C32.464 6.56205 31.0056 7.16364 29.9039 8.25487L26.5157 12.0806C26.3673 12.2473 26.1537 12.3436 25.9298 12.3436C25.7058 12.3436 25.4922 12.2499 25.3438 12.0806L21.9556 8.25227C20.8202 7.12461 19.3309 6.56205 17.8438 6.56205Z" fill="#2E4049"/>
</svg>
