<svg width="60" height="56" viewBox="0 0 60 56" fill="none" xmlns="http://www.w3.org/2000/svg">
<path fill-rule="evenodd" clip-rule="evenodd" d="M15.4695 34.3772L22.1593 32.1472C24.0844 31.5048 25.894 32.5937 27.695 33.6716C29.1453 34.5405 30.5804 35.4007 31.9001 35.1829L38.2938 34.118C38.3243 34.1115 38.3548 34.1115 38.3853 34.1115C39.4044 34.1093 40.3343 34.6929 40.7786 35.6097C41.1357 36.2652 41.3186 37.0012 41.3099 37.7481L50.7916 32.5348H50.7894C50.8177 32.5195 50.846 32.5065 50.8765 32.4978C51.7606 32.1254 52.7732 32.2343 53.5572 32.7852C53.9884 33.0923 54.3412 33.4951 54.5938 33.959C54.8421 34.4098 55.001 34.9063 55.0576 35.418C55.2014 36.2695 54.8878 37.134 54.2323 37.698C54.2127 37.7133 54.1909 37.7263 54.1691 37.7372L32.6297 49.5837C32.1005 49.8777 31.5082 50.041 30.9028 50.0606C30.2886 50.0737 29.6789 49.9474 29.1214 49.6883C27.5013 48.9326 25.7896 48.3969 24.0279 48.0942C22.4099 47.8285 20.7614 47.8242 19.1434 48.0811L19.5332 49.5467C19.6987 50.163 19.6116 50.8184 19.2915 51.3694C19.2849 51.3803 19.2806 51.389 19.274 51.3977C18.9539 51.9356 18.4378 52.3276 17.8346 52.4887L12.495 53.9194C11.8809 54.0827 11.2276 53.9956 10.6767 53.6777C10.1257 53.3598 9.72068 52.835 9.55734 52.2208L4.9886 35.1741C4.82527 34.56 4.91238 33.9046 5.23032 33.3536C5.54826 32.8005 6.07307 32.3976 6.68936 32.2321L9.3548 31.5179H9.35698L12.0224 30.8036H12.0246C12.6409 30.6403 13.2963 30.7274 13.8473 31.0475C13.8582 31.0541 13.8669 31.0584 13.8756 31.0649C14.4135 31.3829 14.8055 31.899 14.9666 32.5044L15.4675 34.3793L15.4695 34.3772ZM42.799 31.1019C49.2669 28.0249 51.8971 24.2031 52.2433 20.9931C52.3871 19.778 52.1693 18.5476 51.6162 17.4566C51.1153 16.4744 50.3248 15.6731 49.3536 15.1548C47.6093 14.238 45.2988 14.3229 43.093 16.0062C42.9188 16.139 42.6771 16.1369 42.5051 16.0019C40.2991 14.3207 37.9929 14.2379 36.2462 15.1548H36.2484C35.2749 15.6709 34.4844 16.4744 33.9836 17.4544C33.4305 18.5454 33.2127 19.7758 33.3586 20.9909C33.474 21.9839 33.7702 22.9486 34.2362 23.835C34.2493 23.8568 34.2601 23.8785 34.271 23.9003C35.5493 26.3524 38.2083 28.9133 42.8011 31.1019L42.799 31.1019ZM53.1972 21.0935C53.3627 19.6932 53.1101 18.2734 52.472 17.0169C51.8797 15.8605 50.9476 14.9154 49.8 14.3057C47.8227 13.2669 45.2574 13.3017 42.803 15.0308H42.8008C41.6445 14.1772 40.2595 13.6828 38.8244 13.6153C38.6132 12.2848 38.0797 11.0283 37.2674 9.95467C36.4987 8.94206 35.4882 8.14068 34.3276 7.62456C33.1299 7.09757 31.8124 6.89721 30.5123 7.04968C28.964 7.24567 27.4918 7.83585 26.2396 8.76567C23.2454 6.62722 20.114 6.57711 17.7051 7.84014C16.3158 8.57618 15.1878 9.71947 14.4713 11.1175C13.6961 12.6397 13.3912 14.3601 13.5894 16.0565C14.0532 20.3596 17.5179 25.4423 26.0301 29.4249H26.0323C26.1608 29.4859 26.3089 29.4859 26.4374 29.4249H26.4395C27.9095 28.7433 29.3337 27.9637 30.699 27.0883C31.7509 26.4154 32.7526 25.6641 33.6977 24.8453C35.1785 27.354 37.9812 29.9062 42.5957 32.0642L42.5935 32.0663C42.722 32.1273 42.8701 32.1273 42.9985 32.0663H43.0029C49.9759 28.8042 52.8157 24.6295 53.1942 21.0973L53.1972 21.0935ZM33.2387 23.9745C32.2805 24.8216 31.2614 25.5925 30.1856 26.2807C28.9182 27.0929 27.6007 27.8224 26.2397 28.4627C18.2348 24.6649 14.9791 19.9327 14.5498 15.9561H14.5477C14.3691 14.4449 14.6413 12.914 15.3294 11.5573C15.9544 10.3334 16.9387 9.33386 18.1517 8.6893C20.325 7.54601 23.1995 7.64837 25.9436 9.73893C26.1157 9.87394 26.3574 9.87612 26.5294 9.74328C27.7076 8.80253 29.1208 8.19933 30.6169 8.00332C31.7493 7.87266 32.8969 8.0447 33.94 8.50419C34.9526 8.95496 35.8345 9.65617 36.5053 10.5381C37.2 11.4571 37.6638 12.5263 37.8598 13.6609C37.1412 13.7502 36.4465 13.9701 35.8041 14.3055C34.6586 14.9152 33.7244 15.8603 33.1321 17.0167C32.494 18.2754 32.2414 19.693 32.4069 21.0933C32.5223 22.095 32.8054 23.0684 33.2431 23.9743L33.2387 23.9745ZM10.0686 32.3217L12.5076 41.4243C12.5751 41.6813 12.4227 41.9448 12.1679 42.0123C11.9109 42.0798 11.6474 41.9295 11.5799 41.6726L9.14311 32.57L6.93498 33.1601C6.56478 33.2603 6.25117 33.502 6.05956 33.833C5.87011 34.164 5.81784 34.5582 5.91584 34.9284L10.4759 51.9466C10.4802 51.9619 10.4846 51.9793 10.4889 51.9945C10.5913 52.3539 10.8308 52.6609 11.1575 52.8482C11.482 53.0354 11.8652 53.0877 12.2289 52.9962C12.2441 52.9919 12.2594 52.9875 12.2768 52.9854L17.5903 51.5612H17.5881C17.9496 51.4653 18.2588 51.2323 18.4505 50.91L18.4636 50.8861V50.8882C18.6552 50.5572 18.7075 50.1631 18.6073 49.7951L14.0407 32.7484C13.9427 32.389 13.7097 32.0798 13.3896 31.8882L13.3656 31.8751C13.0346 31.6835 12.6426 31.6312 12.2724 31.7292L10.0687 32.3193L10.0686 32.3217ZM18.8925 47.1519V47.1497C20.6411 46.8623 22.4268 46.8623 24.1755 47.1497C26.0222 47.4655 27.8188 48.0251 29.5151 48.8156C29.9398 49.0138 30.4058 49.114 30.8762 49.1053C31.3291 49.09 31.7712 48.9659 32.1675 48.7438L53.6763 36.919C54.04 36.5531 54.2012 36.0305 54.1053 35.5253C54.0596 35.1398 53.942 34.7653 53.7526 34.4255C53.574 34.0902 53.3192 33.8005 53.01 33.5784C52.4874 33.2148 51.8123 33.1451 51.2265 33.3933L41.0892 38.9682H41.087C40.8344 39.726 40.2073 40.2965 39.4298 40.4795C39.4168 40.4795 39.4037 40.486 39.3906 40.486L32.0781 42.2477C31.8211 42.3087 31.5642 42.1497 31.501 41.8928C31.44 41.6358 31.599 41.3767 31.856 41.3157L39.1662 39.5539C39.1793 39.5496 39.1945 39.5452 39.2076 39.543C39.7128 39.4124 40.1048 39.0182 40.2333 38.513C40.2376 38.4999 40.242 38.4868 40.2463 38.4738C40.2572 38.4368 40.2681 38.3976 40.2768 38.3584C40.3618 37.9794 40.3748 37.5896 40.3138 37.2064C40.2594 36.81 40.1331 36.4268 39.9393 36.0762C39.6649 35.4817 39.0769 35.0919 38.4214 35.0679L32.0605 36.1263C30.3946 36.405 28.805 35.4512 27.2065 34.4908C25.5951 33.5239 23.9727 32.5505 22.4636 33.0536L15.7192 35.3031L18.8925 47.1519Z" fill="#2E4049" stroke="#2E4049" stroke-width="0.7"/>
</svg>
