<svg width="59" height="60" viewBox="0 0 59 60" fill="none" xmlns="http://www.w3.org/2000/svg">
<path d="M10.0451 23.2531C10.1303 23.3376 10.2418 23.3799 10.3553 23.3799C10.4668 23.3799 10.5784 23.3376 10.6655 23.2531L14.5623 19.3895L14.7793 19.1702C17.6239 16.1739 13.4675 11.9019 10.3553 14.6083C7.24316 11.8997 3.08471 16.1739 5.93141 19.1702L10.0451 23.2531ZM8.18392 14.6347C8.91991 14.6226 9.5687 14.9909 10.0451 15.5282C10.3574 15.822 10.6676 15.5583 10.8886 15.3048C11.7584 14.4395 13.2891 14.4395 14.1589 15.3048C15.0611 16.2003 15.0611 17.6592 14.1569 18.5587L10.3533 22.3337L6.54776 18.5567C5.08595 17.1883 6.17876 14.5723 8.18392 14.6347ZM47.4136 23.2531C47.4988 23.3376 47.6103 23.3799 47.7238 23.3799C47.8353 23.3799 47.9468 23.3376 48.034 23.2531L51.9308 19.3895L52.1478 19.1702C54.9923 16.1739 50.836 11.9019 47.7238 14.6083C44.6116 11.8997 40.4532 16.1739 43.2999 19.1702L47.4136 23.2531ZM45.5544 14.6347C46.2924 14.6226 46.9412 14.9909 47.4156 15.5282C47.7279 15.822 48.0401 15.5583 48.2591 15.3048C49.1289 14.4395 50.6596 14.4395 51.5294 15.3048C52.4316 16.2003 52.4316 17.6592 51.5274 18.5587L47.7238 22.3337L43.9183 18.5567C42.4565 17.1883 43.5493 14.5723 45.5544 14.6347ZM28.7304 14.5059C28.8156 14.5904 28.9271 14.6327 29.0406 14.6327C29.1522 14.6327 29.2637 14.5904 29.3508 14.5059L33.2497 10.6423C34.6629 9.43088 34.8108 7.26365 33.4666 5.94158C32.315 4.7503 30.2348 4.71409 29.0407 5.86109C25.9285 3.15455 21.7721 7.42667 24.6147 10.423L28.7304 14.5059ZM26.8692 5.88749C27.6093 5.88145 28.2337 6.22556 28.7284 6.77895C28.7892 6.84737 28.9251 6.91176 29.0386 6.90774C29.1542 6.90774 29.2657 6.86146 29.3488 6.78097C30.1902 5.72651 31.8913 5.56754 32.8442 6.5576C33.7465 7.45509 33.7465 8.91198 32.8402 9.81148L29.0366 13.5865L25.2311 9.80947C23.7713 8.44114 24.862 5.82511 26.8692 5.88749ZM27.4673 32.3171C27.299 32.3171 27.1389 32.2205 27.0659 32.0575C27.0071 31.8744 26.5975 31.8644 26.5225 32.0435C26.4069 32.2527 26.1413 32.3312 25.9285 32.2145C25.7176 32.0998 25.6385 31.8342 25.7561 31.6249C26.1636 30.82 27.5342 30.8703 27.8687 31.7074C28.0005 31.9851 27.7755 32.3232 27.4673 32.3171ZM31.2628 31.0393C31.9886 30.9508 32.9658 32.0998 31.9399 32.3151C31.7717 32.3151 31.6115 32.2185 31.5385 32.0555C31.4797 31.8724 31.0681 31.8624 30.9931 32.0414C30.8775 32.2507 30.6119 32.3292 30.3991 32.2125C29.7422 31.7336 30.6768 30.985 31.2628 31.0393ZM29.0041 35.4945C28.335 35.5851 26.7962 34.6373 27.593 34.0175C27.8038 33.9008 28.0715 33.9792 28.187 34.1885C28.335 34.4541 28.6554 34.6252 29.002 34.6252C29.3751 34.6252 29.7137 34.428 29.8455 34.1362C30.0786 33.619 30.8755 33.9652 30.6464 34.4863C30.3767 35.0981 29.73 35.4945 29.0041 35.4945ZM52.8065 26.3166L49.0334 27.5582C47.9751 27.031 46.6998 27.2806 45.9436 28.2686L45.3211 29.0715C45.315 29.0634 45.2258 28.9628 45.2258 28.9628C45.0717 28.7717 44.7271 28.7656 44.5811 28.9467C42.8821 30.6854 38.1461 35.6457 34.5289 39.2033C33.8193 38.6077 33.1097 38.014 32.398 37.4225C32.3636 37.3923 32.321 37.3762 32.2784 37.3601C33.5841 36.5109 34.5958 35.1767 35.0885 33.6293C36.6416 33.4924 36.9721 31.5305 35.9563 30.8563C36.9194 29.4195 37.9007 26.4756 36.1003 24.2398C35.9279 21.4165 33.0975 19.8248 30.8736 20.674C28.5095 18.9776 25.0282 20.1548 23.9621 23.1733C20.5052 23.954 19.9964 27.9444 22.2448 30.798C21.0831 31.4017 21.3953 33.4904 22.995 33.6313C23.4856 35.1627 24.4832 36.4888 25.7727 37.3399C25.7078 37.354 25.6449 37.3802 25.5922 37.4244C24.8644 38.0281 24.1425 38.6339 23.4187 39.2415L13.405 28.9489C13.3199 28.8603 13.2225 28.8141 13.0786 28.8161C12.9569 28.8181 12.8414 28.8724 12.7603 28.965L12.665 29.0736C12.3913 28.7195 12.0425 28.2707 12.0425 28.2707C11.2843 27.2807 10.009 27.0312 8.95268 27.5604L5.17956 26.3188C4.89368 26.2242 4.5835 26.2765 4.33815 26.4576C3.7887 26.84 3.78668 27.7837 4.33612 28.1661L7.49289 30.5164C7.34691 30.5044 9.4332 31.1865 9.36023 31.1584L10.224 31.8486C10.1226 31.9854 10.1084 32.1685 10.1956 32.3174L19.0295 47.6147L18.0118 55.5109C17.9732 55.7624 18.1902 56.0059 18.4456 55.9999H39.5517C39.8092 56.0059 40.0241 55.7624 39.9856 55.5109L38.9658 47.6147L47.7997 32.3174C47.8869 32.1685 47.8707 31.9854 47.7714 31.8486C48.1262 31.5648 48.6331 31.1584 48.6331 31.1584C48.6432 31.1463 50.5956 30.5305 50.5004 30.5164L53.6572 28.1661C53.9187 27.9729 54.0748 27.6529 54.0748 27.3108C54.089 26.6568 53.4422 26.0954 52.8076 26.3167L52.8065 26.3166ZM33.9023 39.815C33.6062 40.1028 33.3204 40.3785 33.0467 40.6381C32.2803 41.3223 31.5139 42.0044 30.7475 42.6927C30.7435 42.6947 30.7394 42.6987 30.7353 42.7027C30.3947 42.3808 30.0521 42.0588 29.7114 41.7348C29.6689 41.6946 29.6263 41.6543 29.5837 41.6141C29.7033 41.4652 29.823 41.3142 29.9446 41.1633C30.3217 40.6924 30.7008 40.2196 31.084 39.7426C31.3172 39.4529 31.5504 39.1611 31.7774 38.8794C31.822 38.827 31.8666 38.7707 31.9072 38.7123C31.9964 38.5997 32.0897 38.4849 32.1768 38.3743C32.7547 38.8532 33.3285 39.3321 33.9023 39.815ZM26.9015 38.3461L27.0252 37.9778C27.1813 38.0362 27.3415 38.0865 27.5016 38.1307C27.9943 38.2656 28.5093 38.338 29.0385 38.336C29.5251 38.338 29.9975 38.2736 30.4537 38.1589C30.4679 38.1549 30.482 38.1529 30.4962 38.1489C30.6361 38.1126 30.774 38.0704 30.9098 38.0221C30.9301 38.016 30.9504 38.01 30.9686 38.004L31.0822 38.342C30.8146 38.6761 30.549 39.0101 30.2813 39.3442C29.8434 39.8875 29.4054 40.4348 28.9918 40.954C28.5782 40.4368 28.1403 39.8895 27.7023 39.3462C27.4347 39.0121 27.1692 38.6801 26.9015 38.3461ZM24.3854 23.9662C24.5374 23.934 24.6611 23.8234 24.7118 23.6765C25.2592 22.0244 26.5872 20.8814 28.0977 20.7627C29.2108 20.6741 30.117 21.1933 30.551 21.5112C30.6767 21.6018 30.8409 21.6219 30.9828 21.5615C31.2058 21.469 32.3716 21.0323 33.5577 21.6541C34.543 22.1793 35.1857 23.2398 35.2344 24.419C35.2385 24.5116 35.2709 24.6021 35.3297 24.6746C37.0247 26.6285 35.9542 29.5081 35.0276 30.6348C34.685 30.4517 34.3647 30.2485 34.0585 30.0251C34.0382 30.011 34.02 29.9969 33.9997 29.9808C33.7077 29.7635 33.434 29.5281 33.1786 29.2745C33.1624 29.2584 33.1461 29.2403 33.1299 29.2242C32.5987 28.6889 32.1466 28.0752 31.7776 27.385C31.7431 27.3186 31.6884 27.2683 31.6275 27.23C31.6194 27.224 31.6113 27.218 31.6012 27.2119C31.5404 27.1777 31.4735 27.1596 31.4005 27.1576C31.3964 27.1576 31.3924 27.1536 31.3883 27.1536C31.3761 27.1556 31.366 27.1576 31.3538 27.1596C31.3315 27.1616 31.3113 27.1596 31.2889 27.1636C30.999 27.23 30.7172 27.2783 30.4394 27.3206C30.3806 27.3286 30.3219 27.3387 30.2631 27.3467C30.036 27.3769 29.813 27.393 29.5879 27.4051C29.4318 27.4131 29.2736 27.4192 29.1175 27.4192H28.9999C28.8884 27.4192 28.7749 27.4131 28.6634 27.4091C28.5762 27.4051 28.489 27.4031 28.4018 27.3971C28.3126 27.391 28.2254 27.381 28.1362 27.3729C28.0146 27.3608 27.8949 27.3488 27.7753 27.3306C27.753 27.3266 27.7327 27.3226 27.7104 27.3206C27.4895 27.2864 27.2725 27.2441 27.0596 27.1958C26.9623 27.1737 26.863 27.1536 26.7677 27.1274C26.7636 27.1254 26.7575 27.1254 26.7535 27.1234C26.7352 27.1194 26.715 27.1153 26.6967 27.1093C26.6906 27.1073 26.6866 27.1093 26.6805 27.1073C26.648 27.1012 26.6156 27.0932 26.5811 27.0912C26.5406 27.0892 26.5 27.0932 26.4615 27.1012C26.4494 27.1033 26.4372 27.1053 26.4271 27.1073C26.3946 27.1173 26.3642 27.1334 26.3338 27.1516C26.3155 27.1616 26.2973 27.1697 26.2811 27.1817C26.2405 27.2139 26.204 27.2542 26.1777 27.3025C25.979 27.6426 25.7681 27.9625 25.541 28.2684C25.468 28.365 25.3869 28.4515 25.3119 28.5441C25.1517 28.7433 24.9936 28.9425 24.8213 29.1276C24.7118 29.2443 24.5881 29.349 24.4725 29.4596C24.3205 29.6065 24.1704 29.7555 24.0082 29.8923C23.8846 29.9969 23.7467 30.0915 23.6169 30.1901C23.4689 30.3028 23.3209 30.4175 23.1648 30.5221C20.9853 28.0692 21.3077 24.4778 24.3854 23.9662ZM23.7346 33.0617C23.6819 32.8705 23.5055 32.7437 23.3129 32.7437C22.4167 32.9892 21.9524 31.4518 23.0148 31.5042C23.0655 31.5122 23.1182 31.5122 23.1709 31.5062C23.2378 31.5002 23.3027 31.4841 23.3615 31.4478C23.9414 31.0836 24.4665 30.6631 24.9592 30.2062C25.6465 29.5663 26.2567 28.8479 26.7677 28.0249C27.2948 28.1497 27.8341 28.2181 28.3775 28.2543C28.7121 28.2784 29.0486 28.2885 29.3852 28.2804C29.4014 28.2825 29.4136 28.2905 29.4318 28.2905C29.4865 28.2825 29.5616 28.2764 29.6467 28.2724C29.8109 28.2643 29.9752 28.2643 30.1394 28.2483C30.48 28.2301 30.8693 28.202 31.1896 28.1235C31.51 28.6668 31.881 29.1678 32.3027 29.6206C32.8136 30.1861 33.3996 30.6831 34.0524 31.0695C34.2734 31.2103 34.4984 31.3451 34.7336 31.4679C34.7985 31.5041 34.8634 31.5122 34.9323 31.5102C34.9364 31.5122 34.9404 31.5142 34.9445 31.5162C35.0256 31.5041 35.1128 31.5021 35.1979 31.4961H35.2121C35.717 31.5242 35.8467 32.2366 35.4331 32.5726C35.0925 32.9529 34.5208 32.5082 34.3464 33.0616C33.9267 34.5628 33.0366 35.8225 31.8404 36.6093C31.591 36.7803 31.3335 36.9131 31.072 37.0299C31.0679 37.0319 31.0618 37.0299 31.0578 37.0339C30.6462 37.219 30.2103 37.3377 29.7663 37.4041C29.6507 37.4202 29.5351 37.4383 29.4196 37.4444C29.3892 37.4464 29.3567 37.4464 29.3263 37.4484C26.8224 37.551 24.3588 35.6958 23.7346 33.0617ZM25.8087 38.3739C25.8979 38.4866 25.9912 38.6013 26.0804 38.716C26.127 38.7824 26.1797 38.8468 26.2345 38.9132C26.4818 39.219 26.7352 39.537 26.9887 39.8529C27.3273 40.2735 27.6598 40.688 27.9923 41.1045C28.1301 41.2756 28.268 41.4487 28.4039 41.6177C28.3694 41.6499 28.3349 41.6821 28.3025 41.7143C27.9538 42.0463 27.603 42.3763 27.2543 42.7063C26.3135 41.8632 25.3708 41.0221 24.428 40.1809C24.3023 40.0703 24.1786 39.9576 24.0529 39.8449C24.6348 39.3519 25.2207 38.8629 25.8087 38.3739ZM7.96063 29.7771L4.86059 27.467C4.76733 27.3704 4.75719 27.2215 4.9052 27.139L8.8304 28.4308C8.92975 28.463 9.03517 28.459 9.13249 28.4208C10.6774 27.6641 11.2167 28.5999 12.0805 29.7348L10.797 31.1877L9.85021 30.429C9.91915 30.4009 7.987 29.7952 7.96063 29.7771ZM19.9124 47.5801C19.9246 47.4855 19.9064 47.3909 19.8577 47.3084L11.1073 32.1538L11.1762 32.0753L13.1064 29.89L23.0875 40.1486C23.0895 40.1506 23.0895 40.1526 23.0915 40.1547C24.2654 41.201 25.4373 42.2515 26.6112 43.3019C26.6213 43.3099 26.6315 43.32 26.6416 43.3281C26.6659 43.3482 26.6882 43.3703 26.7126 43.3904C26.7835 43.4568 26.8667 43.5373 26.9518 43.6037C26.9559 43.6078 26.9599 43.6118 26.964 43.6138C26.966 43.6158 26.9701 43.6158 26.9721 43.6178C27.0147 43.65 27.0593 43.6782 27.1039 43.6963C27.1059 43.6963 27.1059 43.6983 27.1079 43.6983C27.1586 43.7204 27.2093 43.7325 27.258 43.7265C27.3005 43.7325 27.3472 43.7184 27.3958 43.6983C27.4202 43.6903 27.4404 43.6782 27.4627 43.6661C27.4749 43.6581 27.4871 43.65 27.5013 43.642C27.5195 43.6299 27.5418 43.6218 27.5601 43.6037C27.5661 43.5977 27.5742 43.5896 27.5803 43.5836C27.702 43.487 27.8257 43.3602 27.9311 43.2536C28.1501 43.0483 28.3832 42.833 28.5555 42.664V55.1244L18.9373 55.1304L19.9124 47.5801ZM38.1275 47.3084C38.0788 47.3909 38.0605 47.4855 38.0727 47.5801L39.0479 55.1301H29.4318V42.6697C29.5352 42.7703 29.6629 42.889 29.7927 43.0098C29.821 43.0379 29.8494 43.0641 29.8798 43.0923C29.8859 43.0963 29.892 43.1043 29.8981 43.1084C29.9407 43.1486 29.9812 43.1868 30.0258 43.2271C30.1373 43.3398 30.2752 43.4847 30.411 43.5913C30.4171 43.5974 30.4232 43.6034 30.4293 43.6074C30.4455 43.6215 30.4658 43.6296 30.482 43.6416C30.4982 43.6517 30.5144 43.6618 30.5286 43.6718C30.5489 43.6819 30.5692 43.6939 30.5895 43.702C30.6381 43.7221 30.6868 43.7362 30.7294 43.7302C30.8348 43.7302 30.9402 43.6919 31.0233 43.6175C31.0294 43.6114 31.0375 43.6054 31.0436 43.5994C31.6701 43.1023 32.5399 42.3175 33.5455 41.3617C33.9368 41.0115 34.3281 40.6614 34.7194 40.3112C34.837 40.2106 34.983 40.0879 35.0235 39.9329C38.5757 36.4517 43.0198 31.7993 44.8811 29.8896L45.0128 30.0385C45.0128 30.0385 45.0128 30.0405 45.0149 30.0405L46.8112 32.0749L46.8801 32.1534L38.1275 47.3084ZM53.1265 27.4691L50.0265 29.7772L48.2747 30.3567C48.1997 30.3487 47.2752 31.1335 47.1921 31.1878C46.7542 30.6908 46.4176 30.3105 45.9107 29.7369C46.7683 28.604 47.3157 27.6643 48.8566 28.4229C48.954 28.4611 49.0594 28.4652 49.1587 28.433L53.1285 27.1511C53.2157 27.2296 53.2178 27.3886 53.1265 27.4691Z" fill="#2E4049" stroke="#2E4049" stroke-width="0.5"/>
</svg>
