<svg width="100" height="100" viewBox="0 0 100 100" fill="none" xmlns="http://www.w3.org/2000/svg">
<circle cx="50" cy="50" r="49.5" fill="#EEFFE9" stroke="#73BE5F"/>
<path d="M74.2898 69.8109H71.5576L71.5598 37.5568C71.5598 37.1603 71.2429 36.8366 70.8502 36.8366H56.3647V33.0592C56.3647 31.817 55.3707 30.8082 54.1468 30.8082H47.4846V29.3677C47.4846 28.0616 46.4365 27 45.1496 27H36.2129C34.9261 27 33.8801 28.0616 33.8801 29.3677V30.8082H27.2179C25.9939 30.8082 25 31.8192 25 33.0592V40.0104C25 40.354 25.2409 40.6491 25.5707 40.7152V52.3576C25.5707 53.5668 26.5408 54.5514 27.7322 54.5514H45.041V57.1658L41.623 55.7033C41.2563 55.5425 40.8678 55.5425 40.5054 55.7011L25.6055 62.0732C25.2387 62.2361 25.0001 62.6062 25.0001 63.0159C25.0001 63.4255 25.2388 63.7956 25.6142 63.9608L28.7435 65.2999V69.4561L27.7627 70.1785C27.5131 70.3614 27.4089 70.6873 27.5044 70.9825L27.9927 72.5C28.0882 72.7952 28.3594 72.9956 28.6654 72.9956H30.2387C30.5469 72.9956 30.8182 72.7952 30.9136 72.4978L31.3976 70.9825C31.493 70.6851 31.3889 70.3613 31.1393 70.1785L30.1606 69.4561V65.9056L32.4305 66.877V68.5024C32.4305 68.8989 32.7474 69.2226 33.1401 69.2226H45.0412V70.5331C45.0412 71.8921 46.1306 73 47.4717 73H72.5716C73.9106 72.9978 75 71.8921 75 70.5309C75 70.1345 74.6832 69.8107 74.2904 69.8107L74.2898 69.8109ZM29.7217 71.5597H29.1792L29.0121 71.0377L29.4504 70.7139L29.8888 71.0377L29.7217 71.5597ZM35.2967 29.3677C35.2967 28.8545 35.7068 28.4383 36.2124 28.4383H45.1491C45.6547 28.4383 46.067 28.8546 46.067 29.3677V30.8082H35.2965L35.2967 29.3677ZM27.2173 32.2487H54.1466C54.5871 32.2487 54.9474 32.6121 54.9474 33.0614V36.8388L45.748 36.8366C45.3573 36.8366 45.0383 37.1581 45.0383 37.5568V41.0633L44.1226 41.2152V40.6052C44.1226 40.2087 43.8057 39.885 43.413 39.885H38.0701C37.6795 39.885 37.3605 40.2065 37.3605 40.6052V41.2152L26.4317 39.4026C26.4273 39.4004 26.4208 39.4004 26.4165 39.3982V33.0593C26.4165 32.6122 26.7767 32.2487 27.2173 32.2487ZM42.7077 41.3233V42.8343C42.7077 43.9333 41.8267 44.8254 40.746 44.8254C39.6631 44.8254 38.7842 43.9311 38.7842 42.8343V41.3233H42.7077ZM27.7317 53.1112C27.3216 53.1112 26.9895 52.772 26.9895 52.358L26.9874 40.9512L37.3651 42.6714V42.8344C37.3651 44.7264 38.882 46.2638 40.744 46.2638C42.6081 46.2638 44.1228 44.7242 44.1228 42.8344V42.6714L45.0386 42.5195V53.1114L27.7317 53.1112ZM29.7521 64.1701C29.7347 64.1613 29.7195 64.1547 29.7022 64.148L27.0546 63.0159L41.0562 57.0273C41.0562 57.0273 41.0606 57.0251 41.0627 57.0251C41.0649 57.0273 41.0693 57.0273 41.0693 57.0273L55.0709 63.0159L49.6933 65.3154V63.9652C49.6933 63.7802 49.6238 63.604 49.498 63.4697C47.6316 61.4763 44.4784 60.287 41.0624 60.287C37.6467 60.287 34.4936 61.4764 32.6269 63.4697C32.5011 63.604 32.4316 63.7802 32.4316 63.9652V65.3154L29.7521 64.1701ZM33.8471 66.4034V66.3946V64.2603C35.4747 62.6679 38.1462 61.723 41.0604 61.723C43.9747 61.723 46.6465 62.6657 48.2737 64.2603V66.3946V66.4034V67.7822H33.8466L33.8471 66.4034ZM48.4804 70.531C48.4804 71.0971 48.0268 71.5596 47.4713 71.5596C46.9136 71.5596 46.4578 71.0993 46.4578 70.531V69.2205H48.9817C49.3723 69.2205 49.6913 68.8989 49.6913 68.5003V66.8748L56.5163 63.9564C56.8852 63.7934 57.1217 63.4234 57.1217 63.0137C57.1217 62.6041 56.883 62.234 56.5076 62.0688L46.4576 57.7694V38.2748H70.1425V69.8111H49.1898C48.797 69.8111 48.4804 70.1346 48.4804 70.531ZM72.5686 71.5596H49.6759C49.7215 71.4605 49.7606 71.357 49.791 71.2512H73.2914C73.1091 71.4407 72.8529 71.5596 72.5686 71.5596ZM48.5582 41.8513C48.5582 41.4549 48.875 41.1311 49.2678 41.1311H57.05C57.4406 41.1311 57.7596 41.4527 57.7596 41.8513C57.7596 42.2478 57.4427 42.5715 57.05 42.5715L49.2655 42.5693C48.8749 42.5693 48.5582 42.2478 48.5582 41.8513ZM48.5582 45.7784C48.5582 45.382 48.875 45.0582 49.2678 45.0582H67.3344C67.725 45.0582 68.044 45.3798 68.044 45.7784C68.044 46.1749 67.7271 46.4986 67.3344 46.4986H49.2661C48.8755 46.4986 48.5582 46.1771 48.5582 45.7784ZM48.5582 49.71C48.5582 49.3136 48.875 48.9898 49.2678 48.9898H67.3344C67.725 48.9898 68.044 49.3114 68.044 49.71C68.044 50.1065 67.7271 50.4302 67.3344 50.4302H49.2661C48.8755 50.4302 48.5582 50.1064 48.5582 49.71ZM57.7553 53.6394C57.7553 54.0358 57.4385 54.3596 57.0457 54.3596L49.2658 54.3574C48.8751 54.3574 48.5562 54.0358 48.5562 53.6372C48.5562 53.2407 48.873 52.917 49.2658 52.917H57.048C57.4386 52.9192 57.7553 53.2408 57.7553 53.6394ZM57.7553 57.5665C57.7553 57.963 57.4385 58.2867 57.0457 58.2867H49.2658C48.8751 58.2867 48.5562 57.9652 48.5562 57.5665C48.5562 57.1701 48.873 56.8463 49.2658 56.8463H57.048C57.4386 56.8485 57.7553 57.1701 57.7553 57.5665ZM69.4631 58.0246C69.45 57.9454 69.45 57.8903 69.4652 57.8L69.5716 57.0952C69.6779 56.3904 69.4631 55.7208 68.9661 55.212L68.4779 54.7142C68.4149 54.6482 68.3759 54.5953 68.3411 54.5248L68.02 53.8883C67.6923 53.2495 67.1324 52.8377 66.4445 52.7275L65.7414 52.6086C65.6676 52.5976 65.6068 52.5778 65.533 52.5403L64.908 52.2209C64.2787 51.8994 63.5843 51.8994 62.9593 52.2209L62.3321 52.5403C62.2561 52.58 62.1997 52.5976 62.1238 52.6086C62.1194 52.6086 62.1151 52.6108 62.1107 52.6108L61.425 52.7275C60.7284 52.8399 60.1685 53.2539 59.8451 53.8905L59.5239 54.5204C59.4827 54.5997 59.448 54.6504 59.3894 54.7098L58.8924 55.2164C58.3998 55.7252 58.1871 56.3926 58.2935 57.0952L58.3998 57.7978C58.4128 57.8859 58.4128 57.9498 58.3998 58.0335L58.2935 58.7361C58.1871 59.4431 58.402 60.1105 58.8946 60.617L59.3872 61.1236C59.3894 61.1258 59.3937 61.1302 59.3959 61.1324C59.448 61.1853 59.4805 61.2316 59.5217 61.3109L59.8429 61.9408C60.125 62.498 60.5916 62.8857 61.1732 63.0486V67.9163C61.1732 68.1894 61.3273 68.4405 61.5681 68.5616C61.668 68.6123 61.7743 68.6365 61.8806 68.6365C62.0347 68.6365 62.1866 68.5858 62.3125 68.4889L63.9314 67.2312L65.5525 68.4889C65.7674 68.6541 66.056 68.6827 66.2969 68.5616C66.5378 68.4405 66.6918 68.1894 66.6918 67.9163V63.0486C67.2691 62.8857 67.7357 62.498 68.0221 61.9385L68.3411 61.3064C68.378 61.2337 68.4127 61.1831 68.4757 61.1214L68.9661 60.617C69.4631 60.1126 69.6779 59.4431 69.5738 58.7316L69.4631 58.0246ZM64.3611 65.7556C64.1072 65.5574 63.7534 65.5574 63.4995 65.7556L62.5903 66.4626V63.4275L62.9548 63.6148C63.2695 63.7755 63.5994 63.857 63.9292 63.857C64.2591 63.857 64.5911 63.7755 64.9058 63.6148L65.2725 63.4275V66.4648L64.3611 65.7556ZM68.0633 58.2513L68.1697 58.9517C68.2088 59.2094 68.1393 59.4209 67.9592 59.6059L67.4687 60.1103C67.306 60.2755 67.1823 60.4495 67.0781 60.6543L66.7613 61.2821C66.6419 61.5133 66.464 61.6455 66.2166 61.6873L65.5156 61.8019C65.3008 61.8393 65.1055 61.9032 64.8928 62.0089L64.2678 62.3283C64.0399 62.445 63.8208 62.445 63.5929 62.3283L62.9636 62.0067C62.7596 61.9032 62.5621 61.8393 62.3386 61.7997L61.6485 61.6873C61.3968 61.6455 61.2188 61.5133 61.1016 61.2843L60.7826 60.6543C60.6763 60.4407 60.5504 60.2667 60.3898 60.1081L59.8994 59.6059C59.7214 59.4231 59.6541 59.2095 59.691 58.954L59.7974 58.2492C59.8299 58.0223 59.8299 57.8131 59.7974 57.584L59.691 56.8792C59.652 56.6237 59.7214 56.41 59.8972 56.2272L60.3898 55.7251C60.5504 55.5621 60.6698 55.3947 60.7804 55.1832L61.1016 54.5511C61.2166 54.3242 61.3989 54.1899 61.6485 54.148L62.3343 54.0335C62.5556 54.0005 62.7553 53.9344 62.9636 53.8287L63.5951 53.5071C63.8186 53.3926 64.04 53.3926 64.2656 53.5071L64.8993 53.8309C65.1098 53.9344 65.3095 54.0005 65.5178 54.0313L66.2166 54.148C66.464 54.1877 66.6419 54.3199 66.7591 54.5489L67.0803 55.1854C67.1823 55.3837 67.3038 55.5533 67.4666 55.7251L67.9592 56.2272C68.1393 56.4101 68.2066 56.6237 68.1697 56.8792L68.0655 57.5752C68.0265 57.8087 68.0265 58.0267 68.0633 58.2513Z" fill="#73BE5F"/>
</svg>
