<svg width="60" height="60" viewBox="0 0 60 60" fill="none" xmlns="http://www.w3.org/2000/svg">
<path d="M50.7998 5H30.8099C28.4999 5 26.6099 6.88 26.6099 9.2V29.19C26.6099 31.5 28.4899 33.39 30.8099 33.39H50.7998C53.1098 33.39 54.9998 31.51 54.9998 29.19V9.2C54.9998 6.88 53.1198 5 50.7998 5ZM52.9998 29.19C52.9998 30.4 52.0098 31.39 50.7998 31.39H30.8099C29.5999 31.39 28.6099 30.4 28.6099 29.19V9.2C28.6099 7.99 29.5999 7 30.8099 7H50.7998C52.0098 7 52.9998 7.99 52.9998 9.2V29.19Z" fill="#2E4049"/>
<path d="M9.19999 55.0001H29.1899C31.4999 55.0001 33.3899 53.1201 33.3899 50.8001V36.3901C33.3899 35.8401 32.9399 35.3901 32.3899 35.3901C31.8399 35.3901 31.3899 35.8401 31.3899 36.3901V50.8001C31.3899 52.0101 30.3999 53.0001 29.1899 53.0001H9.19999C7.98999 53.0001 6.99999 52.0101 6.99999 50.8001V30.8101C6.99999 29.6001 7.98999 28.6101 9.19999 28.6101H23.6199C24.1699 28.6101 24.6199 28.1601 24.6199 27.6101C24.6199 27.0601 24.1699 26.6101 23.6199 26.6101H9.19999C6.88999 26.6101 5 28.4901 5 30.8101V50.8001C5 53.1201 6.87999 55.0001 9.19999 55.0001Z" fill="#2E4049"/>
<path d="M11.2099 24.4401C11.7599 24.4401 12.2099 23.9901 12.2099 23.4401V23.3401C12.2099 19.4401 14.8399 16.1501 18.4099 15.1301L18.2299 15.3501C17.8899 15.7801 17.9599 16.4101 18.3899 16.7601C18.5699 16.9101 18.7899 16.9801 19.0099 16.9801C19.2999 16.9801 19.5999 16.8501 19.7899 16.6001L21.5199 14.4201C21.5499 14.3901 21.5599 14.3401 21.5799 14.3001C21.6099 14.2401 21.6499 14.1901 21.6699 14.1201C21.6899 14.0601 21.6999 13.9901 21.7099 13.9301C21.7199 13.8801 21.7399 13.8401 21.7399 13.8001C21.7399 13.7801 21.7299 13.7601 21.7299 13.7401C21.7299 13.7201 21.7399 13.7001 21.7299 13.6801C21.7199 13.6301 21.6999 13.5901 21.6899 13.5401C21.6699 13.4801 21.6599 13.4101 21.6299 13.3501C21.5999 13.2901 21.5599 13.2501 21.5299 13.2001C21.4899 13.1501 21.4499 13.0901 21.3999 13.0501C21.3899 13.0401 21.3799 13.0201 21.3599 13.0101L19.1799 11.2801C18.7499 10.9401 18.1199 11.0101 17.7699 11.4401C17.4299 11.8701 17.4999 12.5001 17.9299 12.8501L18.2499 13.1001C13.6299 14.2201 10.1899 18.3801 10.1899 23.3301V23.4301C10.2099 23.9901 10.6499 24.4401 11.2099 24.4401Z" fill="#2E4049"/>
<path d="M41.6099 43.2498C41.1799 42.9098 40.5499 42.9798 40.1999 43.4098L38.4699 45.5898C38.4399 45.6198 38.4299 45.6698 38.4099 45.7098C38.3799 45.7698 38.3399 45.8198 38.3199 45.8898C38.2999 45.9498 38.2899 46.0198 38.2799 46.0898C38.2699 46.1398 38.2499 46.1798 38.2499 46.2198C38.2499 46.2398 38.2599 46.2598 38.2599 46.2798C38.2599 46.2998 38.2499 46.3198 38.2599 46.3398C38.2699 46.3898 38.2899 46.4298 38.2999 46.4798C38.3199 46.5398 38.3299 46.6098 38.3599 46.6698C38.3899 46.7298 38.4299 46.7698 38.4599 46.8198C38.4999 46.8698 38.5399 46.9298 38.5899 46.9698C38.5999 46.9798 38.6099 46.9998 38.6299 47.0098L40.8099 48.7398C40.9899 48.8898 41.2099 48.9598 41.4299 48.9598C41.7199 48.9598 42.0199 48.8298 42.2099 48.5798C42.5499 48.1498 42.4799 47.5198 42.0499 47.1698L41.7299 46.9198C46.3499 45.7998 49.7899 41.6398 49.7899 36.6898V36.5898C49.7899 36.0398 49.3399 35.5898 48.7899 35.5898C48.2399 35.5898 47.7899 36.0398 47.7899 36.5898V36.6898C47.7899 40.5898 45.1599 43.8798 41.5899 44.8998L41.7699 44.6798C42.1099 44.2198 42.0399 43.5898 41.6099 43.2498Z" fill="#2E4049"/>
<path d="M23.51 49.07C24.06 49.07 24.51 48.62 24.51 48.07V38.6501H26.72C27.27 38.6501 27.72 38.2001 27.72 37.6501C27.72 37.1001 27.27 36.6501 26.72 36.6501H24.24L19.27 32.9501C18.77 32.5201 18.08 32.4201 17.47 32.7001C16.87 32.9801 16.49 33.5601 16.49 34.2301C16.49 34.3001 16.5 34.3701 16.51 34.4401L16.98 36.6601H11.67C11.12 36.6601 10.67 37.1101 10.67 37.6601C10.67 38.2101 11.12 38.6601 11.67 38.6601H15.55V40.0401C13.51 40.5001 11.97 42.33 11.97 44.51C11.97 47.03 14.02 49.09 16.55 49.09C19.07 49.09 21.13 47.04 21.13 44.51C21.13 43.96 20.68 43.51 20.13 43.51C19.58 43.51 19.13 43.96 19.13 44.51C19.13 45.93 17.97 47.09 16.55 47.09C15.13 47.09 13.97 45.93 13.97 44.51C13.97 43.09 15.13 41.93 16.55 41.93C17.1 41.93 17.55 41.48 17.55 40.93V38.6601H22.51V48.08C22.51 48.62 22.96 49.07 23.51 49.07ZM18.68 35.0001L20.89 36.6401H19.03L18.68 35.0001Z" fill="#2E4049"/>
<path d="M46.5498 12.1802H35.0698C34.5198 12.1802 34.0698 12.6302 34.0698 13.1802C34.0698 13.7302 34.5198 14.1802 35.0698 14.1802H39.8098V25.2102C39.8098 25.7602 40.2598 26.2102 40.8098 26.2102C41.3598 26.2102 41.8098 25.7602 41.8098 25.2102V14.1802H46.5498C47.0998 14.1802 47.5498 13.7302 47.5498 13.1802C47.5498 12.6302 47.0998 12.1802 46.5498 12.1802Z" fill="#2E4049"/>
</svg>
