<svg width="47" height="60" viewBox="0 0 47 60" fill="none" xmlns="http://www.w3.org/2000/svg">
<mask id="path-1-outside-1_22_202" maskUnits="userSpaceOnUse" x="5.72624" y="6.26294" width="34" height="16" fill="black">
<rect fill="white" x="5.72624" y="6.26294" width="34" height="16"/>
<path d="M7.0261 21.0069C11.2117 19.802 15.3935 18.5874 19.5714 17.363C23.7493 16.1387 27.9291 14.9085 32.1109 13.6726C33.2802 13.332 34.4466 12.9886 35.6158 12.651L37.3611 12.1446C37.9472 11.9964 38.5242 11.8137 39.0891 11.5974C39.3195 11.4984 39.1813 11.1899 38.9566 11.2249C38.4209 11.3254 37.8919 11.4595 37.3726 11.6265L35.7944 12.0776L34.651 12.4036H34.6136C33.7237 12.1911 32.8165 12.0573 31.915 11.8972C31.0136 11.7371 30.1323 11.5712 29.2424 11.3995C27.5144 11.0648 25.7864 10.701 24.0584 10.3255C20.6917 9.59499 17.3365 8.80625 13.9554 8.14558C13.0251 7.96513 12.0949 7.78177 11.1589 7.63333C10.701 7.55766 10.2459 7.4849 9.78802 7.42378C9.41522 7.36532 9.03908 7.33129 8.66194 7.32191C8.66307 7.31542 8.66293 7.30876 8.66152 7.30231C8.6601 7.29587 8.65745 7.28977 8.65371 7.28437C8.64996 7.27896 8.6452 7.27436 8.6397 7.27081C8.63419 7.26727 8.62805 7.26485 8.62162 7.2637C8.61519 7.26256 8.6086 7.2627 8.60222 7.26413C8.59585 7.26556 8.58981 7.26824 8.58447 7.27202C8.57912 7.27581 8.57456 7.28062 8.57105 7.28618C8.56754 7.29174 8.56515 7.29795 8.56402 7.30445V7.32773C8.50066 7.32773 8.4373 7.32773 8.37394 7.32773C8.31058 7.32773 8.27314 7.40923 8.3365 7.43542L8.4949 7.49363C8.47762 7.52565 8.46322 7.56057 8.44018 7.5955C8.38849 7.67162 8.34595 7.75369 8.31346 7.83998C8.24146 8.03207 8.18098 8.22125 8.12626 8.42207C8.02643 8.80545 7.94759 9.19411 7.8901 9.58626C7.77391 10.4268 7.73247 11.2762 7.76626 12.1242C7.8182 13.8497 8.15802 15.5539 8.77138 17.1651C9.07469 18.0094 9.51565 18.7964 10.076 19.4935C10.2143 19.6536 10.5109 19.4469 10.4043 19.2607C10.1797 18.8532 9.95794 18.4428 9.75058 18.0237C9.96082 18.0237 10.1711 18.0092 10.3813 17.9946C10.7373 18.0064 11.0921 17.9491 11.4267 17.8258C11.457 17.8123 11.4824 17.7897 11.4996 17.7611C11.5167 17.7325 11.5247 17.6992 11.5225 17.6659C11.5203 17.6325 11.508 17.6006 11.4872 17.5746C11.4665 17.5485 11.4383 17.5295 11.4066 17.5202C11.068 17.4533 10.7198 17.4533 10.3813 17.5202C10.0933 17.5464 9.82834 17.5755 9.55474 17.6162C9.49138 17.4765 9.42802 17.3252 9.36754 17.1884C9.20626 16.7926 9.07954 16.388 8.94706 15.9806H8.99602C9.20282 16.0172 9.41145 16.0425 9.62098 16.0562C10.0457 16.1078 10.4755 16.096 10.8968 16.0213C10.9393 16.0138 10.9776 15.9908 11.0044 15.9567C11.0312 15.9226 11.0446 15.8796 11.0421 15.8361C11.0396 15.7926 11.0214 15.7516 10.9909 15.7208C10.9604 15.69 10.9197 15.6716 10.8767 15.6691C10.4706 15.6371 10.0674 15.6459 9.6613 15.6342C9.46258 15.6342 9.26386 15.6138 9.06514 15.6051C8.99128 15.6008 8.91723 15.6008 8.84338 15.6051C8.78002 15.3635 8.71954 15.1249 8.66482 14.8804C8.58994 14.5341 8.52658 14.1819 8.47186 13.8297L8.60434 13.8763C8.78245 13.9383 8.96425 13.9888 9.14866 14.0276C9.52454 14.1253 9.91343 14.1616 10.3007 14.1353C10.3423 14.135 10.3826 14.1205 10.4151 14.0941C10.4475 14.0676 10.4701 14.0309 10.4792 13.9898C10.4879 13.9512 10.4814 13.9108 10.4609 13.877C10.4404 13.8433 10.4077 13.819 10.3698 13.8094C10.0011 13.7308 9.62674 13.6988 9.26098 13.6289C9.07954 13.594 8.90386 13.5532 8.7253 13.5125C8.62253 13.4839 8.51749 13.4644 8.41138 13.4543C8.30961 12.6757 8.26246 11.8908 8.27026 11.1055C8.37088 11.1604 8.47476 11.209 8.5813 11.251C8.7516 11.3074 8.92462 11.355 9.0997 11.3937C9.43378 11.4693 9.76786 11.545 10.1019 11.6149L12.02 12.0223C13.2498 12.2872 14.4824 12.5549 15.7151 12.8052C18.1688 13.3088 20.6312 13.7832 23.1051 14.1703C23.8366 14.2867 24.5691 14.3953 25.3026 14.4962C25.8123 14.5661 26.3192 14.6417 26.8318 14.697L26.4546 14.8076C22.2786 16.0339 18.0987 17.2621 13.9151 18.4923C11.588 19.1763 9.2581 19.8602 6.92242 20.5151C6.6085 20.6053 6.69202 21.1059 7.0261 21.0069ZM25.6654 14.0684C25.003 13.9753 24.3406 13.8782 23.6782 13.7773C22.4168 13.5833 21.1582 13.3679 19.9026 13.1312C17.4546 12.6772 15.0066 12.162 12.5787 11.676L10.4591 11.2278C10.0818 11.1492 9.70162 11.0793 9.30706 11.0095C9.12562 10.9746 8.9413 10.9455 8.75698 10.9251C8.59879 10.9134 8.43997 10.9134 8.28178 10.9251C8.28178 10.5904 8.30482 10.2528 8.33362 9.91805C8.37106 9.47566 8.42866 9.04491 8.49202 8.59961C8.52082 8.38424 8.55826 8.17177 8.59282 7.95931C8.61586 7.81087 8.61874 7.66826 8.63602 7.52565C8.92666 7.61124 9.22185 7.68024 9.52018 7.73229L10.7471 7.96222C11.5794 8.12229 12.4146 8.27655 13.2469 8.44244C14.9192 8.77424 16.5887 9.12349 18.2552 9.49021C21.6738 10.2382 25.0866 11.0211 28.5224 11.6993C29.5131 11.8933 30.5048 12.0776 31.4974 12.2523C32.2866 12.389 33.0757 12.5433 33.8706 12.6219L32.6869 12.9624C31.0645 13.4339 29.445 13.9093 27.8283 14.3885C27.8136 14.3783 27.7969 14.3714 27.7794 14.3682C27.0795 14.2401 26.371 14.1644 25.6654 14.0684Z"/>
</mask>
<path d="M7.0261 21.0069C11.2117 19.802 15.3935 18.5874 19.5714 17.363C23.7493 16.1387 27.9291 14.9085 32.1109 13.6726C33.2802 13.332 34.4466 12.9886 35.6158 12.651L37.3611 12.1446C37.9472 11.9964 38.5242 11.8137 39.0891 11.5974C39.3195 11.4984 39.1813 11.1899 38.9566 11.2249C38.4209 11.3254 37.8919 11.4595 37.3726 11.6265L35.7944 12.0776L34.651 12.4036H34.6136C33.7237 12.1911 32.8165 12.0573 31.915 11.8972C31.0136 11.7371 30.1323 11.5712 29.2424 11.3995C27.5144 11.0648 25.7864 10.701 24.0584 10.3255C20.6917 9.59499 17.3365 8.80625 13.9554 8.14558C13.0251 7.96513 12.0949 7.78177 11.1589 7.63333C10.701 7.55766 10.2459 7.4849 9.78802 7.42378C9.41522 7.36532 9.03908 7.33129 8.66194 7.32191C8.66307 7.31542 8.66293 7.30876 8.66152 7.30231C8.6601 7.29587 8.65745 7.28977 8.65371 7.28437C8.64996 7.27896 8.6452 7.27436 8.6397 7.27081C8.63419 7.26727 8.62805 7.26485 8.62162 7.2637C8.61519 7.26256 8.6086 7.2627 8.60222 7.26413C8.59585 7.26556 8.58981 7.26824 8.58447 7.27202C8.57912 7.27581 8.57456 7.28062 8.57105 7.28618C8.56754 7.29174 8.56515 7.29795 8.56402 7.30445V7.32773C8.50066 7.32773 8.4373 7.32773 8.37394 7.32773C8.31058 7.32773 8.27314 7.40923 8.3365 7.43542L8.4949 7.49363C8.47762 7.52565 8.46322 7.56057 8.44018 7.5955C8.38849 7.67162 8.34595 7.75369 8.31346 7.83998C8.24146 8.03207 8.18098 8.22125 8.12626 8.42207C8.02643 8.80545 7.94759 9.19411 7.8901 9.58626C7.77391 10.4268 7.73247 11.2762 7.76626 12.1242C7.8182 13.8497 8.15802 15.5539 8.77138 17.1651C9.07469 18.0094 9.51565 18.7964 10.076 19.4935C10.2143 19.6536 10.5109 19.4469 10.4043 19.2607C10.1797 18.8532 9.95794 18.4428 9.75058 18.0237C9.96082 18.0237 10.1711 18.0092 10.3813 17.9946C10.7373 18.0064 11.0921 17.9491 11.4267 17.8258C11.457 17.8123 11.4824 17.7897 11.4996 17.7611C11.5167 17.7325 11.5247 17.6992 11.5225 17.6659C11.5203 17.6325 11.508 17.6006 11.4872 17.5746C11.4665 17.5485 11.4383 17.5295 11.4066 17.5202C11.068 17.4533 10.7198 17.4533 10.3813 17.5202C10.0933 17.5464 9.82834 17.5755 9.55474 17.6162C9.49138 17.4765 9.42802 17.3252 9.36754 17.1884C9.20626 16.7926 9.07954 16.388 8.94706 15.9806H8.99602C9.20282 16.0172 9.41145 16.0425 9.62098 16.0562C10.0457 16.1078 10.4755 16.096 10.8968 16.0213C10.9393 16.0138 10.9776 15.9908 11.0044 15.9567C11.0312 15.9226 11.0446 15.8796 11.0421 15.8361C11.0396 15.7926 11.0214 15.7516 10.9909 15.7208C10.9604 15.69 10.9197 15.6716 10.8767 15.6691C10.4706 15.6371 10.0674 15.6459 9.6613 15.6342C9.46258 15.6342 9.26386 15.6138 9.06514 15.6051C8.99128 15.6008 8.91723 15.6008 8.84338 15.6051C8.78002 15.3635 8.71954 15.1249 8.66482 14.8804C8.58994 14.5341 8.52658 14.1819 8.47186 13.8297L8.60434 13.8763C8.78245 13.9383 8.96425 13.9888 9.14866 14.0276C9.52454 14.1253 9.91343 14.1616 10.3007 14.1353C10.3423 14.135 10.3826 14.1205 10.4151 14.0941C10.4475 14.0676 10.4701 14.0309 10.4792 13.9898C10.4879 13.9512 10.4814 13.9108 10.4609 13.877C10.4404 13.8433 10.4077 13.819 10.3698 13.8094C10.0011 13.7308 9.62674 13.6988 9.26098 13.6289C9.07954 13.594 8.90386 13.5532 8.7253 13.5125C8.62253 13.4839 8.51749 13.4644 8.41138 13.4543C8.30961 12.6757 8.26246 11.8908 8.27026 11.1055C8.37088 11.1604 8.47476 11.209 8.5813 11.251C8.7516 11.3074 8.92462 11.355 9.0997 11.3937C9.43378 11.4693 9.76786 11.545 10.1019 11.6149L12.02 12.0223C13.2498 12.2872 14.4824 12.5549 15.7151 12.8052C18.1688 13.3088 20.6312 13.7832 23.1051 14.1703C23.8366 14.2867 24.5691 14.3953 25.3026 14.4962C25.8123 14.5661 26.3192 14.6417 26.8318 14.697L26.4546 14.8076C22.2786 16.0339 18.0987 17.2621 13.9151 18.4923C11.588 19.1763 9.2581 19.8602 6.92242 20.5151C6.6085 20.6053 6.69202 21.1059 7.0261 21.0069ZM25.6654 14.0684C25.003 13.9753 24.3406 13.8782 23.6782 13.7773C22.4168 13.5833 21.1582 13.3679 19.9026 13.1312C17.4546 12.6772 15.0066 12.162 12.5787 11.676L10.4591 11.2278C10.0818 11.1492 9.70162 11.0793 9.30706 11.0095C9.12562 10.9746 8.9413 10.9455 8.75698 10.9251C8.59879 10.9134 8.43997 10.9134 8.28178 10.9251C8.28178 10.5904 8.30482 10.2528 8.33362 9.91805C8.37106 9.47566 8.42866 9.04491 8.49202 8.59961C8.52082 8.38424 8.55826 8.17177 8.59282 7.95931C8.61586 7.81087 8.61874 7.66826 8.63602 7.52565C8.92666 7.61124 9.22185 7.68024 9.52018 7.73229L10.7471 7.96222C11.5794 8.12229 12.4146 8.27655 13.2469 8.44244C14.9192 8.77424 16.5887 9.12349 18.2552 9.49021C21.6738 10.2382 25.0866 11.0211 28.5224 11.6993C29.5131 11.8933 30.5048 12.0776 31.4974 12.2523C32.2866 12.389 33.0757 12.5433 33.8706 12.6219L32.6869 12.9624C31.0645 13.4339 29.445 13.9093 27.8283 14.3885C27.8136 14.3783 27.7969 14.3714 27.7794 14.3682C27.0795 14.2401 26.371 14.1644 25.6654 14.0684Z" fill="#2E4049"/>
<path d="M7.0261 21.0069C11.2117 19.802 15.3935 18.5874 19.5714 17.363C23.7493 16.1387 27.9291 14.9085 32.1109 13.6726C33.2802 13.332 34.4466 12.9886 35.6158 12.651L37.3611 12.1446C37.9472 11.9964 38.5242 11.8137 39.0891 11.5974C39.3195 11.4984 39.1813 11.1899 38.9566 11.2249C38.4209 11.3254 37.8919 11.4595 37.3726 11.6265L35.7944 12.0776L34.651 12.4036H34.6136C33.7237 12.1911 32.8165 12.0573 31.915 11.8972C31.0136 11.7371 30.1323 11.5712 29.2424 11.3995C27.5144 11.0648 25.7864 10.701 24.0584 10.3255C20.6917 9.59499 17.3365 8.80625 13.9554 8.14558C13.0251 7.96513 12.0949 7.78177 11.1589 7.63333C10.701 7.55766 10.2459 7.4849 9.78802 7.42378C9.41522 7.36532 9.03908 7.33129 8.66194 7.32191C8.66307 7.31542 8.66293 7.30876 8.66152 7.30231C8.6601 7.29587 8.65745 7.28977 8.65371 7.28437C8.64996 7.27896 8.6452 7.27436 8.6397 7.27081C8.63419 7.26727 8.62805 7.26485 8.62162 7.2637C8.61519 7.26256 8.6086 7.2627 8.60222 7.26413C8.59585 7.26556 8.58981 7.26824 8.58447 7.27202C8.57912 7.27581 8.57456 7.28062 8.57105 7.28618C8.56754 7.29174 8.56515 7.29795 8.56402 7.30445V7.32773C8.50066 7.32773 8.4373 7.32773 8.37394 7.32773C8.31058 7.32773 8.27314 7.40923 8.3365 7.43542L8.4949 7.49363C8.47762 7.52565 8.46322 7.56057 8.44018 7.5955C8.38849 7.67162 8.34595 7.75369 8.31346 7.83998C8.24146 8.03207 8.18098 8.22125 8.12626 8.42207C8.02643 8.80545 7.94759 9.19411 7.8901 9.58626C7.77391 10.4268 7.73247 11.2762 7.76626 12.1242C7.8182 13.8497 8.15802 15.5539 8.77138 17.1651C9.07469 18.0094 9.51565 18.7964 10.076 19.4935C10.2143 19.6536 10.5109 19.4469 10.4043 19.2607C10.1797 18.8532 9.95794 18.4428 9.75058 18.0237C9.96082 18.0237 10.1711 18.0092 10.3813 17.9946C10.7373 18.0064 11.0921 17.9491 11.4267 17.8258C11.457 17.8123 11.4824 17.7897 11.4996 17.7611C11.5167 17.7325 11.5247 17.6992 11.5225 17.6659C11.5203 17.6325 11.508 17.6006 11.4872 17.5746C11.4665 17.5485 11.4383 17.5295 11.4066 17.5202C11.068 17.4533 10.7198 17.4533 10.3813 17.5202C10.0933 17.5464 9.82834 17.5755 9.55474 17.6162C9.49138 17.4765 9.42802 17.3252 9.36754 17.1884C9.20626 16.7926 9.07954 16.388 8.94706 15.9806H8.99602C9.20282 16.0172 9.41145 16.0425 9.62098 16.0562C10.0457 16.1078 10.4755 16.096 10.8968 16.0213C10.9393 16.0138 10.9776 15.9908 11.0044 15.9567C11.0312 15.9226 11.0446 15.8796 11.0421 15.8361C11.0396 15.7926 11.0214 15.7516 10.9909 15.7208C10.9604 15.69 10.9197 15.6716 10.8767 15.6691C10.4706 15.6371 10.0674 15.6459 9.6613 15.6342C9.46258 15.6342 9.26386 15.6138 9.06514 15.6051C8.99128 15.6008 8.91723 15.6008 8.84338 15.6051C8.78002 15.3635 8.71954 15.1249 8.66482 14.8804C8.58994 14.5341 8.52658 14.1819 8.47186 13.8297L8.60434 13.8763C8.78245 13.9383 8.96425 13.9888 9.14866 14.0276C9.52454 14.1253 9.91343 14.1616 10.3007 14.1353C10.3423 14.135 10.3826 14.1205 10.4151 14.0941C10.4475 14.0676 10.4701 14.0309 10.4792 13.9898C10.4879 13.9512 10.4814 13.9108 10.4609 13.877C10.4404 13.8433 10.4077 13.819 10.3698 13.8094C10.0011 13.7308 9.62674 13.6988 9.26098 13.6289C9.07954 13.594 8.90386 13.5532 8.7253 13.5125C8.62253 13.4839 8.51749 13.4644 8.41138 13.4543C8.30961 12.6757 8.26246 11.8908 8.27026 11.1055C8.37088 11.1604 8.47476 11.209 8.5813 11.251C8.7516 11.3074 8.92462 11.355 9.0997 11.3937C9.43378 11.4693 9.76786 11.545 10.1019 11.6149L12.02 12.0223C13.2498 12.2872 14.4824 12.5549 15.7151 12.8052C18.1688 13.3088 20.6312 13.7832 23.1051 14.1703C23.8366 14.2867 24.5691 14.3953 25.3026 14.4962C25.8123 14.5661 26.3192 14.6417 26.8318 14.697L26.4546 14.8076C22.2786 16.0339 18.0987 17.2621 13.9151 18.4923C11.588 19.1763 9.2581 19.8602 6.92242 20.5151C6.6085 20.6053 6.69202 21.1059 7.0261 21.0069ZM25.6654 14.0684C25.003 13.9753 24.3406 13.8782 23.6782 13.7773C22.4168 13.5833 21.1582 13.3679 19.9026 13.1312C17.4546 12.6772 15.0066 12.162 12.5787 11.676L10.4591 11.2278C10.0818 11.1492 9.70162 11.0793 9.30706 11.0095C9.12562 10.9746 8.9413 10.9455 8.75698 10.9251C8.59879 10.9134 8.43997 10.9134 8.28178 10.9251C8.28178 10.5904 8.30482 10.2528 8.33362 9.91805C8.37106 9.47566 8.42866 9.04491 8.49202 8.59961C8.52082 8.38424 8.55826 8.17177 8.59282 7.95931C8.61586 7.81087 8.61874 7.66826 8.63602 7.52565C8.92666 7.61124 9.22185 7.68024 9.52018 7.73229L10.7471 7.96222C11.5794 8.12229 12.4146 8.27655 13.2469 8.44244C14.9192 8.77424 16.5887 9.12349 18.2552 9.49021C21.6738 10.2382 25.0866 11.0211 28.5224 11.6993C29.5131 11.8933 30.5048 12.0776 31.4974 12.2523C32.2866 12.389 33.0757 12.5433 33.8706 12.6219L32.6869 12.9624C31.0645 13.4339 29.445 13.9093 27.8283 14.3885C27.8136 14.3783 27.7969 14.3714 27.7794 14.3682C27.0795 14.2401 26.371 14.1644 25.6654 14.0684Z" stroke="#2E4049" mask="url(#path-1-outside-1_22_202)"/>
<mask id="path-2-outside-2_22_202" maskUnits="userSpaceOnUse" x="4.57983" y="9.70215" width="37" height="43" fill="black">
<rect fill="white" x="4.57983" y="9.70215" width="37" height="43"/>
<path d="M40.258 30.4217C40.284 30.3947 40.3013 30.3605 40.3077 30.3235C40.3142 30.2865 40.3095 30.2484 40.2942 30.2141C40.279 30.1798 40.2539 30.1508 40.2221 30.1309C40.1903 30.111 40.1533 30.101 40.1158 30.1022C38.9991 30.0267 37.8679 30.1022 36.7511 30.1196H36.3131C36.5423 29.7653 36.7511 29.3963 36.96 29.0332C37.3051 28.429 37.63 27.8103 37.9375 27.1858C38.5577 25.9323 39.0861 24.6353 39.5183 23.305C40.3797 20.6972 40.7897 17.9612 40.7308 15.2151C40.718 13.6962 40.4229 12.193 39.8606 10.7823C39.7881 10.6168 39.498 10.733 39.5444 10.9014C39.9034 12.1616 40.1166 13.4588 40.1797 14.7677C40.2087 15.3719 40.2 15.979 40.1797 16.5832H40.1594C39.614 16.6762 39.0774 16.8127 38.5321 16.9202C37.9868 17.0277 37.4502 17.1439 36.9107 17.2717C35.8316 17.5234 34.7536 17.7781 33.6765 18.0356C31.5242 18.5498 29.3632 19.0349 27.2052 19.5432C25.0471 20.0516 22.8774 20.5338 20.7252 21.0537C18.5729 21.5737 16.4177 22.0966 14.2684 22.6252C13.0501 22.9138 11.8396 23.2159 10.6368 23.5315C9.47655 23.822 8.29889 24.0893 7.15605 24.4698C7.06033 24.1125 6.98201 23.7465 6.9211 23.3805C6.80712 22.5452 6.73644 21.7046 6.70935 20.862C6.70935 20.7604 6.57882 20.7081 6.49471 20.7168C6.44583 20.7243 6.40063 20.7472 6.36567 20.7822C6.33071 20.8172 6.30783 20.8625 6.30036 20.9114C6.15925 21.6863 6.14553 22.4791 6.25975 23.2585C6.35348 24.0305 6.5265 24.7907 6.77606 25.5271C7.27343 27.0059 8.05374 28.3734 9.07336 29.5532C9.35091 29.8757 9.65143 30.1776 9.97255 30.4566C10.1118 30.5786 10.2626 30.6948 10.3989 30.8023L9.62448 30.8284C8.99504 30.8517 8.36561 30.8807 7.73617 30.9214C7.4229 30.9388 7.10674 30.9562 6.79057 30.9882C6.4744 31.0201 6.16403 31.0899 5.84206 31.1073C5.77245 31.1073 5.75505 31.2177 5.84206 31.2177C6.13213 31.2177 6.39028 31.2729 6.66874 31.2845C6.9472 31.2961 7.24887 31.3019 7.53893 31.3077C8.09295 31.3077 8.64697 31.3077 9.20099 31.3077C10.3235 31.3077 11.4461 31.2758 12.5657 31.2525C14.7876 31.2089 17.0095 31.1538 19.2371 31.0986C23.6848 30.994 28.1324 30.8855 32.58 30.7732L35.5126 30.7006C35.5197 30.7353 35.536 30.7674 35.5598 30.7936C35.5836 30.8198 35.614 30.8391 35.6478 30.8495C35.6816 30.8599 35.7176 30.861 35.752 30.8527C35.7864 30.8444 35.8179 30.827 35.8432 30.8023C35.8751 30.7674 35.9041 30.7267 35.936 30.689H36.3479C37.601 30.657 38.8744 30.6745 40.1187 30.5292C40.1703 30.5218 40.2187 30.4996 40.258 30.4653C40.2392 30.4891 40.2262 30.5169 40.2203 30.5467C39.9157 31.9991 39.6198 33.4515 39.2486 34.9039L39.1702 35.1943C39.1522 35.1682 39.1278 35.147 39.0994 35.1328C39.071 35.1186 39.0395 35.1118 39.0078 35.113C37.9317 35.113 36.8497 35.1943 35.7765 35.2408C34.7033 35.2873 33.6678 35.328 32.6119 35.3599C30.5041 35.4219 28.3935 35.4567 26.2799 35.4645C22.0333 35.4819 17.7868 35.3686 13.5461 35.1508C12.3482 35.0869 11.1502 35.0172 9.95225 34.9329C8.83551 34.8574 7.72167 34.7615 6.60493 34.7267C6.54692 34.4565 6.486 34.1893 6.43379 33.9191C6.28006 33.129 6.07991 32.3244 5.9987 31.5227C5.97259 31.2612 5.5549 31.3716 5.58101 31.6243C5.65642 32.3622 5.67963 33.0971 5.78695 33.8349C5.89428 34.5727 6.0277 35.2466 6.19014 35.9438C6.51583 37.373 6.9354 38.779 7.44611 40.1529C8.48186 42.8694 9.86438 45.4402 11.5592 47.8012C12.0378 48.4693 12.5483 49.1171 13.0791 49.7474C13.5945 50.3937 14.1705 50.989 14.7992 51.5252C14.8443 51.5669 14.9033 51.5902 14.9647 51.5907C15.026 51.5911 15.0854 51.5686 15.1311 51.5276C15.1768 51.4866 15.2055 51.4299 15.2118 51.3688C15.218 51.3076 15.2012 51.2463 15.1647 51.1969C14.7296 50.616 14.2278 50.0815 13.7637 49.5267C13.2996 48.9719 12.8703 48.4112 12.441 47.8361L12.2873 47.6182L12.499 47.6792C12.8806 47.7752 13.2682 47.8451 13.6592 47.8884C14.0377 47.9305 14.4185 47.9479 14.7992 47.9406C15.196 47.9493 15.5906 47.8782 15.9594 47.7315C15.985 47.7187 16.0062 47.6987 16.0204 47.6739C16.0347 47.6491 16.0413 47.6206 16.0394 47.5921C16.0376 47.5635 16.0273 47.5362 16.01 47.5134C15.9927 47.4907 15.969 47.4736 15.942 47.4643C15.5884 47.4158 15.2309 47.4022 14.8746 47.4236C14.5062 47.4236 14.1379 47.4091 13.7695 47.3713C13.4011 47.3335 13.0588 47.2783 12.7107 47.2028C12.5251 47.1622 12.3395 47.1157 12.1509 47.0779C12.0668 47.0609 11.9814 47.0512 11.8957 47.0489C11.2633 46.1368 10.6764 45.1946 10.135 44.2225C10.0132 44.0017 9.89424 43.7752 9.77531 43.5515C9.94587 43.6171 10.1202 43.6724 10.2974 43.7171C10.7171 43.8236 11.1435 43.9012 11.5737 43.9494C12.4439 44.0796 13.3313 44.0352 14.1843 43.8187C14.3728 43.7635 14.3931 43.4643 14.164 43.4672C13.333 43.5108 12.5004 43.5108 11.6694 43.4672C11.2581 43.4267 10.8494 43.3627 10.4454 43.2755C10.2481 43.232 10.0538 43.1768 9.86523 43.1448C9.76371 43.1203 9.65905 43.1115 9.55486 43.1187C8.9959 42.02 8.49816 40.8912 8.06394 39.7375L8.12776 39.7578C8.3683 39.8319 8.61345 39.8902 8.86161 39.9321C9.36929 40.0261 9.88143 40.0939 10.396 40.1354C11.4143 40.2423 12.443 40.1884 13.4446 39.9757C13.4859 39.9658 13.5225 39.9417 13.5477 39.9074C13.573 39.8732 13.5853 39.8311 13.5825 39.7887C13.5797 39.7462 13.562 39.7061 13.5325 39.6754C13.503 39.6448 13.4637 39.6256 13.4214 39.6213C12.4381 39.6213 11.4577 39.6503 10.4744 39.5864C9.98996 39.5545 9.51425 39.5022 9.02405 39.4354C8.7746 39.3976 8.52804 39.3511 8.27859 39.3221C8.16617 39.3038 8.0529 39.2912 7.93922 39.2843H7.8812C7.52153 38.2928 7.20923 37.2877 6.9443 36.2691C6.85438 35.9147 6.76736 35.5604 6.68615 35.206C7.60564 35.328 8.52804 35.3977 9.45334 35.4674C10.5053 35.5429 11.5582 35.6126 12.6121 35.6765C14.7392 35.8024 16.8731 35.8934 19.0138 35.9496C23.2816 36.0716 27.5513 36.0716 31.823 35.9496C33.0238 35.9128 34.2227 35.8644 35.4197 35.8044C36.6148 35.7463 37.8214 35.7143 39.0078 35.5604H39.0513C38.7148 36.7862 38.3291 37.9975 37.8911 39.1885C36.8617 41.9632 35.5444 44.6221 33.9607 47.1215C33.5169 47.8245 33.0499 48.5129 32.5655 49.1839C32.3248 49.518 32.084 49.8491 31.8375 50.1744C31.5909 50.4998 31.2979 50.8455 31.0746 51.2086C31.0555 51.2324 31.0414 51.2598 31.0329 51.2891C31.0244 51.3184 31.0218 51.3491 31.0251 51.3795C31.0285 51.4098 31.0378 51.4392 31.0525 51.4659C31.0672 51.4927 31.087 51.5163 31.1109 51.5353C31.1347 51.5544 31.162 51.5686 31.1913 51.5771C31.2206 51.5856 31.2512 51.5882 31.2815 51.5849C31.3118 51.5815 31.3412 51.5722 31.3679 51.5575C31.3946 51.5427 31.4181 51.5229 31.4372 51.499C31.9703 50.9531 32.4555 50.3622 32.8875 49.7329C33.3371 49.1345 33.7577 48.5187 34.1754 47.8942C35.0052 46.6226 35.7653 45.3067 36.4524 43.9523C37.8367 41.2721 38.9213 38.447 39.6866 35.5284C40.1339 33.8955 40.431 32.2251 40.5741 30.5379C40.5828 30.3491 40.3769 30.3201 40.258 30.4217ZM35.7069 30.1458L33.3864 30.201L26.715 30.3636C22.2712 30.4769 17.8274 30.5757 13.3721 30.7064L11.2024 30.7732C10.9849 30.5234 10.7325 30.3056 10.4947 30.0761C10.2568 29.8466 9.97255 29.5532 9.726 29.2802C9.23226 28.7289 8.79226 28.1317 8.41202 27.4966C7.91076 26.6573 7.51612 25.7585 7.23726 24.8213C8.26409 24.6499 9.2677 24.3797 10.2858 24.1386L13.5374 23.3485L19.9913 21.7683C24.2958 20.7139 28.5888 19.6013 32.8991 18.5876L36.5568 17.7161C37.1659 17.5709 37.775 17.4256 38.3784 17.263C38.9817 17.1003 39.5734 16.9725 40.1652 16.7953C40.1245 17.4634 40.0549 18.1315 39.965 18.7938C39.9331 19.0233 39.8925 19.247 39.8577 19.4735C39.7649 19.5026 39.6778 19.5258 39.6227 19.5461C39.4284 19.6159 39.2369 19.6943 39.0426 19.7669C38.6336 19.9238 38.2246 20.0835 37.8127 20.2317C37.4009 20.3798 37.0093 20.5222 36.6061 20.6558C36.1952 20.7799 35.7931 20.9313 35.4023 21.1089C35.3066 21.1554 35.3211 21.3297 35.4429 21.3181C35.9311 21.2448 36.411 21.1241 36.8758 20.9579C37.367 20.8088 37.8534 20.6374 38.3349 20.4437C38.8048 20.2636 39.2747 20.0835 39.7243 19.8628L39.791 19.8308C39.6176 20.7897 39.391 21.7381 39.1122 22.6717C39.0368 22.7037 38.9614 22.7327 38.8889 22.7676L38.3726 23.0058C38.037 23.1509 37.6932 23.276 37.3428 23.3805C36.6316 23.567 35.9113 23.7173 35.1848 23.8307C35.1398 23.8409 35.0999 23.8668 35.0723 23.9037C35.0446 23.9407 35.0309 23.9862 35.0337 24.0323C35.0365 24.0784 35.0556 24.122 35.0875 24.1553C35.1194 24.1886 35.1621 24.2095 35.208 24.2142C35.9896 24.2584 36.772 24.1438 37.5082 23.8772C37.8715 23.7573 38.2262 23.6127 38.5698 23.4444C38.6916 23.3834 38.8106 23.3195 38.9295 23.2527C38.5694 24.3635 38.1413 25.451 37.6474 26.509C37.5343 26.5438 37.4241 26.5874 37.3138 26.631C37.0634 26.7349 36.8078 26.826 36.5481 26.904C36.2921 26.9761 36.0326 27.0352 35.7707 27.0812C35.4974 27.0974 35.2283 27.1562 34.973 27.2555C34.8686 27.3107 34.828 27.485 34.9527 27.546C35.2341 27.6386 35.536 27.6487 35.8229 27.575C36.1127 27.5301 36.398 27.4601 36.6757 27.3659C36.9177 27.2871 37.1533 27.19 37.3806 27.0754C37.133 27.5808 36.8749 28.0805 36.6061 28.5743C36.3131 29.1001 35.9796 29.6113 35.7069 30.1458Z"/>
</mask>
<path d="M40.258 30.4217C40.284 30.3947 40.3013 30.3605 40.3077 30.3235C40.3142 30.2865 40.3095 30.2484 40.2942 30.2141C40.279 30.1798 40.2539 30.1508 40.2221 30.1309C40.1903 30.111 40.1533 30.101 40.1158 30.1022C38.9991 30.0267 37.8679 30.1022 36.7511 30.1196H36.3131C36.5423 29.7653 36.7511 29.3963 36.96 29.0332C37.3051 28.429 37.63 27.8103 37.9375 27.1858C38.5577 25.9323 39.0861 24.6353 39.5183 23.305C40.3797 20.6972 40.7897 17.9612 40.7308 15.2151C40.718 13.6962 40.4229 12.193 39.8606 10.7823C39.7881 10.6168 39.498 10.733 39.5444 10.9014C39.9034 12.1616 40.1166 13.4588 40.1797 14.7677C40.2087 15.3719 40.2 15.979 40.1797 16.5832H40.1594C39.614 16.6762 39.0774 16.8127 38.5321 16.9202C37.9868 17.0277 37.4502 17.1439 36.9107 17.2717C35.8316 17.5234 34.7536 17.7781 33.6765 18.0356C31.5242 18.5498 29.3632 19.0349 27.2052 19.5432C25.0471 20.0516 22.8774 20.5338 20.7252 21.0537C18.5729 21.5737 16.4177 22.0966 14.2684 22.6252C13.0501 22.9138 11.8396 23.2159 10.6368 23.5315C9.47655 23.822 8.29889 24.0893 7.15605 24.4698C7.06033 24.1125 6.98201 23.7465 6.9211 23.3805C6.80712 22.5452 6.73644 21.7046 6.70935 20.862C6.70935 20.7604 6.57882 20.7081 6.49471 20.7168C6.44583 20.7243 6.40063 20.7472 6.36567 20.7822C6.33071 20.8172 6.30783 20.8625 6.30036 20.9114C6.15925 21.6863 6.14553 22.4791 6.25975 23.2585C6.35348 24.0305 6.5265 24.7907 6.77606 25.5271C7.27343 27.0059 8.05374 28.3734 9.07336 29.5532C9.35091 29.8757 9.65143 30.1776 9.97255 30.4566C10.1118 30.5786 10.2626 30.6948 10.3989 30.8023L9.62448 30.8284C8.99504 30.8517 8.36561 30.8807 7.73617 30.9214C7.4229 30.9388 7.10674 30.9562 6.79057 30.9882C6.4744 31.0201 6.16403 31.0899 5.84206 31.1073C5.77245 31.1073 5.75505 31.2177 5.84206 31.2177C6.13213 31.2177 6.39028 31.2729 6.66874 31.2845C6.9472 31.2961 7.24887 31.3019 7.53893 31.3077C8.09295 31.3077 8.64697 31.3077 9.20099 31.3077C10.3235 31.3077 11.4461 31.2758 12.5657 31.2525C14.7876 31.2089 17.0095 31.1538 19.2371 31.0986C23.6848 30.994 28.1324 30.8855 32.58 30.7732L35.5126 30.7006C35.5197 30.7353 35.536 30.7674 35.5598 30.7936C35.5836 30.8198 35.614 30.8391 35.6478 30.8495C35.6816 30.8599 35.7176 30.861 35.752 30.8527C35.7864 30.8444 35.8179 30.827 35.8432 30.8023C35.8751 30.7674 35.9041 30.7267 35.936 30.689H36.3479C37.601 30.657 38.8744 30.6745 40.1187 30.5292C40.1703 30.5218 40.2187 30.4996 40.258 30.4653C40.2392 30.4891 40.2262 30.5169 40.2203 30.5467C39.9157 31.9991 39.6198 33.4515 39.2486 34.9039L39.1702 35.1943C39.1522 35.1682 39.1278 35.147 39.0994 35.1328C39.071 35.1186 39.0395 35.1118 39.0078 35.113C37.9317 35.113 36.8497 35.1943 35.7765 35.2408C34.7033 35.2873 33.6678 35.328 32.6119 35.3599C30.5041 35.4219 28.3935 35.4567 26.2799 35.4645C22.0333 35.4819 17.7868 35.3686 13.5461 35.1508C12.3482 35.0869 11.1502 35.0172 9.95225 34.9329C8.83551 34.8574 7.72167 34.7615 6.60493 34.7267C6.54692 34.4565 6.486 34.1893 6.43379 33.9191C6.28006 33.129 6.07991 32.3244 5.9987 31.5227C5.97259 31.2612 5.5549 31.3716 5.58101 31.6243C5.65642 32.3622 5.67963 33.0971 5.78695 33.8349C5.89428 34.5727 6.0277 35.2466 6.19014 35.9438C6.51583 37.373 6.9354 38.779 7.44611 40.1529C8.48186 42.8694 9.86438 45.4402 11.5592 47.8012C12.0378 48.4693 12.5483 49.1171 13.0791 49.7474C13.5945 50.3937 14.1705 50.989 14.7992 51.5252C14.8443 51.5669 14.9033 51.5902 14.9647 51.5907C15.026 51.5911 15.0854 51.5686 15.1311 51.5276C15.1768 51.4866 15.2055 51.4299 15.2118 51.3688C15.218 51.3076 15.2012 51.2463 15.1647 51.1969C14.7296 50.616 14.2278 50.0815 13.7637 49.5267C13.2996 48.9719 12.8703 48.4112 12.441 47.8361L12.2873 47.6182L12.499 47.6792C12.8806 47.7752 13.2682 47.8451 13.6592 47.8884C14.0377 47.9305 14.4185 47.9479 14.7992 47.9406C15.196 47.9493 15.5906 47.8782 15.9594 47.7315C15.985 47.7187 16.0062 47.6987 16.0204 47.6739C16.0347 47.6491 16.0413 47.6206 16.0394 47.5921C16.0376 47.5635 16.0273 47.5362 16.01 47.5134C15.9927 47.4907 15.969 47.4736 15.942 47.4643C15.5884 47.4158 15.2309 47.4022 14.8746 47.4236C14.5062 47.4236 14.1379 47.4091 13.7695 47.3713C13.4011 47.3335 13.0588 47.2783 12.7107 47.2028C12.5251 47.1622 12.3395 47.1157 12.1509 47.0779C12.0668 47.0609 11.9814 47.0512 11.8957 47.0489C11.2633 46.1368 10.6764 45.1946 10.135 44.2225C10.0132 44.0017 9.89424 43.7752 9.77531 43.5515C9.94587 43.6171 10.1202 43.6724 10.2974 43.7171C10.7171 43.8236 11.1435 43.9012 11.5737 43.9494C12.4439 44.0796 13.3313 44.0352 14.1843 43.8187C14.3728 43.7635 14.3931 43.4643 14.164 43.4672C13.333 43.5108 12.5004 43.5108 11.6694 43.4672C11.2581 43.4267 10.8494 43.3627 10.4454 43.2755C10.2481 43.232 10.0538 43.1768 9.86523 43.1448C9.76371 43.1203 9.65905 43.1115 9.55486 43.1187C8.9959 42.02 8.49816 40.8912 8.06394 39.7375L8.12776 39.7578C8.3683 39.8319 8.61345 39.8902 8.86161 39.9321C9.36929 40.0261 9.88143 40.0939 10.396 40.1354C11.4143 40.2423 12.443 40.1884 13.4446 39.9757C13.4859 39.9658 13.5225 39.9417 13.5477 39.9074C13.573 39.8732 13.5853 39.8311 13.5825 39.7887C13.5797 39.7462 13.562 39.7061 13.5325 39.6754C13.503 39.6448 13.4637 39.6256 13.4214 39.6213C12.4381 39.6213 11.4577 39.6503 10.4744 39.5864C9.98996 39.5545 9.51425 39.5022 9.02405 39.4354C8.7746 39.3976 8.52804 39.3511 8.27859 39.3221C8.16617 39.3038 8.0529 39.2912 7.93922 39.2843H7.8812C7.52153 38.2928 7.20923 37.2877 6.9443 36.2691C6.85438 35.9147 6.76736 35.5604 6.68615 35.206C7.60564 35.328 8.52804 35.3977 9.45334 35.4674C10.5053 35.5429 11.5582 35.6126 12.6121 35.6765C14.7392 35.8024 16.8731 35.8934 19.0138 35.9496C23.2816 36.0716 27.5513 36.0716 31.823 35.9496C33.0238 35.9128 34.2227 35.8644 35.4197 35.8044C36.6148 35.7463 37.8214 35.7143 39.0078 35.5604H39.0513C38.7148 36.7862 38.3291 37.9975 37.8911 39.1885C36.8617 41.9632 35.5444 44.6221 33.9607 47.1215C33.5169 47.8245 33.0499 48.5129 32.5655 49.1839C32.3248 49.518 32.084 49.8491 31.8375 50.1744C31.5909 50.4998 31.2979 50.8455 31.0746 51.2086C31.0555 51.2324 31.0414 51.2598 31.0329 51.2891C31.0244 51.3184 31.0218 51.3491 31.0251 51.3795C31.0285 51.4098 31.0378 51.4392 31.0525 51.4659C31.0672 51.4927 31.087 51.5163 31.1109 51.5353C31.1347 51.5544 31.162 51.5686 31.1913 51.5771C31.2206 51.5856 31.2512 51.5882 31.2815 51.5849C31.3118 51.5815 31.3412 51.5722 31.3679 51.5575C31.3946 51.5427 31.4181 51.5229 31.4372 51.499C31.9703 50.9531 32.4555 50.3622 32.8875 49.7329C33.3371 49.1345 33.7577 48.5187 34.1754 47.8942C35.0052 46.6226 35.7653 45.3067 36.4524 43.9523C37.8367 41.2721 38.9213 38.447 39.6866 35.5284C40.1339 33.8955 40.431 32.2251 40.5741 30.5379C40.5828 30.3491 40.3769 30.3201 40.258 30.4217ZM35.7069 30.1458L33.3864 30.201L26.715 30.3636C22.2712 30.4769 17.8274 30.5757 13.3721 30.7064L11.2024 30.7732C10.9849 30.5234 10.7325 30.3056 10.4947 30.0761C10.2568 29.8466 9.97255 29.5532 9.726 29.2802C9.23226 28.7289 8.79226 28.1317 8.41202 27.4966C7.91076 26.6573 7.51612 25.7585 7.23726 24.8213C8.26409 24.6499 9.2677 24.3797 10.2858 24.1386L13.5374 23.3485L19.9913 21.7683C24.2958 20.7139 28.5888 19.6013 32.8991 18.5876L36.5568 17.7161C37.1659 17.5709 37.775 17.4256 38.3784 17.263C38.9817 17.1003 39.5734 16.9725 40.1652 16.7953C40.1245 17.4634 40.0549 18.1315 39.965 18.7938C39.9331 19.0233 39.8925 19.247 39.8577 19.4735C39.7649 19.5026 39.6778 19.5258 39.6227 19.5461C39.4284 19.6159 39.2369 19.6943 39.0426 19.7669C38.6336 19.9238 38.2246 20.0835 37.8127 20.2317C37.4009 20.3798 37.0093 20.5222 36.6061 20.6558C36.1952 20.7799 35.7931 20.9313 35.4023 21.1089C35.3066 21.1554 35.3211 21.3297 35.4429 21.3181C35.9311 21.2448 36.411 21.1241 36.8758 20.9579C37.367 20.8088 37.8534 20.6374 38.3349 20.4437C38.8048 20.2636 39.2747 20.0835 39.7243 19.8628L39.791 19.8308C39.6176 20.7897 39.391 21.7381 39.1122 22.6717C39.0368 22.7037 38.9614 22.7327 38.8889 22.7676L38.3726 23.0058C38.037 23.1509 37.6932 23.276 37.3428 23.3805C36.6316 23.567 35.9113 23.7173 35.1848 23.8307C35.1398 23.8409 35.0999 23.8668 35.0723 23.9037C35.0446 23.9407 35.0309 23.9862 35.0337 24.0323C35.0365 24.0784 35.0556 24.122 35.0875 24.1553C35.1194 24.1886 35.1621 24.2095 35.208 24.2142C35.9896 24.2584 36.772 24.1438 37.5082 23.8772C37.8715 23.7573 38.2262 23.6127 38.5698 23.4444C38.6916 23.3834 38.8106 23.3195 38.9295 23.2527C38.5694 24.3635 38.1413 25.451 37.6474 26.509C37.5343 26.5438 37.4241 26.5874 37.3138 26.631C37.0634 26.7349 36.8078 26.826 36.5481 26.904C36.2921 26.9761 36.0326 27.0352 35.7707 27.0812C35.4974 27.0974 35.2283 27.1562 34.973 27.2555C34.8686 27.3107 34.828 27.485 34.9527 27.546C35.2341 27.6386 35.536 27.6487 35.8229 27.575C36.1127 27.5301 36.398 27.4601 36.6757 27.3659C36.9177 27.2871 37.1533 27.19 37.3806 27.0754C37.133 27.5808 36.8749 28.0805 36.6061 28.5743C36.3131 29.1001 35.9796 29.6113 35.7069 30.1458Z" fill="#2E4049"/>
<path d="M40.258 30.4217C40.284 30.3947 40.3013 30.3605 40.3077 30.3235C40.3142 30.2865 40.3095 30.2484 40.2942 30.2141C40.279 30.1798 40.2539 30.1508 40.2221 30.1309C40.1903 30.111 40.1533 30.101 40.1158 30.1022C38.9991 30.0267 37.8679 30.1022 36.7511 30.1196H36.3131C36.5423 29.7653 36.7511 29.3963 36.96 29.0332C37.3051 28.429 37.63 27.8103 37.9375 27.1858C38.5577 25.9323 39.0861 24.6353 39.5183 23.305C40.3797 20.6972 40.7897 17.9612 40.7308 15.2151C40.718 13.6962 40.4229 12.193 39.8606 10.7823C39.7881 10.6168 39.498 10.733 39.5444 10.9014C39.9034 12.1616 40.1166 13.4588 40.1797 14.7677C40.2087 15.3719 40.2 15.979 40.1797 16.5832H40.1594C39.614 16.6762 39.0774 16.8127 38.5321 16.9202C37.9868 17.0277 37.4502 17.1439 36.9107 17.2717C35.8316 17.5234 34.7536 17.7781 33.6765 18.0356C31.5242 18.5498 29.3632 19.0349 27.2052 19.5432C25.0471 20.0516 22.8774 20.5338 20.7252 21.0537C18.5729 21.5737 16.4177 22.0966 14.2684 22.6252C13.0501 22.9138 11.8396 23.2159 10.6368 23.5315C9.47655 23.822 8.29889 24.0893 7.15605 24.4698C7.06033 24.1125 6.98201 23.7465 6.9211 23.3805C6.80712 22.5452 6.73644 21.7046 6.70935 20.862C6.70935 20.7604 6.57882 20.7081 6.49471 20.7168C6.44583 20.7243 6.40063 20.7472 6.36567 20.7822C6.33071 20.8172 6.30783 20.8625 6.30036 20.9114C6.15925 21.6863 6.14553 22.4791 6.25975 23.2585C6.35348 24.0305 6.5265 24.7907 6.77606 25.5271C7.27343 27.0059 8.05374 28.3734 9.07336 29.5532C9.35091 29.8757 9.65143 30.1776 9.97255 30.4566C10.1118 30.5786 10.2626 30.6948 10.3989 30.8023L9.62448 30.8284C8.99504 30.8517 8.36561 30.8807 7.73617 30.9214C7.4229 30.9388 7.10674 30.9562 6.79057 30.9882C6.4744 31.0201 6.16403 31.0899 5.84206 31.1073C5.77245 31.1073 5.75505 31.2177 5.84206 31.2177C6.13213 31.2177 6.39028 31.2729 6.66874 31.2845C6.9472 31.2961 7.24887 31.3019 7.53893 31.3077C8.09295 31.3077 8.64697 31.3077 9.20099 31.3077C10.3235 31.3077 11.4461 31.2758 12.5657 31.2525C14.7876 31.2089 17.0095 31.1538 19.2371 31.0986C23.6848 30.994 28.1324 30.8855 32.58 30.7732L35.5126 30.7006C35.5197 30.7353 35.536 30.7674 35.5598 30.7936C35.5836 30.8198 35.614 30.8391 35.6478 30.8495C35.6816 30.8599 35.7176 30.861 35.752 30.8527C35.7864 30.8444 35.8179 30.827 35.8432 30.8023C35.8751 30.7674 35.9041 30.7267 35.936 30.689H36.3479C37.601 30.657 38.8744 30.6745 40.1187 30.5292C40.1703 30.5218 40.2187 30.4996 40.258 30.4653C40.2392 30.4891 40.2262 30.5169 40.2203 30.5467C39.9157 31.9991 39.6198 33.4515 39.2486 34.9039L39.1702 35.1943C39.1522 35.1682 39.1278 35.147 39.0994 35.1328C39.071 35.1186 39.0395 35.1118 39.0078 35.113C37.9317 35.113 36.8497 35.1943 35.7765 35.2408C34.7033 35.2873 33.6678 35.328 32.6119 35.3599C30.5041 35.4219 28.3935 35.4567 26.2799 35.4645C22.0333 35.4819 17.7868 35.3686 13.5461 35.1508C12.3482 35.0869 11.1502 35.0172 9.95225 34.9329C8.83551 34.8574 7.72167 34.7615 6.60493 34.7267C6.54692 34.4565 6.486 34.1893 6.43379 33.9191C6.28006 33.129 6.07991 32.3244 5.9987 31.5227C5.97259 31.2612 5.5549 31.3716 5.58101 31.6243C5.65642 32.3622 5.67963 33.0971 5.78695 33.8349C5.89428 34.5727 6.0277 35.2466 6.19014 35.9438C6.51583 37.373 6.9354 38.779 7.44611 40.1529C8.48186 42.8694 9.86438 45.4402 11.5592 47.8012C12.0378 48.4693 12.5483 49.1171 13.0791 49.7474C13.5945 50.3937 14.1705 50.989 14.7992 51.5252C14.8443 51.5669 14.9033 51.5902 14.9647 51.5907C15.026 51.5911 15.0854 51.5686 15.1311 51.5276C15.1768 51.4866 15.2055 51.4299 15.2118 51.3688C15.218 51.3076 15.2012 51.2463 15.1647 51.1969C14.7296 50.616 14.2278 50.0815 13.7637 49.5267C13.2996 48.9719 12.8703 48.4112 12.441 47.8361L12.2873 47.6182L12.499 47.6792C12.8806 47.7752 13.2682 47.8451 13.6592 47.8884C14.0377 47.9305 14.4185 47.9479 14.7992 47.9406C15.196 47.9493 15.5906 47.8782 15.9594 47.7315C15.985 47.7187 16.0062 47.6987 16.0204 47.6739C16.0347 47.6491 16.0413 47.6206 16.0394 47.5921C16.0376 47.5635 16.0273 47.5362 16.01 47.5134C15.9927 47.4907 15.969 47.4736 15.942 47.4643C15.5884 47.4158 15.2309 47.4022 14.8746 47.4236C14.5062 47.4236 14.1379 47.4091 13.7695 47.3713C13.4011 47.3335 13.0588 47.2783 12.7107 47.2028C12.5251 47.1622 12.3395 47.1157 12.1509 47.0779C12.0668 47.0609 11.9814 47.0512 11.8957 47.0489C11.2633 46.1368 10.6764 45.1946 10.135 44.2225C10.0132 44.0017 9.89424 43.7752 9.77531 43.5515C9.94587 43.6171 10.1202 43.6724 10.2974 43.7171C10.7171 43.8236 11.1435 43.9012 11.5737 43.9494C12.4439 44.0796 13.3313 44.0352 14.1843 43.8187C14.3728 43.7635 14.3931 43.4643 14.164 43.4672C13.333 43.5108 12.5004 43.5108 11.6694 43.4672C11.2581 43.4267 10.8494 43.3627 10.4454 43.2755C10.2481 43.232 10.0538 43.1768 9.86523 43.1448C9.76371 43.1203 9.65905 43.1115 9.55486 43.1187C8.9959 42.02 8.49816 40.8912 8.06394 39.7375L8.12776 39.7578C8.3683 39.8319 8.61345 39.8902 8.86161 39.9321C9.36929 40.0261 9.88143 40.0939 10.396 40.1354C11.4143 40.2423 12.443 40.1884 13.4446 39.9757C13.4859 39.9658 13.5225 39.9417 13.5477 39.9074C13.573 39.8732 13.5853 39.8311 13.5825 39.7887C13.5797 39.7462 13.562 39.7061 13.5325 39.6754C13.503 39.6448 13.4637 39.6256 13.4214 39.6213C12.4381 39.6213 11.4577 39.6503 10.4744 39.5864C9.98996 39.5545 9.51425 39.5022 9.02405 39.4354C8.7746 39.3976 8.52804 39.3511 8.27859 39.3221C8.16617 39.3038 8.0529 39.2912 7.93922 39.2843H7.8812C7.52153 38.2928 7.20923 37.2877 6.9443 36.2691C6.85438 35.9147 6.76736 35.5604 6.68615 35.206C7.60564 35.328 8.52804 35.3977 9.45334 35.4674C10.5053 35.5429 11.5582 35.6126 12.6121 35.6765C14.7392 35.8024 16.8731 35.8934 19.0138 35.9496C23.2816 36.0716 27.5513 36.0716 31.823 35.9496C33.0238 35.9128 34.2227 35.8644 35.4197 35.8044C36.6148 35.7463 37.8214 35.7143 39.0078 35.5604H39.0513C38.7148 36.7862 38.3291 37.9975 37.8911 39.1885C36.8617 41.9632 35.5444 44.6221 33.9607 47.1215C33.5169 47.8245 33.0499 48.5129 32.5655 49.1839C32.3248 49.518 32.084 49.8491 31.8375 50.1744C31.5909 50.4998 31.2979 50.8455 31.0746 51.2086C31.0555 51.2324 31.0414 51.2598 31.0329 51.2891C31.0244 51.3184 31.0218 51.3491 31.0251 51.3795C31.0285 51.4098 31.0378 51.4392 31.0525 51.4659C31.0672 51.4927 31.087 51.5163 31.1109 51.5353C31.1347 51.5544 31.162 51.5686 31.1913 51.5771C31.2206 51.5856 31.2512 51.5882 31.2815 51.5849C31.3118 51.5815 31.3412 51.5722 31.3679 51.5575C31.3946 51.5427 31.4181 51.5229 31.4372 51.499C31.9703 50.9531 32.4555 50.3622 32.8875 49.7329C33.3371 49.1345 33.7577 48.5187 34.1754 47.8942C35.0052 46.6226 35.7653 45.3067 36.4524 43.9523C37.8367 41.2721 38.9213 38.447 39.6866 35.5284C40.1339 33.8955 40.431 32.2251 40.5741 30.5379C40.5828 30.3491 40.3769 30.3201 40.258 30.4217ZM35.7069 30.1458L33.3864 30.201L26.715 30.3636C22.2712 30.4769 17.8274 30.5757 13.3721 30.7064L11.2024 30.7732C10.9849 30.5234 10.7325 30.3056 10.4947 30.0761C10.2568 29.8466 9.97255 29.5532 9.726 29.2802C9.23226 28.7289 8.79226 28.1317 8.41202 27.4966C7.91076 26.6573 7.51612 25.7585 7.23726 24.8213C8.26409 24.6499 9.2677 24.3797 10.2858 24.1386L13.5374 23.3485L19.9913 21.7683C24.2958 20.7139 28.5888 19.6013 32.8991 18.5876L36.5568 17.7161C37.1659 17.5709 37.775 17.4256 38.3784 17.263C38.9817 17.1003 39.5734 16.9725 40.1652 16.7953C40.1245 17.4634 40.0549 18.1315 39.965 18.7938C39.9331 19.0233 39.8925 19.247 39.8577 19.4735C39.7649 19.5026 39.6778 19.5258 39.6227 19.5461C39.4284 19.6159 39.2369 19.6943 39.0426 19.7669C38.6336 19.9238 38.2246 20.0835 37.8127 20.2317C37.4009 20.3798 37.0093 20.5222 36.6061 20.6558C36.1952 20.7799 35.7931 20.9313 35.4023 21.1089C35.3066 21.1554 35.3211 21.3297 35.4429 21.3181C35.9311 21.2448 36.411 21.1241 36.8758 20.9579C37.367 20.8088 37.8534 20.6374 38.3349 20.4437C38.8048 20.2636 39.2747 20.0835 39.7243 19.8628L39.791 19.8308C39.6176 20.7897 39.391 21.7381 39.1122 22.6717C39.0368 22.7037 38.9614 22.7327 38.8889 22.7676L38.3726 23.0058C38.037 23.1509 37.6932 23.276 37.3428 23.3805C36.6316 23.567 35.9113 23.7173 35.1848 23.8307C35.1398 23.8409 35.0999 23.8668 35.0723 23.9037C35.0446 23.9407 35.0309 23.9862 35.0337 24.0323C35.0365 24.0784 35.0556 24.122 35.0875 24.1553C35.1194 24.1886 35.1621 24.2095 35.208 24.2142C35.9896 24.2584 36.772 24.1438 37.5082 23.8772C37.8715 23.7573 38.2262 23.6127 38.5698 23.4444C38.6916 23.3834 38.8106 23.3195 38.9295 23.2527C38.5694 24.3635 38.1413 25.451 37.6474 26.509C37.5343 26.5438 37.4241 26.5874 37.3138 26.631C37.0634 26.7349 36.8078 26.826 36.5481 26.904C36.2921 26.9761 36.0326 27.0352 35.7707 27.0812C35.4974 27.0974 35.2283 27.1562 34.973 27.2555C34.8686 27.3107 34.828 27.485 34.9527 27.546C35.2341 27.6386 35.536 27.6487 35.8229 27.575C36.1127 27.5301 36.398 27.4601 36.6757 27.3659C36.9177 27.2871 37.1533 27.19 37.3806 27.0754C37.133 27.5808 36.8749 28.0805 36.6061 28.5743C36.3131 29.1001 35.9796 29.6113 35.7069 30.1458Z" stroke="#2E4049" mask="url(#path-2-outside-2_22_202)"/>
<path d="M30.2475 50.9595C30.3222 50.9577 30.3947 50.976 30.4584 51.0122L30.5209 51.0552L30.5737 51.1099C30.6054 51.1487 30.6299 51.1926 30.6459 51.2397L30.6645 51.312L30.6684 51.3872C30.6662 51.4617 30.6444 51.535 30.6039 51.5991C30.5575 51.6727 30.488 51.7279 30.4067 51.7603C30.1326 51.906 29.8403 52.012 29.5375 52.0747C29.2672 52.1443 28.9944 52.205 28.7299 52.2642L28.726 52.2651C28.4576 52.32 28.1877 52.3725 27.9174 52.4224L27.1039 52.5649C25.1294 52.8869 23.1299 53.0248 21.1313 52.978C20.1452 52.954 19.1598 52.8733 18.1821 52.7505V52.7495C17.1788 52.6376 16.1838 52.4569 15.2045 52.2065L15.1977 52.2046L15.1908 52.2017C15.0703 52.1631 14.9659 52.084 14.9145 51.9624C14.8653 51.8461 14.8796 51.7273 14.9174 51.6353C14.9891 51.4606 15.1845 51.3 15.4321 51.3354L17.06 51.5728C17.6002 51.6486 18.1392 51.7164 18.6811 51.7651C20.6079 51.9369 22.5447 51.9543 24.474 51.8159C25.4431 51.7451 26.3942 51.6323 27.3393 51.4731H27.3403C27.808 51.3964 28.2759 51.3108 28.7406 51.2163L29.1049 51.1372C29.2239 51.1105 29.3455 51.0843 29.4672 51.0591C29.7201 50.9962 29.9794 50.9627 30.2397 50.9595V50.9585C30.2423 50.9584 30.2449 50.9586 30.2475 50.9585V50.9595Z" fill="#2E4049" stroke="#2E4049" stroke-width="0.5"/>
</svg>
