<svg width="62" height="60" viewBox="0 0 62 60" fill="none" xmlns="http://www.w3.org/2000/svg">
<path d="M54.5123 35.178C53.1272 36.1666 51.0461 37.0176 48.4644 37.6965C43.8555 38.9075 37.5153 39.6536 30.5348 39.6536C23.553 39.6536 17.2142 38.9075 12.6041 37.6965C10.0223 37.0196 7.93983 36.1688 6.55527 35.1799C7.06533 38.2677 8.36364 41.0998 10.235 43.4583C12.7404 46.6177 16.2724 48.9301 20.3102 49.8801C20.8321 50.0031 21.2773 50.2939 21.5924 50.6917C21.9071 51.089 22.0894 51.5873 22.0894 52.1243V53.7717H39.5738V51.9739C39.5739 51.4493 39.7469 50.962 40.0475 50.5696C40.3493 50.1772 40.7769 49.8833 41.2828 49.7473H41.2838C45.1947 48.7015 48.5962 46.372 51.0035 43.2415C52.7838 40.9263 54.0173 38.1733 54.5123 35.178ZM30.5338 26.4866C23.6767 26.4866 17.4874 27.2144 13.0289 28.386C10.9068 28.9434 9.20604 29.5796 8.0416 30.2561C7.45927 30.5944 7.02209 30.9366 6.733 31.2747C6.44497 31.6115 6.31407 31.9311 6.31406 32.2336C6.31406 32.5362 6.44494 32.8559 6.733 33.1926C7.02209 33.5306 7.45926 33.8729 8.0416 34.2112C9.20604 34.8875 10.9069 35.5233 13.0289 36.0813C17.4886 37.2529 23.6767 37.9817 30.5338 37.9817C37.3909 37.9817 43.5801 37.2529 48.0387 36.0813C50.1608 35.5238 51.8615 34.8877 53.026 34.2112C53.6083 33.8729 54.0455 33.5306 54.3346 33.1926C54.6226 32.8558 54.7535 32.5361 54.7535 32.2336C54.7535 31.9311 54.6226 31.6114 54.3346 31.2747C54.0455 30.9367 53.6083 30.5943 53.026 30.2561C51.8615 29.5798 50.1607 28.944 48.0387 28.386C43.579 27.2144 37.3909 26.4866 30.5338 26.4866ZM23.0435 4.55396C23.5053 4.55412 23.8805 4.92905 23.8805 5.39087C23.8805 6.56638 23.2026 7.62485 22.5826 8.60376C22.312 9.03146 22.0505 9.44458 21.856 9.84302C21.661 10.2427 21.5456 10.6034 21.5455 10.925C21.5455 11.2468 21.6609 11.6082 21.856 12.0081C22.0505 12.4065 22.312 12.8197 22.5826 13.2473C23.2013 14.2259 23.8805 15.2847 23.8805 16.4602C23.8804 17.342 23.4987 18.1577 23.0465 18.9231L22.5826 19.6721C22.312 20.0998 22.0505 20.5129 21.856 20.9114C21.661 21.3111 21.5455 21.6718 21.5455 21.9934C21.5455 22.4553 21.1705 22.8303 20.7086 22.8303C20.2467 22.8303 19.8717 22.4553 19.8717 21.9934C19.8717 20.8178 20.5495 19.7595 21.1695 18.7805L21.5611 18.1497C21.6844 17.9433 21.7979 17.7404 21.8951 17.5413C22.0902 17.1416 22.2065 16.7809 22.2066 16.4592C22.2066 16.1375 22.0903 15.7761 21.8951 15.3762C21.7006 14.9779 21.4401 14.5645 21.1695 14.137C20.5509 13.1584 19.8717 12.0995 19.8717 10.925C19.8718 9.74949 20.5494 8.69101 21.1695 7.71313L21.5611 7.08228C21.6844 6.87582 21.7979 6.67298 21.8951 6.47388C22.0903 6.07386 22.2066 5.71261 22.2066 5.39087C22.2066 4.92895 22.5816 4.55396 23.0435 4.55396ZM31.7008 4.55396C32.1626 4.55408 32.5377 4.92903 32.5377 5.39087C32.5377 6.56647 31.8585 7.62516 31.2398 8.60376C30.9692 9.03146 30.7078 9.44458 30.5133 9.84302C30.3182 10.2427 30.2028 10.6034 30.2027 10.925C30.2027 11.2468 30.3181 11.6082 30.5133 12.0081C30.7078 12.4065 30.9692 12.8196 31.2398 13.2473C31.8585 14.2259 32.5377 15.2847 32.5377 16.4602C32.5376 17.3411 32.156 18.1574 31.7037 18.9231L31.2398 19.6721C30.9692 20.0998 30.7078 20.5129 30.5133 20.9114C30.3182 21.3111 30.2027 21.6718 30.2027 21.9934C30.2027 22.4553 29.8277 22.8303 29.3658 22.8303C28.9039 22.8303 28.5289 22.4553 28.5289 21.9934C28.5289 20.8178 29.2081 19.7591 29.8268 18.7805L30.2184 18.1497C30.3417 17.9432 30.4561 17.7404 30.5533 17.5413C30.7484 17.1416 30.8638 16.7808 30.8639 16.4592C30.8639 16.1375 30.7485 15.7761 30.5533 15.3762C30.3588 14.9778 30.0974 14.5647 29.8268 14.137V14.1379C29.2067 13.159 28.5289 12.0996 28.5289 10.925C28.529 9.74948 29.208 8.69064 29.8268 7.71313L30.2184 7.08228C30.3417 6.87569 30.4561 6.6731 30.5533 6.47388C30.7485 6.07386 30.8639 5.71261 30.8639 5.39087C30.8639 4.92895 31.2389 4.55396 31.7008 4.55396ZM40.358 4.55396C40.8198 4.55405 41.1949 4.92901 41.1949 5.39087C41.1949 6.5664 40.5171 7.62483 39.8971 8.60376C39.6264 9.03146 39.365 9.44458 39.1705 9.84302C38.9754 10.2427 38.86 10.6034 38.86 10.925C38.86 11.2468 38.9753 11.6082 39.1705 12.0081C39.365 12.4065 39.6265 12.8196 39.8971 13.2473C40.5157 14.2259 41.1949 15.2846 41.1949 16.4602C41.1948 17.6358 40.5158 18.6946 39.8971 19.6721C39.6264 20.0998 39.365 20.5129 39.1705 20.9114C38.9754 21.3111 38.86 21.6718 38.86 21.9934C38.86 22.4553 38.485 22.8303 38.023 22.8303C37.5612 22.8303 37.1861 22.4553 37.1861 21.9934C37.1861 20.8179 37.8639 19.7595 38.484 18.7805C38.7546 18.3528 39.016 17.9397 39.2105 17.5413C39.4056 17.1416 39.521 16.7808 39.5211 16.4592C39.5211 16.1375 39.4057 15.7761 39.2105 15.3762C39.016 14.9778 38.7546 14.5647 38.484 14.137C37.8653 13.1584 37.1861 12.0995 37.1861 10.925C37.1863 9.74949 37.8639 8.69101 38.484 7.71313C38.7545 7.28498 39.0161 6.87233 39.2105 6.47388C39.4057 6.07386 39.5211 5.71261 39.5211 5.39087C39.5211 4.92895 39.8961 4.55396 40.358 4.55396ZM56.4273 32.2336C56.4273 36.7466 54.8941 40.9219 52.3238 44.2629C49.697 47.6781 45.9847 50.2217 41.7144 51.3645C41.5689 51.4032 41.4518 51.4834 41.3727 51.5862C41.2939 51.6884 41.2457 51.8235 41.2457 51.9758V54.6096C41.2456 55.0714 40.8706 55.4465 40.4088 55.4465H21.2506C20.7889 55.4463 20.4138 55.0713 20.4137 54.6096V52.1252C20.4137 51.9677 20.3641 51.831 20.2828 51.7288L20.2818 51.7278C20.2014 51.6256 20.0808 51.5456 19.9293 51.51H19.9283C15.5149 50.4714 11.6589 47.9472 8.92441 44.5002C6.24402 41.1213 4.63925 36.8554 4.63925 32.2346V32.2112L4.65097 31.9915C4.75687 30.8994 5.57067 29.9241 6.85214 29.0852C8.227 28.1853 10.1954 27.4036 12.6021 26.7708H12.6031C17.2121 25.5598 23.5523 24.8137 30.5328 24.8137C37.5134 24.8137 43.8536 25.5597 48.4625 26.7708L49.3443 27.0149C51.3533 27.5999 53.0113 28.2957 54.2144 29.0833C55.5816 29.9781 56.4162 31.0288 56.4273 32.2102V32.2336Z" fill="#2E4049" stroke="#2E4049" stroke-width="0.5"/>
</svg>
