<svg width="70" height="70" viewBox="0 0 70 70" fill="none" xmlns="http://www.w3.org/2000/svg">
<circle cx="35" cy="35" r="35" fill="#73BE5F"/>
<path d="M55.4984 29.9956C55.3303 29.8242 55.0849 29.7553 54.853 29.8141L53.3923 30.1788C52.4175 30.4226 51.6056 31.1218 51.219 32.048L48.3447 38.9461C48.2019 39.289 48.3649 39.6823 48.7061 39.8252C49.049 39.968 49.4423 39.805 49.5852 39.4638L52.4595 32.5657C52.683 32.0278 53.1537 31.6244 53.7168 31.4832L54.0597 31.3975C53.3739 33.8784 51.7367 39.8051 51.1888 41.7466C51.103 42.0508 50.94 42.3282 50.7164 42.5534L44.4534 48.8164C44.3543 48.9155 44.2887 49.0433 44.2652 49.1811L43.5929 53.2151C43.5323 53.5816 43.7794 53.9278 44.1459 53.99C44.1828 53.9967 44.2198 54.0001 44.2568 54.0001C44.5795 54.0001 44.8653 53.7681 44.9191 53.4387L45.5561 49.6165L51.6659 43.5067C52.0525 43.1201 52.3349 42.6394 52.4828 42.1149C53.1787 39.6441 55.6361 30.7387 55.6629 30.6484C55.7268 30.4181 55.6629 30.171 55.4949 29.9995L55.4984 29.9956Z" fill="white"/>
<path d="M44.0249 45.7689L47.4875 42.8006C48.4523 41.9736 48.612 40.5281 47.8489 39.5095C47.0589 38.4573 45.5529 38.2303 44.4872 39.0052L39.0263 42.9771C38.5422 43.3284 38.2077 43.8444 38.0833 44.4276L36.2075 53.185C36.1302 53.5481 36.3621 53.9045 36.7252 53.9835C36.7722 53.9935 36.8193 53.9986 36.8664 53.9986C37.1756 53.9986 37.4547 53.7834 37.5219 53.4674L39.3977 44.71C39.4532 44.4512 39.6028 44.2209 39.8179 44.0646L45.2788 40.0927C45.7529 39.7498 46.4218 39.8507 46.7731 40.318C47.1127 40.7701 47.0421 41.4139 46.6118 41.7803L43.1492 44.7486C42.8668 44.9907 42.8349 45.4143 43.0753 45.6966C43.3173 45.9773 43.7409 46.0109 44.0232 45.7706L44.0249 45.7689Z" fill="white"/>
<path d="M25.4249 49.1807C25.4014 49.0429 25.3359 48.9151 25.2367 48.8159L18.9737 42.553C18.7502 42.3294 18.5871 42.0504 18.5014 41.7462C17.9551 39.8031 16.3163 33.8782 15.6305 31.3971L15.9734 31.4828C16.5381 31.624 17.0088 32.0274 17.2307 32.5653L20.1049 39.4634C20.2478 39.8063 20.6411 39.9676 20.984 39.8247C21.3269 39.6819 21.4883 39.2885 21.3454 38.9456L18.4711 32.0475C18.0845 31.1197 17.2727 30.4205 16.2978 30.1784L14.8371 29.8137C14.6052 29.7565 14.3598 29.8254 14.1917 29.9952C14.0236 30.1667 13.9614 30.4121 14.0236 30.644C14.0472 30.7348 16.5079 39.6398 17.2038 42.1106C17.3517 42.635 17.6341 43.1174 18.0206 43.5023L24.1304 49.6121L24.7675 53.4344C24.8213 53.7638 25.107 53.9958 25.4298 53.9958C25.4667 53.9958 25.5037 53.9924 25.5407 53.9857C25.9071 53.9252 26.1542 53.5789 26.0937 53.2108L25.4214 49.1768L25.4249 49.1807Z" fill="white"/>
<path d="M31.6105 44.4276C31.4861 43.8427 31.15 43.3284 30.6676 42.9771L25.2067 39.0052C24.1427 38.2303 22.6349 38.4573 21.845 39.5095C21.0819 40.5281 21.2399 41.9736 22.2063 42.8006L25.6689 45.7689C25.9513 46.011 26.3748 45.979 26.6169 45.695C26.8589 45.4126 26.827 44.989 26.5429 44.747L23.0804 41.7786C22.6501 41.4105 22.5795 40.7667 22.919 40.3163C23.2686 39.849 23.941 39.7482 24.4133 40.0911L29.8742 44.0629C30.0893 44.2192 30.2373 44.4478 30.2944 44.7084L32.1702 53.4658C32.2375 53.7818 32.5165 53.9969 32.8258 53.9969C32.8728 53.9969 32.9199 53.9919 32.9669 53.9818C33.33 53.9045 33.562 53.5465 33.4846 53.1834L31.6088 44.426L31.6105 44.4276Z" fill="white"/>
<path d="M26.1074 28.4496H30.1414C30.1414 29.5623 31.0457 30.4666 32.1585 30.4666H37.5372C38.6499 30.4666 39.5542 29.5623 39.5542 28.4496H43.5882C44.7009 28.4496 45.6052 27.5453 45.6052 26.4326V25.7602C45.6052 24.0542 44.5396 22.5935 43.0403 22.0052C43.3832 21.5547 43.5882 20.9916 43.5882 20.3832C43.5882 18.9007 42.3814 17.6938 40.8989 17.6938C39.4164 17.6938 38.2095 18.9007 38.2095 20.3832C38.2095 20.9917 38.4129 21.5531 38.7558 22.0052C38.7087 22.0237 38.66 22.0422 38.6112 22.0624C38.2717 22.2103 38.1154 22.6069 38.265 22.9465C38.4129 23.286 38.8095 23.4423 39.1491 23.2927C39.4886 23.1448 39.8517 23.0692 40.2248 23.0692H41.5695C43.052 23.0692 44.2589 24.276 44.2589 25.7585V26.4309C44.2589 26.8007 43.9563 27.1032 43.5865 27.1032H39.4953C39.2567 25.693 38.2851 24.5298 36.9875 24.0205C37.3304 23.5701 37.5355 23.007 37.5355 22.3985C37.5355 20.916 36.3286 19.7092 34.8461 19.7092C33.3636 19.7092 32.1568 20.916 32.1568 22.3985C32.1568 23.007 32.3618 23.5701 32.7047 24.0205C31.4071 24.5315 30.4356 25.6946 30.1969 27.1032H26.1057C25.7359 27.1032 25.4334 26.8007 25.4334 26.4309V25.7585C25.4334 24.276 26.6402 23.0692 28.1227 23.0692H29.4674C29.8406 23.0692 30.2036 23.1448 30.5431 23.2927C30.8827 23.4407 31.2793 23.286 31.4273 22.9465C31.5752 22.607 31.4206 22.2103 31.081 22.0624C31.034 22.0422 30.9869 22.022 30.9382 22.0052C31.281 21.5547 31.4844 20.9916 31.4844 20.3832C31.4844 18.9007 30.2776 17.6938 28.7951 17.6938C27.3126 17.6938 26.1057 18.9007 26.1057 20.3832C26.1057 20.9917 26.3108 21.5548 26.6536 22.0052C25.1543 22.5935 24.0887 24.0558 24.0887 25.7602V26.4326C24.0887 27.5453 24.993 28.4496 26.1057 28.4496H26.1074ZM40.8989 19.0368C41.6401 19.0368 42.2435 19.6403 42.2435 20.3815C42.2435 21.1228 41.6401 21.7262 40.8989 21.7262C40.1576 21.7262 39.5542 21.1228 39.5542 20.3815C39.5542 19.6403 40.1576 19.0368 40.8989 19.0368ZM34.848 21.0539C35.5893 21.0539 36.1927 21.6573 36.1927 22.3985C36.1927 23.1398 35.5893 23.7432 34.848 23.7432C34.1068 23.7432 33.5033 23.1398 33.5033 22.3985C33.5033 21.6573 34.1068 21.0539 34.848 21.0539ZM34.1757 25.0879H35.5204C37.0029 25.0879 38.2097 26.2948 38.2097 27.7773V28.4496C38.2097 28.8194 37.9072 29.1219 37.5374 29.1219H32.1587C31.7889 29.1219 31.4863 28.8194 31.4863 28.4496V27.7806V27.7773V27.7739C31.4863 26.2914 32.6932 25.0879 34.1757 25.0879ZM28.797 19.0371C29.5382 19.0371 30.1417 19.6405 30.1417 20.3817C30.1417 21.123 29.5382 21.7264 28.797 21.7264C28.0557 21.7264 27.4523 21.123 27.4523 20.3817C27.4523 19.6405 28.0557 19.0371 28.797 19.0371Z" fill="white"/>
<path d="M45.874 32.3487C45.995 32.4394 46.1362 32.4831 46.2774 32.4831C46.4825 32.4831 46.6842 32.3907 46.8153 32.2142C47.7633 30.9502 48.4238 29.6828 48.8692 28.1297C48.9869 27.9684 49.8307 26.9027 51.4141 26.9733C51.1166 27.612 50.5518 28.4491 49.6391 28.4491C49.2676 28.4491 48.9668 28.75 48.9668 29.1214C48.9668 29.4929 49.2676 29.7938 49.6391 29.7938C52.1519 29.7938 52.947 26.7246 52.9806 26.5951C53.0714 26.2354 52.8529 25.869 52.4915 25.7799C51.1418 25.4421 50.0811 25.6858 49.3063 26.0758C49.429 25.2656 49.5147 24.3781 49.5668 23.3898C49.7551 23.1477 50.5921 22.2014 52.0848 22.2669C51.7872 22.9057 51.2225 23.7427 50.3098 23.7427C49.9383 23.7427 49.6374 24.0436 49.6374 24.4151C49.6374 24.7865 49.9383 25.0874 50.3098 25.0874C52.8226 25.0874 53.6177 22.0182 53.6513 21.8888C53.7421 21.529 53.5235 21.1626 53.1622 21.0736C51.5956 20.6819 50.419 21.0702 49.6274 21.5643C49.6324 21.2786 49.6341 20.9844 49.6358 20.6836C50.0896 20.2533 50.9821 19.2515 50.9821 18.0278C50.9821 16.4192 49.4458 15.1973 49.3786 15.1452C49.1349 14.9536 48.7936 14.9536 48.5499 15.1452C48.4844 15.1956 46.9464 16.4192 46.9464 18.0278C46.9464 19.2515 47.8372 20.2533 48.2911 20.6836C48.2709 26.311 47.6608 28.8424 45.7362 31.4074C45.5143 31.7033 45.5748 32.1269 45.8706 32.3487L45.874 32.3487ZM48.9668 16.6058C49.2895 16.9706 49.6391 17.5 49.6391 18.0278C49.6391 18.5539 49.2895 19.0834 48.9668 19.4498C48.644 19.0851 48.2944 18.5556 48.2944 18.0278C48.2944 17.5017 48.644 16.9723 48.9668 16.6058Z" fill="white"/>
<path d="M19.3836 25.0877C19.755 25.0877 20.0559 24.7868 20.0559 24.4153C20.0559 24.0439 19.755 23.743 19.3836 23.743C18.4725 23.743 17.9078 22.9026 17.6086 22.2655C19.0978 22.1983 19.9315 23.1395 20.1265 23.3883C20.1803 24.3767 20.2643 25.2642 20.3871 26.0743C19.6122 25.6827 18.5516 25.4423 17.2019 25.7785C16.8422 25.8693 16.6236 26.234 16.7127 26.5937C16.7464 26.7248 17.5414 29.7924 20.0543 29.7924C20.4257 29.7924 20.7266 29.4915 20.7266 29.12C20.7266 28.7486 20.4257 28.4477 20.0543 28.4477C19.1432 28.4477 18.5785 27.6073 18.2793 26.9702C19.8458 26.8996 20.6913 27.9485 20.8241 28.1283C21.2678 29.6814 21.9301 30.9488 22.8781 32.2128C23.0092 32.3893 23.2109 32.4817 23.416 32.4817C23.5571 32.4817 23.6983 32.438 23.8194 32.3472C24.1169 32.1254 24.1757 31.7018 23.9538 31.406C22.0309 28.841 21.4191 26.3095 21.3989 20.6821C21.8528 20.2518 22.7436 19.25 22.7436 18.0264C22.7436 16.4178 21.2073 15.1958 21.1401 15.1437C20.8963 14.9521 20.5551 14.9521 20.3114 15.1437C20.2459 15.1941 18.7079 16.4178 18.7079 18.0264C18.7079 19.2534 19.5987 20.2535 20.0542 20.6821C20.0542 20.983 20.0576 21.2771 20.0626 21.5629C19.271 21.0687 18.0927 20.6788 16.5278 21.0721C16.1681 21.1629 15.9496 21.5276 16.0387 21.8873C16.0723 22.0184 16.8674 25.0859 19.3802 25.0859L19.3836 25.0877ZM20.7282 16.6061C21.051 16.9708 21.4006 17.5003 21.4006 18.0281C21.4006 18.5542 21.051 19.0836 20.7282 19.4501C20.4055 19.0853 20.0559 18.5559 20.0559 18.0281C20.0559 17.502 20.4055 16.9725 20.7282 16.6061Z" fill="white"/>
</svg>
