<svg width="57" height="60" viewBox="0 0 57 60" fill="none" xmlns="http://www.w3.org/2000/svg">
<path d="M51.6078 28.6429L48.6451 16.8759C48.3291 15.6245 47.537 14.568 46.4101 13.8971C46.0338 13.6735 45.6367 13.5053 45.2271 13.3884C46.2999 12.5206 46.986 11.2036 46.986 9.73066C46.986 7.12118 44.8362 5 42.1916 5C39.5471 5 37.3973 7.12123 37.3973 9.73066C37.3973 11.8477 38.8131 13.6448 40.7612 14.2459C40.2602 14.6316 39.8693 15.1055 39.6281 15.6409L35.6841 24.3761L28.8814 28.2205C28.5238 28.4195 28.2286 28.6739 27.9999 28.9632C27.7712 28.6719 27.476 28.4195 27.1205 28.2185L20.3157 24.3761L16.3716 15.6409C16.1284 15.1034 15.7396 14.6316 15.2385 14.2459C17.1845 13.6449 18.6025 11.8478 18.6025 9.73066C18.6025 7.12118 16.4527 5 13.8081 5C11.1635 5 9.01374 7.12123 9.01374 9.73066C9.01374 11.2036 9.69986 12.5206 10.7727 13.3884C10.3631 13.5053 9.96598 13.6756 9.58963 13.8971C8.46275 14.5659 7.66853 15.6245 7.35462 16.8759L4.39191 28.6429C4.00104 30.1918 4.43142 31.8596 5.51256 33.0515V51.5187C5.51256 53.4388 7.09477 55 9.04077 55C10.9868 55 12.569 53.4388 12.569 51.5187V33.2873C13.2322 32.6575 13.6979 31.8636 13.9225 30.9774L15.0597 26.458L15.6773 27.6458C15.9475 28.1627 16.3675 28.5771 16.8936 28.8438L24.32 33.0411C25.2265 33.5519 26.2286 33.5704 27.0686 33.0862C27.4407 32.8729 27.7568 32.5775 28 32.2349C28.2433 32.5795 28.5593 32.8749 28.9294 33.0862C29.7693 33.5683 30.7714 33.5519 31.6779 33.0411L39.1044 28.8438C39.6304 28.5771 40.0504 28.1627 40.3207 27.6458L40.9382 26.458L42.0755 30.9774C42.2979 31.8636 42.7636 32.6554 43.429 33.2873V51.5166C43.429 53.4367 45.0112 54.9979 46.9572 54.9979C48.9032 54.9979 50.4854 53.4367 50.4854 51.5166L50.4875 33.0515C51.5686 31.8596 51.9987 30.1918 51.6078 28.6429ZM38.4991 9.72827C38.4991 7.7199 40.1562 6.08488 42.1916 6.08488C44.227 6.08488 45.8841 7.7199 45.8841 9.72827C45.8841 11.431 44.6927 12.865 43.0898 13.2629C42.9712 13.2814 42.8548 13.304 42.7384 13.3327C42.5596 13.3594 42.3766 13.3737 42.1916 13.3737C40.1562 13.3717 38.4991 11.7387 38.4991 9.72827ZM10.1154 9.72827C10.1154 7.7199 11.7725 6.08488 13.8079 6.08488C15.8433 6.08488 17.5004 7.7199 17.5004 9.72827C17.5004 11.7366 15.8433 13.3717 13.8079 13.3717C13.6229 13.3717 13.4399 13.3573 13.2611 13.3306C13.1447 13.304 13.0283 13.2814 12.9098 13.2609C11.3068 12.867 10.1154 11.433 10.1154 9.72827ZM26.515 32.1469C26.1616 32.35 25.5898 32.5059 24.8684 32.0976L17.4292 27.8942C17.4208 27.8901 17.4125 27.886 17.4042 27.8819C17.0799 27.7198 16.822 27.4675 16.6578 27.1495L15.3688 24.6734L13.2045 20.5131C13.0652 20.2464 12.7325 20.1397 12.4622 20.2772C12.192 20.4146 12.0859 20.7428 12.2231 21.0095L14.2939 24.9873L12.851 30.7148C12.6618 31.4636 12.2481 32.1283 11.6555 32.6371C11.535 32.7396 11.4664 32.8894 11.4664 33.0474V51.5167C11.4664 52.8378 10.3769 53.9107 9.04005 53.9107C7.70113 53.9107 6.61375 52.8357 6.61375 51.5167V32.8362C6.61375 32.6926 6.55761 32.5572 6.45574 32.4547C5.5243 31.5233 5.14385 30.1632 5.45985 28.9056L8.42255 17.1386C8.6658 16.1682 9.2833 15.3498 10.1565 14.8307C10.7615 14.4717 11.4351 14.2871 12.1192 14.2871C12.3146 14.2871 12.51 14.3035 12.7055 14.3343C12.8178 14.3609 12.9321 14.3835 13.0465 14.402C14.1442 14.6748 15.0112 15.3025 15.3626 16.0841L19.3836 24.9795C19.4314 25.0842 19.5125 25.1724 19.6123 25.2298L26.5709 29.1625C27.2923 29.5707 27.4461 30.1369 27.4482 30.539C27.4503 31.1791 27.0761 31.8253 26.5147 32.1473L26.515 32.1469ZM49.5433 32.4546C49.4414 32.5572 49.3852 32.6926 49.3852 32.8362V51.5187C49.3852 52.8398 48.2958 53.9127 46.9589 53.9127C45.62 53.9127 44.5326 52.8378 44.5326 51.5187V33.0494C44.5326 32.8914 44.464 32.7417 44.3434 32.6391C43.7509 32.1303 43.3372 31.4656 43.148 30.7169L41.7051 24.9893L43.7759 21.0115C43.9152 20.7449 43.8091 20.4166 43.5368 20.2792C43.2665 20.1417 42.9338 20.2464 42.7945 20.5151L40.6302 24.6734L39.3412 27.1495C39.1769 27.4675 38.917 27.7198 38.5948 27.8819C38.5865 27.886 38.5782 27.8901 38.5698 27.8942L31.1306 32.0976C30.4092 32.5059 29.8353 32.3499 29.484 32.1468C28.9226 31.8248 28.5484 31.1785 28.5504 30.5385C28.5525 30.1364 28.7043 29.5702 29.4278 29.162L36.3864 25.2293C36.4883 25.1719 36.5673 25.0837 36.6151 24.979L40.6319 16.0821C40.9854 15.3005 41.8503 14.6727 42.948 14.3999C43.0686 14.3814 43.1871 14.3568 43.3056 14.3281C44.1789 14.1968 45.0666 14.3691 45.8401 14.8286C46.7153 15.3477 47.3308 16.1683 47.574 17.1365L50.5367 28.9036C50.8548 30.1631 50.4747 31.5232 49.5433 32.4546ZM27.6109 23.4279C27.7149 23.5305 27.8542 23.5879 27.9997 23.5879C28.1453 23.5879 28.2866 23.5305 28.3885 23.4279L33.2287 18.65C34.7776 17.1217 34.7776 14.6333 33.2287 13.1047C31.8024 11.6974 29.5549 11.5846 27.9977 12.7662C26.4404 11.5846 24.193 11.6974 22.7667 13.1047C21.2178 14.6331 21.2178 17.1215 22.7667 18.65L27.6109 23.4279ZM23.5484 13.8745C24.1077 13.3226 24.8437 13.0457 25.5797 13.0457C26.3157 13.0457 27.0517 13.3226 27.6109 13.8745C27.8251 14.0858 28.1744 14.0858 28.3906 13.8745C29.5112 12.7687 31.3325 12.7687 32.4531 13.8745C32.9957 14.4099 33.2951 15.1218 33.2951 15.8788C33.2951 16.6357 32.9957 17.3476 32.4531 17.883L28.0018 22.2752L23.5504 17.883C23.0078 17.3476 22.7084 16.6357 22.7084 15.8788C22.7063 15.1218 23.0058 14.4099 23.5484 13.8745Z" fill="#2E4049" stroke="#2E4049" stroke-width="0.5"/>
</svg>
