<svg width="60" height="60" viewBox="0 0 60 60" fill="none" xmlns="http://www.w3.org/2000/svg">
<path d="M10.3125 3.75C8.77034 3.75 7.50003 5.02031 7.50003 6.5625V8.50125C7.49976 9.62207 7.35321 10.7381 7.06409 11.8209L4.24784 22.3828C3.91714 23.6236 3.74979 24.9022 3.75003 26.1862V28.5938C3.75079 29.8729 4.10037 31.1275 4.76113 32.2228C5.4219 33.318 6.36884 34.2123 7.50003 34.8094V53.4375C7.50003 54.9797 8.77034 56.25 10.3125 56.25H49.6875C51.2297 56.25 52.5 54.9797 52.5 53.4375V34.8094C53.6311 34.2124 54.5779 33.3182 55.2387 32.2232C55.8994 31.1281 56.2491 29.8736 56.25 28.5947V26.1872C56.25 24.9028 56.0832 23.625 55.7522 22.3837L52.936 11.8219C52.6469 10.7393 52.5004 9.62363 52.5 8.50312V6.5625C52.5 5.02031 51.2297 3.75 49.6875 3.75H10.3125ZM10.3125 5.625H49.6875C50.2163 5.625 50.625 6.03375 50.625 6.5625V8.50125C50.625 8.79375 50.6344 9.08437 50.6532 9.375H9.34691C9.36472 9.08437 9.37503 8.79375 9.37503 8.50125V6.5625C9.37503 6.03375 9.78284 5.625 10.3125 5.625ZM9.11534 11.25H50.8857C50.9522 11.6034 51.03 11.9559 51.1238 12.3047L53.94 22.8666C53.9897 23.0559 54.0319 23.2472 54.0732 23.4384H5.92784C5.97003 23.2472 6.01128 23.0559 6.06191 22.8666L8.87816 12.3047C8.97097 11.9559 9.04878 11.6034 9.11534 11.25ZM5.65597 25.3125H54.3441C54.3638 25.6031 54.375 25.8937 54.375 26.1862V28.5938C54.375 31.4662 52.0922 33.75 49.2188 33.75C46.3453 33.75 44.0625 31.4662 44.0625 28.5938V28.125C44.0625 27.8764 43.9638 27.6379 43.7879 27.4621C43.6121 27.2863 43.3737 27.1875 43.125 27.1875C42.8764 27.1875 42.6379 27.2863 42.4621 27.4621C42.2863 27.6379 42.1875 27.8764 42.1875 28.125C42.1875 31.2572 39.6957 33.75 36.5625 33.75C33.4294 33.75 30.9375 31.2572 30.9375 28.125C30.9375 27.8764 30.8388 27.6379 30.6629 27.4621C30.4871 27.2863 30.2487 27.1875 30 27.1875C29.7514 27.1875 29.5129 27.2863 29.3371 27.4621C29.1613 27.6379 29.0625 27.8764 29.0625 28.125C29.0625 31.2572 26.5707 33.75 23.4375 33.75C20.3044 33.75 17.8125 31.2572 17.8125 28.125C17.8125 27.8764 17.7138 27.6379 17.5379 27.4621C17.3621 27.2863 17.1237 27.1875 16.875 27.1875C16.6264 27.1875 16.3879 27.2863 16.2121 27.4621C16.0363 27.6379 15.9375 27.8764 15.9375 28.125V28.5938C15.9375 31.4662 13.6547 33.75 10.7813 33.75C7.90784 33.75 5.62503 31.4662 5.62503 28.5938V26.1862C5.62503 25.8937 5.63534 25.6031 5.65597 25.3125ZM30 31.56C31.2563 33.945 33.6825 35.625 36.5625 35.625C39.3694 35.625 41.7263 34.0144 43.0125 31.7288C44.1722 34.0125 46.4822 35.625 49.2188 35.625C49.6911 35.6254 50.1622 35.5783 50.625 35.4844V53.4375C50.625 53.9663 50.2163 54.375 49.6875 54.375H28.125V46.875C28.125 42.7359 24.7641 39.375 20.625 39.375C16.486 39.375 13.125 42.7359 13.125 46.875V54.375H10.3125C9.78378 54.375 9.37503 53.9663 9.37503 53.4375V35.4844C9.82972 35.5762 10.2994 35.625 10.7813 35.625C13.5169 35.625 15.8269 34.0134 16.9885 31.7288C18.2747 34.0144 20.6307 35.625 23.4385 35.625C26.3175 35.625 28.7428 33.945 30 31.56ZM20.625 41.25C23.7572 41.25 26.25 43.7428 26.25 46.875V54.375H15V46.875C15 43.7428 17.4928 41.25 20.625 41.25Z" fill="#2E4049"/>
</svg>
