<svg width="200" height="57" viewBox="0 0 200 57" fill="none" xmlns="http://www.w3.org/2000/svg">
<path d="M139.31 36.2434V3.95026H166.681C169.222 3.95026 171.061 4.43605 172.199 5.41646C173.345 6.39951 173.913 7.97898 173.913 10.1592V17.2969C173.913 19.4348 173.345 21.0053 172.199 21.9872C171.061 22.9789 169.222 23.4745 166.681 23.4745H146.635V36.2434H139.31ZM1.42075 49.825V52.1141H5.78204C6.10541 52.1141 6.32951 52.0524 6.45424 51.9275C6.57915 51.804 6.64042 51.5815 6.64042 51.2658V50.674C6.64042 50.3628 6.57589 50.1412 6.44802 50.014C6.32152 49.8863 6.0989 49.825 5.78204 49.825H1.42075ZM166.267 53.2146V45.6918H173.845V46.8097H167.687V48.7424H171.398V49.8598H167.687V52.1141H173.913V53.2146H166.267ZM162.643 46.8097H157.388V52.0784H162.643V50.2857L164.064 50.5547V51.4373C164.064 52.1258 163.936 52.5934 163.679 52.8416C163.421 53.0905 162.933 53.2146 162.217 53.2146H157.796C157.081 53.2146 156.595 53.0934 156.344 52.854C156.092 52.6145 155.968 52.1442 155.968 51.4373V47.4786C155.968 46.7778 156.095 46.3072 156.349 46.0619C156.604 45.8161 157.086 45.6918 157.796 45.6918H162.217C162.933 45.6918 163.421 45.8161 163.679 46.067C163.936 46.3189 164.064 46.7894 164.064 47.4786V48.1887L162.643 48.4225V46.8097ZM146 47.2004C146.035 47.4195 146.059 47.6414 146.077 47.8666C146.095 48.0941 146.103 48.3184 146.103 48.5439V53.2146H144.795V45.6918H145.879L151.4 50.6061C151.562 50.7439 151.717 50.8984 151.864 51.0642C152.012 51.2325 152.157 51.425 152.302 51.6379C152.262 51.4129 152.232 51.1824 152.211 50.9522C152.19 50.7203 152.181 50.4814 152.181 50.2332V45.6918H153.489V53.2146H152.519L146.885 48.2301C146.687 48.0461 146.517 47.8723 146.376 47.7059C146.234 47.54 146.109 47.3722 146 47.2004ZM135.304 53.2146V45.6918H142.882V46.8097H136.724V48.7424H140.435V49.8598H136.724V52.1141H142.951V53.2146H135.304ZM126.626 53.2146V45.6918H128.046V52.0784H133.899V53.2146H126.626ZM117.949 53.2146V45.6918H119.369V52.0784H125.222V53.2146H117.949ZM108.457 53.2146V45.6918H116.035V46.8097H109.878V48.7424H113.588V49.8598H109.878V52.1141H116.103V53.2146H108.457ZM104.833 46.8097H99.5787V52.0784H104.833V50.2857L106.254 50.5547V51.4373C106.254 52.1258 106.126 52.5934 105.869 52.8416C105.611 53.0905 105.124 53.2146 104.407 53.2146H99.9871C99.2709 53.2146 98.7858 53.0934 98.534 52.854C98.2825 52.6145 98.1587 52.1442 98.1587 51.4373V47.4786C98.1587 46.7778 98.2858 46.3072 98.5392 46.0619C98.7941 45.8161 99.2762 45.6918 99.9871 45.6918H104.407C105.124 45.6918 105.611 45.8161 105.869 46.067C106.126 46.3189 106.254 46.7894 106.254 47.4786V48.1887L104.833 48.4225V46.8097ZM87.4857 53.2146L91.265 49.3659L87.4264 45.6918H89.3502L92.0635 48.4225L94.5514 45.6918H96.3009L92.8415 49.1856L97.0733 53.2146H95.0788L92.0453 50.1645L89.3144 53.2146H87.4857ZM79.1479 53.2146V45.6918H86.7267V46.8097H80.5688V48.7424H84.2796V49.8598H80.5688V52.1141H86.7945V53.2146H79.1479ZM68.7632 46.8097H62.8127V52.0784H68.7632V50.0346H65.6921V49.0112H70.1843V51.4373C70.1843 52.1258 70.0565 52.5934 69.7996 52.8416C69.5421 53.0905 69.0535 53.2146 68.3375 53.2146H63.2386C62.5229 53.2146 62.0343 53.0905 61.7774 52.8448C61.5195 52.6003 61.3934 52.132 61.3934 51.4373V47.4786C61.3934 46.7894 61.5226 46.3189 61.7838 46.067C62.0442 45.8161 62.5286 45.6918 63.2386 45.6918H68.3375C69.0388 45.6918 69.521 45.8161 69.7843 46.0651C70.0507 46.313 70.1843 46.7507 70.1843 47.3752V47.5908L68.7632 47.8336V46.8097ZM51.4252 47.2004C51.4604 47.4195 51.4842 47.6414 51.5025 47.8666C51.5201 48.0941 51.5281 48.3184 51.5281 48.5439V53.2146H50.2202V45.6918H51.3039L56.8248 50.6061C56.9879 50.7439 57.1416 50.8984 57.2891 51.0642C57.4373 51.2325 57.5821 51.425 57.7277 51.6379C57.6862 51.4129 57.6563 51.1824 57.6359 50.9522C57.6154 50.7203 57.6059 50.4814 57.6059 50.2332V45.6918H58.9143V53.2146H57.9439L52.3095 48.2301C52.1116 48.0461 51.9425 47.8723 51.8005 47.7059C51.6588 47.54 51.5342 47.3722 51.4252 47.2004ZM47.5942 53.2146H46.1792V45.7098H47.5942V53.2146ZM38.8541 46.8097H36.0966V52.0784H38.8541C40.0792 52.0784 40.9519 51.8716 41.4702 51.4608C41.9879 51.0464 42.2452 50.3656 42.2452 49.4193C42.2452 48.4926 41.9847 47.8278 41.4608 47.4228C40.9373 47.0145 40.0677 46.8097 38.8541 46.8097ZM39.0102 45.6918C39.7271 45.6918 40.3305 45.7391 40.819 45.833C41.3067 45.9308 41.7095 46.0764 42.0255 46.2715C42.5408 46.5973 42.9433 47.0373 43.2331 47.5942C43.5198 48.1527 43.6647 48.765 43.6647 49.4372C43.6647 50.7006 43.2809 51.6469 42.5107 52.2736C41.7451 52.9011 40.5766 53.2146 39.0102 53.2146H34.6758V45.6918H39.0102ZM25.4179 53.2146V45.6918H26.839V52.0784H32.6916V53.2146H25.4179ZM22.7912 53.2146H21.3769V45.7098H22.7912V53.2146ZM11.8146 45.6918V52.0784H17.313V45.6918H18.7511V51.4373C18.7511 52.132 18.6239 52.6003 18.3661 52.8448C18.1086 53.0905 17.6199 53.2146 16.904 53.2146H12.2406C11.5243 53.2146 11.0361 53.0905 10.7791 52.8416C10.5217 52.5934 10.3938 52.1258 10.3938 51.4373V45.6918H11.8146ZM6.58737 48.1178V47.408C6.58737 47.1772 6.5278 47.0172 6.41232 46.9253C6.29759 46.8366 6.08725 46.7927 5.78204 46.7927H1.42075V48.7242H5.78204C6.11083 48.7242 6.32654 48.6798 6.43043 48.5937C6.53391 48.5083 6.58737 48.3485 6.58737 48.1178ZM0 53.2146V45.6918H6.35338C6.93032 45.6918 7.35088 45.8104 7.61091 46.0444C7.87162 46.2781 8.00144 46.6504 8.00144 47.1654V48.0317C8.00144 48.4285 7.89761 48.7298 7.6911 48.9377C7.4811 49.1408 7.14951 49.2714 6.69308 49.3216C7.13769 49.3693 7.47488 49.517 7.70806 49.7685C7.93908 50.0202 8.05461 50.357 8.05461 50.7771V51.7415C8.05461 52.2385 7.8746 52.6076 7.51628 52.8506C7.15859 53.0934 6.61078 53.2146 5.87719 53.2146H0ZM6.57183 26.4396H0V27.8034V28.6817C0 31.584 0.54735 33.5681 1.63303 34.642C2.72814 35.7063 4.84548 36.2434 7.98802 36.2434H26.4722C29.5725 36.2434 31.6803 35.7063 32.7961 34.6218C33.9012 33.547 34.4606 31.5637 34.4606 28.6707V23.9913C34.4606 21.0774 33.9123 19.0947 32.8077 18.0198C31.7111 16.9558 29.5929 16.4187 26.4722 16.4187H6.52021V9.24871H27.8984V12.8847H34.4703V10.6748C34.4703 8.05018 33.892 6.22221 32.7454 5.18938C31.598 4.16614 29.5203 3.64941 26.5358 3.64941H7.94587C4.85856 3.64941 2.75824 4.1871 1.6637 5.27098C0.557573 6.3452 0.0103347 8.3303 0.0103347 11.2219V15.0549C0.0103347 17.9666 0.557574 19.9514 1.64297 21.0259C2.73876 22.0893 4.8356 22.6272 7.94587 22.6272H27.8879V30.2206H6.57183V26.4396ZM42.388 36.2434V3.64941H49.8382V16.3574H73.0765V3.64941H80.5885V36.2434H73.0765V22.1729H49.8382V36.2434H42.388ZM88.5156 36.2434V3.64941H95.9657V36.2434H88.5156ZM103.893 36.2434V3.64941H111.343V30.2206H131.382V36.2434H103.893ZM163.384 9.48675H146.635V17.9678H163.384C164.655 17.9678 165.533 17.7821 166.019 17.4207C166.505 17.0594 166.742 16.398 166.742 15.4273V11.9977C166.742 11.1089 166.505 10.4683 166.019 10.0759C165.533 9.68305 164.654 9.48675 163.384 9.48675ZM172.192 33.0967C172.045 33.2602 171.825 33.3627 171.533 33.4055C171.678 33.4903 171.798 33.5837 171.892 33.6855C171.987 33.7873 172.115 33.9683 172.275 34.228L172.682 34.8796H171.876L171.392 34.1504C171.219 33.8915 171.1 33.7281 171.035 33.6605C170.972 33.5936 170.904 33.5471 170.832 33.522C170.76 33.4974 170.646 33.4849 170.491 33.4849H170.354V34.8796H169.677V31.5396H171.098C171.455 31.5396 171.715 31.5699 171.877 31.6296C172.039 31.6895 172.168 31.7961 172.265 31.9493C172.363 32.1031 172.412 32.2781 172.412 32.4756C172.412 32.7267 172.339 32.9336 172.192 33.0967ZM170.903 30.2208C169.237 30.2208 167.889 31.5956 167.889 33.2337C167.889 34.8985 169.267 36.2434 170.903 36.2434C172.567 36.2434 173.913 34.8703 173.913 33.2337C173.913 31.5749 172.564 30.2208 170.903 30.2208ZM170.853 32.953C171.177 32.953 171.378 32.939 171.459 32.9119C171.539 32.8847 171.603 32.8372 171.648 32.7702C171.694 32.7033 171.716 32.6194 171.716 32.5192C171.716 32.4065 171.686 32.3162 171.626 32.2462C171.566 32.177 171.482 32.1336 171.373 32.1156C171.318 32.1078 171.154 32.1039 170.881 32.1039H170.354V32.953H170.853Z" fill="#5F5F5F"/>
</svg>
