<svg width="53" height="60" viewBox="0 0 53 60" fill="none" xmlns="http://www.w3.org/2000/svg">
<mask id="mask0_32_163" style="mask-type:luminance" maskUnits="userSpaceOnUse" x="3" y="5" width="46" height="50">
<path d="M3.99269 5H48.0787V55H3.99269V5Z" fill="white"/>
</mask>
<g mask="url(#mask0_32_163)">
<path fill-rule="evenodd" clip-rule="evenodd" d="M6.32323 54.1776H4.78117C4.5659 54.1776 4.39174 54.0034 4.39174 53.7862V42.1735C4.39174 41.9583 4.56591 41.7841 4.78117 41.7841H6.32323V41.3966C6.32323 41.1794 6.49935 41.0053 6.71461 41.0053H12.4132C12.6285 41.0053 12.8027 41.1794 12.8027 41.3966V43.2185L16.2469 42.6354C15.9925 42.471 15.74 42.3007 15.4915 42.1266C15.3721 42.0424 15.3095 41.8976 15.3291 41.7547L15.7694 38.5199C14.2273 37.1638 12.9377 35.5473 11.9592 33.743L8.70872 33.4514C8.5639 33.4377 8.43866 33.3458 8.38191 33.2107C7.51888 31.1149 7.01204 28.8879 6.87898 26.6254C6.87115 26.4786 6.94356 26.3416 7.0688 26.2673L9.87117 24.5941C9.96901 22.5432 10.4309 20.5256 11.2312 18.635L9.43281 15.9129C9.35258 15.7916 9.34475 15.635 9.41716 15.5078C10.517 13.5254 11.9416 11.7407 13.6285 10.226C13.7361 10.1301 13.8907 10.1008 14.0277 10.1516L17.0805 11.3004C18.7459 10.0988 20.6109 9.20059 22.5873 8.64871L23.5951 5.54501C23.6381 5.40607 23.7575 5.30431 23.9004 5.27887C26.1371 4.90509 28.4209 4.90509 30.6576 5.27887C30.8004 5.30431 30.9198 5.40607 30.9628 5.54501L31.9707 8.64871C33.9472 9.20059 35.8121 10.0988 37.4774 11.3004L40.5302 10.1516C40.6672 10.1008 40.8218 10.1301 40.9295 10.226C42.6163 11.7407 44.039 13.5254 45.1408 15.5078C45.2112 15.635 45.2053 15.7916 45.1251 15.9129L43.3267 18.635C44.1271 20.5254 44.587 22.543 44.6868 24.5941L47.4891 26.2673C47.6124 26.3416 47.6868 26.4786 47.6789 26.6254C47.5459 28.8876 47.0371 31.1146 46.176 33.2107C46.1193 33.3458 45.994 33.4377 45.8492 33.4514L42.5987 33.743C42.0606 34.7313 41.4324 35.6647 40.7181 36.5297C41.2915 36.5199 41.6927 36.6334 41.9842 36.8467C42.2836 37.0659 42.4852 37.4025 42.6241 37.878C43.311 37.4612 43.9725 37.4847 44.4499 37.7743C45.0351 38.1266 45.4049 38.9192 45.2053 39.9681C45.1936 40.0287 45.1681 40.0835 45.1309 40.1324C42.0703 44.1128 39.0681 47.4417 35.3208 50.2752C35.2836 50.3046 35.2406 50.3261 35.1956 50.3398L27.3873 52.6255C27.3463 52.6372 27.3032 52.6431 27.2582 52.6412L16.3895 52.0854L12.8024 52.5903V54.6078C12.8024 54.8251 12.6282 54.9992 12.413 54.9992H6.71436C6.4991 54.9992 6.32297 54.8251 6.32297 54.6078L6.32323 54.1776ZM6.32323 42.5649H5.17253V53.3966H6.32323V42.5649ZM12.0218 43.6726V41.7861H7.106V42.1735V53.7862V54.2187H12.0218V52.2558V52.2461V43.6864V43.6726ZM17.9063 43.1461L12.8024 44.0111V51.8018L16.319 51.3067C16.3424 51.3028 16.3679 51.3008 16.3933 51.3028L27.233 51.8586L34.9059 49.61C38.5478 46.8449 41.4732 43.6003 44.454 39.7333C44.548 39.1266 44.3914 38.6511 44.047 38.4417C43.6908 38.2264 43.1879 38.3458 42.6732 38.8174C42.6615 38.8292 42.6497 38.839 42.638 38.8487C41.4638 39.9192 40.3464 40.8801 39.229 41.7529V41.7548C39.2466 41.8977 39.1859 42.0425 39.0666 42.1266C38.3347 42.6413 37.5734 43.1071 36.7848 43.522C35.0783 44.6609 33.2858 45.6492 31.2269 46.5728C31.178 46.5943 31.1232 46.6061 31.0684 46.6061H24.4205C24.2482 46.6061 24.0976 46.4945 24.0467 46.3301C24.0349 46.293 24.031 46.2558 24.031 46.2166C24.031 46.0444 24.1426 45.8918 24.307 45.8429C24.3207 45.837 28.3128 44.6139 28.4616 44.5669C28.5809 44.5102 28.6964 44.4515 28.8138 44.3928C30.9469 43.2499 31.5555 41.4613 31.4616 40.3595C31.444 40.1442 31.3989 39.9583 31.3305 39.8194C31.3109 39.7803 31.2933 39.7411 31.2717 39.7137C29.986 39.8977 28.8569 40.2754 27.6475 40.6335C25.7297 41.2029 23.622 41.7313 20.456 41.4534L18.0626 43.0855C18.0157 43.1168 17.9631 43.1363 17.9063 43.1461ZM38.8026 38.6256L39.1059 40.8546C40.0393 40.109 40.9787 39.3007 41.9552 38.4162C41.873 37.972 41.7693 37.6569 41.5227 37.4769C41.2507 37.2773 40.8339 37.2636 40.1861 37.3536C39.7321 37.79 39.2703 38.2147 38.8026 38.6256ZM36.4053 42.8389C37.1 42.4749 37.7732 42.0698 38.4209 41.6237L37.9865 38.4163C37.9689 38.2851 38.0178 38.154 38.1195 38.0679C39.7105 36.702 41.0295 35.0464 42.008 33.1893C42.0706 33.0718 42.186 32.9955 42.3191 32.9838L45.5422 32.6941C46.2898 30.8155 46.7418 28.8331 46.8847 26.8157L44.1058 25.1582C43.9903 25.0897 43.9199 24.9683 43.914 24.8353C43.8397 22.7394 43.3681 20.6748 42.5266 18.7529C42.4737 18.6316 42.4855 18.4926 42.5579 18.3811L44.3426 15.6825C43.3387 13.9271 42.0706 12.3361 40.5833 10.9682L37.554 12.1051C37.4307 12.1521 37.2917 12.1325 37.1841 12.0543C35.4972 10.8057 33.5912 9.88794 31.5637 9.34783C31.4345 9.31261 31.3327 9.21672 31.2916 9.09147L30.2936 6.01322C28.2955 5.70207 26.2603 5.70207 24.2643 6.01322L23.2643 9.09147C23.2232 9.21672 23.1215 9.31261 22.9943 9.34783C20.9669 9.88794 19.0608 10.8058 17.3738 12.0543C17.2662 12.1325 17.1272 12.1521 17.004 12.1051L13.9746 10.9682C12.4873 12.3361 11.2173 13.927 10.2153 15.6825L11.9981 18.3811C12.0725 18.4926 12.0842 18.6316 12.0314 18.7529C11.1879 20.6746 10.7183 22.7392 10.642 24.8353C10.638 24.9683 10.5656 25.0897 10.4521 25.1582L7.67522 26.8157C7.81612 28.8333 8.26817 30.8157 9.01573 32.6941L12.2388 32.9838C12.3719 32.9955 12.4873 33.0718 12.55 33.1893C13.5265 35.0464 14.8474 36.702 16.4384 38.0679C16.5402 38.154 16.591 38.2851 16.5715 38.4163L16.1351 41.6237C16.548 41.9055 16.9687 42.1736 17.4012 42.4241C17.4071 42.428 17.4149 42.4319 17.4208 42.4358L17.6928 42.3908L20.1331 40.7294C20.2075 40.6785 20.2994 40.655 20.3894 40.6648C23.5029 40.9564 25.5575 40.4397 27.4247 39.884C28.7143 39.5023 29.9178 39.1031 31.3014 38.9211C31.362 38.9133 31.4247 38.9192 31.4834 38.9387C31.6575 39.0014 31.8239 39.1325 31.955 39.3399C32.0998 39.565 32.2074 39.8937 32.2407 40.2929C32.2975 40.9739 32.1448 41.8937 31.6203 42.8056C31.6888 42.88 31.773 42.9661 31.863 43.06C31.8669 43.0639 31.8689 43.0678 31.8728 43.0718C32.3385 43.559 32.9883 44.24 32.9883 44.24C34.1703 43.88 35.3131 43.4123 36.4031 42.8408C36.4031 42.8408 36.4033 42.8389 36.4053 42.8389ZM27.0275 45.8252H30.9844C31.5676 45.563 32.1292 45.2929 32.6713 45.017C32.6419 44.9994 32.6145 44.9778 32.5872 44.9504L31.5148 43.8271C30.7496 44.2675 29.9707 44.6843 29.1801 45.0815C29.049 45.152 28.912 45.2205 28.7711 45.287C28.7554 45.2929 28.7378 45.3007 28.7222 45.3046C28.7202 45.3046 27.0275 45.8252 27.0275 45.8252ZM27.278 12.6981C34.3072 12.6981 40.0138 18.4047 40.0138 25.4339C40.0138 32.4631 34.3072 38.1698 27.278 38.1698C20.2508 38.1698 14.5422 32.4631 14.5422 25.4339C14.5422 18.4047 20.2508 12.6981 27.278 12.6981ZM27.278 13.4789C20.6811 13.4789 15.3252 18.8349 15.3252 25.4337C15.3252 32.0306 20.6811 37.3865 27.278 37.3865C33.8769 37.3865 39.2328 32.0306 39.2328 25.4337C39.2328 18.8349 33.8769 13.4789 27.278 13.4789ZM22.4209 26.7197C21.1762 25.4751 20.4072 23.7589 20.4072 21.8626C20.4072 18.0701 23.4854 14.9917 27.2781 14.9917C31.0706 14.9917 34.151 18.07 34.151 21.8626C34.151 23.7589 33.3799 25.4751 32.1373 26.7197C32.0845 26.7765 31.5013 27.4086 31.0003 28.1914C30.7009 28.6571 30.425 29.1757 30.3291 29.6513C30.38 29.6904 30.427 29.7315 30.4739 29.7765C30.742 30.0466 30.8947 30.4105 30.8947 30.7921C30.8947 31.1737 30.742 31.5377 30.4739 31.8078C30.4602 31.8195 30.4485 31.8332 30.4348 31.8449C30.4485 31.8567 30.4602 31.8684 30.4739 31.8821C30.742 32.1502 30.8947 32.5162 30.8947 32.8958C30.8947 33.2774 30.742 33.6414 30.4739 33.9114C30.2274 34.158 29.9006 34.3048 29.5562 34.3283C29.3722 35.4202 28.4231 36.25 27.2783 36.25C26.1354 36.25 25.1863 35.4202 25.0023 34.3283C24.6579 34.3048 24.3311 34.158 24.0845 33.9114C23.8145 33.6414 23.6638 33.2774 23.6638 32.8958C23.6638 32.5162 23.8145 32.1502 24.0845 31.8821C24.0982 31.8684 24.11 31.8567 24.1237 31.8449C24.11 31.8332 24.0982 31.8195 24.0845 31.8078C23.8145 31.5377 23.6638 31.1737 23.6638 30.7921C23.6638 30.4105 23.8145 30.0465 24.0845 29.7765C24.1295 29.7315 24.1785 29.6904 24.2293 29.6513C24.1335 29.1757 23.8575 28.6571 23.5581 28.1914C23.0572 27.4086 22.4737 26.7765 22.4209 26.7197ZM31.5812 26.1718C32.6849 25.07 33.3699 23.5456 33.3699 21.8626C33.3699 18.5006 30.6399 15.7727 27.278 15.7727C23.9179 15.7727 21.1881 18.5007 21.1881 21.8626C21.1881 23.5456 21.873 25.07 22.9767 26.1718C22.9807 26.1757 22.9826 26.1776 22.9865 26.1816H22.9885C23.0139 26.2109 23.6617 26.9056 24.2155 27.7687C24.5403 28.2735 24.828 28.8371 24.963 29.3636C25.008 29.3596 25.0531 29.3577 25.0981 29.3577H26.1196L26.1098 24.3399H25.2194C24.2977 24.3399 23.5502 23.5924 23.5502 22.6726C23.5502 21.7509 24.2977 21.0034 25.2194 21.0034C26.1392 21.0034 26.8867 21.7509 26.8867 22.6707V22.6726L26.8887 23.5591H27.6676L27.6695 22.6726V22.6707C27.6695 21.7509 28.4171 21.0034 29.3388 21.0034C30.2585 21.0034 31.008 21.7509 31.008 22.6726C31.008 23.5924 30.2585 24.3399 29.3388 24.3399H28.4484L28.4386 29.3577H29.4582C29.5032 29.3577 29.5502 29.3596 29.5952 29.3636C29.7302 28.8371 30.0179 28.2735 30.3427 27.7687C30.8966 26.9056 31.5423 26.2109 31.5717 26.1816C31.5736 26.1776 31.5773 26.1757 31.5812 26.1718ZM26.5108 30.1385H25.0979C24.9257 30.1385 24.7594 30.207 24.6361 30.3303C24.5148 30.4516 24.4443 30.618 24.4443 30.7921C24.4443 30.9663 24.5148 31.1326 24.6361 31.2559C24.7594 31.3773 24.9257 31.4457 25.0979 31.4457H29.458C29.6322 31.4457 29.7985 31.3773 29.9218 31.2559C30.0431 31.1326 30.1116 30.9663 30.1116 30.7921C30.1116 30.618 30.0431 30.4516 29.9218 30.3303C29.7985 30.207 29.6322 30.1385 29.458 30.1385H28.0451H26.5108ZM25.0979 33.5514H29.458C29.6322 33.5514 29.7985 33.4829 29.9218 33.3596C30.0431 33.2363 30.1116 33.07 30.1116 32.8958C30.1116 32.7236 30.0431 32.5573 29.9218 32.434C29.7985 32.3107 29.6322 32.2422 29.458 32.2422H25.0979C24.9257 32.2422 24.7594 32.3107 24.6361 32.434C24.5148 32.5573 24.4443 32.7236 24.4443 32.8958C24.4443 33.07 24.5148 33.2363 24.6361 33.3596C24.7594 33.4829 24.9257 33.5514 25.0979 33.5514ZM25.8005 34.3322C25.9727 34.9859 26.5696 35.4692 27.2779 35.4692C27.9864 35.4692 28.5832 34.9858 28.7574 34.3322H25.8005ZM26.8905 24.3403L26.9003 29.358H27.6576L27.6674 24.3403H26.8905ZM25.2193 23.5594H26.1077L26.1057 22.673C26.1057 22.1818 25.7085 21.7845 25.2193 21.7845C24.73 21.7845 24.3328 22.1818 24.3328 22.673C24.3328 23.1622 24.73 23.5594 25.2193 23.5594ZM28.4502 22.673V23.5594H29.3386C29.8278 23.5594 30.2251 23.1622 30.2251 22.673C30.2251 22.1818 29.8278 21.7845 29.3386 21.7845C28.8494 21.7845 28.4502 22.1818 28.4502 22.673Z" fill="#2E4049" stroke="#2E4049" stroke-width="0.5"/>
</g>
</svg>
