<svg width="100" height="100" viewBox="0 0 100 100" fill="none" xmlns="http://www.w3.org/2000/svg">
<circle cx="50" cy="50" r="49.5" fill="#EEFFE9" stroke="#73BE5F"/>
<path d="M36.1653 47.8349L29.3482 49.6636C29.2921 49.6809 29.2424 49.6852 29.1884 49.6852C28.9184 49.6852 28.6743 49.5078 28.603 49.2308C28.5145 48.904 28.7089 48.5707 29.035 48.4819L35.8521 46.6532C36.1782 46.5645 36.5109 46.7593 36.5995 47.086C36.6859 47.4128 36.4914 47.7461 36.1653 47.8349ZM37.4311 50.2111C37.3425 49.8844 37.0099 49.6896 36.6837 49.7783L29.8666 51.607C29.5405 51.6958 29.3461 52.0291 29.4346 52.3559C29.5059 52.6264 29.7543 52.8103 30.02 52.8103C30.0697 52.8103 30.1259 52.8039 30.1799 52.7887L36.9969 50.96C37.3252 50.8712 37.5196 50.538 37.4311 50.2111ZM38.267 53.3319C38.1784 53.0051 37.8458 52.8103 37.5196 52.899L30.7026 54.7278C30.3764 54.8165 30.182 55.1498 30.2706 55.4766C30.3419 55.7471 30.5903 55.9311 30.8559 55.9311C30.9056 55.9311 30.9618 55.9246 31.0158 55.9094L37.835 54.0785C38.1612 53.9963 38.3556 53.6587 38.267 53.3319ZM74.9794 40.5892C74.8908 40.2624 74.5581 40.0677 74.232 40.1564L69.2228 41.5025C68.8966 41.5912 68.7022 41.9245 68.7908 42.2513C68.8621 42.5219 69.1105 42.7058 69.3762 42.7058C69.4259 42.7058 69.482 42.6993 69.536 42.6842L74.5452 41.338C74.8735 41.2472 75.0658 40.916 74.9794 40.5892ZM64.6758 36.8712C64.7709 36.9275 64.8746 36.9534 64.9804 36.9534C65.1899 36.9534 65.3951 36.8431 65.5118 36.6483L68.106 32.149C68.2723 31.8546 68.1729 31.4846 67.8857 31.3114C67.5919 31.1448 67.2225 31.2444 67.0497 31.5322L64.4555 36.0315C64.2827 36.328 64.3842 36.7045 64.6758 36.8712ZM73.232 51.3407L68.7412 48.7416C68.4475 48.5749 68.0781 48.6745 67.9053 48.9623C67.739 49.2567 67.8383 49.6267 68.1256 49.7999L72.6164 52.399C72.7114 52.4553 72.8151 52.4813 72.9209 52.4813C73.1305 52.4813 73.3357 52.3709 73.4523 52.1761C73.6229 51.884 73.5236 51.5074 73.232 51.3407ZM67.3201 57.7642C67.6182 58.8787 66.9551 60.0235 65.8427 60.3244C65.6612 60.3741 65.4841 60.3958 65.3005 60.3958C64.376 60.3958 63.5357 59.7812 63.283 58.8441L63.2441 58.7056L42.0432 56.8552L39.598 57.5153L44.2097 65.516C45.2163 67.2603 44.6179 69.5046 42.8705 70.5131C42.311 70.8334 41.6868 71 41.056 71C40.7364 71 40.4145 70.9567 40.0991 70.8723C39.153 70.6169 38.3689 70.0131 37.8808 69.1713L32.3057 59.4691L31.824 59.5968C31.487 59.6856 31.1501 59.7288 30.8174 59.7288C29.098 59.7288 27.5169 58.5775 27.0525 56.8375L25.1343 49.6678C24.5749 47.5902 25.8148 45.4412 27.8884 44.8872L38.1294 42.1387L55.7643 30.7096L55.7427 30.6317C55.4446 29.5172 56.1077 28.3723 57.2202 28.0715C58.3326 27.7728 59.4752 28.4373 59.7755 29.5518L62.5296 39.8445L64.4974 40.2428C65.2663 40.3986 65.8474 40.9418 66.0461 41.6992L66.6877 44.0971C66.8929 44.8568 66.6596 45.6142 66.0742 46.1358L64.5643 47.4646L67.3201 57.7642ZM62.8791 41.1583L64.2119 46.151L65.2617 45.2204C65.4993 45.0105 65.5878 44.7161 65.5057 44.4175L64.8642 42.0196C64.7821 41.7145 64.5596 41.5045 64.2507 41.4439L62.8791 41.1583ZM41.2529 55.8073L37.9524 43.4519L28.2085 46.0663C26.7828 46.4494 25.9361 47.9232 26.3162 49.3515L28.2344 56.5212C28.6167 57.9495 30.0877 58.8044 31.5133 58.417L41.2529 55.8073ZM38.3887 57.8395L33.5286 59.1467L38.9525 68.5585C39.6221 69.7228 41.1147 70.121 42.2768 69.4502C43.4388 68.7793 43.8363 67.2838 43.1667 66.1195L38.3887 57.8395ZM62.918 57.4521L56.0943 31.9496L39.0794 42.9737L42.475 55.6598L62.918 57.4521ZM66.1429 58.0776L58.5938 29.8609C58.4728 29.3956 57.9911 29.1251 57.531 29.2463C57.0666 29.3675 56.7966 29.85 56.9175 30.3111L64.4667 58.5277C64.5877 58.993 65.0693 59.2635 65.5295 59.1423C65.9939 59.0211 66.2703 58.5429 66.1429 58.0776Z" fill="#73BE5F"/>
</svg>
