<svg width="41" height="60" viewBox="0 0 41 60" fill="none" xmlns="http://www.w3.org/2000/svg">
<path d="M25.6923 5C24.6923 5 23.872 5.8164 23.872 6.8164V26.4004H21.5947V14.4434C21.5947 14.3809 21.581 14.3184 21.5517 14.2618L18.9013 9.14676C18.8329 9.01786 18.7001 8.93582 18.5556 8.93582C18.4091 8.93582 18.2743 9.0159 18.206 9.14676L15.5556 14.2618C15.5263 14.3184 15.5126 14.3809 15.5126 14.4434V26.4004H13.2352V22.5313V22.5078V14.9083V14.8849V13.0743C13.2352 12.4923 12.8349 11.9962 12.2958 11.8497V10.8986C12.2958 9.81653 11.4091 8.93178 10.327 8.93178C9.24305 8.93178 8.36025 9.81653 8.36025 10.8986V11.8497C7.8212 11.9962 7.4208 12.4923 7.4208 13.0743V14.5157H6.6962C5.49505 14.5157 4.5126 15.4981 4.5126 16.6993V25.1328C4.5126 25.3477 4.68643 25.5215 4.90127 25.5215C5.00478 25.5215 5.10439 25.4805 5.17861 25.4082C5.25283 25.334 5.29385 25.2364 5.29385 25.1328V16.6973C5.29385 15.92 5.91495 15.295 6.69425 15.295H7.41885V26.3985H4.43445C3.71374 26.3985 3.12 26.9903 3.12 27.711V31.3789C3.12 32.0996 3.71374 32.6914 4.43445 32.6914H5.54775L6.32315 52.3574C6.38174 53.8281 7.59855 54.998 9.0712 54.998L30.9307 55C32.4034 55 33.6202 53.8301 33.6788 52.3594L34.4542 32.6934H35.5694C36.2901 32.6934 36.88 32.1016 36.88 31.3809V27.7129C36.88 26.9922 36.2901 26.4004 35.5694 26.4004H33.9425L33.9444 6.81643C33.9444 5.81643 33.1261 5.00003 32.1241 5.00003L25.6923 5ZM25.6923 5.78125H32.1258C32.7079 5.78125 33.1649 6.23633 33.1649 6.8164L33.1629 26.4004H24.6529V22.9004H26.5904C26.8053 22.9004 26.9791 22.7266 26.9791 22.5117C26.981 22.2949 26.8072 22.1211 26.5904 22.1192H24.6529V18.6211H29.065C29.1685 18.6211 29.2681 18.5801 29.3404 18.5059C29.4127 18.4317 29.4537 18.332 29.4537 18.2285C29.4537 18.0137 29.2798 17.8418 29.065 17.8399H24.6529V14.3418H26.5904C26.8072 14.3418 26.981 14.166 26.9791 13.9492C26.9791 13.7363 26.8052 13.5625 26.5904 13.5606H24.6529V10.0606H29.065C29.2799 10.0606 29.4537 9.88477 29.4537 9.66993C29.4537 9.56641 29.4127 9.4668 29.3404 9.39454C29.2681 9.32032 29.1685 9.2793 29.065 9.2793H24.6529V6.8164C24.6529 6.2363 25.1103 5.78125 25.6923 5.78125ZM10.3273 9.71095C10.9914 9.71095 11.5148 10.2344 11.5148 10.8965V11.8047H9.1398V10.8965C9.1398 10.2344 9.6613 9.71095 10.3254 9.71095H10.3273ZM18.5578 10.1758L20.632 14.1817H16.4816L18.5578 10.1758ZM8.6908 12.5859H11.9682C12.2455 12.5859 12.4564 12.7969 12.4564 13.0742V14.5156H8.20058V13.0742C8.20058 12.7969 8.40956 12.5859 8.68886 12.5859H8.6908ZM16.2963 14.9629H18.1655V26.4024H16.2963V14.9629ZM18.9467 14.9629H20.8178V26.4024H18.9467V14.9629ZM8.2007 15.2969H12.4546V22.1194H8.2007V15.2969ZM8.2007 22.9004H12.4546V26.4004H8.2007V22.9004ZM4.4351 27.1816H35.5716C35.8743 27.1816 36.1009 27.4121 36.1009 27.7129V31.3808C36.1009 31.6816 35.8724 31.9121 35.5716 31.9121H4.4351C4.13236 31.9121 3.9019 31.6816 3.9019 31.3808V27.7129C3.9019 27.4121 4.13237 27.1816 4.4351 27.1816ZM6.3316 32.6916L33.6736 32.6936L32.8982 52.3286C32.8572 53.3872 31.9939 54.2192 30.9314 54.2192H9.0719C8.0094 54.2192 7.1461 53.3872 7.1051 52.3286L6.3316 32.6916Z" fill="#2E4049" stroke="#2E4049" stroke-width="0.5"/>
</svg>
