<svg width="55" height="60" viewBox="0 0 55 60" fill="none" xmlns="http://www.w3.org/2000/svg">
<path d="M4.98654 41.263V11.9641C4.98654 10.0502 5.77013 8.30963 7.03125 7.04788C8.29236 5.78359 10.0348 5 11.9506 5H40.0386C40.4837 5 40.8451 5.36132 40.8451 5.80645V14.8508H49.89C50.3352 14.8508 50.6965 15.2121 50.6965 15.6572V54.1936C50.6965 54.6387 50.3352 55 49.89 55H18.7229C17.6535 55 16.6814 54.5631 15.9778 53.8595C15.2742 53.156 14.8373 52.1838 14.8373 51.1144V45.1486H8.87148C7.80404 45.1486 6.83249 44.7104 6.12891 44.0062C5.42342 43.3046 4.98654 42.3324 4.98654 41.263ZM19.2588 51.9209C18.8137 51.9209 18.4524 51.5596 18.4524 51.1144C18.4524 50.6693 18.8137 50.308 19.2588 50.308H49.0836V48.8418H18.7229C18.0987 48.8418 17.5304 49.0977 17.1182 49.5098C16.7061 49.9219 16.4502 50.4902 16.4502 51.1144C16.4502 51.7386 16.7061 52.307 17.1182 52.7191C17.5304 53.1312 18.0987 53.3871 18.7229 53.3871H49.0836V51.9209H19.2588ZM40.8451 16.4637V44.3421C40.8451 44.7873 40.4837 45.1486 40.0386 45.1486H16.4502V47.9667C17.0903 47.5032 17.8758 47.2289 18.7229 47.2289H49.0836V16.4637H40.8451ZM16.4458 12.0269C16.0006 12.0269 15.6393 11.6656 15.6393 11.2205C15.6393 10.7753 16.0006 10.414 16.4458 10.414H29.3858C29.831 10.414 30.1923 10.7753 30.1923 11.2205C30.1923 11.6656 29.831 12.0269 29.3858 12.0269H16.4458ZM17.8631 16.9526C17.418 16.9526 17.0566 16.5913 17.0566 16.1462C17.0566 15.701 17.418 15.3397 17.8631 15.3397H27.9679C28.413 15.3397 28.7743 15.701 28.7743 16.1462C28.7743 16.5913 28.413 16.9526 27.9679 16.9526H17.8631ZM9.40742 42.0695C8.96228 42.0695 8.60097 41.7082 8.60097 41.263C8.60097 40.8179 8.96228 40.4566 9.40742 40.4566H39.2322V38.991H8.87148C8.24727 38.991 7.67895 39.2469 7.26683 39.659C6.85535 40.0705 6.59944 40.6388 6.59944 41.263C6.59944 41.8872 6.85535 42.4556 7.26747 42.8677C7.67704 43.2804 8.246 43.5357 8.87148 43.5357H39.2322V42.0695H9.40742ZM6.59944 11.9641V38.1153C7.23889 37.6518 8.02502 37.3781 8.87148 37.3781H39.2322V6.6129H11.9506C10.4799 6.6129 9.14135 7.21552 8.17171 8.18517C7.20206 9.15291 6.59944 10.4921 6.59944 11.9641Z" fill="#2E4049"/>
</svg>
