<svg width="60" height="54" viewBox="0 0 60 54" fill="none" xmlns="http://www.w3.org/2000/svg">
<path d="M54.5361 42.0148H52.2832V37.8512C52.2832 37.5958 52.076 37.3915 51.8216 37.3915H38.3977C37.796 37.3934 37.792 38.309 38.3977 38.311H51.3579V42.0148H32.5416C32.2831 42.0325 32.0878 42.2231 32.0799 42.4746V44.7362C32.0799 45.137 31.7505 45.4651 31.348 45.4651H28.6473C28.2448 45.4651 27.9154 45.137 27.9154 44.7362V42.4746C27.9095 42.229 27.7043 42.0109 27.4538 42.0148H8.63738V38.311H25.272C27.1857 38.1597 29.0144 40.0264 29.4287 40.8064C29.7266 41.3428 30.1764 41.4843 30.5374 40.8496C31.072 40.0892 32.3247 38.311 34.7196 38.311H39.0242C39.6298 38.309 39.6259 37.3934 39.0242 37.3914H34.7196C32.155 37.3914 30.6853 39.0832 29.9968 40.0185C29.3083 39.0832 27.8406 37.3914 25.2759 37.3914H8.17614C7.92165 37.3914 7.71451 37.5977 7.71451 37.8512V42.0148H5.46163C5.20714 42.0148 5 42.2211 5 42.4745V46.418C5 46.6715 5.20714 46.8778 5.46163 46.8778H23.9821C24.2089 48.6364 25.724 50 27.5508 50H32.4492C34.276 50 35.7891 48.6364 36.0179 46.8778H54.5384C54.7929 46.8778 55 46.6715 55 46.418V42.4745C54.998 42.2211 54.7906 42.0148 54.5361 42.0148ZM54.0744 45.9583H35.5838C35.3273 45.9583 35.1222 46.1646 35.1222 46.4181C35.1222 47.8858 33.9227 49.0805 32.449 49.0805L27.5507 49.0825C26.077 49.0825 24.8775 47.8878 24.8775 46.42C24.8775 46.1666 24.6704 45.9603 24.4159 45.9603L5.92527 45.9583V42.9343H26.9926V44.7342C26.9926 45.6439 27.7363 46.3846 28.6497 46.3846H31.3504C32.2638 46.3846 33.0056 45.6439 33.0056 44.7342V42.9343H54.0729L54.0744 45.9583ZM13.7529 25.767C14.2125 25.7866 15.2991 24.9005 13.9699 24.9005C12.6363 24.1951 11.8078 22.8314 11.8078 21.3401V9.94796C11.8078 7.72762 13.6207 5.92388 15.85 5.92388H34.3901C36.6194 5.92388 38.4303 7.72958 38.4303 9.94796V17.1687H35.8085C35.0155 17.1687 34.2934 17.483 33.7608 17.988V9.53695C33.7608 9.28151 33.5536 9.07717 33.2992 9.07717H27.4757C26.4913 9.07717 25.6252 9.5841 25.1202 10.3465C24.6171 9.58214 23.7491 9.07717 22.7646 9.07717H16.9391C16.6846 9.07717 16.4775 9.28348 16.4775 9.53695V21.4105C16.4775 21.6659 16.6847 21.8703 16.9391 21.8703C20.9005 21.8663 28.8841 21.8742 32.8359 21.8703V25.3658H31.3702C30.5712 25.3658 29.9202 26.0122 29.9202 26.81V29.7219C29.936 30.1346 29.4231 30.3998 29.0936 30.1522L22.6015 25.6252C22.349 25.4503 22.0767 25.3658 21.771 25.3658L13.8567 24.9005C13.2471 24.9024 12.2529 24.4816 13.7529 25.767L21.771 26.2854C21.8873 26.2854 21.9781 26.3148 22.0728 26.3797L28.5634 30.9048C29.4768 31.5886 30.8814 30.8557 30.8439 29.7219V26.8099C30.8439 26.5211 31.0807 26.2873 31.3707 26.2873H32.8364C32.7398 27.983 34.0951 29.4448 35.8094 29.4389H37.4921C37.5415 29.4389 37.5809 29.4802 37.5809 29.5273V31.1503C37.5533 31.9422 38.5377 32.4551 39.1749 31.9756L42.8423 29.4369H46.1427C47.7821 29.4369 49.1157 28.1087 49.1157 26.4778L49.1137 20.1273C49.1137 18.4945 47.7801 17.1663 46.1408 17.1663H39.3542V9.94559C39.3542 7.21832 37.1269 5 34.3887 5L15.8506 5.00196C13.1124 5.00196 10.8852 7.22034 10.8852 9.94755V21.3417C10.8931 23.1907 11.9754 25.095 13.7529 25.767ZM17.4025 9.99665H22.7665C23.81 9.99665 24.6583 10.8416 24.6583 11.881V20.9507H17.4026L17.4025 9.99665ZM25.5815 20.9507V11.8809C25.5815 10.8415 26.4318 9.9966 27.4734 9.9966H32.8353V20.9506L25.5815 20.9507ZM48.1896 20.1274V26.4779C48.1896 27.6018 47.2703 28.5174 46.1419 28.5174H42.8414C42.6303 28.5174 42.435 28.5784 42.2614 28.6982L38.6434 31.2192L38.5053 31.1484V29.5254C38.5053 28.9693 38.0496 28.5174 37.4913 28.5174H35.8085C34.6801 28.5174 33.7608 27.6038 33.7608 26.4779V20.1274C33.7608 19.0035 34.6801 18.0878 35.8085 18.0878H46.1419C47.2704 18.0878 48.1896 19.0035 48.1896 20.1274ZM37.2426 21.2336H44.7075C45.3092 21.2356 45.3131 22.1512 44.7075 22.1532L37.2426 22.1551C36.6409 22.1532 36.637 21.2356 37.2426 21.2336ZM44.7075 25.3736H37.2426C36.6409 25.3717 36.637 24.4561 37.2426 24.4521H44.7075C45.3111 24.4541 45.3151 25.3697 44.7075 25.3736Z" fill="#2E4049"/>
<path d="M13.7529 25.767C14.2125 25.7866 15.2991 24.9005 13.9699 24.9005C12.6363 24.1951 11.8078 22.8314 11.8078 21.3401V9.94796C11.8078 7.72762 13.6207 5.92388 15.85 5.92388H34.3901C36.6194 5.92388 38.4303 7.72958 38.4303 9.94796V17.1687H35.8085C35.0155 17.1687 34.2934 17.483 33.7608 17.988V9.53695C33.7608 9.28151 33.5536 9.07717 33.2992 9.07717H27.4757C26.4913 9.07717 25.6252 9.5841 25.1202 10.3465C24.6171 9.58214 23.7491 9.07717 22.7646 9.07717H16.9391C16.6846 9.07717 16.4775 9.28348 16.4775 9.53695V21.4105C16.4775 21.6659 16.6847 21.8703 16.9391 21.8703C20.9005 21.8663 28.8841 21.8742 32.8359 21.8703V25.3658H31.3702C30.5712 25.3658 29.9202 26.0122 29.9202 26.81V29.7219C29.936 30.1346 29.4231 30.3998 29.0936 30.1522L22.6015 25.6252C22.349 25.4503 22.0767 25.3658 21.771 25.3658L13.8567 24.9005C13.2471 24.9024 12.2529 24.4816 13.7529 25.767ZM13.7529 25.767L21.771 26.2854C21.8873 26.2854 21.9781 26.3148 22.0728 26.3797L28.5634 30.9048C29.4768 31.5886 30.8814 30.8557 30.8439 29.7219V26.8099C30.8439 26.5211 31.0807 26.2873 31.3707 26.2873H32.8364C32.7398 27.983 34.0951 29.4448 35.8094 29.4389H37.4921C37.5415 29.4389 37.5809 29.4802 37.5809 29.5273V31.1503C37.5533 31.9422 38.5377 32.4551 39.1749 31.9756L42.8423 29.4369H46.1427C47.7821 29.4369 49.1157 28.1087 49.1157 26.4778L49.1137 20.1273C49.1137 18.4945 47.7801 17.1663 46.1408 17.1663H39.3542V9.94559C39.3542 7.21832 37.1269 5 34.3887 5L15.8506 5.00196C13.1124 5.00196 10.8852 7.22034 10.8852 9.94755V21.3417C10.8931 23.1907 11.9754 25.095 13.7529 25.767ZM54.5361 42.0148H52.2832V37.8512C52.2832 37.5958 52.076 37.3915 51.8216 37.3915H38.3977C37.796 37.3934 37.792 38.309 38.3977 38.311H51.3579V42.0148H32.5416C32.2831 42.0325 32.0878 42.2231 32.0799 42.4746V44.7362C32.0799 45.137 31.7505 45.4651 31.348 45.4651H28.6473C28.2448 45.4651 27.9154 45.137 27.9154 44.7362V42.4746C27.9095 42.229 27.7043 42.0109 27.4538 42.0148H8.63738V38.311H25.272C27.1857 38.1597 29.0144 40.0264 29.4287 40.8064C29.7266 41.3428 30.1764 41.4843 30.5374 40.8496C31.072 40.0892 32.3247 38.311 34.7196 38.311H39.0242C39.6298 38.309 39.6259 37.3934 39.0242 37.3914H34.7196C32.155 37.3914 30.6853 39.0832 29.9968 40.0185C29.3083 39.0832 27.8406 37.3914 25.2759 37.3914H8.17614C7.92165 37.3914 7.71451 37.5977 7.71451 37.8512V42.0148H5.46163C5.20714 42.0148 5 42.2211 5 42.4745V46.418C5 46.6715 5.20714 46.8778 5.46163 46.8778H23.9821C24.2089 48.6364 25.724 50 27.5508 50H32.4492C34.276 50 35.7891 48.6364 36.0179 46.8778H54.5384C54.7929 46.8778 55 46.6715 55 46.418V42.4745C54.998 42.2211 54.7906 42.0148 54.5361 42.0148ZM54.0744 45.9583H35.5838C35.3273 45.9583 35.1222 46.1646 35.1222 46.4181C35.1222 47.8858 33.9227 49.0805 32.449 49.0805L27.5507 49.0825C26.077 49.0825 24.8775 47.8878 24.8775 46.42C24.8775 46.1666 24.6704 45.9603 24.4159 45.9603L5.92527 45.9583V42.9343H26.9926V44.7342C26.9926 45.6439 27.7363 46.3846 28.6497 46.3846H31.3504C32.2638 46.3846 33.0056 45.6439 33.0056 44.7342V42.9343H54.0729L54.0744 45.9583ZM17.4025 9.99665H22.7665C23.81 9.99665 24.6583 10.8416 24.6583 11.881V20.9507H17.4026L17.4025 9.99665ZM25.5815 20.9507V11.8809C25.5815 10.8415 26.4318 9.9966 27.4734 9.9966H32.8353V20.9506L25.5815 20.9507ZM48.1896 20.1274V26.4779C48.1896 27.6018 47.2703 28.5174 46.1419 28.5174H42.8414C42.6303 28.5174 42.435 28.5784 42.2614 28.6982L38.6434 31.2192L38.5053 31.1484V29.5254C38.5053 28.9693 38.0496 28.5174 37.4913 28.5174H35.8085C34.6801 28.5174 33.7608 27.6038 33.7608 26.4779V20.1274C33.7608 19.0035 34.6801 18.0878 35.8085 18.0878H46.1419C47.2704 18.0878 48.1896 19.0035 48.1896 20.1274ZM37.2426 21.2336H44.7075C45.3092 21.2356 45.3131 22.1512 44.7075 22.1532L37.2426 22.1551C36.6409 22.1532 36.637 21.2356 37.2426 21.2336ZM44.7075 25.3736H37.2426C36.6409 25.3717 36.637 24.4561 37.2426 24.4521H44.7075C45.3111 24.4541 45.3151 25.3697 44.7075 25.3736Z" stroke="#2E4049" stroke-width="0.5"/>
</svg>
