<svg width="60" height="52" viewBox="0 0 60 52" fill="none" xmlns="http://www.w3.org/2000/svg">
<path fill-rule="evenodd" clip-rule="evenodd" d="M15.106 21.3899C14.9994 21.3899 14.8907 21.3572 14.7972 21.292C12.1569 19.4564 10.6411 16.7401 10.6411 13.8387C10.6411 8.53439 15.715 4.21973 21.9543 4.21973C28.1916 4.21973 33.2675 8.53456 33.2675 13.8387C33.2675 16.7399 31.7538 19.4564 29.1115 21.292C28.8657 21.4638 28.5265 21.4029 28.3546 21.155C28.1828 20.9092 28.2437 20.5699 28.4917 20.3981C30.8361 18.7692 32.1801 16.379 32.1801 13.839C32.1801 9.13274 27.5934 5.30735 21.9543 5.30735C16.3171 5.30735 11.7284 9.13502 11.7284 13.839C11.7284 16.3792 13.0724 18.7693 15.4169 20.3981C15.6626 20.5699 15.7235 20.9092 15.5539 21.155C15.4473 21.3072 15.2799 21.3877 15.1059 21.3877L15.106 21.3899Z" fill="#2E4049"/>
<path fill-rule="evenodd" clip-rule="evenodd" d="M11.3023 13.0385C11.2131 13.0385 11.1217 13.0167 11.0391 12.9689C9.51671 12.1251 8.57068 10.5201 8.57068 8.78239C8.57068 6.14433 10.7172 4 13.3553 4C14.732 4 16.0434 4.59372 16.9524 5.63112C17.1503 5.8573 17.1286 6.2009 16.9024 6.39882C16.6762 6.59675 16.3326 6.57499 16.1347 6.3488C15.4322 5.54847 14.4188 5.08743 13.3553 5.08743C11.3174 5.08743 9.6581 6.74683 9.6581 8.78242C9.6581 10.1265 10.3888 11.3661 11.5654 12.0185C11.8286 12.1643 11.9221 12.4948 11.7764 12.758C11.6763 12.9363 11.4915 13.0385 11.3001 13.0385L11.3023 13.0385Z" fill="#2E4049"/>
<path fill-rule="evenodd" clip-rule="evenodd" d="M32.6071 13.0385C32.4157 13.0385 32.2308 12.9363 32.1308 12.758C31.9851 12.4948 32.0808 12.1643 32.3417 12.0185C33.5183 11.3661 34.2491 10.1265 34.2491 8.78242C34.2491 6.7446 32.5918 5.08742 30.5519 5.08742C29.4884 5.08742 28.4749 5.54631 27.7725 6.3488C27.5746 6.57498 27.2309 6.59673 27.0048 6.39882C26.7786 6.20092 26.7568 5.85729 26.9547 5.63112C27.8638 4.59372 29.1752 4 30.5519 4C33.1899 4 35.3365 6.14656 35.3365 8.78239C35.3365 10.5201 34.3904 12.1273 32.8681 12.9689C32.7854 13.0146 32.6941 13.0385 32.6049 13.0385L32.6071 13.0385Z" fill="#2E4049"/>
<path fill-rule="evenodd" clip-rule="evenodd" d="M17.3764 11.5771C16.8631 11.5771 16.4477 11.9947 16.4477 12.508C16.4477 13.0191 16.8653 13.4366 17.3764 13.4366C17.8897 13.4366 18.3051 13.0191 18.3051 12.508C18.3051 11.9947 17.8875 11.5771 17.3764 11.5771ZM17.3764 14.524C16.2651 14.524 15.3604 13.6193 15.3604 12.508C15.3604 11.3966 16.2651 10.4897 17.3764 10.4897C18.4877 10.4897 19.3925 11.3945 19.3925 12.508C19.3925 13.6193 18.4877 14.524 17.3764 14.524Z" fill="#2E4049"/>
<path fill-rule="evenodd" clip-rule="evenodd" d="M26.5322 11.5771C26.0189 11.5771 25.6035 11.9947 25.6035 12.508C25.6035 13.0191 26.0211 13.4366 26.5322 13.4366C27.0454 13.4366 27.4608 13.0191 27.4608 12.508C27.4608 11.9947 27.0433 11.5771 26.5322 11.5771ZM26.5322 14.524C25.4208 14.524 24.5161 13.6193 24.5161 12.508C24.5161 11.3966 25.4208 10.4897 26.5322 10.4897C27.6435 10.4897 28.5482 11.3945 28.5482 12.508C28.5482 13.6193 27.6435 14.524 26.5322 14.524Z" fill="#2E4049"/>
<path fill-rule="evenodd" clip-rule="evenodd" d="M21.9546 15.4592C20.7932 15.4592 19.8102 16.0747 19.8102 16.8054C19.8102 17.5362 20.791 18.1517 21.9546 18.1517C23.1159 18.1517 24.0989 17.5362 24.0989 16.8054C24.0989 16.0769 23.1181 15.4592 21.9546 15.4592ZM21.9546 19.2391C20.1429 19.2391 18.7228 18.169 18.7228 16.8054C18.7228 15.4418 20.1429 14.3718 21.9546 14.3718C23.7662 14.3718 25.1863 15.4418 25.1863 16.8054C25.1863 18.1712 23.7662 19.2391 21.9546 19.2391Z" fill="#2E4049"/>
<path fill-rule="evenodd" clip-rule="evenodd" d="M21.9546 43.7646C21.6719 43.7646 21.437 43.5492 21.4131 43.2687C21.1434 40.1543 18.8424 38.7277 16.7786 38.4319C14.7603 38.1405 12.1767 38.8821 11.2741 41.1917C11.1654 41.4723 10.85 41.6093 10.5695 41.5006C10.2889 41.3918 10.1519 41.0765 10.2607 40.7959C11.2176 38.3428 13.9622 36.9291 16.9328 37.3575C19.2685 37.6946 21.0823 39.0648 21.9544 41.0352C22.8265 39.0648 24.6403 37.6947 26.976 37.3575C29.9468 36.9313 32.6894 38.3449 33.6482 40.7959C33.7569 41.0765 33.6199 41.3918 33.3393 41.5006C33.0588 41.6093 32.7435 41.4723 32.6347 41.1917C31.7322 38.8821 29.1485 38.1404 27.1303 38.4319C25.0664 38.7277 22.7654 40.1566 22.4958 43.2687C22.4718 43.5492 22.2373 43.7646 21.9546 43.7646Z" fill="#2E4049"/>
<path fill-rule="evenodd" clip-rule="evenodd" d="M13.2816 38.923C13.2533 38.923 13.2272 38.9208 13.199 38.9165C12.9032 38.8708 12.6987 38.5946 12.7444 38.2966L12.7705 38.1205C13.3229 34.5146 14.245 28.482 16.4003 24.5129C16.5438 24.2497 16.8744 24.1519 17.1375 24.2954C17.4007 24.4389 17.4985 24.7673 17.355 25.0327C15.2911 28.8342 14.3842 34.7519 13.8448 38.2884L13.8187 38.4645C13.7774 38.7321 13.5469 38.9256 13.2816 38.9256L13.2816 38.923ZM30.6606 38.9382C30.3975 38.9382 30.1648 38.7447 30.1235 38.4772L30.0952 38.288C29.5558 34.7539 28.6511 28.8382 26.5872 25.0367C26.4437 24.7735 26.5415 24.443 26.8068 24.2994C27.07 24.1559 27.4006 24.2538 27.5441 24.5191C29.6972 28.4903 30.6214 34.5212 31.1717 38.125L31.2 38.3121C31.2456 38.61 31.0412 38.8862 30.7454 38.9319C30.7171 38.9362 30.6889 38.9384 30.6628 38.9384L30.6606 38.9382Z" fill="#2E4049"/>
<path fill-rule="evenodd" clip-rule="evenodd" d="M37.3588 33.9736C37.1392 33.9736 36.9326 33.8388 36.8499 33.6213C35.3189 29.5653 32.335 24.5217 29.1228 22.3994C28.8727 22.2341 28.8031 21.897 28.9683 21.6469C29.1336 21.3968 29.4707 21.3272 29.7209 21.4925C33.1353 23.75 36.2716 29.0176 37.8656 33.2389C37.9722 33.5194 37.8308 33.8326 37.5481 33.9391C37.485 33.9631 37.4198 33.9739 37.3567 33.9739L37.3588 33.9736ZM27.1157 47.3312C25.0279 47.3312 22.9574 46.5135 21.9527 44.7845C20.774 46.818 18.1185 47.5922 15.6937 47.2551C12.9251 46.8724 10.2675 45.0151 10.1979 41.6963C8.56899 42.029 7.16842 41.7333 6.20713 40.8438C5.08711 39.8064 4.71738 38.1166 5.16757 36.0809C6.08097 31.9531 9.81734 24.3802 14.1842 21.4924C14.4343 21.3271 14.7714 21.3967 14.9367 21.6468C15.102 21.8969 15.0345 22.234 14.7823 22.3993C10.8067 25.0286 7.11801 32.2772 6.22665 36.3159C5.86346 37.9578 6.11791 39.2823 6.94436 40.0457C7.75338 40.7938 9.05395 40.9439 10.6089 40.4719C10.7829 40.4197 10.9699 40.4567 11.1113 40.5698C11.2527 40.685 11.3266 40.8612 11.3092 41.0417C11.0091 44.33 13.5645 45.8655 15.8437 46.1786C18.2708 46.5136 20.9653 45.5719 21.4201 43.123C21.4679 42.8642 21.692 42.6772 21.9551 42.6772C22.2183 42.6772 22.4423 42.8642 22.4901 43.123C22.9447 45.5718 25.6392 46.5158 28.0665 46.1786C30.3458 45.8655 32.9012 44.3301 32.601 41.0417C32.5836 40.8612 32.6597 40.685 32.7989 40.5698C32.9403 40.4545 33.1273 40.4175 33.3013 40.4719C34.7498 40.9134 35.9959 40.809 36.8093 40.1783C37.0463 39.9935 37.3878 40.0369 37.5727 40.274C37.7575 40.5111 37.714 40.8525 37.477 41.0374C36.5266 41.7746 35.2086 42.0008 33.7124 41.6985C33.6428 45.0173 30.9852 46.8768 28.2166 47.2574C27.8534 47.3074 27.4859 47.3335 27.1183 47.3335L27.1157 47.3312Z" fill="#2E4049"/>
<path fill-rule="evenodd" clip-rule="evenodd" d="M15.763 40.3021C15.278 40.3021 14.8169 40.3978 14.4211 40.5849C13.8709 40.8437 13.5142 41.2482 13.4185 41.7223C13.3228 42.1986 13.4946 42.7075 13.9013 43.1598C14.3493 43.6579 15.0148 44.0146 15.7738 44.169C17.2571 44.4669 18.6859 43.8536 18.8925 42.8271C18.9882 42.353 18.8164 41.8419 18.4097 41.3895C17.9617 40.8937 17.2962 40.5348 16.5372 40.3804C16.2762 40.3282 16.0152 40.3021 15.763 40.3021ZM16.5329 45.3303C16.2153 45.3303 15.8891 45.2977 15.5607 45.2324C14.5734 45.0345 13.6969 44.5561 13.0945 43.8862C12.4507 43.1729 12.1876 42.3268 12.3529 41.507C12.5182 40.6849 13.0879 40.0085 13.9579 39.5996C14.7734 39.2169 15.7651 39.1168 16.7525 39.3147C17.7398 39.5148 18.6163 39.9911 19.2187 40.661C19.8625 41.3743 20.1256 42.2203 19.9603 43.0402C19.682 44.4147 18.2357 45.3303 16.5329 45.3303Z" fill="#2E4049"/>
<path fill-rule="evenodd" clip-rule="evenodd" d="M28.1463 40.3023C27.8919 40.3023 27.6331 40.3284 27.3721 40.3806C26.6131 40.535 25.9476 40.8917 25.4996 41.3897C25.0929 41.8421 24.921 42.3532 25.0168 42.8273C25.1125 43.3036 25.4691 43.7059 26.0194 43.9647C26.6239 44.2496 27.3764 44.3214 28.1376 44.167C29.6209 43.869 30.6996 42.7468 30.493 41.7225C30.3973 41.2484 30.0406 40.8439 29.4904 40.5851C29.0924 40.398 28.6313 40.3023 28.1485 40.3023H28.1463ZM27.3634 45.3327C26.7175 45.3327 26.0977 45.2044 25.5561 44.9478C24.6862 44.5389 24.1164 43.8625 23.9511 43.0404C23.7858 42.2183 24.049 41.3745 24.6927 40.6612C25.2951 39.9914 26.1716 39.5129 27.159 39.315C28.1463 39.1171 29.1381 39.2171 29.9536 39.5999C30.8235 40.0087 31.3933 40.6851 31.5586 41.5072C31.887 43.1383 30.4494 44.8108 28.3529 45.2327C28.0224 45.3001 27.6918 45.3327 27.3656 45.3327H27.3634Z" fill="#2E4049"/>
<path fill-rule="evenodd" clip-rule="evenodd" d="M16.1171 25.4068C15.1579 25.4068 14.3098 24.6934 14.1684 23.7256L13.9618 22.312C13.877 21.7291 14.0358 21.1855 14.4207 20.7418C14.8056 20.2959 15.3211 20.061 15.9083 20.061C17.1545 20.061 19.1074 20.5134 20.1144 20.8157C20.4015 20.9027 20.5646 21.205 20.4776 21.4921C20.3906 21.7791 20.0883 21.9422 19.799 21.8552C18.642 21.5073 16.8695 21.1463 15.9061 21.1463C15.6364 21.1463 15.4168 21.2463 15.2406 21.4508C15.0644 21.6552 14.997 21.8857 15.0362 22.1532L15.2428 23.5669C15.3124 24.0366 15.7495 24.3694 16.2193 24.3128L16.2997 24.3019C17.161 24.1975 18.7616 24.0018 19.8142 23.6734C20.1013 23.5842 20.4058 23.7452 20.495 24.0323C20.5841 24.3193 20.4232 24.6238 20.1383 24.713C18.9922 25.0697 17.3893 25.2654 16.4324 25.3828L16.352 25.3937C16.2737 25.4046 16.1932 25.4089 16.1149 25.4089L16.1171 25.4068Z" fill="#2E4049"/>
<path fill-rule="evenodd" clip-rule="evenodd" d="M27.7916 25.4069C27.7133 25.4069 27.635 25.4025 27.5546 25.3917C26.6607 25.2807 24.9948 25.0785 23.7726 24.7022C23.4855 24.6131 23.3245 24.3108 23.4115 24.0215C23.5007 23.7344 23.803 23.5735 24.0901 23.6605C25.2188 24.0084 26.8239 24.2042 27.6851 24.3086C28.157 24.3673 28.5941 24.0324 28.6615 23.5626L28.8682 22.149C28.9073 21.8815 28.8399 21.651 28.6637 21.4465C28.4876 21.2421 28.2701 21.1421 27.9982 21.1421C27.0021 21.1421 25.2841 21.5161 24.1053 21.8641C23.8182 21.9511 23.5159 21.7858 23.429 21.4966C23.3441 21.2095 23.5073 20.9072 23.7965 20.8224C24.76 20.5375 26.7281 20.0547 27.9961 20.0547C28.5855 20.0547 29.0987 20.2896 29.4837 20.7354C29.8686 21.1813 30.0274 21.7249 29.9426 22.3056L29.736 23.7193C29.5946 24.6871 28.7443 25.4004 27.7873 25.4004L27.7916 25.4069Z" fill="#2E4049"/>
<path fill-rule="evenodd" clip-rule="evenodd" d="M20.604 21.3943C20.5344 21.3943 20.4735 21.453 20.4735 21.5248V23.941C20.4735 24.0106 20.5322 24.0693 20.604 24.0693H23.3051C23.3747 24.0693 23.4356 24.0106 23.4356 23.941V21.5248C23.4356 21.453 23.3769 21.3943 23.3051 21.3943H20.604ZM23.3051 25.1589H20.604C19.932 25.1589 19.3861 24.613 19.3861 23.9432V21.527C19.3861 20.855 19.932 20.3091 20.604 20.3091H23.3051C23.9771 20.3091 24.523 20.855 24.523 21.527V23.9432C24.523 24.613 23.9772 25.1589 23.3051 25.1589Z" fill="#2E4049"/>
<path fill-rule="evenodd" clip-rule="evenodd" d="M24.5603 33.1706C24.5363 33.1706 24.5124 33.1684 24.4885 33.1662C24.2819 33.138 24.1079 32.9944 24.0427 32.7965L21.9548 26.3744L19.867 32.7965C19.8018 32.9944 19.63 33.1401 19.4212 33.1662C19.2124 33.1923 19.008 33.0988 18.8949 32.9248C18.362 32.1071 16.9985 30.7326 16.9854 30.7196C16.8592 30.5935 16.8027 30.4108 16.8375 30.2346C16.8592 30.1194 16.8853 29.9867 16.9114 29.8388C17.1724 28.4469 17.6574 25.8589 18.473 24.2084C18.6056 23.9387 18.9318 23.8278 19.2015 23.9604C19.4712 24.0931 19.5821 24.4193 19.4495 24.6868C18.7013 26.2027 18.2337 28.6972 17.9815 30.0369C17.9728 30.0782 17.9662 30.1195 17.9597 30.1565C18.2272 30.4349 18.7144 30.9503 19.1558 31.4723L21.4416 24.4455C21.5134 24.2215 21.7221 24.0714 21.9592 24.0714C22.1941 24.0714 22.4029 24.2215 22.4768 24.4455L24.7625 31.4723C25.2019 30.9503 25.689 30.4327 25.9587 30.1565C25.9522 30.1217 25.9456 30.0847 25.9391 30.0478C25.7042 28.7994 25.2149 26.1983 24.4646 24.6782C24.3319 24.4085 24.4429 24.0823 24.7125 23.9496C24.9822 23.8169 25.3084 23.9278 25.4411 24.1975C26.2566 25.8504 26.746 28.4514 27.0091 29.8474C27.0352 29.991 27.0613 30.1215 27.0809 30.2324C27.1157 30.4086 27.0592 30.5912 26.933 30.7174C26.92 30.7304 25.5563 32.1071 25.0235 32.9226C24.9213 33.077 24.7495 33.1684 24.569 33.1684L24.5603 33.1706Z" fill="#2E4049"/>
<path fill-rule="evenodd" clip-rule="evenodd" d="M37.9156 33.7385C37.7917 33.7385 37.6873 33.8429 37.6873 33.9668V43.823C37.6873 43.947 37.7917 44.0514 37.9156 44.0514H47.7718C47.8958 44.0514 48.0002 43.947 48.0002 43.823V33.9668C48.0002 33.8429 47.8958 33.7385 47.7718 33.7385H37.9156ZM47.7718 45.1391H37.9156C37.1892 45.1391 36.5999 44.5497 36.5999 43.8233V33.9671C36.5999 33.2407 37.1892 32.6514 37.9156 32.6514H47.7718C48.4982 32.6514 49.0876 33.2407 49.0876 33.9671V43.8233C49.0876 44.5497 48.496 45.1391 47.7718 45.1391Z" fill="#2E4049"/>
<path fill-rule="evenodd" clip-rule="evenodd" d="M41.5473 41.6657H44.1353L45.7382 39.7062L45.1684 37.2704L42.8413 36.1765L40.5143 37.2704L39.9445 39.7062L41.5473 41.6657ZM44.3942 42.7531H41.2907C41.1276 42.7531 40.9732 42.6791 40.8688 42.553L38.9332 40.1846C38.8266 40.0541 38.7853 39.8802 38.8244 39.7171L39.516 36.7658C39.553 36.6027 39.6639 36.4679 39.814 36.3983L42.6108 35.0847C42.7565 35.0151 42.9261 35.0151 43.074 35.0847L45.8708 36.3983C46.0209 36.4679 46.1318 36.6049 46.1688 36.7658L46.8604 39.7171C46.8995 39.8823 46.8582 40.0541 46.7516 40.1846L44.816 42.553C44.7138 42.6791 44.5573 42.7531 44.3942 42.7531Z" fill="#2E4049"/>
<path fill-rule="evenodd" clip-rule="evenodd" d="M42.0695 33.7385H40.2644C39.9643 33.7385 39.7207 33.4949 39.7207 33.1948C39.7207 32.8946 39.9643 32.6511 40.2644 32.6511H42.0695C42.1935 32.6511 42.2979 32.5467 42.2979 32.4227V22.5665C42.2979 22.4425 42.1935 22.3381 42.0695 22.3381H32.2133C32.0894 22.3381 31.985 22.4425 31.985 22.5665V23.6539C31.985 23.954 31.7414 24.1976 31.4413 24.1976C31.1412 24.1976 30.8976 23.954 30.8976 23.6539V22.5665C30.8976 21.8423 31.487 21.2507 32.2134 21.2507H42.0695C42.7959 21.2507 43.3853 21.8423 43.3853 22.5665V32.4227C43.3853 33.1469 42.7938 33.7385 42.0695 33.7385Z" fill="#2E4049"/>
<path fill-rule="evenodd" clip-rule="evenodd" d="M40.9755 31.3505H36.2279C35.9278 31.3505 35.6842 31.107 35.6842 30.8068C35.6842 30.5067 35.9278 30.2631 36.2279 30.2631H40.5297L37.1414 24.9327L35.0884 28.1601C34.9274 28.4146 34.5903 28.4885 34.338 28.3276C34.0857 28.1666 34.0096 27.8295 34.1706 27.5772L36.4302 24.0258C36.5846 23.78 36.8521 23.6365 37.1413 23.6365C37.4306 23.6365 37.6959 23.7822 37.8525 24.0258L41.6867 30.0565C41.8541 30.3197 41.865 30.6394 41.7149 30.9134C41.5649 31.1874 41.2887 31.3505 40.9755 31.3505Z" fill="#2E4049"/>
<path fill-rule="evenodd" clip-rule="evenodd" d="M46.8844 24.7198C46.2689 24.7198 45.7708 25.22 45.7708 25.8354C45.7708 27.1512 47.1214 28.6105 48.5438 30.0394C49.9661 28.6083 51.3167 27.149 51.3167 25.8354C51.3167 25.2221 50.8165 24.7198 50.201 24.7198C49.716 24.7198 49.4333 24.8568 49.0287 25.6636C48.9374 25.8463 48.7482 25.9637 48.5416 25.9637C48.335 25.9637 48.1479 25.8463 48.0544 25.6636C47.6521 24.8568 47.3672 24.7198 46.8822 24.7198H46.8844ZM48.5416 31.3529C48.4024 31.3529 48.2632 31.3007 48.1566 31.1941C46.4472 29.4869 44.6813 27.7188 44.6813 25.8354C44.6813 24.6218 45.6686 23.6323 46.8822 23.6323C47.6716 23.6323 48.174 23.9498 48.5394 24.3957C48.9048 23.9499 49.4072 23.6323 50.1966 23.6323C51.4102 23.6323 52.3997 24.6197 52.3997 25.8354C52.3997 27.7188 50.6337 29.4869 48.9243 31.1941C48.8178 31.3007 48.6786 31.3529 48.5394 31.3529H48.5416Z" fill="#2E4049"/>
<path fill-rule="evenodd" clip-rule="evenodd" d="M53.4696 33.7385H43.6134C42.887 33.7385 42.2976 33.1469 42.2976 32.4227C42.2976 32.1204 42.5412 31.879 42.8413 31.879C43.1414 31.879 43.385 32.1204 43.385 32.4227C43.385 32.5467 43.4894 32.6511 43.6134 32.6511H53.4696C53.5935 32.6511 53.7001 32.5467 53.7001 32.4227V22.5665C53.7001 22.4425 53.5957 22.3381 53.4696 22.3381H43.6134C43.4894 22.3381 43.385 22.4425 43.385 22.5665C43.385 22.8688 43.1414 23.1102 42.8413 23.1102C42.5412 23.1102 42.2976 22.8688 42.2976 22.5665C42.2976 21.8423 42.8892 21.2507 43.6134 21.2507H53.4696C54.196 21.2507 54.7875 21.8423 54.7875 22.5665V32.4227C54.7875 33.1469 54.196 33.7385 53.4696 33.7385Z" fill="#2E4049"/>
</svg>
