<svg width="70" height="70" viewBox="0 0 70 70" fill="none" xmlns="http://www.w3.org/2000/svg">
<circle cx="35" cy="35" r="35" fill="#1492FF"/>
<path d="M54.2734 24.6599C53.9475 24.6599 53.6443 24.7445 53.3699 24.8827V24.3856C53.3699 23.2675 52.4602 22.3599 51.3443 22.3599C50.9853 22.3599 50.6532 22.461 50.3623 22.626C50.1272 21.7658 49.3474 21.1284 48.415 21.1284C47.4785 21.1284 46.6967 21.7699 46.4656 22.6343C46.2717 22.525 46.0592 22.4466 45.8344 22.4032V21.8319C45.8344 20.5735 44.8092 19.5483 43.5509 19.5483C43.1259 19.5483 42.7319 19.6721 42.3915 19.8763V19.1275C42.3915 17.8691 41.3663 16.8439 40.108 16.8439C39.6624 16.8439 39.2478 16.978 38.895 17.2008C38.6743 16.1735 37.7584 15.3999 36.6651 15.3999C35.5718 15.3999 34.6579 16.1734 34.4351 17.2008C34.0824 16.978 33.6698 16.8439 33.2222 16.8439C31.9638 16.8439 30.9386 17.8691 30.9386 19.1275V24.6787C30.6787 24.7014 30.4332 24.7715 30.2104 24.8829V24.3858C30.2104 23.2677 29.3007 22.3601 28.1847 22.3601C27.8258 22.3601 27.4937 22.4612 27.2028 22.6262C26.9677 21.766 26.1879 21.1286 25.2555 21.1286C24.3231 21.1286 23.5433 21.766 23.3082 22.6262C23.0153 22.4632 22.6831 22.3601 22.3263 22.3601C21.2082 22.3601 20.2985 23.2698 20.2985 24.3858V34.675L18.9886 33.2537C18.3738 32.5875 17.5199 32.2326 16.5957 32.2347C15.6902 32.2533 14.8341 32.6617 14.2482 33.3528C13.9264 33.7323 13.9161 34.2934 14.2255 34.6853L16.4926 37.5568C17.064 38.2809 17.4745 39.1122 17.7117 40.0281C18.1553 41.7464 19.098 44.3869 20.8741 45.7193V53.1394C20.8741 53.9439 21.5301 54.5999 22.3346 54.5999H28.5787C29.3852 54.5999 30.0391 53.9439 30.0391 53.1394V46.4105C30.1382 46.3115 30.2475 46.2146 30.3444 46.1156C30.8251 45.6205 31.2479 45.0717 31.6131 44.4859V53.0631C31.6131 53.8697 32.2691 54.5257 33.0735 54.5257H40.7245C41.5289 54.5257 42.1849 53.8697 42.1849 53.0631V44.9602C42.3108 44.8364 42.449 44.7106 42.5707 44.5868C42.6326 44.5228 42.6883 44.4506 42.7481 44.3846C43.1421 44.9375 43.5691 45.381 44.0271 45.7234V53.1372C44.0271 53.9417 44.6831 54.5977 45.4875 54.5977H51.7316C52.5382 54.5977 53.1921 53.9417 53.1921 53.1372V46.4084C53.2911 46.3093 53.4005 46.2124 53.4954 46.1134C55.2983 44.2548 56.2926 41.7773 56.2926 39.1368V26.6835C56.2988 25.5695 55.3895 24.6599 54.2734 24.6599ZM30.2106 26.6877C30.2106 26.2524 30.5263 25.9038 30.9388 25.8192V31.465L30.2106 30.677V26.6877ZM27.2814 24.3855C27.2814 23.8884 27.6878 23.482 28.1849 23.482C28.682 23.482 29.0884 23.8884 29.0884 24.3855V29.489C28.5851 29.0001 27.9621 28.6701 27.2813 28.5298L27.2814 24.3855ZM24.3522 24.3855V23.154C24.3522 22.6569 24.7585 22.2505 25.2557 22.2505C25.7528 22.2505 26.1592 22.6569 26.1592 23.154V28.4888C25.4991 28.5651 24.874 28.8023 24.3521 29.2067L24.3522 24.3855ZM29.5381 45.3358C28.9296 45.965 28.2344 46.6003 27.4732 47.2253C27.2339 47.4213 27.1988 47.7761 27.3948 48.0154C27.5062 48.1516 27.6671 48.2217 27.8301 48.2217C27.9559 48.2217 28.0817 48.1804 28.1869 48.0938C28.4427 47.8834 28.6779 47.673 28.9172 47.4605V53.1417C28.9172 53.3273 28.7666 53.4779 28.5789 53.4779L22.3348 53.48C22.1491 53.48 21.9965 53.3294 21.9965 53.1437V46.3282C22.2316 46.4108 22.4751 46.4809 22.735 46.518C22.7618 46.5222 22.7886 46.5242 22.8133 46.5242C23.0898 46.5242 23.3291 46.3221 23.3683 46.0415C23.4116 45.7342 23.197 45.4495 22.8897 45.4082C20.4246 45.0617 19.2054 41.3383 18.797 39.7519C18.5206 38.6854 18.042 37.7138 17.3737 36.866L15.1416 34.0358C15.5171 33.617 16.0534 33.3695 16.6166 33.3592C17.2045 33.3571 17.7635 33.5861 18.1596 34.0152L20.2967 36.3317V37.7448C20.2967 38.0542 20.5484 38.3059 20.8578 38.3059C21.1672 38.3059 21.4189 38.0542 21.4189 37.7448L21.421 24.3858C21.421 23.8886 21.8273 23.4823 22.3245 23.4823C22.8216 23.4823 23.228 23.8887 23.228 24.3858V37.7448C23.228 38.0542 23.4796 38.3059 23.7891 38.3059C24.0985 38.3059 24.3502 38.0542 24.3502 37.7448V31.8883L26.4439 34.5411C27.1247 35.4034 27.6115 36.3935 27.8941 37.4806C28.35 39.2485 29.2597 41.858 30.8832 43.5125C30.516 44.1767 30.0662 44.7912 29.5381 45.3358ZM41.7665 43.8072C41.0486 44.5478 40.2297 45.2966 39.3323 46.0351C39.0931 46.2311 39.058 46.5859 39.254 46.8252C39.3653 46.9593 39.5262 47.0294 39.6892 47.0294C39.815 47.0294 39.9409 46.9882 40.0461 46.9015C40.4009 46.6107 40.733 46.3136 41.0651 46.0186V53.0654C41.0651 53.2511 40.9145 53.4037 40.7289 53.4037H33.078C32.8923 53.4037 32.7397 53.2531 32.7397 53.0654V44.7623C33.0491 44.8819 33.3729 44.9789 33.7175 45.0284C33.7443 45.0325 33.7711 45.0346 33.7959 45.0346C34.0723 45.0346 34.3116 44.8324 34.3508 44.5519C34.3941 44.2445 34.1796 43.9599 33.8722 43.9186C30.9182 43.5019 29.4681 39.0834 28.9812 37.2019C28.6594 35.9621 28.1045 34.8337 27.3268 33.8477L24.6637 30.4543C25.1258 29.9097 25.8003 29.5879 26.514 29.5735C27.2278 29.5817 27.9167 29.8499 28.4015 30.3759L31.0873 33.2886C31.0894 33.2907 31.0935 33.2927 31.0976 33.2948C31.1286 33.3257 31.1678 33.3484 31.2049 33.3711C31.2297 33.3876 31.2503 33.4082 31.2771 33.4206C31.3039 33.433 31.3349 33.433 31.3637 33.4413C31.405 33.4516 31.4463 33.466 31.4896 33.466C31.4937 33.466 31.4958 33.4681 31.4999 33.4681C31.5288 33.4681 31.5535 33.4557 31.5803 33.4516C31.6216 33.4454 31.6649 33.4413 31.7041 33.4268C31.7433 33.4124 31.7742 33.3876 31.8073 33.3649C31.832 33.3484 31.8588 33.3402 31.8815 33.3195C31.8836 33.3175 31.8856 33.3134 31.8877 33.3092C31.9186 33.2783 31.9393 33.2412 31.964 33.204C31.9805 33.1793 32.0032 33.1566 32.0135 33.1298C32.0259 33.1029 32.0259 33.0741 32.0342 33.0452C32.0445 33.0019 32.0589 32.9606 32.061 32.9173C32.061 32.9132 32.063 32.9111 32.063 32.907V19.1271C32.063 18.4876 32.5829 17.9678 33.2223 17.9678C33.8618 17.9678 34.3817 18.4876 34.3817 19.1271V33.1172C34.3817 33.4266 34.6333 33.6782 34.9427 33.6782C35.2522 33.6782 35.5038 33.4266 35.5038 33.1172V17.6812C35.5038 17.0417 36.0237 16.5219 36.6631 16.5219C37.3026 16.5219 37.8225 17.0417 37.8225 17.6812V33.2888C37.8225 33.5982 38.0741 33.8499 38.3836 33.8499C38.693 33.8499 38.9446 33.5982 38.9446 33.2888L38.9467 19.1276C38.9467 18.4881 39.4665 17.9683 40.106 17.9683C40.7455 17.9683 41.2653 18.4881 41.2653 19.1276V33.2888C41.2653 33.5982 41.517 33.8499 41.8264 33.8499C42.1358 33.8499 42.3875 33.5982 42.3875 33.2888L42.3896 21.8319C42.3896 21.1925 42.9094 20.6726 43.5489 20.6726C44.1884 20.6726 44.7082 21.1925 44.7082 21.8319V36.4615C44.7082 39.2443 43.6622 41.8539 41.7665 43.8072ZM55.1752 39.1411C55.1752 41.4886 54.2943 43.6876 52.6956 45.3356C52.0871 45.9647 51.3919 46.6001 50.6307 47.2251C50.3914 47.4232 50.3563 47.7759 50.5523 48.0152C50.6637 48.1513 50.8246 48.2215 50.9876 48.2215C51.1134 48.2215 51.2392 48.1802 51.3444 48.0936C51.6002 47.8852 51.8354 47.6728 52.0747 47.4603V53.1415C52.0747 53.3271 51.9241 53.4777 51.7364 53.4777L45.4923 53.4798C45.3066 53.4798 45.154 53.3292 45.154 53.1435V46.3301C45.3933 46.4147 45.6387 46.4828 45.8925 46.5179C45.9193 46.522 45.9461 46.5241 45.9708 46.5241C46.2473 46.5241 46.4865 46.3219 46.5258 46.0413C46.5691 45.734 46.3545 45.4493 46.0472 45.4081C45.0962 45.274 44.2422 44.6242 43.4996 43.4917C45.0034 41.4907 45.8286 39.0483 45.8286 36.4655L45.8306 23.5543C46.1565 23.6905 46.3855 24.0123 46.3855 24.3856V37.7446C46.3855 38.0541 46.6372 38.3057 46.9466 38.3057C47.256 38.3057 47.5077 38.0541 47.5077 37.7446L47.5098 24.3856V23.1541C47.5098 22.657 47.9161 22.2506 48.4133 22.2506C48.9104 22.2506 49.3168 22.657 49.3168 23.1541V37.7446C49.3168 38.0541 49.5684 38.3057 49.8779 38.3057C50.1873 38.3057 50.439 38.0541 50.439 37.7446V24.3856C50.439 23.8885 50.8453 23.4821 51.3425 23.4821C51.8396 23.4821 52.246 23.8885 52.246 24.3856V37.7446C52.246 38.0541 52.4976 38.3057 52.8071 38.3057C53.1165 38.3057 53.3682 38.0541 53.3682 37.7446V26.6876C53.3682 26.1904 53.7745 25.784 54.2717 25.784C54.7688 25.784 55.1752 26.1904 55.1752 26.6876L55.1752 39.1411Z" fill="white"/>
<path d="M39.7653 34.5594C38.7298 34.5986 37.8696 35.2484 37.3766 35.7187C36.8835 35.2484 36.0254 34.5986 34.9878 34.5594C34.1462 34.5243 33.3747 34.8936 32.696 35.6465C31.8895 36.5377 31.578 37.5258 31.7657 38.582C32.3061 41.5957 36.9207 44.0339 37.1168 44.1353C37.1993 44.1786 37.288 44.1993 37.3767 44.1993C37.4654 44.1993 37.5541 44.1786 37.6366 44.1353C37.8326 44.0322 42.4472 41.596 42.9877 38.582C43.1775 37.5278 42.864 36.5397 42.0574 35.6465C41.3787 34.8936 40.6172 34.5264 39.7653 34.5594ZM41.8818 38.3819C41.5393 40.2982 38.7236 42.2394 37.3766 42.9964C36.0295 42.2394 33.2158 40.2982 32.8714 38.3819C32.7455 37.6764 32.9601 37.0286 33.5294 36.3995C33.9812 35.8982 34.4453 35.6837 34.9425 35.6816C36.0069 35.7187 36.9248 36.8739 36.9331 36.8842C36.9475 36.9028 36.9702 36.9131 36.9867 36.9296C37.0032 36.9461 37.0115 36.9667 37.03 36.9812C37.0424 36.9894 37.0568 36.9915 37.0692 36.9997C37.1022 37.0204 37.1352 37.0369 37.1703 37.0513C37.2033 37.0637 37.2342 37.0761 37.2693 37.0843C37.3044 37.0905 37.3395 37.0926 37.3745 37.0926C37.4096 37.0926 37.4447 37.0926 37.4797 37.0843C37.5148 37.0781 37.5457 37.0657 37.5787 37.0513C37.6138 37.0369 37.6489 37.0224 37.6798 36.9997C37.6922 36.9915 37.7066 36.9894 37.719 36.9812C37.7376 36.9667 37.7458 36.9461 37.7623 36.9296C37.7788 36.9131 37.8015 36.9028 37.816 36.8842C37.8242 36.8739 38.7422 35.7187 39.8066 35.6816C40.312 35.6754 40.7679 35.9003 41.2197 36.3995C41.7931 37.0286 42.0076 37.6785 41.8818 38.3819Z" fill="white"/>
</svg>
