<svg width="100" height="100" viewBox="0 0 100 100" fill="none" xmlns="http://www.w3.org/2000/svg">
<circle cx="50" cy="50" r="49.5" fill="#EEFFE9" stroke="#73BE5F"/>
<path d="M34.2662 71.7654H42.2311C44.3454 71.7654 46.2827 70.5895 47.2623 68.7153C47.5993 68.0582 47.8054 67.343 47.8684 66.606H52.3177C52.3904 67.3479 52.611 68.0655 52.9651 68.7201C53.9422 70.5991 55.8843 71.7775 58.001 71.7799H65.961C67.7383 71.7605 69.1761 70.3251 69.193 68.5456V52.2986C69.2003 50.3954 68.3323 48.5964 66.8387 47.418C65.5779 46.4337 64.8407 44.9232 64.8359 43.3254V33.271C64.8456 31.1592 63.289 29.3698 61.1965 29.0886C59.104 28.8098 57.1304 30.1263 56.5848 32.1653C52.3757 33.494 47.8608 33.494 43.6542 32.1653C43.1305 30.0996 41.1423 28.754 39.0305 29.0377C36.9162 29.3189 35.3523 31.1397 35.3911 33.2709V43.3446C35.379 44.9375 34.6419 46.4359 33.3859 47.4178C31.8874 48.5864 31.0073 50.3781 31 52.279V68.5067C31.0024 70.3081 32.4647 71.7654 34.2662 71.7654ZM46.9448 56.5463V61.2135H35.9148V56.5463H46.9448ZM46.9448 62.1833V66.0625C46.9448 66.7317 46.8017 67.3936 46.5253 68.0022H31.9703V62.1833H46.9448ZM34.9452 61.2135H31.9702V56.5463H34.9452V61.2135ZM42.2311 70.7956H34.2662C33.1872 70.7956 32.2562 70.0464 32.0282 68.9917H45.9358C45.0435 70.1312 43.6787 70.7956 42.2311 70.7956ZM68.2549 56.5708V61.238L65.1586 61.2404V56.5465L68.2549 56.5708ZM53.7024 68.0217C53.426 67.4132 53.2805 66.7513 53.2805 66.0821V62.2028H68.2551V68.0217H53.7024ZM64.1893 61.2135H53.281V56.5463H64.1893V61.2135ZM65.9617 70.7956H57.9943C56.5492 70.7956 55.1818 70.1312 54.2894 68.9917H68.197C67.9691 70.0464 67.0383 70.7956 65.9617 70.7956ZM60.6348 30.0633H60.6324C61.4907 30.0633 62.3126 30.4052 62.9188 31.0113C63.525 31.6174 63.8668 32.4394 63.8668 33.2976V43.3452C63.8741 45.2437 64.7494 47.0354 66.2454 48.2064C67.5086 49.1883 68.2506 50.6988 68.2554 52.2991V55.577H53.2808V48.3299C53.2808 47.6074 53.5572 46.9115 54.0567 46.3903L56.3577 43.9924L56.3601 43.99C57.0293 43.2966 57.4051 42.3704 57.4075 41.4054V33.2714C57.4075 31.4893 58.8502 30.0419 60.6323 30.0395L60.6348 30.0633ZM50.1144 34.1438C52.2554 34.1293 54.3842 33.8092 56.4382 33.1934V41.405C56.443 42.1276 56.1642 42.8234 55.6623 43.3447L53.3613 45.7426H53.3589C52.6921 46.4384 52.3163 47.3646 52.3115 48.3296V65.6044H47.9156V48.3296C47.9108 47.3646 47.5374 46.4384 46.8682 45.7426L44.5672 43.3447C44.0653 42.8234 43.7865 42.1276 43.7913 41.405V33.1934C45.8426 33.8093 47.9707 34.1293 50.1144 34.1438ZM33.9493 48.206C35.4575 47.0422 36.3449 45.2481 36.3618 43.3448V33.2711C36.3618 31.4867 37.8093 30.0393 39.5939 30.0393C41.3784 30.0393 42.8259 31.4867 42.8259 33.2711V41.4052C42.8307 42.3677 43.2065 43.2939 43.8733 43.9897L46.1743 46.3876L46.1767 46.3901C46.6762 46.9113 46.9526 47.6071 46.9526 48.3297V55.5768H31.9706V52.2988C31.9754 50.6986 32.7173 49.1881 33.9806 48.2062L33.9493 48.206Z" fill="#73BE5F"/>
</svg>
