<svg width="50" height="23" viewBox="0 0 50 23" fill="none" xmlns="http://www.w3.org/2000/svg">
<path d="M45.1621 18.3573L45.0129 17.8937L44.6736 17.0439L44.2478 16.1873L43.7681 15.3577L43.2521 14.5567L42.7125 13.7918L42.1745 13.0809L41.9034 12.7364L41.6426 12.4119L41.3893 12.1036L41.1455 11.8118L40.9134 11.5389L40.689 11.2778L39.8552 10.3415L38.9833 9.42906L38.0844 8.55372L37.1622 7.71236L36.2108 6.90792L35.2354 6.14414L34.2362 5.41881L33.2118 4.73519L32.1653 4.09686L31.0958 3.50041L30.0029 2.95029L28.8895 2.4501L27.7563 1.99538L26.5991 1.59144L25.4247 1.24104L24.233 0.941924L23.0193 0.698222L21.79 0.512684L20.5456 0.380845L19.2832 0.309204L18.0082 0.299331L16.7198 0.347796L15.4151 0.461087L14.1135 0.637378L13.539 0.732748L12.9478 0.840213L12.3339 0.9627L11.7019 1.10053L11.0513 1.25595L10.389 1.42947L9.71939 1.62147L9.04219 1.83416L8.36629 2.06825L7.69173 2.32373L7.02149 2.60422L6.36222 2.91025L5.71516 3.24078L5.0833 3.59943L4.47429 3.98792L3.88815 4.40626L3.32987 4.86044L2.80856 5.34896L2.323 5.87283L1.87919 6.43926L1.50066 7.02435L1.31463 7.35918L1.15263 7.68808L1.00773 8.02508L0.877721 8.37L0.764402 8.72745L0.674959 9.06886C0.53933 9.5904 0.851222 10.1174 1.3698 10.2451C1.88838 10.3728 2.41943 10.0521 2.55506 9.53052L2.63077 9.23955L2.71339 8.98165L2.8089 8.72925L2.91508 8.48219L3.03271 8.24388L3.15266 8.02819L3.45688 7.55485L3.79379 7.12558L4.176 6.71339L4.59665 6.31995L5.05311 5.94953L5.54577 5.59772L6.068 5.26394L6.61596 4.95352L7.18884 4.663L7.78018 4.38967L8.38515 4.1376L9.00274 3.90557L9.6265 3.69086L10.2518 3.49532L10.8776 3.31776L11.4975 3.15542L12.1068 3.01016L12.7034 2.88182L13.2842 2.76678L13.8423 2.66676L14.361 2.58152L15.5979 2.41686L16.8062 2.31718L18.0022 2.27703L19.1842 2.28958L20.3497 2.35906L21.502 2.48467L22.6393 2.66175L23.7583 2.89117L24.8633 3.17328L25.9527 3.5012L27.0218 3.87906L28.0752 4.30498L29.111 4.77433L30.1268 5.28917L31.1237 5.85067L32.1024 6.44996L33.0582 7.09113L33.9942 7.77555L34.9101 8.49534L35.8023 9.25359L36.6718 10.0493L37.5193 10.8779L38.3412 11.7404L39.1477 12.6465L39.351 12.8824L39.5741 13.1445L39.8078 13.4243L40.0492 13.7182L40.2959 14.0259L40.5429 14.3415L41.053 15.0166L41.5481 15.7207L42.0154 16.4462L42.4395 17.1794L42.7996 17.9053L43.0878 18.6344L43.1548 18.846L42.8466 18.6207L42.4632 18.3402L42.0694 18.0521L41.2689 17.4704L40.4747 16.9038L39.7273 16.3857L39.3692 16.1453L39.0345 15.9281L38.7234 15.734L38.4323 15.5639L38.1556 15.4186L37.9336 15.3213C37.4165 15.0962 36.8103 15.337 36.5765 15.8574C36.3436 16.379 36.5733 16.9835 37.0904 17.2086L37.2376 17.2708L37.4133 17.3621L37.6462 17.4973L37.9174 17.6657L38.2226 17.8627L38.5524 18.0841L39.2821 18.5884L40.0618 19.1426L40.8587 19.7151L41.253 19.9987L41.64 20.2762L42.0146 20.5437L42.3757 20.8L42.7161 21.039L43.0338 21.2583L43.3278 21.4566L43.5928 21.6302L43.8219 21.7706L43.9416 21.8396L44.0521 21.9L44.1652 21.9561L44.2986 22.0093L44.4991 22.0634L44.9689 22.046L45.3111 21.9254L45.6624 21.7091L45.9462 21.4616L46.1977 21.1903L46.433 20.8897L46.6663 20.5519L47.0858 19.8647L47.5027 19.0877L47.9034 18.2813L48.1003 17.8678L48.2896 17.4626L48.4727 17.0648L48.6491 16.6787L48.8171 16.3099L48.9774 15.9641L49.1274 15.6432L49.2643 15.356L49.3872 15.1091L49.4935 14.9069L49.575 14.7666L49.6475 14.6626C49.9526 14.2151 49.8413 13.6111 49.3994 13.3124C48.9574 13.0137 48.3526 13.1347 48.0475 13.5822L47.9305 13.7544L47.7956 13.9868L47.6595 14.2427L47.5189 14.5229L47.3711 14.8317L47.2153 15.1655L47.0522 15.5179L46.883 15.8877L46.707 16.2693L46.5248 16.6582L46.3389 17.0502L46.1525 17.4366L45.7669 18.2015L45.3846 18.8962L45.3097 19.0146L45.2723 18.8088L45.1575 18.3591L45.1621 18.3573Z" fill="#2E4049"/>
</svg>
