<svg width="16" height="16" viewBox="0 0 16 16" fill="none" xmlns="http://www.w3.org/2000/svg">
<path d="M0.3 14.3C-0.0865994 14.6866 -0.0865994 15.3134 0.3 15.7C0.686599 16.0866 1.3134 16.0866 1.7 15.7L0.3 14.3ZM15.99 0.999999C15.9899 0.453266 15.5467 0.0100505 15 0.0100499L6.09045 0.0100504C5.54372 0.0100504 5.1005 0.453266 5.1005 1C5.1005 1.54673 5.54372 1.98995 6.09045 1.98995L14.0101 1.98995L14.0101 9.90955C14.0101 10.4563 14.4533 10.8995 15 10.8995C15.5467 10.8995 15.9899 10.4563 15.9899 9.90955L15.99 0.999999ZM1 15L1.7 15.7L15.7 1.7L15 1L14.3 0.3L0.3 14.3L1 15Z" fill="#73BE5F"/>
</svg>
