<svg width="42" height="50" viewBox="0 0 42 50" fill="none" xmlns="http://www.w3.org/2000/svg">
<path d="M20.7537 45.3321C20.7385 44.5565 20.6509 43.872 20.5583 43.813C20.4656 43.7539 20.2483 42.3883 20.0748 40.7781C19.9012 39.168 19.7193 37.745 19.6704 37.6168C19.5407 37.2712 19.726 37.1667 20.1354 37.3504C20.4791 37.5072 21.2625 40.8708 21.0131 41.1204C20.9677 41.1642 21.0014 41.2435 21.0856 41.2957C21.1698 41.348 21.2945 42.6934 21.3619 44.2834C21.4495 46.3639 21.4983 49.9267 21.3619 49.9992C21.2591 50.0548 21.0334 47.2339 20.9441 47.0602C20.8548 46.8866 20.7705 46.1093 20.7537 45.3321ZM7.83017 25.1504C6.23979 23.8758 4.58876 22.3583 3.51896 21.1916C0.547101 17.946 -1.42234 13.7765 1.28333 16.4556C2.21329 17.3761 2.51318 17.5549 4.17431 18.1753C5.19357 18.5547 6.36951 19.052 6.78564 19.2763C7.20345 19.5022 8.41645 19.8816 9.4812 20.121C17.1518 21.834 19.9231 23.5453 22.179 27.9542C23.7542 31.0312 23.857 32.1423 22.7956 34.6292C21.719 37.1481 21.9381 37.2172 18.5383 33.2854C15.3323 29.5762 12.8035 27.3658 12.5508 28.052C12.4598 28.2965 12.7327 28.6843 13.7385 29.738C18.1912 34.41 19.9282 36.5749 19.6199 37.0773C19.5019 37.2712 19.3705 37.4297 19.3284 37.4297C19.2863 37.4297 18.7236 36.5395 18.0767 35.452C16.6783 33.1017 12.4648 28.8647 7.83017 25.1504Z" fill="#70BC5B"/>
<path d="M27.18 17.2733C28.8495 15.4692 34.03 10.6236 34.2945 10.6169C34.4074 10.6135 34.3619 10.5309 34.1935 10.4331C33.1388 9.81939 23.2967 19.654 23.2967 21.3214C23.2967 21.5372 23.1097 21.7497 22.9176 21.7497C22.8772 21.7497 22.5503 21.1242 22.1915 20.3587C21.0728 17.973 21.184 13.3162 22.3987 11.6976C24.0346 9.51759 26.1152 8.11819 28.2834 7.74052C28.7569 7.65791 29.3297 7.44378 29.5571 7.26507C29.7845 7.08635 30.4416 6.85368 31.0178 6.74914C31.5939 6.64461 32.32 6.40857 32.63 6.22479C32.9417 6.0427 33.7167 5.78474 34.3535 5.65323C36.6009 5.18789 39.5711 3.67047 40.6611 2.43124C41.7764 1.16335 41.9954 1.07568 42.0005 1.89677C42.0022 2.19857 41.8438 2.71112 41.6484 3.03484C40.1068 5.5841 39.6452 6.18601 37.7364 8.12494C36.579 9.30178 35.2262 10.5258 34.7292 10.8445C32.3167 12.3906 27.3164 18.0725 25.2341 21.635C25.1414 21.7935 24.9713 21.9233 24.855 21.9217C24.7388 21.92 24.6444 21.7699 24.6444 21.5895C24.6444 20.8021 25.9164 18.639 27.18 17.2733Z" fill="#70BC5B"/>
<path d="M21.694 25.2701C21.2324 24.5636 20.668 23.6178 20.4406 23.171C19.9975 22.2943 19.2663 21.3686 17.8545 19.8951C16.3079 18.2815 14.4396 15.2045 14.0672 13.6568C13.7707 12.431 13.6814 6.84188 13.9375 5.64817C14.2088 4.38366 14.1127 1.27295 13.7994 1.21056C13.4944 1.14987 13.395 0 13.6932 0H13.9257C13.9594 0 14.0319 0.217497 14.0841 0.483888C14.1431 0.777256 14.3149 1.00318 14.5204 1.05714C14.7411 1.11446 14.9787 1.45504 15.1943 2.02491C15.378 2.5088 15.6526 3.04158 15.8042 3.2085C16.5573 4.04139 17.0627 9.77387 16.8032 14.5284C16.6668 17.0136 16.3281 16.3123 19.706 20.5425C21.0976 22.2858 21.8052 23.316 21.8776 23.7038C21.9551 24.1169 22.0747 24.2787 22.3039 24.2787C22.4791 24.2787 22.6223 24.363 22.6223 24.4675C22.6223 24.5822 22.7857 24.5468 23.0435 24.3782C23.2759 24.2264 23.4663 23.9719 23.468 23.8117C23.4714 23.52 23.7763 22.6905 24.0206 22.3044C24.2211 21.9891 24.6439 22.2471 24.6439 22.6837C24.6439 22.8979 24.5311 23.1879 24.3912 23.3278C24.2531 23.466 24.1385 23.7645 24.1385 23.9887C24.1385 24.2146 23.997 24.6176 23.8252 24.8857C23.6533 25.1554 23.4663 25.7287 23.409 26.162C23.3534 26.5953 23.2355 26.9949 23.1496 27.0472C23.062 27.1011 22.9457 27.1449 22.8918 27.1449C22.8362 27.1449 22.7335 27.0118 22.6627 26.8499C22.592 26.688 22.1573 25.9765 21.694 25.2701Z" fill="#70BC5B"/>
</svg>
