<svg width="222" height="222" viewBox="0 0 222 222" fill="none" xmlns="http://www.w3.org/2000/svg">
<rect width="222" height="222" rx="20" fill="#2A2928"/>
<path d="M145.551 118.428V89.5343H170.022C172.294 89.5343 173.938 89.969 174.955 90.8462C175.98 91.7257 176.488 93.139 176.488 95.0897V101.476C176.488 103.389 175.98 104.794 174.955 105.673C173.938 106.56 172.294 107.003 170.022 107.003H152.1V118.428H145.551ZM22.2702 130.58V132.628H26.1695C26.4586 132.628 26.6589 132.573 26.7704 132.461C26.8821 132.351 26.9369 132.152 26.9369 131.869V131.34C26.9369 131.061 26.8792 130.863 26.7649 130.749C26.6518 130.635 26.4527 130.58 26.1695 130.58H22.2702ZM169.651 133.613V126.882H176.427V127.882H170.922V129.611H174.239V130.611H170.922V132.628H176.488V133.613H169.651ZM166.412 127.882H161.713V132.596H166.412V130.992L167.682 131.233V132.023C167.682 132.639 167.568 133.057 167.338 133.279C167.107 133.502 166.671 133.613 166.031 133.613H162.078C161.439 133.613 161.005 133.505 160.78 133.29C160.555 133.076 160.444 132.655 160.444 132.023V128.481C160.444 127.854 160.558 127.433 160.785 127.213C161.012 126.993 161.443 126.882 162.078 126.882H166.031C166.671 126.882 167.107 126.993 167.338 127.218C167.568 127.443 167.682 127.864 167.682 128.481V129.116L166.412 129.325V127.882ZM151.532 128.232C151.563 128.428 151.585 128.626 151.6 128.828C151.617 129.031 151.624 129.232 151.624 129.434V133.613H150.455V126.882H151.424L156.36 131.279C156.505 131.402 156.643 131.541 156.775 131.689C156.907 131.839 157.037 132.012 157.167 132.202C157.131 132.001 157.103 131.795 157.085 131.589C157.066 131.381 157.058 131.167 157.058 130.945V126.882H158.228V133.613H157.36L152.323 129.153C152.146 128.988 151.994 128.833 151.868 128.684C151.741 128.536 151.63 128.385 151.532 128.232ZM141.97 133.613V126.882H148.745V127.882H143.239V129.611H146.557V130.611H143.239V132.628H148.806V133.613H141.97ZM134.211 133.613V126.882H135.481V132.596H140.713V133.613H134.211ZM126.453 133.613V126.882H127.722V132.596H132.955V133.613H126.453ZM117.967 133.613V126.882H124.741V127.882H119.237V129.611H122.554V130.611H119.237V132.628H124.803V133.613H117.967ZM114.727 127.882H110.029V132.596H114.727V130.992L115.997 131.233V132.023C115.997 132.639 115.883 133.057 115.653 133.279C115.422 133.502 114.986 133.613 114.346 133.613H110.394C109.754 133.613 109.32 133.505 109.095 133.29C108.87 133.076 108.759 132.655 108.759 132.023V128.481C108.759 127.854 108.873 127.433 109.1 127.213C109.327 126.993 109.758 126.882 110.394 126.882H114.346C114.986 126.882 115.422 126.993 115.653 127.218C115.883 127.443 115.997 127.864 115.997 128.481V129.116L114.727 129.325V127.882ZM99.2171 133.613L102.596 130.169L99.1641 126.882H100.884L103.31 129.325L105.534 126.882H107.098L104.005 130.008L107.789 133.613H106.006L103.294 130.884L100.852 133.613H99.2171ZM91.7626 133.613V126.882H98.5384V127.882H93.0329V129.611H96.3506V130.611H93.0329V132.628H98.5991V133.613H91.7626ZM82.4781 127.882H77.158V132.596H82.4781V130.768H79.7324V129.852H83.7486V132.023C83.7486 132.639 83.6344 133.057 83.4047 133.279C83.1745 133.502 82.7376 133.613 82.0974 133.613H77.5388C76.8989 133.613 76.4621 133.502 76.2324 133.282C76.0019 133.063 75.8891 132.644 75.8891 132.023V128.481C75.8891 127.864 76.0046 127.443 76.2381 127.218C76.4709 126.993 76.904 126.882 77.5388 126.882H82.0974C82.7245 126.882 83.1556 126.993 83.391 127.216C83.6292 127.438 83.7486 127.829 83.7486 128.388V128.581L82.4781 128.798V127.882ZM66.977 128.232C67.0084 128.428 67.0298 128.626 67.046 128.828C67.0618 129.031 67.069 129.232 67.069 129.434V133.613H65.8996V126.882H66.8685L71.8045 131.279C71.9503 131.402 72.0877 131.541 72.2196 131.689C72.3521 131.839 72.4815 132.012 72.6117 132.202C72.5746 132.001 72.5479 131.795 72.5297 131.589C72.5114 131.381 72.5028 131.167 72.5028 130.945V126.882H73.6726V133.613H72.805L67.7675 129.153C67.5906 128.988 67.4394 128.833 67.3125 128.684C67.1858 128.536 67.0744 128.385 66.977 128.232ZM63.5518 133.613H62.2867V126.898H63.5518V133.613ZM55.7377 127.882H53.2723V132.596H55.7377C56.833 132.596 57.6133 132.411 58.0767 132.044C58.5395 131.673 58.7695 131.064 58.7695 130.217C58.7695 129.388 58.5366 128.793 58.0682 128.431C57.6002 128.066 56.8227 127.882 55.7377 127.882ZM55.8773 126.882C56.5182 126.882 57.0577 126.924 57.4944 127.008C57.9305 127.096 58.2906 127.226 58.5731 127.401C59.0338 127.692 59.3937 128.086 59.6527 128.584C59.9091 129.084 60.0387 129.632 60.0387 130.233C60.0387 131.364 59.6955 132.21 59.0069 132.771C58.3224 133.332 57.2777 133.613 55.8773 133.613H52.0021V126.882H55.8773ZM43.725 133.613V126.882H44.9956V132.596H50.228V133.613H43.725ZM41.3766 133.613H40.1121V126.898H41.3766V133.613ZM31.5629 126.882V132.596H36.4788V126.882H37.7645V132.023C37.7645 132.644 37.6508 133.063 37.4203 133.282C37.1901 133.502 36.7532 133.613 36.1131 133.613H31.9437C31.3033 133.613 30.8669 133.502 30.6371 133.279C30.407 133.057 30.2926 132.639 30.2926 132.023V126.882H31.5629ZM26.8895 129.053V128.418C26.8895 128.211 26.8362 128.068 26.733 127.986C26.6304 127.906 26.4423 127.867 26.1695 127.867H22.2702V129.595H26.1695C26.4634 129.595 26.6563 129.555 26.7492 129.478C26.8417 129.402 26.8895 129.259 26.8895 129.053ZM21 133.613V126.882H26.6803C27.1961 126.882 27.5721 126.988 27.8046 127.197C28.0377 127.407 28.1537 127.74 28.1537 128.201V128.976C28.1537 129.331 28.0609 129.6 27.8763 129.786C27.6885 129.968 27.3921 130.085 26.984 130.13C27.3815 130.172 27.683 130.305 27.8914 130.53C28.098 130.755 28.2013 131.056 28.2013 131.432V132.295C28.2013 132.74 28.0403 133.07 27.72 133.287C27.4002 133.505 26.9104 133.613 26.2545 133.613H21ZM26.8756 109.656H21V110.877V111.662C21 114.259 21.4894 116.035 22.46 116.995C23.4391 117.948 25.3321 118.428 28.1417 118.428H44.6676C47.4395 118.428 49.3239 117.948 50.3215 116.977C51.3095 116.016 51.8096 114.241 51.8096 111.653V107.466C51.8096 104.859 51.3195 103.085 50.3319 102.123C49.3515 101.171 47.4577 100.69 44.6676 100.69H26.8294V94.275H45.9427V97.5283H51.8184V95.551C51.8184 93.2027 51.3013 91.5671 50.2762 90.643C49.2503 89.7275 47.3928 89.2651 44.7244 89.2651H28.104C25.3438 89.2651 23.466 89.7462 22.4874 90.716C21.4985 91.6772 21.0092 93.4533 21.0092 96.0406V99.4701C21.0092 102.075 21.4985 103.851 22.4689 104.813C23.4486 105.764 25.3233 106.245 28.104 106.245H45.9333V113.039H26.8756V109.656ZM58.8972 118.428V89.2651H65.5581V100.635H86.3344V89.2651H93.0506V118.428H86.3344V105.839H65.5581V118.428H58.8972ZM100.138 118.428V89.2651H106.799V118.428H100.138ZM113.886 118.428V89.2651H120.547V113.039H138.462V118.428H113.886ZM167.074 94.488H152.1V102.076H167.074C168.21 102.076 168.996 101.91 169.43 101.587C169.864 101.264 170.076 100.672 170.076 99.8032V96.7346C170.076 95.9394 169.864 95.3663 169.43 95.0151C168.996 94.6637 168.21 94.488 167.074 94.488ZM174.949 115.613C174.817 115.759 174.621 115.851 174.36 115.889C174.49 115.965 174.597 116.048 174.681 116.14C174.766 116.231 174.88 116.393 175.023 116.625L175.388 117.208H174.667L174.234 116.556C174.079 116.324 173.973 116.178 173.915 116.117C173.858 116.057 173.797 116.016 173.734 115.993C173.669 115.971 173.567 115.96 173.428 115.96H173.306V117.208H172.701V114.22H173.971C174.29 114.22 174.523 114.247 174.667 114.3C174.813 114.354 174.928 114.449 175.015 114.586C175.102 114.724 175.146 114.88 175.146 115.057C175.146 115.282 175.08 115.467 174.949 115.613ZM173.797 113.04C172.307 113.04 171.102 114.27 171.102 115.735C171.102 117.225 172.334 118.428 173.797 118.428C175.284 118.428 176.488 117.2 176.488 115.735C176.488 114.251 175.282 113.04 173.797 113.04ZM173.752 115.484C174.042 115.484 174.221 115.472 174.294 115.447C174.365 115.423 174.423 115.381 174.463 115.321C174.504 115.261 174.524 115.186 174.524 115.096C174.524 114.995 174.497 114.914 174.443 114.852C174.39 114.79 174.314 114.751 174.217 114.735C174.167 114.728 174.021 114.724 173.777 114.724H173.306V115.484H173.752Z" fill="white"/>
</svg>
