<svg width="1232" height="531" viewBox="0 0 1232 531" fill="none" xmlns="http://www.w3.org/2000/svg">
<rect width="1232" height="522.901" rx="20" fill="#EEFFE9"/>
<g clip-path="url(#clip0_356_4341)">
<path d="M953.125 473.91C1070.28 473.91 1165.25 379.013 1165.25 261.95C1165.25 144.888 1070.28 49.9905 953.125 49.9905C835.972 49.9905 741 144.888 741 261.95C741 379.013 835.972 473.91 953.125 473.91Z" fill="#73BE5F"/>
<g style="mix-blend-mode:plus-lighter" opacity="0.25">
<path d="M1108.15 117.28C1102.94 124.77 1096.96 131.734 1090.3 138.023C1055.44 170.905 1011.18 183.411 981.945 198.234C947.709 215.615 934.359 227.414 908.564 265.693C875.502 314.742 834.265 310.091 806.56 297.926C784.373 288.19 764.828 261.313 746.811 212.492C769.1 119.288 853.017 49.9905 953.125 49.9905C1014.3 49.9905 1069.44 75.8787 1108.15 117.28Z" fill="#73BE5F"/>
</g>
<g style="mix-blend-mode:plus-darker" opacity="0.25">
<path d="M1163.51 289.181C1150.13 393.38 1061.04 473.91 953.125 473.91C884.072 473.91 822.725 440.929 783.99 389.875C791.867 387.951 799.544 386.314 806.815 384.844C854.699 375.193 897.888 353.345 896.571 249.458C895.243 145.556 986.937 101.721 1044.25 119.259C1116.6 141.402 1102.87 208.692 1124.04 244.189C1135.71 263.789 1149.2 277.977 1163.51 289.181Z" fill="#73BE5F"/>
</g>
<path d="M1160.58 362.41C1156.14 359.169 1147.07 361.358 1140.38 363.696C1139.38 362.291 1138.17 360.845 1136.7 359.433C1151.12 350.152 1171.03 330.364 1160.48 328.687C1151.3 327.232 1138.92 345.044 1132.31 355.889C1125.44 351.269 1114.91 347.875 1098.83 349.053C1057.11 352.11 1024.53 325.221 1000.5 334.189C981.402 341.32 963.899 345.315 947.016 343.949C947.743 331.626 947.901 307.431 938.216 304.921C928.385 302.373 938.029 329.85 943.387 343.571C942.129 343.411 940.875 343.219 939.622 342.994C936.15 336.156 930.431 327.207 924.153 326.902C918.24 326.614 925.537 334.659 932.72 341.475C912.075 337.144 887.587 353.912 887.18 373.739H1144.92C1144.92 373.739 1144.46 370.845 1142.44 367.029C1152.4 366.835 1165.39 365.929 1160.57 362.41H1160.58Z" fill="#B5FFA6"/>
<path d="M943.404 358.415H875.475V373.742H943.404V358.415Z" fill="#4A75CB"/>
<path d="M922.458 358.415H854.53V373.744H922.458V358.415Z" fill="#699DEE"/>
<path d="M970.127 373.739H1020.71V303.095H970.127V373.739Z" fill="#D86713"/>
<path d="M954.531 373.739H1005.11V303.095H954.531V373.739Z" fill="#F1A34F"/>
<path d="M1005.11 303.095L1020.71 313.702V303.095H1005.11Z" fill="#C95C12"/>
<path d="M848.973 318.743C848.973 318.743 839.514 325.771 837.669 325.345C835.824 324.918 844.583 317.758 844.583 317.758C841.288 316.173 831.043 317.166 831.043 317.166C831.043 317.166 827.632 328.162 825.947 327.295C824.265 326.427 829.465 317.714 829.465 317.714C825.795 317.494 821.293 320.216 821.293 320.216C815.13 325.08 821.697 332.735 821.697 332.735C821.697 332.735 820.432 336.519 816.541 339.966C816.541 339.966 810.982 344.075 810.597 351.412L811.605 351.502C811.605 351.502 813.205 344.666 816.11 341.434C816.223 341.318 816.386 341.148 816.59 340.945C817.062 340.506 817.394 340.177 817.617 339.932C819.065 338.544 821.062 336.773 822.025 336.604C822.025 336.604 821.976 336.427 821.984 336.119C821.996 336.274 822.01 336.434 822.025 336.604C822.354 340.472 829.867 343.852 834.49 344.547C839.114 345.242 837.683 343.343 836.09 340.528C834.498 337.713 829.458 336.454 828.309 335.158C827.159 333.862 829.535 333.859 832.321 335.129C835.106 336.4 835.487 339.789 839.955 341.926C844.423 344.065 851.145 336.657 851.145 336.657C847.584 336.475 842.5 332.612 842.685 331.43C842.869 330.247 851.315 333.469 852.76 333.624C854.205 333.779 857.49 331.984 857.996 326.173C858.505 320.362 848.971 318.741 848.971 318.741L848.973 318.743Z" fill="#82B378"/>
<path d="M798.735 323.106C798.735 323.106 809.183 317.261 804.306 309.325C804.306 309.325 800.405 304.454 796.225 303.201C796.225 303.201 798.453 315.032 796.225 315.311C793.998 315.59 794.693 301.949 794.693 301.949C794.693 301.949 783.689 296.659 779.369 297.078C779.369 297.078 786.196 308.63 783.966 308.352C781.738 308.073 774.075 296.38 774.075 296.38C774.075 296.38 762.79 294.292 760.981 300.973C759.17 307.654 762.096 310.994 763.767 311.413C765.437 311.83 776.164 311.692 775.886 313.085C775.607 314.478 768.363 316.704 764.324 315.452C764.324 315.452 768.783 326.449 774.632 325.892C780.482 325.335 782.293 321.716 785.915 321.437C789.537 321.159 792.184 322.133 790.373 323.109C788.562 324.083 782.434 323.429 779.508 325.914C776.581 328.399 774.213 329.93 779.646 331.045C785.079 332.159 794.829 331.461 796.781 327.287L798.73 323.111L798.735 323.106Z" fill="#B5FFA6"/>
<path d="M801.52 333.268C798.594 327.84 798.735 323.106 798.735 323.106C795.392 312.528 766.138 303.061 766.138 303.061C803.331 318.094 796.786 327.28 796.786 327.28C797.787 327.864 799.29 330.65 800.335 332.789C800.483 333.152 800.718 333.656 801.067 334.339C801.207 334.649 801.321 334.901 801.399 335.078C803.314 339.865 802.298 348.135 802.298 348.135L803.46 348.447C806.032 340.114 801.52 333.268 801.52 333.268Z" fill="#82B378"/>
<path d="M815.356 315.045C815.356 315.045 801.583 307.339 808.01 296.879C808.01 296.879 813.152 290.457 818.66 288.805C818.66 288.805 815.722 304.401 818.66 304.769C821.598 305.135 820.679 287.153 820.679 287.153C820.679 287.153 835.186 280.181 840.878 280.731C840.878 280.731 831.88 295.961 834.818 295.593C837.756 295.227 847.856 279.813 847.856 279.813C847.856 279.813 862.729 277.061 865.117 285.869C867.504 294.677 863.647 299.081 861.444 299.631C859.24 300.181 845.102 299.997 845.468 301.833C845.836 303.667 855.383 306.603 860.709 304.953C860.709 304.953 854.833 319.449 847.121 318.715C839.409 317.981 837.021 313.211 832.248 312.843C827.475 312.474 823.984 313.761 826.372 315.045C828.759 316.328 836.84 315.466 840.694 318.741C844.551 322.016 847.671 324.034 840.51 325.502C833.349 326.97 820.495 326.052 817.923 320.548L815.353 315.045H815.356Z" fill="#B5FFA6"/>
<path d="M858.326 288.624C858.326 288.624 819.763 301.101 815.358 315.045C815.358 315.045 815.542 321.282 811.685 328.438C811.685 328.438 805.738 337.462 809.128 348.447L810.657 348.035C810.657 348.035 809.319 337.137 811.845 330.827C811.947 330.594 812.097 330.26 812.284 329.853C812.745 328.952 813.055 328.288 813.251 327.808C814.626 324.991 816.606 321.319 817.928 320.548C817.928 320.548 809.297 308.439 858.326 288.621V288.624Z" fill="#82B378"/>
<path d="M814.893 372.267C829.792 372.267 841.87 360.198 841.87 345.31H787.915C787.915 360.198 799.993 372.267 814.893 372.267Z" fill="#F1A34F"/>
<path d="M821.53 372.061C820.432 372.196 819.314 372.267 818.177 372.267C803.278 372.267 791.202 360.198 791.202 345.31H797.903C797.903 359.064 808.211 370.411 821.53 372.061Z" fill="#FFB973"/>
<path d="M838.915 370.413H790.87C789.033 370.413 787.542 371.903 787.542 373.74H842.241C842.241 371.903 840.75 370.413 838.912 370.413H838.915Z" fill="#F1A34F"/>
<path d="M842.069 345.31H787.44C787.212 345.31 787.025 345.494 787.025 345.724C787.025 345.955 787.21 346.139 787.44 346.139H842.069C842.297 346.139 842.483 345.955 842.483 345.724C842.483 345.494 842.299 345.31 842.069 345.31Z" fill="#D86713"/>
<path d="M1050.24 203.36C1049.46 203.241 1047.11 205.419 1047.11 205.419C1042.07 206 1034.72 207.335 1032.07 207.844C1030.19 208.204 1025.14 206.485 1020.21 204.51C1014.35 202.161 1008.65 199.45 1008.65 199.45C1005.4 199.285 1001.7 205.218 1008.3 208.989C1009.31 209.566 1013.09 210.547 1017.45 211.446C1023.46 212.683 1030.57 213.759 1032.98 213.381C1035.79 212.943 1043.74 210.036 1048.47 207.81C1048.47 207.81 1048.48 207.81 1048.48 207.805C1048.5 207.797 1048.52 207.788 1048.54 207.781C1048.82 207.647 1049.98 207.134 1050.75 207.177C1051.64 207.231 1053.61 205.61 1053.67 205.176C1053.73 204.745 1051.02 203.478 1050.24 203.36H1050.24Z" fill="#ED975D"/>
<path d="M1044.1 278.1L1041.33 278.662C1041.33 278.662 1028.65 264.428 1026.7 258.44C1025.65 255.24 1018.95 253.857 1011.96 252.05C1005.87 250.478 999.555 248.581 996.539 244.885C990.057 236.941 1000.61 227.179 1000.61 227.179C1000.61 227.179 1011.84 233.843 1021.52 240.73C1028.29 245.543 1034.3 250.461 1035.2 253.29C1037.41 260.165 1042.07 273.236 1044.1 278.1H1044.1Z" fill="#2B478B"/>
<path d="M1040.39 282.798H1041.95C1042.47 282.715 1042.86 282.565 1043.39 282.495C1044.21 282.388 1044.58 282.72 1044.65 282.798C1044.66 282.807 1044.67 282.814 1044.67 282.814H1051.29C1051.45 282.577 1051.29 282.027 1051.14 281.62C1051.03 281.344 1050.8 281.136 1050.52 281.053C1049.81 280.85 1048.43 280.668 1047.16 279.522C1046.45 278.878 1043.72 277.156 1043.72 277.156H1043.71C1043.65 277.156 1043.36 277.241 1042.12 278.289C1041.48 278.83 1040.38 277.526 1040.38 277.526C1040.38 277.526 1040.18 277.696 1040.02 278.013C1039.9 278.263 1039.81 278.607 1039.88 279.028C1039.98 279.624 1039.66 280.731 1039.41 281.48C1039.25 281.933 1039.12 282.255 1039.12 282.255C1039.12 282.255 1039.05 282.628 1040.39 282.795L1040.39 282.798Z" fill="#233862"/>
<path d="M1021.52 240.733L1011.96 252.052C1005.88 250.48 999.558 248.584 996.542 244.887C990.059 236.944 1000.61 227.182 1000.61 227.182C1000.61 227.182 1011.84 233.846 1021.52 240.733Z" fill="#1E3D70"/>
<path d="M1012.83 234.82C1012.83 234.82 1012.06 237.247 1010.81 240.9C1009.22 245.517 1006.86 252.094 1004.3 258.191C1003.73 259.53 1003.16 260.848 1002.59 262.118C1000.45 266.81 998.273 270.833 996.353 272.878C992.903 276.553 984.513 300.178 984.513 300.178L982.423 299.599C982.423 299.599 979.509 279.426 989.834 267.946C989.945 267.825 990.03 267.682 990.042 267.517C990.042 267.517 990.042 267.515 990.042 267.512C990.181 265.812 990.67 258.203 991.739 250.492C992.001 248.601 992.299 246.704 992.634 244.887C992.656 244.771 992.678 244.657 992.697 244.541C994.268 236.137 995.771 232.4 997.713 230.52L1011.99 234.58L1012.83 234.82Z" fill="#2B478B"/>
<path d="M982.188 303.08H983.746C984.268 302.998 984.653 302.848 985.189 302.777C986.001 302.671 986.377 303.003 986.45 303.08C986.459 303.09 986.464 303.095 986.464 303.095H993.085C993.252 302.857 993.092 302.308 992.934 301.903C992.828 301.627 992.6 301.418 992.314 301.336C991.611 301.133 990.229 300.951 988.961 299.805C988.248 299.161 985.519 297.438 985.519 297.438H985.504C985.443 297.438 985.16 297.523 983.916 298.572C983.274 299.112 982.18 297.809 982.18 297.809C982.18 297.809 981.974 297.979 981.822 298.296C981.698 298.546 981.608 298.889 981.679 299.311C981.778 299.907 981.458 301.014 981.203 301.762C981.048 302.215 980.92 302.538 980.92 302.538C980.92 302.538 980.845 302.911 982.185 303.08H982.188Z" fill="#233862"/>
<path d="M985.249 207.381C985.249 207.381 982.862 213.219 980.108 218.902C977.792 223.679 975.218 228.347 973.586 229.342C971.286 230.747 964.946 234.708 960.834 237.663C960.834 237.663 957.625 237.639 957.128 238.252C956.628 238.865 955.479 241.624 955.814 241.903C956.151 242.181 958.701 242.053 959.319 241.418C959.86 240.863 961.062 240.466 961.363 240.374C961.382 240.369 961.399 240.362 961.419 240.357C961.426 240.357 961.431 240.355 961.431 240.355C966.427 238.819 974.265 235.619 976.638 234.054C978.682 232.707 983.211 227.133 986.823 222.172C989.441 218.575 991.579 215.302 991.936 214.2C994.275 206.972 987.543 205.07 985.249 207.383V207.381Z" fill="#FFB27D"/>
<path d="M997.742 184.487C997.458 184.075 997.172 183.709 996.886 183.382C997.24 183.389 997.623 183.356 997.941 183.225C998.779 182.878 999.16 180.219 999.036 179.431C998.91 178.644 997.747 176.362 996.311 176.134C994.876 175.907 993.39 177.501 993.39 177.501C993.654 176.35 996.086 175.686 996.086 175.686C991.082 176.609 991.337 179.942 991.371 180.252C986.789 178.622 984.1 187.241 984.1 187.241L995.967 194.23C995.967 194.23 995.999 192.326 997.131 192.449C998.896 192.641 1000.36 188.309 997.744 184.489L997.742 184.487Z" fill="#2C3A64"/>
<path d="M998.496 202.575C995.773 203.856 992.159 202.011 992.178 201.991C992.411 201.759 992.328 201.059 992.115 200.145C991.902 199.193 991.395 197.89 990.462 196.337C990.268 196.008 990.074 195.676 989.839 195.327L990.149 195.211L995.439 193.091C995.439 193.091 996.295 194.627 997.189 196.025C997.948 197.19 998.745 198.241 999.095 198.203C999.114 198.183 1002.61 200.593 998.491 202.575H998.496Z" fill="#FFB27D"/>
<path d="M995.444 193.617C995.308 195.502 994.665 198.903 992.117 200.148C991.904 199.196 991.397 197.892 990.464 196.34L995.444 193.619V193.617Z" fill="#ED975D"/>
<path d="M990.154 198.483C990.154 198.483 997.041 195.77 995.284 191.512C993.526 187.253 993.233 184.034 988.762 185.584C984.292 187.137 984.113 189.111 984.353 190.676C984.593 192.241 988.316 199.079 990.154 198.483Z" fill="#FFB27D"/>
<path d="M992.724 190.54C995.904 190.092 996.833 188.808 996.833 188.808C996.833 188.808 993.904 187.968 992.183 185.102C992.183 185.102 988.61 183.898 985.96 185.911C985.8 186.119 985.683 186.367 985.625 186.657C985.019 186.459 984.105 186.509 983.579 188.225C982.789 190.8 985.603 193.612 985.603 193.612C986.287 193.418 985.516 191.124 985.41 189.898C985.329 188.997 985.817 187.842 986.079 187.297C986.416 187.733 989.771 191.945 993.865 192.115C993.865 192.115 991.701 191.364 989.732 189.898C990.711 190.38 991.754 190.678 992.724 190.543V190.54Z" fill="#2C3A64"/>
<path d="M1011.61 211.351C1011.55 211.145 1011.49 210.932 1011.42 210.714C1012.45 208.762 1012.95 207.001 1013.16 205.511C1013.63 202.362 1012.83 200.419 1012.83 200.419C1012.83 200.419 1008.05 197.887 1005.94 197.565C1005.93 197.563 1005.93 197.558 1005.92 197.558C1005.89 197.556 1005.86 197.553 1005.83 197.551C1003.7 197.258 999.092 198.198 999.092 198.198C999.092 198.198 999.982 200.564 997.473 202.139C994.964 203.716 992.285 201.734 992.285 201.734C992.205 201.788 992.117 201.848 992.03 201.911C992.03 201.911 985.429 206.264 984.837 207.257C984.246 208.253 981.705 213.175 981.705 213.175C981.705 213.175 982.51 217.31 991.426 217.654C992.159 219.43 992.721 221.164 992.903 222.608C993.611 228.221 992.789 232.646 993.616 235.922C994.44 239.197 1009.32 237.329 1012.01 236.699C1014.71 236.069 1014.1 233.194 1014.31 230.401C1014.57 226.891 1012.49 214.445 1011.61 211.349V211.351Z" fill="#699DEE"/>
<path d="M1013.16 205.511C1012.95 207.008 1012.44 208.776 1011.41 210.738C1011.18 209.709 1010.22 205.94 1008.69 204.227C1008.69 204.227 1011.27 204.46 1013.16 205.511Z" fill="#4A82D3"/>
<path d="M952.58 242.288C952.58 242.288 955.351 238.93 955.947 238.535C956.544 238.138 959.162 237.443 959.312 237.583C959.462 237.724 959.47 237.927 959.145 238.213C958.82 238.499 957.581 239.221 957.758 239.303C957.935 239.386 961.671 237.525 962.209 238.153C962.747 238.778 961.904 241.357 960.464 242.595C959.024 243.833 954.728 244.359 954.456 244.533C952.165 245.996 952.577 242.293 952.577 242.293L952.58 242.288Z" fill="#ED975D"/>
<path d="M903.779 234.536C903.779 234.536 907.762 239.257 912.831 237.283C912.831 237.283 913.922 234.648 913.937 232.702C913.937 232.463 913.941 232.232 913.944 232.012C913.97 229.822 914.046 228.596 914.046 228.596C914.046 228.596 914.046 228.596 914.041 228.596C913.811 228.5 906.288 225.416 906.295 225.67C906.424 231.588 903.776 234.539 903.776 234.539L903.779 234.536Z" fill="#FFB27D"/>
<path d="M907.052 227.08C907.777 228.425 910.266 231.051 913.946 232.013C913.973 229.823 914.048 228.597 914.048 228.597C914.048 228.597 914.048 228.597 914.043 228.597C913.835 228.541 906.836 226.685 907.052 227.082V227.08Z" fill="#ED975D"/>
<path d="M915.624 228.366C915.624 228.366 907.165 230.353 906.009 225.072C904.853 219.788 902.981 216.487 908.332 214.997C913.682 213.505 915.178 215.29 915.992 216.959C916.807 218.628 917.794 227.715 915.624 228.369V228.366Z" fill="#FFB27D"/>
<path d="M906.298 226.511C906.181 226.583 904.363 227.143 900.916 220.283C900.375 219.205 900.007 216.877 901.267 214.818C902.528 212.759 907.001 211.141 910.717 210.436C914.434 209.731 915.326 211.821 916.201 213.919C917.12 216.123 919.772 217.938 919.772 217.938C916.567 219.726 912.707 217.167 911.372 217.589C910.033 218.01 909.563 220.116 909.461 220.789C909.362 221.465 909.207 222.024 907.527 221.421C905.847 220.818 906.768 223.802 907.035 224.372C907.035 224.372 907.263 225.891 906.3 226.508L906.298 226.511Z" fill="#A9453D"/>
<path d="M884.506 358.415H879.383C878.309 358.415 877.117 357.328 876.818 355.334C876.52 353.34 874.312 352.253 873.834 350.62C873.356 348.987 875.803 346.691 875.803 346.691L876.212 346.158L876.639 345.603L880.697 346.57C880.697 346.57 880.797 347.548 880.86 348.794C880.903 349.692 880.928 350.734 880.877 351.645C880.758 353.82 881.478 356.163 883.386 356.586C885.296 357.01 884.506 358.413 884.506 358.413V358.415Z" fill="#2C3A64"/>
<path d="M920.162 358.466H906.586C906.455 358.44 906.358 358.41 906.298 358.379C905.391 357.911 905.675 354.341 905.784 353.239C905.805 353.035 905.82 352.914 905.82 352.914C905.82 352.914 910.593 348.985 911.25 351.994C911.272 352.088 911.294 352.18 911.321 352.27C912.15 355.085 915.854 356.364 917.995 356.72C919.629 356.993 920.053 357.972 920.162 358.464V358.466Z" fill="#2C3A64"/>
<path d="M917.425 280.014C917.425 280.014 916.7 289.052 915.847 299.919C914.688 314.679 913.297 332.808 913.158 336.243C912.921 342.207 911.963 351.746 911.963 351.746C911.963 351.746 909.696 354.014 905.161 353.057C905.161 353.057 901.119 339.438 899.963 325.03C899.946 324.795 899.927 324.555 899.91 324.318C898.836 309.65 897.165 278.762 897.165 278.762L917.423 280.014H917.425Z" fill="#EE9849"/>
<path d="M917.425 280.014C917.425 280.014 916.7 289.052 915.847 299.919L899.963 325.03C899.946 324.795 899.927 324.555 899.91 324.318C898.836 309.65 897.165 278.762 897.165 278.762L917.423 280.014H917.425Z" fill="#E58638"/>
<path d="M914.116 281.087C914.116 281.087 901.047 313.824 892.455 329.206C883.863 344.591 881.177 348.883 881.177 348.883C881.177 348.883 876.253 346.916 875.807 345.574C875.807 345.574 879.092 315.876 884.848 308.635C888.099 304.544 891.919 292.267 892.099 287.974C892.278 283.682 893.262 275.184 893.262 275.184L914.118 281.087H914.116Z" fill="#EE9849"/>
<path d="M884.193 275.637C884.193 275.637 883.854 279.726 883.606 280.353C883.359 280.981 881.706 282.926 881.514 282.899C881.323 282.87 881.209 282.718 881.306 282.323C881.403 281.928 881.972 280.702 881.793 280.734C881.611 280.765 879.723 284.212 878.969 284.018C878.215 283.825 877.48 281.373 877.926 279.644C878.375 277.911 881.417 275.194 881.534 274.915C882.518 272.551 884.196 275.639 884.196 275.639L884.193 275.637Z" fill="#ED975D"/>
<path d="M882.792 276.674C884.239 277.136 884.47 277.032 884.47 277.032C884.47 277.032 891.51 264.225 892.222 263.053C892.935 261.88 907.171 248.69 907.171 248.69L903.512 235.059C903.512 235.059 887.323 256.008 885.573 259.014C882.683 263.983 880.991 275.518 880.991 275.518C880.991 275.518 881.655 276.308 882.79 276.674H882.792Z" fill="#1E3D70"/>
<path d="M920.184 254.041C920.133 256.841 919.971 259.988 919.75 263.183C919.735 263.372 919.723 263.564 919.709 263.753C919.568 265.732 919.415 267.718 919.241 269.654C919.171 270.429 919.095 271.197 919.018 271.95L919.006 272.052C918.998 272.333 918.964 272.64 918.933 272.919C918.22 280.167 917.471 285.893 917.333 285.983C917.168 286.094 916.981 286.148 916.775 286.126C914.872 285.886 909.197 286.317 904.55 285.307C900.63 284.481 897.253 282.914 893.674 280.801C893.199 280.52 892.118 279.777 892.205 279.222C892.292 278.612 892.452 277.73 892.654 276.62C893.359 272.764 894.576 266.131 894.991 258.37C895.071 256.924 895.189 255.497 895.342 254.092C895.74 250.434 896.38 246.961 897.238 243.877C898.831 238.145 901.173 233.754 904.111 232.036C904.494 231.821 906.559 233.133 908.455 234.349C910.208 235.471 912.05 235.781 913.844 235.626L915.423 237.37C917.333 239.592 919.369 242.547 919.924 246.747C919.966 247.057 920.002 247.387 920.031 247.738C920.186 249.448 920.223 251.616 920.179 254.041H920.184Z" fill="#2A4E96"/>
<path d="M920.184 254.041C920.133 256.842 919.971 259.988 919.75 263.183C919.735 263.372 919.723 263.564 919.709 263.753C908.843 256.955 907.168 244.519 907.168 244.519C912.514 244.754 916.761 245.982 920.034 247.738C920.189 249.448 920.225 251.616 920.182 254.041H920.184Z" fill="#1E3D70"/>
<path d="M954.231 242.622C953.671 241.108 952.8 241.207 952.8 241.207C952.8 241.207 936.645 245.231 935.193 245.403C933.743 245.575 917.794 239.18 917.794 239.18C917.794 239.18 911.517 236.365 908.577 238.935C906.021 241.169 905.905 243.998 906.504 246.374C907.217 249.206 909.614 251.299 912.514 251.667C919.02 252.496 932.002 254.053 934.722 253.675C940.778 252.832 954.5 244.918 954.5 244.918C954.5 244.918 954.672 243.811 954.233 242.622H954.231Z" fill="#2A4E96"/>
<path d="M1113.54 272.214C1113.54 272.214 1115.79 274.292 1115.35 275.77C1114.91 277.248 1112.89 278.231 1112.61 280.036C1112.34 281.841 1111.24 282.826 1110.26 282.826H1105.56C1105.56 282.826 1104.84 281.557 1106.59 281.172C1108.34 280.789 1109 278.667 1108.89 276.698C1108.78 274.728 1109.05 272.103 1109.05 272.103L1112.78 271.228L1113.54 272.212V272.214Z" fill="#2C3A64"/>
<path d="M1085.57 282.58C1085.34 282.693 1084.54 282.773 1083.44 282.824H1072.81C1072.85 282.509 1073.1 281.383 1074.83 281.102C1076.8 280.782 1080.2 279.644 1080.96 277.134C1080.98 277.054 1081 276.972 1081.02 276.889C1081.62 274.21 1086 277.711 1086 277.711C1086 277.711 1086.02 277.817 1086.03 278.001C1086.14 278.987 1086.4 282.165 1085.57 282.58Z" fill="#2C3A64"/>
<path d="M1075.36 210.884C1075.36 210.884 1076.02 219.176 1076.81 229.144C1077.87 242.685 1079.15 259.317 1079.27 262.469C1079.49 267.941 1080.37 276.693 1080.37 276.693C1080.37 276.693 1082.45 278.772 1086.61 277.897C1086.61 277.897 1090.32 265.402 1091.38 252.183C1091.4 251.968 1091.41 251.75 1091.43 251.529C1092.42 238.07 1093.95 209.733 1093.95 209.733L1075.36 210.881L1075.36 210.884Z" fill="#35488B"/>
<path d="M1075.36 210.884C1075.36 210.884 1076.02 219.176 1076.81 229.144L1091.38 252.183C1091.39 251.968 1091.41 251.75 1091.43 251.529C1092.41 238.07 1093.94 209.733 1093.94 209.733L1075.36 210.881V210.884Z" fill="#2C3A64"/>
<path d="M1078.4 211.867C1078.4 211.867 1090.39 241.9 1098.27 256.015C1106.15 270.131 1108.62 274.067 1108.62 274.067C1108.62 274.067 1113.13 272.262 1113.55 271.032C1113.55 271.032 1110.53 243.785 1105.25 237.143C1102.27 233.39 1098.76 222.126 1098.6 218.187C1098.43 214.248 1097.53 206.453 1097.53 206.453L1078.4 211.87L1078.4 211.867Z" fill="#35488B"/>
<path d="M1041.41 195.579C1041.41 195.579 1038.16 194.835 1037.61 194.874C1037.07 194.913 1035.15 195.712 1035.13 195.867C1035.1 196.022 1035.19 196.148 1035.52 196.17C1035.85 196.192 1036.94 196.052 1036.87 196.185C1036.8 196.316 1033.67 196.933 1033.63 197.563C1033.6 198.193 1035.32 199.366 1036.77 199.446C1038.22 199.523 1041.07 197.84 1041.32 197.818C1043.39 197.636 1041.41 195.579 1041.41 195.579H1041.41Z" fill="#FFB27D"/>
<path d="M1040.02 196.405C1039.56 194.92 1039.67 194.685 1039.67 194.685C1039.67 194.685 1052.85 187.563 1054.06 186.839C1055.26 186.117 1068.89 171.629 1068.89 171.629L1082.84 175.466C1082.84 175.466 1061.25 191.902 1058.15 193.672C1053.04 196.596 1041.19 198.253 1041.19 198.253C1041.19 198.253 1040.39 197.57 1040.02 196.403L1040.02 196.405Z" fill="#E58638"/>
<path d="M1073.11 164.587C1073.11 164.587 1068.22 173.186 1063.44 174.31C1063.44 174.31 1063.64 171.423 1064.8 169.446C1064.32 168.884 1063.91 168.368 1063.54 167.906C1062.34 166.365 1061.77 165.42 1061.77 165.42L1063.39 161.06L1064.49 158.102C1065.02 159.061 1065.6 159.88 1066.21 160.58C1069.35 164.18 1073.11 164.587 1073.11 164.587H1073.11Z" fill="#FFB27D"/>
<path d="M1066.21 160.58C1066.21 160.58 1066.8 164.89 1063.54 167.906C1062.34 166.365 1061.77 165.42 1061.77 165.42L1063.39 161.06C1065.13 160.529 1066.21 160.58 1066.21 160.58H1066.21Z" fill="#ED975D"/>
<path d="M1060.48 166.055C1060.48 166.055 1067.79 163.209 1065.94 158.686C1064.1 154.166 1063.8 150.753 1059.06 152.38C1054.31 154.008 1054.11 156.099 1054.36 157.758C1054.61 159.417 1058.53 166.68 1060.48 166.055Z" fill="#FFB27D"/>
<path d="M1098.24 208.723C1095.29 212.96 1073.24 218.618 1073.51 215.687C1073.61 214.566 1073.74 212.587 1073.5 209.905C1073.45 209.278 1073.37 208.611 1073.27 207.907C1072.71 204.055 1071.38 199.101 1068.41 193.367C1068.19 192.939 1067.96 192.505 1067.72 192.066C1066.49 189.845 1065.45 187.498 1064.66 185.204C1063.13 180.793 1062.52 176.573 1063.29 173.814C1063.29 173.799 1063.29 173.789 1063.3 173.775C1067.91 171.646 1069.69 163.388 1069.69 163.388C1069.69 163.388 1085.41 166.207 1094.22 187.149C1094.22 187.149 1100.8 205.038 1098.24 208.725V208.723Z" fill="#EE9849"/>
<path d="M1073.5 209.903C1073.45 209.275 1073.37 208.609 1073.27 207.904C1072.71 204.053 1071.38 199.099 1068.41 193.365C1068.92 190.279 1069.62 187.713 1070.4 186.558C1073.53 181.863 1075.36 181.129 1075.36 181.129C1075.36 181.129 1080.06 200.945 1073.5 209.905V209.903Z" fill="#E58638"/>
<path d="M1048.72 205.189C1048.72 205.189 1044.37 205.416 1043.7 205.659C1043.02 205.901 1040.9 207.589 1040.93 207.793C1040.95 207.996 1041.11 208.122 1041.53 208.033C1041.96 207.943 1043.27 207.379 1043.24 207.568C1043.2 207.759 1039.48 209.651 1039.66 210.455C1039.84 211.259 1042.42 212.117 1044.27 211.698C1046.12 211.279 1049.1 208.142 1049.4 208.028C1051.94 207.059 1048.72 205.186 1048.72 205.186V205.189Z" fill="#FFB27D"/>
<path d="M1047.9 206.836C1047.03 205.429 1047.66 204.789 1047.66 204.789C1047.66 204.789 1061.09 194.278 1062.15 193.215C1063.2 192.154 1068.08 175.245 1068.08 175.245C1068.08 175.245 1069.76 168.402 1073.69 167.649C1077.1 166.992 1079.46 168.683 1081.01 170.662C1082.85 173.022 1083.03 176.277 1081.51 178.85C1078.08 184.625 1071.15 196.09 1069.13 198.05C1064.64 202.41 1049.59 208.503 1049.59 208.503C1049.59 208.503 1048.59 207.943 1047.9 206.838L1047.9 206.836Z" fill="#EE9849"/>
<path d="M1066.99 150.29C1067.05 150.188 1067.19 150.082 1067.56 149.97C1067.56 149.97 1067.22 149.856 1066.82 149.943C1066.61 149.442 1066.12 148.592 1065.18 148.584C1065.18 148.584 1065.72 148.725 1065.92 149.26C1064.63 148.449 1062.26 148.211 1056.32 150.188C1048.51 152.79 1052.41 157.327 1053.6 157.69C1054.78 158.054 1056.96 155.721 1058.93 155.401C1060.89 155.084 1061.95 157.814 1062.7 158.039C1063.45 158.267 1063.02 157.644 1063.8 157.022C1064.59 156.399 1065.04 157.865 1065.02 158.892C1065 159.921 1066.53 160.895 1066.53 160.895L1067.43 159.253C1068.32 157.61 1068.08 151.651 1067.22 150.578C1067.15 150.484 1067.07 150.387 1066.99 150.29Z" fill="#2B478B"/>
<path d="M1195.21 375.319H754.147C753.713 375.319 753.357 374.963 753.357 374.529C753.357 374.095 753.713 373.739 754.147 373.739H1195.21C1195.65 373.739 1196 374.095 1196 374.529C1196 374.963 1195.65 375.319 1195.21 375.319H1195.21Z" fill="#2E3552"/>
<path d="M943.404 358.243V367.085L922.458 358.243H943.404Z" fill="#4271BC"/>
<path d="M1122.66 282.824H1053.39V373.737H1122.66V282.824Z" fill="#4A75CB"/>
<path d="M1101.3 282.827H1032.03V373.739H1101.3V282.827Z" fill="#699DEE"/>
<path d="M1122.66 282.827V296.421L1101.3 282.827H1122.66Z" fill="#4271BC"/>
</g>
<path d="M590.294 402.474C590.267 402.929 591.117 404.957 592.273 406.891C593.896 409.797 594.474 410.401 595.239 410.165C595.749 410.007 596.247 409.63 596.337 409.379C596.521 408.708 592.846 402.413 591.982 401.786C591.015 401.19 590.368 401.446 590.294 402.474Z" fill="#73BE5F"/>
<path d="M649.202 392.224C648.727 396.114 649.486 397.667 650.944 395.876C651.481 395.263 652.155 390.028 651.841 389.008C651.715 388.6 651.161 388.436 650.6 388.609C649.835 388.845 649.459 389.799 649.202 392.224Z" fill="#73BE5F"/>
<path d="M633.223 396.207C632.506 397.322 631.794 399.72 631.603 401.455C631.413 403.189 631.143 404.669 630.99 404.716C630.837 404.763 630.024 404.121 629.148 403.274C625.679 399.82 621.122 399.718 619.834 402.965C618.456 406.462 622.76 414.071 628.605 418.524C631.727 420.856 634.091 421.634 636.335 420.942C640.212 419.745 642.69 404.792 640.332 396.973C639.812 395.29 639.353 394.706 638.03 394.22C635.752 393.359 634.713 393.792 633.223 396.207Z" fill="#73BE5F"/>
<path d="M579.601 412.534C579.319 413.068 584.225 417.922 585.136 417.976C585.474 417.983 586.003 417.708 586.297 417.394C586.748 416.864 586.339 416.264 584.375 414.244C582.045 411.947 580.235 411.333 579.601 412.534Z" fill="#73BE5F"/>
<path d="M659.156 392.615C657.73 395.96 657.779 397.565 659.258 397.108C660.584 396.699 662.973 390.32 662.007 389.724C660.876 388.956 660.581 389.271 659.156 392.615Z" fill="#73BE5F"/>
<path d="M570.462 419.488C570.259 420.277 577.675 426.199 578.593 425.916C580.123 425.444 579.49 424.298 575.975 421.417C572.577 418.556 570.885 417.961 570.462 419.488Z" fill="#73BE5F"/>
<path d="M667.585 395.487C665.751 398.232 665.607 399.394 667.09 399.495C667.613 399.557 668.703 398.383 669.839 396.635C671.344 394.271 671.579 393.584 670.947 393.165C669.815 392.397 669.592 392.577 667.585 395.487Z" fill="#73BE5F"/>
<path d="M606.714 429.414C605.425 431.934 604.191 434.996 603.977 436.292L603.52 438.611L602.965 436.995C602.052 434.037 599.831 430.645 598.527 430.042C596.772 429.243 593.421 430.333 592.438 432.033C591.999 432.783 591.509 434.274 591.299 435.401C590.928 437.638 591.488 445.062 592.228 447.459C592.48 448.275 592.481 449.001 592.175 449.095C591.92 449.174 591.57 448.947 591.46 448.59C591.35 448.233 590.387 447.468 589.335 446.955C585.695 445.118 581.913 447.347 581.227 451.637C580.754 454.631 581.9 458.523 586.105 468.341C590.278 478.057 593.554 488.665 593.9 493.586C594.214 497.679 593.064 506.077 590.98 514.709C590.01 518.806 589.921 519.783 590.659 520.003C591.146 520.132 591.687 520.076 591.978 519.931C592.562 519.471 595.08 508.807 595.973 502.833C597.124 495.16 596.68 490.829 593.909 481.853C592.602 477.62 590.182 471.049 588.561 467.248C586.94 463.447 585.138 458.696 584.489 456.774C582.914 451.674 583.634 448.938 586.593 448.751C588.3 448.671 590.116 450.569 591.807 454.236C593.691 458.347 595.569 460.449 596.832 459.835C597.805 459.368 597.746 458.995 596.036 452.372C594.157 445.02 593.339 438.57 593.904 435.155C594.142 433.573 594.562 432.941 595.755 432.461C598.277 431.403 599.17 433.027 601.577 442.451C604.693 454.895 604.567 454.487 605.74 454.125C606.607 453.858 606.689 453.218 606.14 449.812C605.303 444.205 605.589 439.704 607.115 434.876C608.79 429.443 610.577 426.546 612.375 426.214C614.596 425.808 615.01 427.691 614.382 436.152C613.685 446.925 613.546 453.168 614.009 453.584C614.936 454.415 615.905 453.39 616.24 451.22C616.779 448.26 619.687 443.564 621.829 442.177C624.296 440.578 628.067 439.581 630.544 439.822C635.144 440.246 640.423 444.314 641.699 448.445C642.392 450.689 642.013 453.264 640.891 453.61C640.585 453.704 638.912 452.992 637.161 452.024C630.956 448.577 624.204 450.773 621.615 457.046C619.117 463.068 621.902 469.917 628.11 473.196C631.047 474.747 633.689 475.16 638.509 474.846C642.838 474.571 644.329 475.06 644.912 476.947C645.762 479.701 642.59 482.636 636.289 485.027C632.832 486.318 631.137 486.617 627.809 486.695C620.764 486.859 621.16 486.513 620.499 493.42C619.52 504 619.275 519.493 620.076 519.916C621.545 520.692 622.018 519.149 622.169 512.4C622.28 505.159 622.789 495.953 623.221 491.742L623.478 489.316L627.501 489.136C630.696 488.988 632.748 488.578 636.919 487.067C645.531 484.018 648.77 480.393 647.242 475.446C646.581 473.304 644.492 472.329 641.093 472.54C633.079 473.003 629.067 471.951 626.069 468.575C621.704 463.666 622.647 456.225 628.013 453.339C630.355 452.058 633.166 452.475 636.362 454.505C638.876 456.131 639.48 456.28 641.164 455.76C642.694 455.288 643.4 454.679 644.195 453.093C645.234 451.208 645.32 451.126 645.635 452.146C645.824 452.758 646.849 453.726 647.917 454.29C650.654 455.736 652.867 454.941 655.321 451.67C659.567 446.058 661.579 445.158 664.36 447.651C667.656 450.544 667.929 457.219 664.919 461.946C663.344 464.443 659.767 467.335 657.318 468.091C654.972 468.815 651.348 471.553 650.553 473.139C648.66 476.963 651.164 480.548 656.11 481.367C658.618 481.71 659.737 481.533 664.598 480.088C669.24 478.655 670.657 477.995 672.908 476.238C677.532 472.577 677.21 472.62 680.624 475.533C687.301 481.236 693.451 488.667 697.197 495.554C698.562 497.982 699.057 498.5 699.822 498.263C701.301 497.807 700.907 496.532 697.763 491.414C693.152 483.899 684.579 474.591 678.735 470.865L676.972 469.677L674.541 471.936C671.47 474.839 667.771 477.154 664.71 478.098C656.957 480.491 650.573 478.272 653.116 474.024C654.327 471.974 654.602 471.778 658.698 469.843C660.797 468.86 663.225 467.497 664.068 466.789C671.174 460.853 671.555 448.335 664.691 444.923C662.72 443.968 659.73 444.053 657.862 445.244C657.195 445.617 655.619 447.388 654.33 449.183C651.872 452.623 650.554 453.421 649.022 452.441C645.511 450.117 648.062 441.007 653.697 435.916C658.936 431.171 664.185 432.064 672.1 439.062C673.938 440.673 675.156 441.358 675.819 441.154C676.329 440.996 676.709 440.6 676.615 440.294C676.52 439.988 671.987 435.075 666.557 429.433C656.342 418.788 655.788 417.898 657.765 416.338C660.961 413.844 673.371 421.464 678.771 429.182C679.915 430.896 681.63 431.204 682.033 429.795C682.108 429.493 679.243 425.462 675.647 420.874C672.102 416.27 669.021 412.082 668.848 411.521C668.077 409.022 671.786 409.274 676.722 412.051C680.574 414.214 683.517 417.048 685.946 420.935C687.967 424.221 688.831 424.848 689.536 423.514C689.943 422.662 689.459 421.638 686.091 415.975C682.769 410.464 682.222 409.236 682.61 408.502C683.386 407.034 684.894 407.574 687.369 410.162C690.539 413.373 693.593 418.016 696.389 423.633C698.878 428.618 700.189 433.408 701.981 443.916C703.938 455.321 706.605 461.425 712.345 467.529C716.667 472.117 724.593 478.608 725.562 478.309C727.144 477.821 726.298 476.35 722.732 473.485C710.736 463.948 707.01 457.669 704.504 442.858C703.343 435.842 700.343 425.764 698.114 421.257C694.803 414.515 688.775 406.935 685.795 405.788C682.63 404.586 679.135 406.838 679.97 409.541C680.348 410.765 680.23 410.745 676.837 409.167C671.607 406.703 667.596 407.103 666.276 410.248C665.865 411.269 666.357 412.681 668.2 415.575C668.853 416.603 668.617 416.564 666.045 415.291C663.206 413.877 659.693 413.174 658.01 413.693C656.53 414.15 654.366 416.549 654.183 417.947C653.957 419.748 654.774 420.948 659.956 426.331C662.282 428.797 664.078 430.813 663.976 430.844C663.874 430.876 662.794 430.818 661.581 430.689C655.128 430.056 647.983 436.227 645.502 444.478L644.461 447.983L643.494 445.936C641.477 441.755 635.805 437.863 631.303 437.577C626.515 437.267 621.563 438.963 618.438 442.051C617.504 443.009 616.732 443.583 616.669 443.379C616.606 443.175 616.834 439.753 617.109 435.758C617.435 431.747 617.423 427.728 617.124 426.759C616.353 424.26 614.162 423.317 611.305 424.198C609.214 424.844 608.869 425.174 606.714 429.414Z" fill="#73BE5F"/>
<defs>
<clipPath id="clip0_356_4341">
<rect width="455" height="423.92" fill="white" transform="translate(741 49.9905)"/>
</clipPath>
</defs>
</svg>
