<svg width="173" height="162" viewBox="0 0 173 162" fill="none" xmlns="http://www.w3.org/2000/svg">
<path d="M33.2946 32.544C33.2675 32.9992 34.1172 35.0273 35.2729 36.9608C36.8966 39.8671 37.4741 40.4709 38.2392 40.2347C38.7493 40.0773 39.2474 39.7001 39.3375 39.4489C39.5213 38.7777 35.8457 32.4828 34.9816 31.8557C34.0155 31.2601 33.3682 31.5158 33.2946 32.544Z" fill="#73BE5F"/>
<path d="M92.2021 22.2943C91.7269 26.1836 92.4858 27.7368 93.9442 25.9461C94.4814 25.3334 95.1555 20.0979 94.8406 19.0779C94.7146 18.6699 94.1611 18.5056 93.6 18.6788C92.8348 18.915 92.4589 19.8689 92.2021 22.2943Z" fill="#73BE5F"/>
<path d="M76.2235 26.2766C75.5063 27.3917 74.7942 29.79 74.6034 31.5247C74.4127 33.2593 74.1433 34.739 73.9903 34.7862C73.8372 34.8335 73.0242 34.1907 72.1481 33.3439C68.6792 29.8899 64.1223 29.7882 62.834 33.0346C61.4557 36.5324 65.7606 44.1412 71.605 48.5937C74.7274 50.9257 77.091 51.7044 79.3354 51.0116C83.2121 49.8151 85.6905 34.8617 83.3322 27.043C82.8126 25.36 82.3528 24.7758 81.0297 24.2904C78.7524 23.4292 77.7127 23.8618 76.2235 26.2766Z" fill="#73BE5F"/>
<path d="M22.6009 42.604C22.3188 43.1379 27.2255 47.9915 28.1361 48.0456C28.4737 48.0531 29.0033 47.7779 29.2973 47.4637C29.7482 46.9336 29.3395 46.3335 27.3751 44.3144C25.0455 42.017 23.2356 41.4026 22.6009 42.604Z" fill="#73BE5F"/>
<path d="M102.156 22.6853C100.73 26.03 100.779 27.6349 102.258 27.1783C103.584 26.769 105.973 20.39 105.007 19.7944C103.876 19.0263 103.582 19.3405 102.156 22.6853Z" fill="#73BE5F"/>
<path d="M13.4623 49.5579C13.2589 50.3469 20.6746 56.2694 21.5928 55.986C23.1231 55.5137 22.4901 54.3684 18.9746 51.4874C15.5769 48.6259 13.8847 48.031 13.4623 49.5579Z" fill="#73BE5F"/>
<path d="M110.585 25.5573C108.751 28.3024 108.607 29.4642 110.091 29.565C110.613 29.6273 111.703 28.4528 112.839 26.7053C114.344 24.3412 114.579 23.6542 113.947 23.2348C112.815 22.4665 112.592 22.6473 110.585 25.5573Z" fill="#73BE5F"/>
<path d="M49.714 59.4839C48.4251 62.0044 47.1916 65.0664 46.9769 66.3616L46.5199 68.6812L45.9649 67.065C45.0516 64.107 42.8309 60.7147 41.5273 60.1116C39.7721 59.3127 36.4212 60.4028 35.4377 62.1028C34.9988 62.8528 34.5095 64.3444 34.2986 65.4708C33.9278 67.7079 34.4881 75.1319 35.2283 77.5289C35.4802 78.3449 35.4809 79.0709 35.1748 79.1654C34.9198 79.2441 34.5703 79.0168 34.46 78.6598C34.3498 78.3028 33.3875 77.5385 32.3351 77.0254C28.695 75.1883 24.9135 77.4169 24.2267 81.7066C23.7546 84.7012 24.9003 88.5929 29.1052 98.4112C33.2785 108.127 36.5539 118.735 36.8999 123.656C37.2138 127.749 36.0638 136.147 33.9798 144.779C33.0102 148.876 32.9209 149.853 33.6589 150.073C34.1458 150.202 34.6873 150.146 34.9776 150.001C35.562 149.541 38.0798 138.877 38.973 132.903C40.1237 125.23 39.6801 120.899 36.9087 111.923C35.6017 107.69 33.1817 101.119 31.5611 97.318C29.9406 93.517 28.1385 88.7665 27.4891 86.8442C25.9144 81.7443 26.6341 79.0085 29.5933 78.8213C31.3006 78.7412 33.1156 80.6388 34.8067 84.3064C36.6906 88.4171 38.5686 90.5187 39.8319 89.9054C40.8048 89.4375 40.7456 89.0648 39.0361 82.4424C37.157 75.0902 36.3386 68.6397 36.9045 65.2251C37.1425 63.6434 37.5619 63.0113 38.7546 62.5314C41.2773 61.4735 42.1698 63.0972 44.5767 72.5209C47.6928 84.9654 47.5668 84.5574 48.7401 84.1953C49.6072 83.9277 49.689 83.288 49.1403 79.8823C48.303 74.2754 48.5893 69.7741 50.1155 64.946C51.7903 59.5134 53.5774 56.6157 55.3747 56.2844C57.5958 55.8782 58.0097 57.7614 57.3817 66.2225C56.6852 76.9949 56.5458 83.2384 57.0093 83.654C57.9364 84.485 58.9049 83.4599 59.2404 81.2895C59.7793 78.3302 62.6872 73.6342 64.8289 72.247C67.2962 70.6476 71.0671 69.6512 73.544 69.8922C78.1444 70.3157 83.4232 74.3841 84.6987 78.5151C85.3916 80.759 85.0133 83.3337 83.8911 83.68C83.585 83.7745 81.9123 83.0618 80.1609 82.0942C73.9564 78.6467 67.2036 80.8426 64.6151 87.1159C62.1166 93.1379 64.9018 99.9869 71.1101 103.266C74.0474 104.817 76.6892 105.23 81.5087 104.916C85.8377 104.641 87.3296 105.13 87.9122 107.017C88.7626 109.771 85.59 112.706 79.2889 115.097C75.8322 116.388 74.1369 116.687 70.8087 116.765C63.7636 116.929 64.1597 116.583 63.4989 123.49C62.5196 134.07 62.275 149.563 63.0761 149.986C64.5447 150.762 65.0182 149.219 65.1689 142.47C65.2799 135.229 65.7895 126.023 66.2212 121.812L66.478 119.386L70.5009 119.206C73.6956 119.058 75.748 118.648 79.9187 117.137C88.5311 114.088 91.7697 110.463 90.2422 105.516C89.5808 103.374 87.4919 102.399 84.0931 102.61C76.0789 103.073 72.0666 102.021 69.0688 98.6449C64.7037 93.7358 65.6466 86.2948 71.0132 83.4094C73.3552 82.128 76.1658 82.5453 79.3625 84.575C81.876 86.2012 82.4806 86.3498 84.1639 85.8302C85.6942 85.3579 86.4001 84.749 87.1954 83.1629C88.2337 81.2783 88.32 81.1958 88.6349 82.2158C88.8239 82.8278 89.8492 83.7961 90.9173 84.3602C93.6543 85.8057 95.8672 85.011 98.3211 81.7399C102.567 76.1283 104.579 75.2278 107.36 77.721C110.656 80.6139 110.929 87.2887 107.919 92.0162C106.344 94.5134 102.767 97.4049 100.318 98.1606C97.9721 98.8849 94.348 101.623 93.5527 103.209C91.6605 107.033 94.164 110.618 99.1102 111.437C101.618 111.78 102.737 111.603 107.599 110.158C112.24 108.725 113.657 108.065 115.908 106.308C120.532 102.647 120.21 102.69 123.624 105.603C130.301 111.306 136.451 118.737 140.198 125.624C141.562 128.052 142.057 128.57 142.822 128.333C144.301 127.877 143.907 126.602 140.763 121.484C136.152 113.969 127.579 104.661 121.735 100.935L119.972 99.7474L117.541 102.006C114.47 104.909 110.771 107.224 107.711 108.168C99.9571 110.561 93.5732 108.342 96.1165 104.094C97.3274 102.044 97.6019 101.848 101.698 99.9135C103.797 98.9305 106.225 97.5665 107.068 96.8594C114.175 90.9234 114.555 78.4049 107.691 74.9934C105.72 74.0377 102.73 74.1229 100.862 75.3136C100.196 75.6871 98.6194 77.4583 97.3298 79.2529C94.872 82.6927 93.554 83.4905 92.0224 82.5109C88.5114 80.1871 91.0619 71.0768 96.6973 65.9858C101.937 61.2406 107.185 62.1343 115.1 69.1316C116.939 70.7428 118.156 71.4284 118.819 71.2237C119.329 71.0662 119.709 70.6695 119.615 70.3635C119.521 70.0576 114.987 65.1448 109.557 59.5029C99.3425 48.8583 98.7882 47.968 100.765 46.4083C103.961 43.9135 116.371 51.5345 121.771 59.2522C122.915 60.966 124.63 61.2744 125.033 59.8653C125.108 59.5631 122.243 55.5317 118.647 50.9437C115.103 46.3401 112.022 42.1519 111.848 41.5909C111.077 39.0919 114.786 39.3436 119.722 42.1212C123.575 44.2838 126.517 47.1182 128.946 51.0048C130.967 54.2914 131.831 54.9185 132.536 53.5836C132.943 52.7317 132.46 51.7079 129.091 46.0445C125.769 40.5342 125.222 39.3064 125.61 38.5722C126.386 37.1039 127.894 37.644 130.369 40.2317C133.539 43.4426 136.593 48.086 139.389 53.7028C141.878 58.6881 143.189 63.4783 144.981 73.9856C146.938 85.3913 149.605 91.4948 155.345 97.5994C159.667 102.187 167.593 108.678 168.563 108.379C170.144 107.891 169.299 106.42 165.732 103.555C153.737 94.0181 150.01 87.739 147.504 72.9276C146.343 65.9123 143.343 55.8339 141.114 51.3271C137.803 44.5845 131.775 37.0047 128.795 35.8577C125.63 34.6559 122.135 36.9077 122.97 39.6107C123.348 40.8347 123.23 40.8151 119.837 39.2368C114.607 36.7734 110.596 37.1735 109.276 40.3179C108.865 41.3386 109.357 42.7509 111.201 45.6452C111.853 46.6727 111.618 46.6337 109.046 45.3607C106.207 43.9467 102.693 43.2436 101.01 43.7632C99.5305 44.2198 97.3662 46.6194 97.183 48.0166C96.957 49.818 97.7745 51.0181 102.956 56.4011C105.282 58.8673 107.078 60.8826 106.976 60.9141C106.874 60.9456 105.794 60.8877 104.582 60.7594C98.1284 60.1257 90.9829 66.2972 88.5022 74.5481L87.4614 78.0534L86.494 76.0059C84.4766 71.8246 78.8055 67.9331 74.3033 67.6469C69.5146 67.3374 64.563 69.0333 61.4377 72.1206C60.5045 73.079 59.7318 73.6526 59.6688 73.4487C59.6058 73.2447 59.8342 69.8226 60.1092 65.8275C60.4351 61.8167 60.4235 57.7984 60.1244 56.8294C59.3528 54.3304 57.1618 53.3867 54.3053 54.2684C52.2139 54.9139 51.8688 55.2438 49.714 59.4839Z" fill="#73BE5F"/>
</svg>
