<svg width="455" height="424" viewBox="0 0 455 424" fill="none" xmlns="http://www.w3.org/2000/svg">
<path d="M212.125 423.92C329.279 423.92 424.25 329.022 424.25 211.96C424.25 94.8977 329.279 0 212.125 0C94.9717 0 0 94.8977 0 211.96C0 329.022 94.9717 423.92 212.125 423.92Z" fill="#73BE5F"/>
<g style="mix-blend-mode:plus-lighter" opacity="0.25">
<path d="M367.146 67.2894C361.941 74.7795 355.961 81.7439 349.299 88.0324C314.44 120.914 270.177 133.421 240.945 148.244C206.709 165.624 193.359 177.424 167.564 215.703C134.502 264.751 93.2648 260.1 65.56 247.935C43.3729 238.199 23.8283 211.323 5.81104 162.502C28.0999 69.2976 112.017 0 212.125 0C273.302 0 328.44 25.8882 367.146 67.2894Z" fill="#73BE5F"/>
</g>
<g style="mix-blend-mode:plus-darker" opacity="0.25">
<path d="M422.51 239.19C409.133 343.39 320.04 423.92 212.125 423.92C143.072 423.92 81.7253 390.939 42.99 339.884C50.8665 337.961 58.5442 336.323 65.8147 334.853C113.699 325.202 156.888 303.355 155.571 199.468C154.243 95.566 245.937 51.7303 303.252 69.2685C375.6 91.4116 361.869 158.701 383.04 194.199C394.706 213.799 408.197 227.986 422.51 239.19Z" fill="#73BE5F"/>
</g>
<path d="M419.576 312.419C415.14 309.178 406.073 311.368 399.38 313.706C398.381 312.301 397.169 310.854 395.702 309.442C410.119 300.162 430.03 280.373 419.477 278.697C410.303 277.241 397.923 295.053 391.307 305.898C384.436 301.279 373.908 297.885 357.832 299.062C316.115 302.119 283.525 275.231 259.503 284.198C240.402 291.33 222.899 295.324 206.016 293.958C206.743 281.635 206.901 257.44 197.216 254.931C187.385 252.382 197.029 279.86 202.387 293.58C201.129 293.42 199.875 293.229 198.622 293.004C195.15 286.165 189.431 277.217 183.153 276.912C177.24 276.623 184.537 284.668 191.72 291.485C171.075 287.154 146.587 303.921 146.18 323.749H403.915C403.915 323.749 403.46 320.854 401.435 317.039C411.397 316.845 424.393 315.939 419.574 312.419H419.576Z" fill="#B5FFA6"/>
<path d="M202.404 308.425H134.475V323.751H202.404V308.425Z" fill="#4A75CB"/>
<path d="M181.458 308.425H113.53V323.754H181.458V308.425Z" fill="#699DEE"/>
<path d="M229.127 323.749H279.707V253.104H229.127V323.749Z" fill="#D86713"/>
<path d="M213.531 323.749H264.112V253.104H213.531V323.749Z" fill="#F1A34F"/>
<path d="M264.112 253.104L279.707 263.712V253.104H264.112Z" fill="#C95C12"/>
<path d="M107.973 268.753C107.973 268.753 98.5136 275.78 96.6687 275.354C94.8238 274.928 103.583 267.767 103.583 267.767C100.288 266.183 90.0431 267.176 90.0431 267.176C90.0431 267.176 86.6322 278.171 84.9473 277.304C83.2648 276.437 88.4649 267.723 88.4649 267.723C84.7945 267.503 80.2926 270.226 80.2926 270.226C74.1301 275.09 80.6975 282.745 80.6975 282.745C80.6975 282.745 79.432 286.529 75.541 289.976C75.541 289.976 69.9821 294.084 69.5967 301.422L70.6052 301.511C70.6052 301.511 72.2052 294.675 75.1095 291.444C75.2235 291.327 75.3859 291.158 75.5895 290.954C76.0623 290.516 76.3944 290.186 76.6174 289.942C78.0647 288.554 80.0623 286.783 81.0248 286.613C81.0248 286.613 80.9763 286.437 80.9836 286.129C80.9957 286.284 81.0102 286.444 81.0248 286.613C81.3545 290.482 88.8673 293.861 93.4905 294.556C98.1136 295.252 96.6832 293.352 95.0905 290.538C93.4977 287.723 88.4576 286.463 87.3085 285.167C86.1594 283.871 88.5352 283.869 91.3207 285.138C94.1062 286.41 94.4868 289.799 98.9548 291.935C103.423 294.074 110.145 286.667 110.145 286.667C106.584 286.485 101.5 282.621 101.685 281.439C101.869 280.257 110.315 283.479 111.76 283.634C113.205 283.789 116.49 281.994 116.996 276.183C117.505 270.371 107.971 268.751 107.971 268.751L107.973 268.753Z" fill="#82B378"/>
<path d="M57.7346 273.116C57.7346 273.116 68.1833 267.271 63.3056 259.335C63.3056 259.335 59.405 254.463 55.2255 253.211C55.2255 253.211 57.4534 265.042 55.2255 265.321C52.9976 265.599 53.6933 251.959 53.6933 251.959C53.6933 251.959 42.6895 246.668 38.3694 247.087C38.3694 247.087 45.1962 258.64 42.9659 258.361C40.7379 258.082 33.0748 246.39 33.0748 246.39C33.0748 246.39 21.7897 244.301 19.9812 250.982C18.1702 257.663 21.0964 261.004 22.7667 261.423C24.437 261.84 35.1645 261.701 34.8857 263.094C34.6069 264.487 27.3631 266.713 23.3243 265.461C23.3243 265.461 27.7825 276.459 33.6323 275.902C39.4822 275.344 41.2931 271.725 44.915 271.447C48.5369 271.168 51.1842 272.142 49.3733 273.118C47.5623 274.092 41.4337 273.438 38.5076 275.923C35.5815 278.409 33.2129 279.94 38.6458 281.054C44.0786 282.168 53.8291 281.471 55.7806 277.297L57.7298 273.121L57.7346 273.116Z" fill="#B5FFA6"/>
<path d="M60.5202 283.278C57.5941 277.849 57.7347 273.116 57.7347 273.116C54.3916 262.537 25.1377 253.071 25.1377 253.071C62.3311 268.104 55.7855 277.29 55.7855 277.29C56.7868 277.873 58.2898 280.659 59.3347 282.798C59.4826 283.162 59.7177 283.665 60.0668 284.349C60.2074 284.659 60.3214 284.911 60.399 285.087C62.3141 289.874 61.2984 298.144 61.2984 298.144L62.4596 298.457C65.0318 290.124 60.5202 283.278 60.5202 283.278Z" fill="#82B378"/>
<path d="M74.3556 265.054C74.3556 265.054 60.5832 257.348 67.01 246.889C67.01 246.889 72.1519 240.467 77.6599 238.815C77.6599 238.815 74.7217 254.41 77.6599 254.778C80.5981 255.144 79.6793 237.163 79.6793 237.163C79.6793 237.163 94.1863 230.191 99.8785 230.741C99.8785 230.741 90.8795 245.97 93.8178 245.602C96.756 245.236 106.856 229.823 106.856 229.823C106.856 229.823 121.729 227.071 124.117 235.879C126.504 244.687 122.647 249.091 120.444 249.64C118.24 250.19 104.102 250.006 104.468 251.842C104.836 253.676 114.383 256.612 119.709 254.962C119.709 254.962 113.833 269.458 106.121 268.724C98.4094 267.99 96.0215 263.22 91.248 262.852C86.4746 262.484 82.9836 263.77 85.3716 265.054C87.7595 266.338 95.8396 265.476 99.6943 268.751C103.551 272.026 106.671 274.044 99.51 275.512C92.3487 276.98 79.4951 276.062 76.9229 270.558L74.3532 265.054H74.3556Z" fill="#B5FFA6"/>
<path d="M117.326 238.633C117.326 238.633 78.7629 251.111 74.358 265.054C74.358 265.054 74.5422 271.292 70.6852 278.448C70.6852 278.448 64.7384 287.471 68.1275 298.457L69.6573 298.045C69.6573 298.045 68.3191 287.146 70.8452 280.836C70.947 280.604 71.0973 280.269 71.284 279.862C71.7446 278.961 72.0549 278.297 72.2513 277.818C73.6258 275.001 75.6065 271.328 76.9277 270.558C76.9277 270.558 68.2972 258.448 117.326 238.631V238.633Z" fill="#82B378"/>
<path d="M73.8925 322.276C88.7922 322.276 100.87 310.208 100.87 295.32H46.915C46.915 310.208 58.9928 322.276 73.8925 322.276Z" fill="#F1A34F"/>
<path d="M80.5302 322.07C79.432 322.206 78.3144 322.276 77.1774 322.276C62.2778 322.276 50.2024 310.208 50.2024 295.32H56.9031C56.9031 309.074 67.2112 320.42 80.5302 322.07Z" fill="#FFB973"/>
<path d="M97.9148 320.423H49.8703C48.0327 320.423 46.5417 321.913 46.5417 323.749H101.241C101.241 321.913 99.75 320.423 97.9124 320.423H97.9148Z" fill="#F1A34F"/>
<path d="M101.069 295.32H46.4399C46.2121 295.32 46.0254 295.504 46.0254 295.734C46.0254 295.964 46.2096 296.148 46.4399 296.148H101.069C101.297 296.148 101.483 295.964 101.483 295.734C101.483 295.504 101.299 295.32 101.069 295.32Z" fill="#D86713"/>
<path d="M309.242 153.369C308.459 153.25 306.105 155.428 306.105 155.428C301.075 156.01 293.717 157.344 291.07 157.853C289.191 158.214 284.143 156.494 279.212 154.52C273.348 152.17 267.649 149.459 267.649 149.459C264.395 149.295 260.698 155.227 267.297 158.999C268.306 159.575 272.09 160.556 276.449 161.455C282.463 162.693 289.567 163.769 291.984 163.391C294.793 162.952 302.743 160.045 307.472 157.819C307.472 157.819 307.477 157.819 307.485 157.814C307.501 157.807 307.518 157.797 307.538 157.79C307.821 157.657 308.98 157.143 309.751 157.187C310.636 157.24 312.612 155.62 312.67 155.186C312.731 154.755 310.02 153.488 309.24 153.369H309.242Z" fill="#ED975D"/>
<path d="M303.099 228.11L300.328 228.672C300.328 228.672 287.651 214.438 285.695 208.45C284.648 205.25 277.954 203.867 270.96 202.059C264.873 200.487 258.555 198.591 255.539 194.894C249.057 186.951 259.612 177.189 259.612 177.189C259.612 177.189 270.837 183.853 280.517 190.74C287.285 195.553 293.3 200.47 294.204 203.3C296.406 210.175 301.072 223.246 303.097 228.11H303.099Z" fill="#2B478B"/>
<path d="M299.392 232.807H300.951C301.472 232.725 301.858 232.574 302.393 232.504C303.206 232.398 303.581 232.73 303.654 232.807C303.664 232.817 303.669 232.824 303.669 232.824H310.287C310.454 232.587 310.294 232.037 310.137 231.63C310.032 231.354 309.802 231.145 309.516 231.063C308.813 230.859 307.431 230.678 306.163 229.532C305.45 228.888 302.721 227.165 302.721 227.165H302.706C302.646 227.165 302.362 227.25 301.118 228.299C300.476 228.839 299.383 227.536 299.383 227.536C299.383 227.536 299.176 227.705 299.024 228.023C298.9 228.272 298.81 228.616 298.881 229.038C298.98 229.634 298.66 230.741 298.406 231.489C298.25 231.942 298.122 232.264 298.122 232.264C298.122 232.264 298.047 232.637 299.387 232.805L299.392 232.807Z" fill="#233862"/>
<path d="M280.519 190.742L270.963 202.062C264.875 200.49 258.558 198.593 255.542 194.896C249.059 186.953 259.615 177.191 259.615 177.191C259.615 177.191 270.839 183.855 280.519 190.742Z" fill="#1E3D70"/>
<path d="M271.833 184.829C271.833 184.829 271.062 187.256 269.809 190.909C268.223 195.526 265.86 202.103 263.297 208.2C262.735 209.54 262.16 210.858 261.586 212.127C259.455 216.819 257.273 220.843 255.353 222.887C251.903 226.562 243.513 250.188 243.513 250.188L241.423 249.609C241.423 249.609 238.509 229.435 248.834 217.955C248.945 217.834 249.03 217.691 249.042 217.527C249.042 217.527 249.042 217.524 249.042 217.522C249.181 215.821 249.67 208.212 250.739 200.502C251.001 198.61 251.299 196.713 251.634 194.897C251.656 194.78 251.678 194.666 251.697 194.55C253.268 186.147 254.771 182.409 256.713 180.529L270.987 184.589L271.833 184.829Z" fill="#2B478B"/>
<path d="M241.188 253.09H242.746C243.268 253.007 243.653 252.857 244.189 252.787C245.001 252.68 245.377 253.012 245.45 253.09C245.459 253.099 245.464 253.104 245.464 253.104H252.085C252.252 252.867 252.092 252.317 251.934 251.912C251.828 251.636 251.6 251.428 251.314 251.346C250.611 251.142 249.229 250.96 247.961 249.815C247.248 249.17 244.519 247.448 244.519 247.448H244.504C244.443 247.448 244.16 247.533 242.916 248.582C242.274 249.122 241.18 247.819 241.18 247.819C241.18 247.819 240.974 247.988 240.822 248.306C240.698 248.555 240.608 248.899 240.679 249.321C240.778 249.916 240.458 251.023 240.203 251.772C240.048 252.225 239.92 252.547 239.92 252.547C239.92 252.547 239.845 252.92 241.185 253.09H241.188Z" fill="#233862"/>
<path d="M244.249 157.39C244.249 157.39 241.862 163.228 239.108 168.911C236.792 173.688 234.218 178.356 232.586 179.352C230.286 180.757 223.946 184.718 219.834 187.673C219.834 187.673 216.625 187.649 216.128 188.261C215.628 188.874 214.479 191.633 214.814 191.912C215.151 192.191 217.701 192.062 218.319 191.428C218.86 190.873 220.062 190.476 220.363 190.384C220.382 190.379 220.399 190.371 220.419 190.367C220.426 190.367 220.431 190.364 220.431 190.364C225.427 188.828 233.265 185.628 235.638 184.063C237.682 182.717 242.211 177.143 245.823 172.182C248.441 168.584 250.579 165.312 250.936 164.21C253.275 156.981 246.543 155.079 244.249 157.393V157.39Z" fill="#FFB27D"/>
<path d="M256.742 134.496C256.458 134.085 256.172 133.719 255.886 133.392C256.24 133.399 256.623 133.365 256.941 133.234C257.779 132.888 258.16 130.228 258.036 129.441C257.91 128.654 256.747 126.372 255.311 126.144C253.876 125.916 252.39 127.51 252.39 127.51C252.654 126.36 255.086 125.696 255.086 125.696C250.082 126.619 250.337 129.952 250.371 130.262C245.789 128.632 243.1 137.251 243.1 137.251L254.967 144.239C254.967 144.239 254.999 142.335 256.131 142.459C257.896 142.65 259.365 138.319 256.744 134.499L256.742 134.496Z" fill="#2C3A64"/>
<path d="M257.496 152.585C254.773 153.866 251.159 152.02 251.178 152.001C251.411 151.768 251.328 151.068 251.115 150.155C250.902 149.203 250.395 147.9 249.462 146.347C249.268 146.017 249.074 145.686 248.839 145.337L249.149 145.22L254.439 143.101C254.439 143.101 255.295 144.637 256.189 146.034C256.948 147.2 257.745 148.251 258.095 148.212C258.114 148.193 261.615 150.603 257.491 152.585H257.496Z" fill="#FFB27D"/>
<path d="M254.444 143.626C254.308 145.511 253.665 148.912 251.117 150.157C250.904 149.205 250.397 147.902 249.464 146.349L254.444 143.629V143.626Z" fill="#ED975D"/>
<path d="M249.154 148.493C249.154 148.493 256.041 145.78 254.284 141.521C252.526 137.263 252.233 134.043 247.762 135.594C243.292 137.146 243.113 139.121 243.353 140.686C243.593 142.25 247.316 149.089 249.154 148.493Z" fill="#FFB27D"/>
<path d="M251.724 140.55C254.904 140.102 255.833 138.818 255.833 138.818C255.833 138.818 252.904 137.977 251.183 135.112C251.183 135.112 247.61 133.908 244.96 135.921C244.8 136.129 244.683 136.376 244.625 136.667C244.019 136.468 243.105 136.519 242.579 138.234C241.789 140.809 244.603 143.621 244.603 143.621C245.287 143.428 244.516 141.134 244.41 139.908C244.329 139.007 244.817 137.851 245.079 137.306C245.416 137.742 248.771 141.955 252.865 142.124C252.865 142.124 250.701 141.373 248.732 139.908C249.711 140.39 250.754 140.688 251.724 140.552V140.55Z" fill="#2C3A64"/>
<path d="M270.609 161.361C270.55 161.155 270.487 160.942 270.422 160.724C271.445 158.771 271.947 157.01 272.16 155.52C272.628 152.371 271.831 150.428 271.831 150.428C271.831 150.428 267.052 147.897 264.943 147.575C264.933 147.572 264.926 147.568 264.916 147.568C264.892 147.565 264.863 147.563 264.832 147.56C262.703 147.267 258.092 148.207 258.092 148.207C258.092 148.207 258.982 150.574 256.473 152.148C253.964 153.725 251.285 151.744 251.285 151.744C251.205 151.797 251.117 151.858 251.03 151.921C251.03 151.921 244.429 156.274 243.837 157.267C243.246 158.262 240.705 163.185 240.705 163.185C240.705 163.185 241.51 167.32 250.426 167.664C251.159 169.439 251.721 171.174 251.903 172.618C252.611 178.23 251.789 182.656 252.616 185.931C253.44 189.206 268.32 187.339 271.014 186.709C273.707 186.079 273.101 183.203 273.309 180.41C273.571 176.9 271.486 164.454 270.609 161.358V161.361Z" fill="#699DEE"/>
<path d="M272.16 155.52C271.947 157.017 271.44 158.786 270.41 160.748C270.177 159.718 269.224 155.949 267.688 154.237C267.688 154.237 270.274 154.469 272.16 155.52Z" fill="#4A82D3"/>
<path d="M211.58 192.297C211.58 192.297 214.351 188.94 214.947 188.545C215.544 188.148 218.162 187.452 218.312 187.593C218.462 187.733 218.47 187.937 218.145 188.223C217.82 188.509 216.581 189.23 216.758 189.313C216.935 189.395 220.671 187.535 221.209 188.162C221.747 188.787 220.904 191.367 219.464 192.605C218.024 193.843 213.728 194.368 213.456 194.543C211.165 196.006 211.577 192.302 211.577 192.302L211.58 192.297Z" fill="#ED975D"/>
<path d="M162.779 184.546C162.779 184.546 166.762 189.267 171.831 187.293C171.831 187.293 172.922 184.657 172.937 182.712C172.937 182.472 172.941 182.242 172.944 182.022C172.97 179.832 173.046 178.606 173.046 178.606C173.046 178.606 173.046 178.606 173.041 178.606C172.811 178.509 165.288 175.425 165.295 175.68C165.424 181.598 162.776 184.548 162.776 184.548L162.779 184.546Z" fill="#FFB27D"/>
<path d="M166.052 177.089C166.777 178.434 169.266 181.06 172.946 182.022C172.973 179.832 173.048 178.606 173.048 178.606C173.048 178.606 173.048 178.606 173.043 178.606C172.835 178.55 165.836 176.695 166.052 177.092V177.089Z" fill="#ED975D"/>
<path d="M174.624 178.376C174.624 178.376 166.165 180.362 165.009 175.081C163.853 169.798 161.981 166.496 167.332 165.006C172.682 163.514 174.178 165.3 174.992 166.969C175.807 168.638 176.794 177.724 174.624 178.378V178.376Z" fill="#FFB27D"/>
<path d="M165.298 176.52C165.181 176.593 163.363 177.152 159.916 170.292C159.375 169.214 159.007 166.886 160.267 164.827C161.528 162.768 166.001 161.15 169.717 160.445C173.434 159.74 174.326 161.831 175.201 163.929C176.12 166.133 178.772 167.947 178.772 167.947C175.567 169.735 171.707 167.177 170.372 167.599C169.033 168.02 168.563 170.125 168.461 170.799C168.362 171.474 168.207 172.034 166.527 171.431C164.847 170.828 165.768 173.812 166.035 174.381C166.035 174.381 166.263 175.9 165.3 176.518L165.298 176.52Z" fill="#A9453D"/>
<path d="M143.506 308.425H138.383C137.309 308.425 136.117 307.337 135.818 305.344C135.52 303.35 133.312 302.262 132.834 300.63C132.356 298.997 134.803 296.7 134.803 296.7L135.212 296.168L135.639 295.613L139.697 296.579C139.697 296.579 139.797 297.558 139.86 298.803C139.903 299.702 139.928 300.743 139.877 301.654C139.758 303.83 140.478 306.172 142.386 306.596C144.296 307.02 143.506 308.422 143.506 308.422V308.425Z" fill="#2C3A64"/>
<path d="M179.162 308.476H165.586C165.455 308.449 165.358 308.42 165.298 308.388C164.391 307.921 164.675 304.35 164.784 303.248C164.805 303.045 164.82 302.924 164.82 302.924C164.82 302.924 169.593 298.994 170.25 302.003C170.272 302.098 170.294 302.19 170.321 302.279C171.15 305.094 174.854 306.373 176.995 306.729C178.629 307.003 179.053 307.982 179.162 308.473V308.476Z" fill="#2C3A64"/>
<path d="M176.425 230.024C176.425 230.024 175.7 239.062 174.847 249.929C173.688 264.688 172.297 282.818 172.158 286.253C171.921 292.217 170.963 301.756 170.963 301.756C170.963 301.756 168.696 304.023 164.161 303.066C164.161 303.066 160.119 289.448 158.963 275.039C158.946 274.804 158.927 274.565 158.91 274.327C157.836 259.659 156.165 228.771 156.165 228.771L176.423 230.024H176.425Z" fill="#EE9849"/>
<path d="M176.425 230.024C176.425 230.024 175.7 239.062 174.847 249.929L158.963 275.039C158.946 274.804 158.927 274.565 158.91 274.327C157.836 259.659 156.165 228.771 156.165 228.771L176.423 230.024H176.425Z" fill="#E58638"/>
<path d="M173.116 231.097C173.116 231.097 160.047 263.833 151.455 279.216C142.863 294.6 140.177 298.893 140.177 298.893C140.177 298.893 135.253 296.926 134.807 295.584C134.807 295.584 138.092 265.885 143.848 258.645C147.099 254.553 150.919 242.276 151.099 237.984C151.278 233.691 152.262 225.194 152.262 225.194L173.118 231.097H173.116Z" fill="#EE9849"/>
<path d="M143.193 225.646C143.193 225.646 142.854 229.735 142.606 230.363C142.359 230.99 140.706 232.935 140.514 232.909C140.323 232.88 140.209 232.727 140.306 232.332C140.403 231.937 140.972 230.712 140.793 230.743C140.611 230.775 138.723 234.222 137.969 234.028C137.215 233.834 136.48 231.383 136.926 229.653C137.375 227.921 140.417 225.203 140.534 224.925C141.518 222.56 143.196 225.649 143.196 225.649L143.193 225.646Z" fill="#ED975D"/>
<path d="M141.792 226.683C143.239 227.146 143.47 227.042 143.47 227.042C143.47 227.042 150.51 214.235 151.222 213.062C151.935 211.89 166.171 198.7 166.171 198.7L162.512 185.069C162.512 185.069 146.323 206.018 144.573 209.024C141.683 213.992 139.991 225.528 139.991 225.528C139.991 225.528 140.655 226.317 141.79 226.683H141.792Z" fill="#1E3D70"/>
<path d="M179.184 204.051C179.133 206.851 178.971 209.998 178.75 213.193C178.735 213.382 178.723 213.573 178.709 213.762C178.568 215.741 178.415 217.728 178.241 219.663C178.171 220.438 178.095 221.206 178.018 221.96L178.006 222.061C177.998 222.342 177.964 222.65 177.933 222.928C177.22 230.176 176.471 235.903 176.333 235.992C176.168 236.104 175.981 236.157 175.775 236.135C173.872 235.896 168.197 236.327 163.55 235.317C159.63 234.491 156.253 232.923 152.674 230.811C152.199 230.53 151.118 229.786 151.205 229.232C151.292 228.621 151.452 227.739 151.654 226.63C152.359 222.773 153.576 216.141 153.991 208.38C154.071 206.933 154.189 205.507 154.342 204.102C154.74 200.444 155.38 196.97 156.238 193.886C157.831 188.155 160.173 183.763 163.111 182.046C163.494 181.83 165.559 183.143 167.455 184.359C169.208 185.481 171.05 185.791 172.844 185.636L174.423 187.38C176.333 189.601 178.369 192.556 178.924 196.757C178.966 197.067 179.002 197.396 179.031 197.748C179.186 199.458 179.223 201.626 179.179 204.051H179.184Z" fill="#2A4E96"/>
<path d="M179.184 204.051C179.133 206.851 178.971 209.998 178.75 213.193C178.735 213.382 178.723 213.573 178.709 213.762C167.843 206.965 166.168 194.528 166.168 194.528C171.514 194.763 175.761 195.991 179.034 197.748C179.189 199.458 179.225 201.626 179.182 204.051H179.184Z" fill="#1E3D70"/>
<path d="M213.231 192.632C212.671 191.118 211.8 191.217 211.8 191.217C211.8 191.217 195.645 195.241 194.193 195.412C192.743 195.584 176.794 189.189 176.794 189.189C176.794 189.189 170.517 186.375 167.577 188.945C165.021 191.178 164.905 194.008 165.504 196.384C166.217 199.216 168.614 201.309 171.514 201.677C178.02 202.505 191.002 204.063 193.722 203.685C199.778 202.842 213.5 194.928 213.5 194.928C213.5 194.928 213.672 193.821 213.233 192.632H213.231Z" fill="#2A4E96"/>
<path d="M372.543 222.223C372.543 222.223 374.788 224.302 374.349 225.78C373.91 227.257 371.886 228.241 371.612 230.045C371.338 231.85 370.242 232.836 369.258 232.836H364.56C364.56 232.836 363.835 231.567 365.585 231.181C367.338 230.799 367.998 228.677 367.888 226.707C367.779 224.738 368.053 222.112 368.053 222.112L371.777 221.238L372.543 222.221V222.223Z" fill="#2C3A64"/>
<path d="M344.567 232.589C344.339 232.703 343.539 232.783 342.441 232.834H331.815C331.851 232.519 332.099 231.392 333.834 231.111C335.798 230.792 339.197 229.653 339.956 227.144C339.982 227.064 340.002 226.981 340.021 226.899C340.622 224.22 345.003 227.72 345.003 227.72C345.003 227.72 345.015 227.827 345.035 228.011C345.136 228.997 345.396 232.175 344.567 232.589Z" fill="#2C3A64"/>
<path d="M334.358 160.893C334.358 160.893 335.022 169.185 335.805 179.153C336.867 192.695 338.147 209.327 338.273 212.478C338.491 217.951 339.369 226.703 339.369 226.703C339.369 226.703 341.449 228.781 345.611 227.907C345.611 227.907 349.321 215.412 350.38 202.193C350.397 201.977 350.414 201.759 350.429 201.539C351.415 188.08 352.947 159.743 352.947 159.743L334.36 160.891L334.358 160.893Z" fill="#35488B"/>
<path d="M334.358 160.893C334.358 160.893 335.022 169.185 335.805 179.153L350.378 202.193C350.395 201.977 350.412 201.759 350.426 201.539C351.413 188.08 352.945 159.743 352.945 159.743L334.358 160.891V160.893Z" fill="#2C3A64"/>
<path d="M337.396 161.877C337.396 161.877 349.386 191.91 357.27 206.025C365.154 220.14 367.617 224.077 367.617 224.077C367.617 224.077 372.133 222.272 372.545 221.041C372.545 221.041 369.53 193.794 364.252 187.152C361.268 183.4 357.765 172.136 357.6 168.197C357.435 164.258 356.533 156.463 356.533 156.463L337.398 161.879L337.396 161.877Z" fill="#35488B"/>
<path d="M300.413 145.589C300.413 145.589 297.162 144.845 296.614 144.884C296.066 144.922 294.151 145.722 294.127 145.877C294.1 146.032 294.192 146.158 294.522 146.18C294.852 146.202 295.943 146.061 295.872 146.194C295.802 146.325 292.667 146.943 292.631 147.573C292.597 148.203 294.316 149.376 295.766 149.455C297.218 149.533 300.071 147.849 300.316 147.827C302.391 147.646 300.408 145.589 300.408 145.589H300.413Z" fill="#FFB27D"/>
<path d="M299.022 146.414C298.556 144.93 298.665 144.695 298.665 144.695C298.665 144.695 311.848 137.573 313.056 136.848C314.263 136.127 327.888 121.638 327.888 121.638L341.842 125.475C341.842 125.475 320.249 141.911 317.153 143.682C312.038 146.606 300.195 148.263 300.195 148.263C300.195 148.263 299.39 147.58 299.024 146.412L299.022 146.414Z" fill="#E58638"/>
<path d="M332.113 114.596C332.113 114.596 327.221 123.196 322.44 124.32C322.44 124.32 322.639 121.432 323.803 119.456C323.325 118.894 322.908 118.378 322.544 117.915C321.342 116.374 320.767 115.43 320.767 115.43L322.389 111.069L323.49 108.112C324.018 109.071 324.603 109.89 325.211 110.59C328.346 114.189 332.111 114.596 332.111 114.596H332.113Z" fill="#FFB27D"/>
<path d="M325.213 110.59C325.213 110.59 325.798 114.899 322.544 117.915C321.342 116.374 320.767 115.43 320.767 115.43L322.389 111.069C324.13 110.539 325.211 110.59 325.211 110.59H325.213Z" fill="#ED975D"/>
<path d="M319.48 116.064C319.48 116.064 326.789 113.218 324.944 108.695C323.099 104.175 322.801 100.762 318.057 102.39C313.313 104.018 313.114 106.108 313.364 107.768C313.611 109.427 317.531 116.689 319.48 116.064Z" fill="#FFB27D"/>
<path d="M357.238 158.732C354.288 162.969 332.244 168.628 332.506 165.697C332.605 164.575 332.741 162.596 332.503 159.915C332.448 159.287 332.37 158.621 332.268 157.916C331.708 154.064 330.377 149.111 327.41 143.377C327.187 142.948 326.957 142.514 326.717 142.076C325.495 139.855 324.455 137.507 323.66 135.213C322.132 130.802 321.517 126.582 322.288 123.823C322.29 123.809 322.295 123.799 322.3 123.784C326.908 121.655 328.692 113.397 328.692 113.397C328.692 113.397 344.414 116.217 353.221 137.159C353.221 137.159 359.803 155.048 357.238 158.735V158.732Z" fill="#EE9849"/>
<path d="M332.503 159.912C332.448 159.285 332.37 158.619 332.268 157.914C331.708 154.062 330.377 149.108 327.41 143.374C327.919 140.288 328.622 137.723 329.395 136.568C332.53 131.873 334.358 131.139 334.358 131.139C334.358 131.139 339.061 150.954 332.503 159.915V159.912Z" fill="#E58638"/>
<path d="M307.72 155.198C307.72 155.198 303.371 155.426 302.697 155.668C302.023 155.91 299.904 157.599 299.928 157.802C299.952 158.006 300.11 158.132 300.534 158.042C300.959 157.952 302.275 157.388 302.236 157.577C302.197 157.768 298.478 159.66 298.66 160.465C298.842 161.269 301.419 162.126 303.271 161.707C305.123 161.288 308.103 158.151 308.403 158.037C310.944 157.068 307.72 155.196 307.72 155.196V155.198Z" fill="#FFB27D"/>
<path d="M306.9 156.845C306.03 155.438 306.658 154.799 306.658 154.799C306.658 154.799 320.093 144.288 321.146 143.224C322.2 142.163 327.078 125.255 327.078 125.255C327.078 125.255 328.758 118.412 332.688 117.658C336.103 117.002 338.465 118.693 340.011 120.672C341.851 123.031 342.033 126.287 340.506 128.86C337.076 134.635 330.154 146.1 328.135 148.059C323.638 152.42 308.59 158.512 308.59 158.512C308.59 158.512 307.587 157.953 306.903 156.848L306.9 156.845Z" fill="#EE9849"/>
<path d="M325.994 100.299C326.045 100.198 326.193 100.091 326.557 99.9796C326.557 99.9796 326.217 99.8658 325.82 99.953C325.614 99.4515 325.117 98.6013 324.181 98.594C324.181 98.594 324.717 98.7345 324.915 99.2698C323.633 98.4583 321.257 98.2209 315.325 100.198C307.507 102.799 311.412 107.336 312.598 107.7C313.783 108.063 315.965 105.73 317.926 105.411C319.887 105.093 320.949 107.823 321.698 108.049C322.447 108.276 322.021 107.654 322.804 107.031C323.587 106.409 324.038 107.874 324.021 108.901C324.004 109.931 325.531 110.905 325.531 110.905L326.426 109.262C327.32 107.62 327.078 101.661 326.222 100.588C326.147 100.493 326.072 100.396 325.994 100.299Z" fill="#2B478B"/>
<path d="M454.21 325.328H13.147C12.7131 325.328 12.3567 324.972 12.3567 324.539C12.3567 324.105 12.7131 323.749 13.147 323.749H454.212C454.646 323.749 455.003 324.105 455.003 324.539C455.003 324.972 454.646 325.328 454.212 325.328H454.21Z" fill="#2E3552"/>
<path d="M202.404 308.253V317.094L181.458 308.253H202.404Z" fill="#4271BC"/>
<path d="M381.661 232.834H312.389V323.746H381.661V232.834Z" fill="#4A75CB"/>
<path d="M360.3 232.836H291.029V323.749H360.3V232.836Z" fill="#699DEE"/>
<path d="M381.658 232.836V246.431L360.3 232.836H381.658Z" fill="#4271BC"/>
</svg>
